<?xml version="1.0" encoding="UTF-8"?><svg viewBox="0 0 512 512" xmlns="http://www.w3.org/2000/svg" xmlns:xlink="http://www.w3.org/1999/xlink"><style>:root>svg{display:none}:root>svg:target{display:block}</style><svg viewBox="0 0 60.52 60.52" id="besocial_day_icon" xmlns="http://www.w3.org/2000/svg"><defs><style>.acls-1{fill:#fff}</style></defs><g id="aШар_2" data-name="Шар 2"><circle class="acls-1" cx="30.26" cy="30.26" r="30.26" id="aBlock_3" data-name="Block 3"/></g></svg><svg class="bschedule__svg" style="height:40px;width:40px" viewBox="0 0 60.52 60.52" id="circle" xmlns="http://www.w3.org/2000/svg"><circle fill="#fff" cx="30.26" cy="30.26" r="30.26"/></svg><svg viewBox="0 0 16.36 20.61" id="geo" xmlns="http://www.w3.org/2000/svg"><defs><style>.ccls-1{fill:#ffb71b}</style></defs><g id="cШар_2" data-name="Шар 2"><path class="ccls-1" d="M7.85 0a8.18 8.18 0 00-.77 16.28v3.17a1.14 1.14 0 102.28 0v-3.17A8.18 8.18 0 007.85 0zm3.78 10.76a3.6 3.6 0 01-6.9 0 .81.81 0 01.78-1h5.35a.81.81 0 01.77 1.01z" id="cBlock_7" data-name="Block 7"/></g></svg><svg class="dschedule__svg" viewBox="0 0 40 61" id="month" xmlns="http://www.w3.org/2000/svg"><path d="M9.84.34A29.907 29.907 0 000 1.992 30.17 30.17 0 0120.324 30.5 30.176 30.176 0 010 59.016a30.16 30.16 0 0037.453-40.614A30.156 30.156 0 009.84.34zm0 0" fill="#fff"/></svg><svg class="eschedule__svg" viewBox="0 0 40 26" id="sunset" xmlns="http://www.w3.org/2000/svg"><g fill="#fff"><path d="M34.79 14.598C34.79 6.535 28.167 0 20 0S5.21 6.535 5.21 14.598zm0 0M.95 16.473h38.1c.5 0 .903.398.903.894 0 .492-.402.89-.902.89H.949a.895.895 0 01-.902-.89c0-.496.402-.894.902-.894zm0 0M6.723 20.34h26.554c.5 0 .907.402.907.894 0 .493-.407.891-.907.891H6.723a.899.899 0 01-.907-.89c0-.493.407-.895.907-.895zm0 0M12.27 24.21h15.46c.5 0 .907.4.907.892a.902.902 0 01-.907.894H12.27a.902.902 0 01-.907-.894c0-.493.407-.891.907-.891zm0 0"/></g></svg><svg id="telegram" x="0" y="0" viewBox="0 0 512 512" xml:space="preserve" xmlns="http://www.w3.org/2000/svg"><style>.fst0{fill:#ffb71b}</style><path class="fst0" d="M256 512c141.4 0 256-114.6 256-256S397.4 0 256 0 0 114.6 0 256s114.6 256 256 256zM117.1 250.5L364 155.3c11.5-4.1 21.5 2.8 17.7 20.1l-42 198c-3.1 14-11.5 17.5-23.1 10.8l-64-47.2-30.9 29.7c-3.4 3.4-6.3 6.3-12.9 6.3l4.5-65.1L332 200.8c5.2-4.5-1.2-7.1-8-2.6l-146.6 92.3-63.2-19.7c-13.7-4.4-14-13.7 2.9-20.3z"/></svg></svg>