<?xml version="1.0" encoding="UTF-8"?> <svg xmlns="http://www.w3.org/2000/svg" xmlns:xlink="http://www.w3.org/1999/xlink" id="Шар_1" data-name="Шар 1" viewBox="0 0 220 220"> <defs> <style>.cls-1{fill:none;}.cls-2{clip-path:url(#clip-path);}.cls-3{fill:#481d77;}.cls-4{fill:#60269e;}.cls-5{fill:#471a77;}.cls-6{fill:#a27bc5;}.cls-7{fill:#101820;}.cls-8,.cls-9{fill:#444a50;}.cls-8{opacity:0.26;isolation:isolate;}.cls-10{clip-path:url(#clip-path-2);}</style> <clipPath id="clip-path"> <path class="cls-1" d="M0,0H220a0,0,0,0,1,0,0V212a8,8,0,0,1-8,8H8a8,8,0,0,1-8-8V0A0,0,0,0,1,0,0Z"></path> </clipPath> <clipPath id="clip-path-2"> <path class="cls-1" d="M220,0H440a0,0,0,0,1,0,0V212a8,8,0,0,1-8,8H228a8,8,0,0,1-8-8V0A0,0,0,0,1,220,0Z"></path> </clipPath> </defs> <title>b2</title> <g class="cls-2"> <path class="cls-3" d="M50.86,200.42H48.18v1.72a21,21,0,0,0,3.2-1.69h-.52Z"></path> <path class="cls-3" d="M212.78,193.28v10.77H208.1v11.7c2.74-1.18,5-2.48,6-.75,1.12,1.94,2.8,4.26,3.34,5H220V193.28Z"></path> <path class="cls-3" d="M12.85,212.12,13,220h.64v-7.89Z"></path> <path class="cls-3" d="M181.46,211.51c4.81.19,6.18,5.37,9.46,3.12.66-.46,1.3-1,1.93-1.46V208h-6.23V197.25H158.47v0H128.61v3.22H72.13v0H67.47a9.3,9.3,0,0,1,1.92,2.82c3.27,7.12-3.38,8.5-3.86,8.59.32-.06,7.88-1.44,8.64,1.4s-5.1,5.8-5.1,5.8-1.32.4-3.29,1H176C176.45,215.54,177.21,211.35,181.46,211.51Z"></path> <path class="cls-3" d="M0,208.48V220H11.2l.29-7.9A23.11,23.11,0,0,1,0,208.48Z"></path> <polygon class="cls-4" points="28.09 73.29 17.13 73.29 17.13 136.22 28.09 129.21 28.09 73.29"></polygon> <polygon class="cls-4" points="12 149.48 13.16 149.48 13.16 51.91 0 51.91 0 118.7 12 118.7 12 149.48"></polygon> <path class="cls-5" d="M1.52,168.06a53.83,53.83,0,0,1,4.66-5.53H4.75V150.42H8.43v9.92a13.87,13.87,0,0,1,1.35-1v-3.87H12V118.7H0v51.56c.48-.73,1-1.46,1.51-2.19Zm3.23-40.63H8.43v12.11H4.75Z"></path> <path class="cls-5" d="M13.67,158.37v-2.93H9.78v3.87A4.87,4.87,0,0,1,13.67,158.37Z"></path> <rect class="cls-6" x="4.75" y="127.43" width="3.68" height="12.11"></rect> <path class="cls-6" d="M8.43,160.34v-9.92H4.75v12.11H6.18c.29-.31.58-.61.88-.91C7.54,161.14,8,160.72,8.43,160.34Z"></path> <rect class="cls-4" x="97.86" y="52.05" width="3.97" height="12.7"></rect> <rect class="cls-4" x="107.42" y="52.05" width="3.97" height="12.7"></rect> <polygon class="cls-4" points="105.17 64.75 107.42 64.75 107.42 52.05 107.42 36.98 105.17 36.98 105.17 64.75"></polygon> <polygon class="cls-4" points="104.09 64.75 104.09 36.98 101.84 36.98 101.84 52.05 101.84 64.75 104.09 64.75"></polygon> <polygon class="cls-4" points="104.09 64.75 105.17 64.75 105.17 36.98 105.17 17.7 104.09 17.7 104.09 36.98 104.09 64.75"></polygon> <polygon class="cls-4" points="190.84 159.68 190.84 98.13 177.7 98.13 177.7 197.25 186.62 197.25 186.62 159.68 190.84 159.68"></polygon> <polygon class="cls-4" points="177.7 82.96 161.51 82.96 161.51 197.23 158.47 197.23 158.47 197.25 173.65 197.25 177.7 197.25 177.7 98.13 177.7 82.96"></polygon> <polygon class="cls-4" points="161.51 82.96 161.51 13.75 122.08 33.66 122.08 64.75 125.6 64.75 125.6 133.63 128.61 133.63 128.61 197.23 158.47 197.23 161.51 197.23 161.51 82.96"></polygon> <polygon class="cls-4" points="100.73 104.31 100.73 133.63 125.6 133.63 125.6 64.75 122.08 64.75 111.4 64.75 107.42 64.75 105.17 64.75 104.09 64.75 101.84 64.75 97.86 64.75 83.63 64.75 83.63 95.17 100.73 104.31"></polygon> <path class="cls-4" d="M72.13,122.41H68.48v7.66a6.41,6.41,0,0,1,3.65-1.58Z"></path> <path class="cls-4" d="M48.18,200.42H30.81c-1.68,6-6,9.18-10.95,10.66h0c-.47.14-.94.26-1.42.37l-.13,0q-.69.16-1.38.27l-.16,0c-.46.07-.92.14-1.38.19h-.11c-.47,0-.94.09-1.4.11h-.19V220H48.16l0-17.86Z"></path> <path class="cls-4" d="M18.48,161.64c3.58,3.59,8.47,11.26,11.14,20.65V131.05h7v0L31,127.38l-2.87,1.83-11,7-3.46,2.22v19.93C15.09,158.7,16.6,159.76,18.48,161.64Z"></path> <path class="cls-7" d="M60.4,157.83v-11H72.13V128.49a6.41,6.41,0,0,0-3.65,1.58,7.67,7.67,0,0,0-2.28,6c-3.44-1.61-7.49,1.16-5.24,8.73a7.38,7.38,0,0,0-7.52-.13v13.21Z"></path> <path class="cls-5" d="M50.86,157.83h2.58V131.05h-7V136h3.23v11.22H46.43v10.13h3.23v11.22H46.43v13.27h-9.8V168.57H35.07V157.35h1.56V147.22H35.07V136h1.56v-4.95h-7v51.24a49.35,49.35,0,0,1,1.88,10.83,22.06,22.06,0,0,1-.69,7.3H50.86Z"></path> <polygon class="cls-5" points="36.63 136 39.24 136 39.24 147.22 36.63 147.22 36.63 157.35 39.24 157.35 39.24 168.57 36.63 168.57 36.63 181.84 46.43 181.84 46.43 168.57 45.49 168.57 45.49 157.35 46.43 157.35 46.43 147.22 45.49 147.22 45.49 136 46.43 136 46.43 131.06 46.43 104.58 42.46 104.58 42.46 169.22 40.58 169.22 40.58 104.58 36.63 104.58 36.63 131.02 36.63 131.06 36.63 136"></polygon> <polygon class="cls-5" points="40.58 169.22 42.46 169.22 42.46 104.58 42.46 70.6 40.58 70.6 40.58 104.58 40.58 169.22"></polygon> <path class="cls-5" d="M60.4,157.83H50.86v42.62h.52c3.18-2,6-4.18,6.84-1.69a10.13,10.13,0,0,1,2.18-.48Z"></path> <path class="cls-5" d="M72.13,146.82H60.4v51.46a8.39,8.39,0,0,1,7.07,2.14h4.66Z"></path> <path class="cls-5" d="M98.18,133.63h2.55V104.31l-17.1-9.14L72.13,89V200.45H98.18Zm-16-5v11.23H78.07V128.61Zm-4.16,42.67h4.16v11.23H78.07Zm0-10.09V150h4.16v11.23ZM92.65,150v11.23H88.49V150Zm-4.16-10.12V128.61h4.16v11.23Zm4.16,31.44v11.23H88.49V171.28Z"></path> <path class="cls-5" d="M125.6,133.63H98.18v66.82h30.43V133.63Zm-9.21,8.14h4.16V153h-4.16Zm0,21.35h4.16v11.23h-4.16ZM106,141.77h4.16V153H106Zm0,21.35h4.16v11.23H106Z"></path> <rect class="cls-6" x="78.07" y="128.61" width="4.16" height="11.23"></rect> <rect class="cls-6" x="88.49" y="128.61" width="4.16" height="11.23"></rect> <rect class="cls-6" x="78.07" y="149.96" width="4.16" height="11.23"></rect> <rect class="cls-6" x="88.49" y="149.96" width="4.16" height="11.23"></rect> <rect class="cls-6" x="78.07" y="171.28" width="4.16" height="11.23"></rect> <rect class="cls-6" x="88.49" y="171.28" width="4.16" height="11.23"></rect> <rect class="cls-6" x="105.97" y="141.77" width="4.16" height="11.23"></rect> <rect class="cls-6" x="116.39" y="141.77" width="4.16" height="11.23"></rect> <rect class="cls-6" x="105.97" y="163.12" width="4.16" height="11.23"></rect> <rect class="cls-6" x="116.39" y="163.12" width="4.16" height="11.23"></rect> <polygon class="cls-6" points="39.24 136 36.63 136 35.07 136 35.07 147.22 36.63 147.22 39.24 147.22 39.24 136"></polygon> <polygon class="cls-6" points="45.49 147.22 46.43 147.22 49.66 147.22 49.66 136 46.43 136 45.49 136 45.49 147.22"></polygon> <polygon class="cls-6" points="39.24 157.35 36.63 157.35 35.07 157.35 35.07 168.57 36.63 168.57 39.24 168.57 39.24 157.35"></polygon> <polygon class="cls-6" points="45.49 168.57 46.43 168.57 49.66 168.57 49.66 157.35 46.43 157.35 45.49 157.35 45.49 168.57"></polygon> <path class="cls-7" d="M74.17,213.23c-.76-2.84-8.32-1.46-8.64-1.4.48-.09,7.13-1.47,3.86-8.59a9.3,9.3,0,0,0-1.92-2.82,8.39,8.39,0,0,0-7.07-2.14,10.13,10.13,0,0,0-2.18.48c-.83-2.49-3.66-.28-6.84,1.69a21,21,0,0,1-3.2,1.69l0,17.86H65.78c2-.57,3.29-1,3.29-1S75,216.13,74.17,213.23Z"></path> <path class="cls-7" d="M0,170.26H0c.48-.73,1-1.46,1.51-2.19C1,168.8.48,169.53,0,170.26Z"></path> <path class="cls-7" d="M18.29,211.49q-.69.16-1.38.27Q17.6,211.66,18.29,211.49Z"></path> <path class="cls-7" d="M16.75,211.79c-.46.07-.92.14-1.38.19C15.83,211.93,16.29,211.86,16.75,211.79Z"></path> <path class="cls-7" d="M19.84,211.09c-.47.14-.94.26-1.42.37C18.9,211.35,19.37,211.23,19.84,211.09Z"></path> <path class="cls-7" d="M12.85,212.12h1c.46,0,.93-.06,1.4-.11-.48,0-.95.09-1.43.11C13.5,212.12,13.18,212.12,12.85,212.12Z"></path> <path class="cls-7" d="M31.5,193.12a49.35,49.35,0,0,0-1.88-10.83c-2.67-9.39-7.56-17.06-11.14-20.65-1.88-1.88-3.39-2.94-4.81-3.27a4.87,4.87,0,0,0-3.89.94,13.87,13.87,0,0,0-1.35,1c-.44.38-.89.8-1.37,1.28-.3.3-.59.6-.88.91a53.83,53.83,0,0,0-4.66,5.53c.59-.8,1.21-1.59,1.86-2.39C-2.5,183.33,2.75,197.8,11.85,202l.48-13.06.3,13.24,6.87-3.76L14,202.77c5.25,1.41,11.47-.37,17.49-6.51-.54,8.72-5.7,13-11.61,14.82,4.9-1.48,9.27-4.67,11-10.66A22.06,22.06,0,0,0,31.5,193.12Z"></path> <path class="cls-3" d="M11.49,212.1A23.09,23.09,0,0,1,0,208.46v0a23.11,23.11,0,0,0,11.49,3.62Z"></path> <path class="cls-8" d="M11.49,212.1A23.09,23.09,0,0,1,0,208.46v0a23.11,23.11,0,0,0,11.49,3.62Z"></path> <path class="cls-5" d="M1.52,168.06h0Z"></path> <path class="cls-8" d="M1.52,168.06h0Z"></path> <path class="cls-4" d="M18.42,211.46l-.13,0Z"></path> <path class="cls-8" d="M18.42,211.46l-.13,0Z"></path> <path class="cls-4" d="M15.37,212h0Z"></path> <path class="cls-8" d="M15.37,212h0Z"></path> <path class="cls-4" d="M19.86,211.08h0Z"></path> <path class="cls-8" d="M19.86,211.08h0Z"></path> <path class="cls-4" d="M16.91,211.76l-.16,0Z"></path> <path class="cls-8" d="M16.91,211.76l-.16,0Z"></path> <path class="cls-7" d="M11.58,209.57l-6.83-9.63,6.91,7.26.19-5.21c-9.1-4.19-14.35-18.66-8.47-36.32-.65.8-1.27,1.59-1.86,2.39h0c-.53.73-1,1.46-1.51,2.19v38.2a23.09,23.09,0,0,0,11.49,3.64Z"></path> <path class="cls-8" d="M11.58,209.57l-6.83-9.63,6.91,7.26.19-5.21c-9.1-4.19-14.35-18.66-8.47-36.32-.65.8-1.27,1.59-1.86,2.39h0c-.53.73-1,1.46-1.51,2.19v38.2a23.09,23.09,0,0,0,11.49,3.64Z"></path> <path class="cls-7" d="M31.47,196.26c-6,6.14-12.24,7.92-17.49,6.51l-1.32,1,.19,8.31c.33,0,.65,0,1,0,.48,0,.95-.06,1.43-.11h.11c.46,0,.92-.12,1.38-.19l.16,0q.69-.1,1.38-.27l.13,0c.48-.11.95-.23,1.42-.37h0C25.77,209.29,30.93,205,31.47,196.26Z"></path> <path class="cls-8" d="M31.47,196.26c-6,6.14-12.24,7.92-17.49,6.51l-1.32,1,.19,8.31c.33,0,.65,0,1,0,.48,0,.95-.06,1.43-.11h.11c.46,0,.92-.12,1.38-.19l.16,0q.69-.1,1.38-.27l.13,0c.48-.11.95-.23,1.42-.37h0C25.77,209.29,30.93,205,31.47,196.26Z"></path> <polygon class="cls-9" points="12.85 212.12 12.66 203.81 12.19 204.18 12.19 202.41 12.63 202.17 12.33 188.93 11.85 201.99 11.66 207.2 12.19 207.75 11.92 210.06 11.58 209.57 11.49 212.1 11.48 212.1 11.2 220 13.03 220 12.85 212.12 12.85 212.12"></polygon> <polygon class="cls-9" points="4.75 199.94 11.58 209.57 11.92 210.06 12.19 207.75 11.66 207.2 4.75 199.94"></polygon> <polygon class="cls-9" points="13.98 202.77 19.5 198.41 12.63 202.17 12.19 202.41 12.19 204.18 12.66 203.81 13.98 202.77"></polygon> <rect class="cls-4" x="215.14" y="94.16" width="0.99" height="52.15"></rect> <polygon class="cls-4" points="191.51 141.21 198.35 141.21 198.35 154.88 203.46 154.88 203.46 139.41 206.01 139.41 206.01 105.25 190.89 114.4 190.89 159.68 191.51 159.68 191.51 141.21"></polygon> <polygon class="cls-4" points="211.35 163.6 212.78 163.6 212.78 139.41 206.01 139.41 203.46 139.41 203.46 154.88 208.1 154.88 208.1 204.05 212.78 204.05 212.78 193.28 211.35 193.28 211.35 163.6"></polygon> <path class="cls-4" d="M203.46,154.88h-5.11v4.8h4.87V208H192.85v5.17c2.45-1.92,4.61-3.67,6.66-1.79,2.58,2.36,1.53,6.39,5.59,5.42a18.66,18.66,0,0,0,3-1.05V154.88Z"></path> <polygon class="cls-5" points="203.22 159.68 198.35 159.68 198.35 177.65 200.29 177.65 200.29 185.46 198.35 185.46 198.35 195.02 191.51 195.02 191.51 185.46 190.11 185.46 190.11 177.65 191.51 177.65 191.51 170.61 190.11 170.61 190.11 162.8 191.51 162.8 191.51 159.68 190.89 159.68 190.84 159.68 186.62 159.68 186.62 197.25 186.62 208 192.85 208 203.22 208 203.22 159.68"></polygon> <polygon class="cls-5" points="191.51 141.21 191.51 159.68 191.51 162.8 193.01 162.8 193.01 170.61 191.51 170.61 191.51 177.65 193.01 177.65 193.01 185.46 191.51 185.46 191.51 195.02 198.35 195.02 198.35 185.46 197.39 185.46 197.39 177.65 198.35 177.65 198.35 159.68 198.35 154.88 198.35 141.21 191.51 141.21"></polygon> <polygon class="cls-5" points="211.35 163.6 211.35 193.28 212.78 193.28 220 193.28 220 163.6 212.78 163.6 211.35 163.6"></polygon> <polygon class="cls-6" points="193.01 170.61 193.01 162.8 191.51 162.8 190.11 162.8 190.11 170.61 191.51 170.61 193.01 170.61"></polygon> <polygon class="cls-6" points="193.01 185.46 193.01 177.65 191.51 177.65 190.11 177.65 190.11 185.46 191.51 185.46 193.01 185.46"></polygon> <polygon class="cls-6" points="197.39 185.46 198.35 185.46 200.29 185.46 200.29 177.65 198.35 177.65 197.39 177.65 197.39 185.46"></polygon> <path class="cls-7" d="M208.1,215.75a18.66,18.66,0,0,1-3,1.05c-4.06,1-3-3.06-5.59-5.42-2-1.88-4.21-.13-6.66,1.79-.63.5-1.27,1-1.93,1.46-3.28,2.25-4.65-2.93-9.46-3.12-4.25-.16-5,4-5.45,8.49H217.4c-.54-.74-2.22-3.06-3.34-5C213.07,213.27,210.84,214.57,208.1,215.75Z"></path> </g> <g class="cls-10"> <rect class="cls-5" x="220" y="163.6" width="0.03" height="29.68"></rect> </g> </svg> 