<?xml version="1.0" encoding="UTF-8"?> <svg xmlns="http://www.w3.org/2000/svg" xmlns:xlink="http://www.w3.org/1999/xlink" id="Шар_1" data-name="Шар 1" viewBox="0 0 220 220"> <defs> <style>.cls-1{fill:none;}.cls-2{clip-path:url(#clip-path);}.cls-3{fill:#481d77;}.cls-4{fill:#60269e;}.cls-5{fill:#471a77;}.cls-6{fill:#a27bc5;}.cls-7{fill:#101820;}.cls-8,.cls-9{fill:#444a50;}.cls-8{opacity:0.26;isolation:isolate;}</style> <clipPath id="clip-path"> <path class="cls-1" d="M0,0H220a0,0,0,0,1,0,0V212a8,8,0,0,1-8,8H8a8,8,0,0,1-8-8V0A0,0,0,0,1,0,0Z"></path> </clipPath> </defs> <title>b5</title> <g class="cls-2"> <polygon class="cls-3" points="43.02 218.52 43.02 220 53.59 220 53.64 218.52 43.02 218.52"></polygon> <polygon class="cls-4" points="143.94 76.54 143.94 116.94 146.69 115.18 149.53 117 149.53 76.54 143.94 76.54"></polygon> <polygon class="cls-4" points="205.15 113.2 196.02 113.2 196.02 130.65 195.02 130.65 195.02 113.2 185.92 113.2 185.92 172.09 205.15 172.09 205.15 113.2"></polygon> <polygon class="cls-4" points="109.22 149.72 109.22 74.2 78.87 53.15 78.87 220 96.01 220 96.01 149.72 109.22 149.72"></polygon> <polygon class="cls-4" points="3.14 63.35 0 63.35 0 117.08 3.14 118.76 3.14 63.35"></polygon> <polygon class="cls-4" points="196.02 130.65 196.02 113.2 196.02 78.5 195.02 78.5 195.02 113.2 195.02 130.65 196.02 130.65"></polygon> <polygon class="cls-4" points="120.96 95.2 111.05 104.68 111.05 149.72 120.26 149.72 120.26 132.13 130.81 125.36 130.81 104.68 120.96 95.2"></polygon> <path class="cls-4" d="M43,218.52H53.64l.33-9.16A23.22,23.22,0,0,1,43,206.07Z"></path> <path class="cls-4" d="M43,166.75a54.29,54.29,0,0,1,6.56-7.87c4.32-4.35,6.74-4.65,11.38,0a46.59,46.59,0,0,1,8.81,14V133.55H16.27v21H43Z"></path> <path class="cls-4" d="M69.16,204.58l-.18.16c-.33.3-.67.58-1,.85l-.2.14c-.36.26-.72.5-1.1.73l-.21.12c-.34.2-.68.39-1,.56l-.31.15c-.34.16-.68.31-1,.45l-.37.15-1.07.37-.46.14-1,.28-.5.11c-.35.08-.71.15-1.06.21l-.46.08-1.14.15-.32,0c-.43.05-.86.08-1.29.11h-1l.2,9.14H69.77V204C69.57,204.19,69.37,204.39,69.16,204.58Z"></path> <polygon class="cls-4" points="178.43 35.31 157.59 35.31 157.59 122.15 173.22 132.13 173.22 172.09 178.43 172.09 178.43 35.31"></polygon> <path class="cls-5" d="M168,172.09h5.21v-40l-15.63-10L149.53,117l-2.85-1.82L144,116.94l-13.14,8.42-10.55,6.77v17.59h.67V220H168Zm-16.3-33.35h5.9v15.89h-5.9Zm-8.84,46.11H137V169h5.91Zm0-30.22H137V138.74h5.91ZM151.71,169h5.9v15.9h-5.9Z"></path> <path class="cls-5" d="M185.92,172.09H168V220h18c-5.51-9.67,2.85-14.58,2.85-14.58-8.57-8.76,6.68-11.15,6.68-11.15-1.88-10.61,7.71-5.48,7.71-5.48,2.58-6.62,11.77-7.14,16.76-6.91v-9.79H185.92Z"></path> <rect class="cls-6" x="136.96" y="138.74" width="5.91" height="15.9"></rect> <rect class="cls-6" x="151.71" y="138.74" width="5.91" height="15.9"></rect> <rect class="cls-6" x="136.96" y="168.95" width="5.91" height="15.9"></rect> <rect class="cls-6" x="151.71" y="168.95" width="5.91" height="15.9"></rect> <path class="cls-5" d="M120.93,149.72H96V220h24.92Zm-14.85,52.37h-5.91v-15.9h5.91Zm0-30.19h-5.91V156h5.91Zm8.83-15.9h5.91v15.9h-5.91Zm5.91,46.09h-5.91v-15.9h5.91Z"></path> <rect class="cls-6" x="100.17" y="156" width="5.91" height="15.9"></rect> <rect class="cls-6" x="114.91" y="156" width="5.91" height="15.9"></rect> <rect class="cls-6" x="100.17" y="186.19" width="5.91" height="15.9"></rect> <rect class="cls-6" x="114.91" y="186.19" width="5.91" height="15.9"></rect> <path class="cls-5" d="M15.17,154.53V125.17l-12-6.41L0,117.08V220H12.6V154.53ZM7.06,203.4H2.9V192.18H7.06Zm0-21.32H2.9V170.85H7.06Zm0-21.35H2.9V149.5H7.06Z"></path> <path class="cls-5" d="M43,206.07c-3.88-2.37-6.74-5.87-7.57-10-1.25-6.27-.3-17.77,7.57-29.32V154.53H12.6V220H43V206.07ZM30.83,162.66H35v11.23H30.83Zm-10.45,0h4.17v11.23H20.38Z"></path> <rect class="cls-6" x="2.9" y="149.5" width="4.16" height="11.23"></rect> <rect class="cls-6" x="2.9" y="170.85" width="4.16" height="11.23"></rect> <rect class="cls-6" x="2.9" y="192.18" width="4.16" height="11.23"></rect> <rect class="cls-6" x="20.38" y="162.66" width="4.16" height="11.23"></rect> <rect class="cls-6" x="30.83" y="162.66" width="4.16" height="11.23"></rect> <path class="cls-7" d="M73.73,195.75a17.38,17.38,0,0,1-.37,1.72A17.38,17.38,0,0,0,73.73,195.75Z"></path> <path class="cls-7" d="M73.32,197.62a16.57,16.57,0,0,1-1.26,3.19A16.57,16.57,0,0,0,73.32,197.62Z"></path> <path class="cls-7" d="M74,193.68c0,.63-.11,1.24-.2,1.82C73.86,194.92,73.93,194.31,74,193.68Z"></path> <path class="cls-7" d="M71.14,202.31a14.18,14.18,0,0,1-.88,1.13A14.18,14.18,0,0,0,71.14,202.31Z"></path> <path class="cls-7" d="M72,200.85a13.44,13.44,0,0,1-.81,1.33A13.44,13.44,0,0,0,72,200.85Z"></path> <path class="cls-7" d="M64.06,207.74c.35-.14.69-.29,1-.45C64.75,207.45,64.41,207.6,64.06,207.74Z"></path> <path class="cls-7" d="M66.65,206.46c.38-.23.74-.47,1.1-.73C67.39,206,67,206.23,66.65,206.46Z"></path> <path class="cls-7" d="M65.4,207.14c.36-.17.7-.36,1-.56C66.1,206.78,65.75,207,65.4,207.14Z"></path> <path class="cls-7" d="M62.62,208.26l1.07-.37Z"></path> <path class="cls-7" d="M61.11,208.68l1-.28Z"></path> <path class="cls-7" d="M56.34,209.37c.43,0,.86-.06,1.29-.11Z"></path> <path class="cls-7" d="M59.55,209c.35-.06.71-.13,1.06-.21C60.26,208.87,59.9,208.94,59.55,209Z"></path> <path class="cls-7" d="M58,209.23l1.14-.15Z"></path> <path class="cls-7" d="M68,205.59c.36-.27.7-.55,1-.85C68.65,205,68.31,205.32,68,205.59Z"></path> <path class="cls-7" d="M69.16,204.58c.21-.19.41-.39.61-.6s.24-.25.35-.38C69.81,203.94,69.49,204.27,69.16,204.58Z"></path> <path class="cls-7" d="M49.58,158.88A54.29,54.29,0,0,0,43,166.75c-7.87,11.55-8.82,23.05-7.57,29.32.83,4.13,3.69,7.63,7.57,10A23.22,23.22,0,0,0,54,209.36h0c-8.89-.41-17-5.81-18.52-13.29-1.37-6.95-.05-20.35,10.45-33.14C40,180.58,45.25,195,54.34,199.25l.47-13.06.3,13.24L62,195.67,56.47,200c5.25,1.42,11.47-.35,17.51-6.49a27.49,27.49,0,0,0,0-3.15,52.78,52.78,0,0,0-4.22-17.45,46.59,46.59,0,0,0-8.81-14C56.32,154.23,53.9,154.53,49.58,158.88Z"></path> <path class="cls-3" d="M72.06,200.81s0,0,0,0S72.05,200.82,72.06,200.81Z"></path> <path class="cls-8" d="M72.06,200.81s0,0,0,0S72.05,200.82,72.06,200.81Z"></path> <path class="cls-3" d="M73.77,195.5c0,.09,0,.17,0,.25C73.74,195.67,73.76,195.59,73.77,195.5Z"></path> <path class="cls-8" d="M73.77,195.5c0,.09,0,.17,0,.25C73.74,195.67,73.76,195.59,73.77,195.5Z"></path> <path class="cls-3" d="M73.36,197.47c0,.05,0,.1,0,.15S73.35,197.52,73.36,197.47Z"></path> <path class="cls-8" d="M73.36,197.47c0,.05,0,.1,0,.15S73.35,197.52,73.36,197.47Z"></path> <path class="cls-3" d="M71.23,202.18l-.09.13Z"></path> <path class="cls-8" d="M71.23,202.18l-.09.13Z"></path> <path class="cls-3" d="M70.26,203.44l-.14.16Z"></path> <path class="cls-8" d="M70.26,203.44l-.14.16Z"></path> <path class="cls-3" d="M74,193.52h0c0,.05,0,.1,0,.15A.88.88,0,0,1,74,193.52Z"></path> <path class="cls-8" d="M74,193.52h0c0,.05,0,.1,0,.15A.88.88,0,0,1,74,193.52Z"></path> <path class="cls-4" d="M69.16,204.58l-.18.16Z"></path> <path class="cls-8" d="M69.16,204.58l-.18.16Z"></path> <path class="cls-4" d="M59.09,209.08l.46-.08Z"></path> <path class="cls-8" d="M59.09,209.08l.46-.08Z"></path> <path class="cls-4" d="M57.63,209.26l.32,0Z"></path> <path class="cls-8" d="M57.63,209.26l.32,0Z"></path> <path class="cls-4" d="M66.44,206.58l.21-.12Z"></path> <path class="cls-8" d="M66.44,206.58l.21-.12Z"></path> <path class="cls-4" d="M67.75,205.73l.2-.14Z"></path> <path class="cls-8" d="M67.75,205.73l.2-.14Z"></path> <path class="cls-4" d="M63.69,207.89l.37-.15Z"></path> <path class="cls-8" d="M63.69,207.89l.37-.15Z"></path> <path class="cls-4" d="M56.34,209.37Z"></path> <path class="cls-8" d="M56.34,209.37Z"></path> <path class="cls-4" d="M62.16,208.4l.46-.14Z"></path> <path class="cls-8" d="M62.16,208.4l.46-.14Z"></path> <path class="cls-4" d="M60.61,208.79l.5-.11Z"></path> <path class="cls-8" d="M60.61,208.79l.5-.11Z"></path> <path class="cls-4" d="M65.09,207.29l.31-.15Z"></path> <path class="cls-8" d="M65.09,207.29l.31-.15Z"></path> <path class="cls-7" d="M45.9,162.93c-10.5,12.79-11.82,26.19-10.45,33.14C37,203.55,45.08,209,54,209.36l.09-2.53-6.82-9.63,6.91,7.26.19-5.21C45.25,195,40,180.58,45.9,162.93Z"></path> <path class="cls-8" d="M45.9,162.93c-10.5,12.79-11.82,26.19-10.45,33.14C37,203.55,45.08,209,54,209.36l.09-2.53-6.82-9.63,6.91,7.26.19-5.21C45.25,195,40,180.58,45.9,162.93Z"></path> <path class="cls-7" d="M56.47,200l-1.32,1,.19,8.31h1l1.29-.11.32,0,1.14-.15.46-.08c.35-.06.71-.13,1.06-.21l.5-.11,1-.28.46-.14,1.07-.37.37-.15c.35-.14.69-.29,1-.45l.31-.15c.35-.17.7-.36,1-.56l.21-.12c.38-.23.74-.47,1.1-.73l.2-.14c.36-.27.7-.55,1-.85l.18-.16c.33-.31.65-.64,1-1l.14-.16a14.18,14.18,0,0,0,.88-1.13l.09-.13a13.44,13.44,0,0,0,.81-1.33s0,0,0,0a16.57,16.57,0,0,0,1.26-3.19c0-.05,0-.1,0-.15a17.38,17.38,0,0,0,.37-1.72c0-.08,0-.16,0-.25.09-.58.16-1.19.2-1.82,0-.05,0-.1,0-.15C67.94,199.67,61.72,201.44,56.47,200Z"></path> <path class="cls-8" d="M56.47,200l-1.32,1,.19,8.31h1l1.29-.11.32,0,1.14-.15.46-.08c.35-.06.71-.13,1.06-.21l.5-.11,1-.28.46-.14,1.07-.37.37-.15c.35-.14.69-.29,1-.45l.31-.15c.35-.17.7-.36,1-.56l.21-.12c.38-.23.74-.47,1.1-.73l.2-.14c.36-.27.7-.55,1-.85l.18-.16c.33-.31.65-.64,1-1l.14-.16a14.18,14.18,0,0,0,.88-1.13l.09-.13a13.44,13.44,0,0,0,.81-1.33s0,0,0,0a16.57,16.57,0,0,0,1.26-3.19c0-.05,0-.1,0-.15a17.38,17.38,0,0,0,.37-1.72c0-.08,0-.16,0-.25.09-.58.16-1.19.2-1.82,0-.05,0-.1,0-.15C67.94,199.67,61.72,201.44,56.47,200Z"></path> <polygon class="cls-9" points="55.34 209.38 55.34 209.38 55.15 201.07 54.68 201.44 54.68 199.67 55.11 199.43 54.81 186.19 54.34 199.25 54.15 204.46 54.68 205.01 54.41 207.32 54.06 206.84 53.97 209.36 53.97 209.36 53.64 218.52 53.59 220 55.58 220 55.54 218.52 55.34 209.38"></polygon> <polygon class="cls-9" points="54.06 206.84 54.41 207.32 54.68 205.01 54.15 204.46 47.24 197.2 54.06 206.84"></polygon> <polygon class="cls-9" points="61.98 195.67 55.11 199.43 54.68 199.67 54.68 201.44 55.15 201.07 56.47 200.02 61.98 195.67"></polygon> <path class="cls-7" d="M203.24,188.79s-9.59-5.13-7.71,5.48c0,0-15.25,2.39-6.68,11.15,0,0-8.36,4.91-2.85,14.58h34V181.88C215,181.65,205.82,182.17,203.24,188.79Z"></path> <path class="cls-4" d="M101.7,30.63h27.74a3.06,3.06,0,1,0,0-6.12H101.7a3.06,3.06,0,0,0,0,6.12Z"></path> <path class="cls-4" d="M118.62,23.4H134a3.06,3.06,0,1,0,0-6.12H118.62a3.1,3.1,0,0,0-3.06,3.06A3.06,3.06,0,0,0,118.62,23.4Z"></path> </g> </svg> 