<?xml version="1.0" encoding="UTF-8"?> <svg xmlns="http://www.w3.org/2000/svg" viewBox="0 0 436.64 477.57"> <defs> <style>.cls-1,.cls-5{fill:#101820;}.cls-1{opacity:0.15;}.cls-2{fill:#fff;}.cls-3{fill:#282828;}.cls-4{fill:#3f3f3f;}.cls-6,.cls-7{fill:#ea0029;}.cls-7{stroke:#101820;stroke-linecap:round;stroke-linejoin:round;stroke-width:5px;}.cls-8{fill:#efefef;}</style> </defs> <title>Монтажная область 8 копия</title> <g id="Block_3" data-name="Block 3"> <ellipse class="cls-1" cx="196.66" cy="443.61" rx="150.01" ry="14.87"></ellipse> <path class="cls-2" d="M296.11,396.82c11.16-17.17,30.51-38.75,39.16-44.94,8.44-6,16.51-9.92,24.88-7.43,8.89,2.65,14.91,12.1,16.16,20.44,2.8,18.86-18.4,35-26.08,40.82-26.93,20.47-59.05,20.07-74,18.77"></path> <path d="M288.09,427.46c19.26,0,43-4.12,63.63-19.79,8.22-6.25,30-22.84,27-43.14-1.29-8.62-7.43-19.33-17.89-22.43-10-3-19.29,2.25-27,7.78-8.6,6.15-28.27,27.86-39.79,45.6l4.12,2.68c11.25-17.3,30.28-38.37,38.53-44.29,9.58-6.84,16.38-9,22.75-7.06,8,2.39,13.33,11.08,14.42,18.44,2.59,17.43-17.55,32.74-25.13,38.5-23.95,18.22-52.54,20-72.33,18.28l-.42,4.9C279.74,427.26,283.81,427.46,288.09,427.46Z"></path> <path class="cls-2" d="M293.29,312.84a4.91,4.91,0,0,0-1.81,7.43c15,19.35,24.5,49.13,24.5,73.11a49.51,49.51,0,0,1-49.51,49.51H128.3a49.51,49.51,0,0,1-49.51-49.51c0-24.05,8.22-53.93,23-73.27a4.84,4.84,0,0,0-2.33-7.48"></path> <path class="cls-3" d="M292.1,312.21l-74.7,1.84,8.44,128.84H269.9s38-4.87,42.86-33.73-1.83-56.46-10.64-70.4S290.9,316.64,292.1,312.21Z"></path> <polygon class="cls-4" points="219.07 328.21 225.72 435.26 241.78 368.37 251.77 358.84 233.87 329.35 231 331.88 219.07 328.21"></polygon> <path class="cls-3" d="M101.39,312.21l74.7,1.84-8.44,128.84H123.59s-38-4.87-42.86-33.73,1.83-56.46,10.64-70.4S102.59,316.64,101.39,312.21Z"></path> <polygon class="cls-4" points="158.85 326.03 142.53 359.3 152.97 371.81 166.17 434 174.09 329.24 160.66 333.14 158.85 326.03"></polygon> <path class="cls-5" d="M99.93,318.63a2.28,2.28,0,0,0,.27-2.33,2.48,2.48,0,0,0-1.92-1.46c.78-1.47,1.51-3,2.27-4.46a7.44,7.44,0,0,1,4.15,3.93,7.11,7.11,0,0,1-.86,7.29c-13.43,17.64-22.45,46.48-22.45,71.77a47.1,47.1,0,0,0,47.05,47.06H266.61a47.1,47.1,0,0,0,47.05-47.06c0-24.3-9.64-53.07-24-71.59a7.23,7.23,0,0,1-.93-7.41,7.52,7.52,0,0,1,3.53-3.7c.7,1.48,1.39,3,2.07,4.47a2.65,2.65,0,0,0-1.09,1.2,2.34,2.34,0,0,0,.31,2.42c15,19.32,25,49.3,25,74.61a52,52,0,0,1-52,52H128.44a52,52,0,0,1-52-52c0-26.29,9.43-56.33,23.45-74.74Z"></path> <path class="cls-2" d="M99.56,312.35,293,312.21l.09.19c-20.51,1.17-134.26,7.18-193.61.1Z"></path> <path class="cls-5" d="M100.66,310.15c58,6.75,168.18,1.15,191.3-.14.76,1.59,1.5,3.19,2.24,4.8-11.75.67-64.66,3.52-116.82,3.52-29,0-57.76-.88-79.09-3.51C99.1,313.28,99.87,311.72,100.66,310.15Z"></path> <path class="cls-5" d="M225.66,445.35a2.45,2.45,0,0,0,2.4-1.94l15.69-73,8.89-9.12a2.46,2.46,0,0,0,.44-2.82l-22.37-44.58a2.46,2.46,0,1,0-4.39,2.21l21.58,43-8.17,8.37a2.48,2.48,0,0,0-.64,1.19L227,425l-7-109.86a2.41,2.41,0,0,0-2.61-2.3,2.27,2.27,0,0,0-2.16,2.61l8.17,127.56a2.24,2.24,0,0,0,2.14,2.29Z"></path> <path class="cls-5" d="M222.32,391.11a2.44,2.44,0,0,0,1.75-.73L243.38,371a2.46,2.46,0,0,0-3.49-3.46l-19.31,19.4a2.47,2.47,0,0,0,1.74,4.2Z"></path> <path class="cls-5" d="M167.51,445.35h.18a2.46,2.46,0,0,0,2.28-2.29l8.17-127a2.46,2.46,0,1,0-4.91-.32l-7,109.32-12.12-56.34a2.48,2.48,0,0,0-.64-1.19l-8.16-8.37L166.42,317a2.46,2.46,0,0,0-4.39-2.21l-21.94,43.72a2.46,2.46,0,0,0,.44,2.82l8.89,9.12,15.69,73A2.45,2.45,0,0,0,167.51,445.35Z"></path> <path class="cls-5" d="M171,391.11a2.47,2.47,0,0,0,1.74-4.2l-19.31-19.4a2.46,2.46,0,0,0-3.49,3.46l19.32,19.41A2.42,2.42,0,0,0,171,391.11Z"></path> <circle class="cls-5" cx="196.65" cy="343.1" r="3.37"></circle> <circle class="cls-5" cx="196.65" cy="371.17" r="3.37"></circle> <circle class="cls-5" cx="196.65" cy="416.92" r="3.37"></circle> <circle class="cls-5" cx="196.65" cy="427.31" r="3.37"></circle> <path class="cls-6" d="M163.67,299.25c11.48,1.16,24.16,6.25,30.41,10.91a4.1,4.1,0,0,0,4.87,0c6.25-4.66,18.93-9.75,30.42-10.91a4.22,4.22,0,0,1,4.62,4.21v24.88a4.19,4.19,0,0,1-5.57,4c-8.06-2.82-22.74-8.3-29.65-12.89a4.07,4.07,0,0,0-4.51,0c-6.9,4.59-21.59,10.07-29.64,12.89a4.2,4.2,0,0,1-5.58-4V303.46A4.23,4.23,0,0,1,163.67,299.25Z"></path> <path class="cls-5" d="M159.53,333.8a6.7,6.7,0,0,1-2.81-5.46V303.46a6.69,6.69,0,0,1,2.21-5,6.59,6.59,0,0,1,5.12-1.69h0c12.43,1.25,25.32,6.67,31.64,11.38a1.61,1.61,0,0,0,1.93,0c6.32-4.71,19.22-10.13,31.64-11.38a6.58,6.58,0,0,1,5.12,1.69,6.69,6.69,0,0,1,2.21,5v24.88a6.65,6.65,0,0,1-8.85,6.31c-8.23-2.89-23.09-8.44-30.2-13.18a1.64,1.64,0,0,0-1.78,0c-7.1,4.74-22,10.29-30.19,13.18a6.68,6.68,0,0,1-6-.85Zm40.74-16.42c6.66,4.43,21.09,9.81,29.1,12.62a1.71,1.71,0,0,0,1.56-.21,1.76,1.76,0,0,0,.74-1.45V303.46a1.77,1.77,0,0,0-.59-1.33,1.8,1.8,0,0,0-1.33-.44c-11.41,1.16-23.56,6.24-29.19,10.44a6.56,6.56,0,0,1-7.81,0c-5.63-4.2-17.78-9.28-29.19-10.44h0a1.83,1.83,0,0,0-1.33.44,1.8,1.8,0,0,0-.59,1.33v24.88a1.76,1.76,0,0,0,.74,1.45,1.67,1.67,0,0,0,1.56.21c8-2.81,22.44-8.19,29.1-12.62a6.49,6.49,0,0,1,7.23,0Z"></path> <circle class="cls-6" cx="196.52" cy="315.06" r="9.35"></circle> <path class="cls-5" d="M184.85,315.06a11.81,11.81,0,1,1,11.8,11.8A11.82,11.82,0,0,1,184.85,315.06Zm4.92,0a6.89,6.89,0,1,0,6.88-6.89A6.89,6.89,0,0,0,189.77,315.06Z"></path> <line class="cls-2" x1="307.51" y1="395.87" x2="247.52" y2="390.91"></line> <path class="cls-5" d="M307.52,398.33a2.46,2.46,0,0,0,.2-4.91l-60-5a2.46,2.46,0,1,0-.41,4.9l60,5Z"></path> <line class="cls-2" x1="142.16" y1="388.65" x2="87.13" y2="399.24"></line> <path class="cls-5" d="M87.12,401.69a2.49,2.49,0,0,0,.47,0l55-10.59a2.46,2.46,0,0,0,1.95-2.88,2.49,2.49,0,0,0-2.88-1.95l-55,10.59a2.46,2.46,0,0,0,.46,4.87Z"></path> <path class="cls-5" d="M196.65,283.3m0-4.92"></path> <polygon class="cls-7" points="195.45 337.97 176.02 388.8 195.45 408.22 214.87 388.8 195.45 337.97"></polygon> <polygon class="cls-6" points="195.45 328.39 179.21 328.39 192.09 347.55 198.81 347.55 211.68 328.39 195.45 328.39"></polygon> <path class="cls-5" d="M198.81,350.28h-6.72a2.73,2.73,0,0,1-2.27-1.21l-12.88-19.16a2.75,2.75,0,0,1-.14-2.81,2.72,2.72,0,0,1,2.41-1.44h32.47a2.73,2.73,0,0,1,2.27,4.25l-12.88,19.16A2.7,2.7,0,0,1,198.81,350.28Zm-5.27-5.46h3.81l9.21-13.7H184.33Z"></path> <path class="cls-2" d="M162.63,97.9s56-30.71,95.65-41.94c18.37-5.32,33.72-3.54,29.59,15.36s-6.5,40.17-6.5,40.17Z"></path> <path class="cls-8" d="M189.66,87.76c-3.5,3.92,62.16-4.9,92.27,5.5L284.6,92,289,66.83s2.7-18.72-24.23-13.09S194.67,82.13,189.66,87.76Z"></path> <path class="cls-5" d="M283,113.57,156.56,99.1l5.17-2.84c.56-.31,56.65-30.95,96-42.1,9.53-2.77,22.27-4.78,28.77,1.3,3.71,3.47,4.77,8.94,3.17,16.26-4.06,18.59-6.44,39.77-6.46,40ZM168.82,96.72l110.91,12.69c.68-5.62,2.91-22.94,6.31-38.49,1.3-5.94.6-10.22-2.07-12.72-4.06-3.8-13-4-25.17-.44C226.86,66.81,183.69,88.87,168.82,96.72Z"></path> <path d="M348.49,150.22a8.27,8.27,0,0,0,15.05-.05l10.72-23.83c4.54-10.09-6.52-21.14-17.53-17.51l-24.47,8.06a8.29,8.29,0,0,0-1.18,15.22A39.51,39.51,0,0,1,348.49,150.22Z"></path> <path class="cls-2" d="M141.47,315.56a88.36,88.36,0,0,1-80.34-88S48,130,139.89,99.75a210.49,210.49,0,0,1,157.53,0s69.44-10.41,88.34-8.94,26.29,13.3,18,28.36-31.14,72.07-31.14,72.07-2.36,20.41-4.13,38.1c-4.6,45.93-27.71,82.26-72.84,86.24"></path> <path class="cls-5" d="M295.84,317.45l-.33-3.74c40.18-3.54,66.1-34.36,71.13-84.55,1.75-17.51,4.11-37.93,4.14-38.14l.12-.48c.93-2.33,23-57.28,31.24-72.27,3.51-6.4,4.08-12.16,1.65-16.66-2.73-5-9.18-8.22-18.17-8.92-18.48-1.45-87.23,8.81-87.92,8.92l-.51.07-.48-.19a208.94,208.94,0,0,0-156.11,0C51.2,130.88,62.86,226.35,63,227.31c0,45.32,33.83,82.35,78.66,86.38l-.34,3.74a89.73,89.73,0,0,1-82.05-89.87C59.13,226.81,47,128.3,139.3,98a212.65,212.65,0,0,1,158.35-.15c6.84-1,70-10.29,88.26-8.88,10.3.81,17.83,4.67,21.18,10.89,3.07,5.67,2.49,12.67-1.66,20.24-7.86,14.31-29.35,67.64-31,71.64-.27,2.39-2.45,21.39-4.1,37.82C365.15,281.69,338,313.74,295.84,317.45Z"></path> <path class="cls-2" d="M270.76,303c-53.37-6-108.13-12.48-105.41,4.27,1.76,10.81,40.71,38.81,91.44,44.5,0,0,62.55,11.65,56.37-39.65"></path> <path class="cls-3" d="M259,301.88c1.79-1.91,54.49.38,54.61,11.83s-1.13,35.63-29.2,38.46c-15.1.53-27.6-.42-27.6-.42S245.66,318.94,259,301.88Z"></path> <path class="cls-5" d="M271.17,354.79a87,87,0,0,1-14.73-1.2c-50.23-5.62-90.92-33.62-92.94-46a7.81,7.81,0,0,1,2.06-6.85c9.86-10.35,54.83-5.28,102.43.08l3,.34a1.86,1.86,0,0,1,1.65,2.07,1.89,1.89,0,0,1-2.08,1.66l-3-.34c-42.52-4.79-90.71-10.22-99.29-1.22a4,4,0,0,0-1.07,3.66c1.56,9.66,39,37.25,89.79,42.93.44.08,31,5.56,46.2-8.67,6.9-6.47,9.63-16.19,8.1-28.89a1.87,1.87,0,0,1,3.72-.45c1.68,14-1.43,24.75-9.26,32.09C296.3,352.84,282,354.79,271.17,354.79Z"></path> <path class="cls-2" d="M99,301.4c53.37-6,117.44-7.1,117.38-2.92-.17,11-52.68,46-103.41,51.69,0,0-64.83,19.49-31.13-63.12a93.79,93.79,0,0,0,15.26,14Z"></path> <path class="cls-3" d="M99.08,301.32c-.25-.1-.56.4-.79.27a54.45,54.45,0,0,1-11.14-9.15c-1.9-2-3.44-4.43-5.23-6.41-2.14,4.45-7.07,16.31-9.06,34.69C70.2,345.41,89,350.21,96.49,352.08,81.78,337.11,96.9,305.63,99.08,301.32Z"></path> <path class="cls-5" d="M100,353.74c-7.51,0-16.6-1.7-22.7-8.56-9.7-10.92-8.55-31.33,3.42-60.67.41-1,1-.49,2-.08s2,.55,1.58,1.55c-11.36,27.85-12.74,46.9-4.11,56.61,10.29,11.59,32,5.77,32.2,5.7,50.85-5.72,98.9-39.15,101.84-49-7.86-2.62-63.59-1.75-115.07,4a2,2,0,0,1-2.15-1.72,2,2,0,0,1,1.72-2.15c47.32-5.33,113.38-7.66,118.68-2.84a2.45,2.45,0,0,1,.85,1.88c-.2,12.82-54.2,47.88-105.13,53.59A53.06,53.06,0,0,1,100,353.74Z"></path> <path class="cls-2" d="M106.09,168.87c-2.83-2.08-5.6-4.29-8.33-6.52a2.86,2.86,0,0,1-.55-.28c-.88-.55-2-1.58-2.59-1.93s-1.26-1-1.88-1.46c-4.88,4.08-8.61,12.33-9.37,22.08C82.26,195.11,88,207.25,96.2,207.88s15.74-10.48,16.85-24.82a42.83,42.83,0,0,0-.38-10.15A51.06,51.06,0,0,1,106.09,168.87Z"></path> <path class="cls-5" d="M110.45,171.7a40.55,40.55,0,0,1,.66,11.21c-.51,6.6-2.44,12.67-5.44,17.08-2.77,4.09-6.08,6.22-9.32,5.95-7-.54-12-12-11-25,.72-9.34,4.41-17.39,9-21a22.48,22.48,0,0,1-3.09-2.5c-5.18,4.48-9,13-9.8,23.2-1.21,15.65,5.21,28.48,14.62,29.21l.83,0c4.4,0,8.64-2.69,12-7.67s5.54-11.7,6.1-19a45.87,45.87,0,0,0-.21-9.28A46.55,46.55,0,0,1,110.45,171.7Z"></path> <path class="cls-2" d="M173.46,172.26c-3.13,1.19-6.22,2.32-9.33,3.38-.16,1.71-.26,3.45-.26,5.24,0,17.71,8.2,32.07,18.33,32.07s18.32-14.36,18.32-32.07A49.43,49.43,0,0,0,197,162C189.65,166.31,181.38,169.25,173.46,172.26Z"></path> <path class="cls-5" d="M198.3,161.26c-1.11.69-2.29,1.28-3.45,1.91a47.39,47.39,0,0,1,3.28,17.71c0,16.08-7.3,29.67-15.93,29.67S166.27,197,166.27,180.88a52.39,52.39,0,0,1,.35-6.07c-1.65.6-3.31,1.13-5,1.66-.1,1.44-.18,2.91-.18,4.41,0,19.33,9.1,34.47,20.73,34.47s20.72-15.14,20.72-34.47a51.57,51.57,0,0,0-3.86-20.21C198.8,160.86,198.57,161.09,198.3,161.26Z"></path> <path class="cls-5" d="M104.63,186.05a4.53,4.53,0,0,1-7.7-3.59,4.5,4.5,0,0,1,.77-2.17c-3.32.93-6.13,5.74-6.59,11.73-.53,6.87,2.22,12.68,6.14,13s7.53-5,8.06-11.88A19.49,19.49,0,0,0,104.63,186.05Z"></path> <path class="cls-5" d="M189.45,185.39a5.54,5.54,0,0,1-4.19,1.92,5.6,5.6,0,0,1-5.6-5.59,5.53,5.53,0,0,1,.74-2.74c-4,1.45-7,7.62-7,15,0,8.48,3.93,15.35,8.78,15.35S191,202.48,191,194A23.87,23.87,0,0,0,189.45,185.39Z"></path> <path class="cls-2" d="M204.26,157.41c-25,16.25-51.72,23-51.72,23"></path> <path class="cls-5" d="M152.54,182.32a1.87,1.87,0,0,1-.46-3.69c.26-.07,26.73-6.92,51.16-22.8a1.88,1.88,0,0,1,2,3.15c-25,16.23-52,23.22-52.29,23.29A1.85,1.85,0,0,1,152.54,182.32Z"></path> <path class="cls-2" d="M87,155s18.08,14.85,28.93,20"></path> <path class="cls-5" d="M115.92,176.87a1.76,1.76,0,0,1-.8-.18c-10.93-5.17-28.57-19.62-29.32-20.23a1.88,1.88,0,1,1,2.38-2.9c.18.15,18,14.76,28.55,19.74a1.89,1.89,0,0,1,.89,2.5A1.86,1.86,0,0,1,115.92,176.87Z"></path> <path class="cls-5" d="M341.71,156a8.27,8.27,0,0,0,14.58,3.73l16.36-20.37c6.93-8.63-1-22.1-12.57-21.36l-25.71,1.66c-7.33.47-10.32,9.41-5,14.44A39.51,39.51,0,0,1,341.71,156Z"></path> <path class="cls-5" d="M129.75,205.32l-10.24.29a3.68,3.68,0,0,0-3,5.6l5.37,8.73a3.68,3.68,0,0,0,6.37-.18l4.88-9A3.68,3.68,0,0,0,129.75,205.32Z"></path> <line class="cls-2" x1="124.73" y1="216.37" x2="132.12" y2="242.35"></line> <path class="cls-5" d="M126.54,215.86c.49,0,.39.18.45.31l.12.4.23.81.47,1.63.94,3.24,1.88,6.48q1.92,6.48,3.65,13L130,243q-2-6.47-3.75-13l-1.81-6.5-.91-3.25-.46-1.63-.23-.81-.11-.41c0-.14-.19-.24.23-.5Z"></path> <path class="cls-5" d="M254.84,352.35c-11.4-37,2.1-51.3,2.68-51.9l2.92,2.86L259,301.88l1.47,1.42c-.12.13-12.31,13.46-1.71,47.84Z"></path> <path class="cls-5" d="M93.34,352.59a54.2,54.2,0,0,1,4.36-53L101,302c-.16.22-16,22.14-3.92,48.88Z"></path> <path class="cls-5" d="M107.29,241.88a49,49,0,0,0,11.82.48,101.71,101.71,0,0,0,11.9-1.45c4-.71,7.86-1.59,11.68-2.68,1.9-.55,3.8-1.14,5.58-1.83a24.13,24.13,0,0,0,2.55-1.09c.76-.31,1.51-1,1.26-.69a3.11,3.11,0,0,1,5.09,3.58,9.44,9.44,0,0,1-3.87,2.57,29.81,29.81,0,0,1-3.16,1.1c-2.07.63-4.11,1.11-6.16,1.55-4.1.86-8.21,1.47-12.34,1.92a105.61,105.61,0,0,1-12.45.62,51.8,51.8,0,0,1-12.52-1.43,1.36,1.36,0,0,1,.6-2.65Z"></path> </g> </svg> 