<?xml version="1.0" encoding="UTF-8"?> <svg xmlns="http://www.w3.org/2000/svg" xmlns:xlink="http://www.w3.org/1999/xlink" id="Шар_1" data-name="Шар 1" viewBox="0 0 220 220"> <defs> <style>.cls-1{fill:none;}.cls-2{clip-path:url(#clip-path);}.cls-3{fill:#481d77;}.cls-4{fill:#60269e;}.cls-5{fill:#101820;}.cls-6{fill:#471a77;}.cls-7{fill:#a27bc5;}.cls-8{clip-path:url(#clip-path-2);}</style> <clipPath id="clip-path"> <path class="cls-1" d="M0,0H220a0,0,0,0,1,0,0V212a8,8,0,0,1-8,8H8a8,8,0,0,1-8-8V0A0,0,0,0,1,0,0Z"></path> </clipPath> <clipPath id="clip-path-2"> <path class="cls-1" d="M220,0H440a0,0,0,0,1,0,0V212a8,8,0,0,1-8,8H228a8,8,0,0,1-8-8V0A0,0,0,0,1,220,0Z"></path> </clipPath> </defs> <title>b4</title> <g class="cls-2"> <path class="cls-3" d="M206.57,149.35V138.2h-.51v11.23Z"></path> <path class="cls-4" d="M180.87,125.47V152h7V165.5a7.39,7.39,0,0,1,7.55.12c-2.26-7.58,1.8-10.34,5.24-8.73,0-4.72,2.63-7,5.42-7.46V138.2h-2.15V100.76h-27v24.71Z"></path> <rect class="cls-4" x="171.18" y="100.76" width="3.84" height="24.71"></rect> <rect class="cls-4" x="137.88" y="98.05" width="3.97" height="12.7"></rect> <rect class="cls-4" x="128.32" y="98.05" width="3.97" height="12.7"></rect> <polygon class="cls-4" points="134.55 110.75 134.55 82.98 132.29 82.98 132.29 98.05 132.29 110.75 134.55 110.75"></polygon> <polygon class="cls-4" points="135.62 110.75 137.88 110.75 137.88 98.05 137.88 82.98 135.62 82.98 135.62 110.75"></polygon> <polygon class="cls-4" points="134.55 110.75 135.62 110.75 135.62 82.98 135.62 63.7 134.55 63.7 134.55 82.98 134.55 110.75"></polygon> <path class="cls-4" d="M113.38,168.54s.22-.81.7-2.1V133.12H107V220h7.11V168.24C113.64,168.44,113.38,168.54,113.38,168.54Z"></path> <rect class="cls-4" x="156.06" y="159.82" width="7.98" height="60.18"></rect> <polygon class="cls-4" points="106.97 39.5 76.62 60.56 76.62 149.04 76.64 149.02 91.28 158.39 91.28 153.75 98.13 153.75 98.13 172.2 102.99 172.2 102.99 220 106.97 220 106.97 133.12 106.97 39.5"></polygon> <path class="cls-4" d="M156.06,154.05a29.53,29.53,0,0,1-6.85-1.08,31.07,31.07,0,0,1-11.52-6.39,31,31,0,0,1,13.16.75,29,29,0,0,1,5.21,2.11V110.75h-42v55.69a31.69,31.69,0,0,1,5.59-9.5,30.91,30.91,0,0,1,10.69-7.7,31.16,31.16,0,0,1-6.29,11.6,32,32,0,0,1-10,7.4V220h17.15l2.13-70-.24,0a4.63,4.63,0,1,1,.38,0l3.18,70h19.38V154.05Zm-25.86-25.6a31.44,31.44,0,0,1,2.92-12.86,29.69,29.69,0,0,1,0,25.72A31.44,31.44,0,0,1,130.2,128.45Z"></path> <polygon class="cls-4" points="203.91 100.76 203.91 138.2 206.06 138.2 206.57 138.2 206.57 109.92 220 117.08 220 63.35 203.91 63.35 203.91 100.76"></polygon> <polygon class="cls-4" points="91.28 172.2 91.28 158.39 76.64 149.02 76.62 149.04 59.35 160.06 59.35 220 86.39 220 86.39 172.2 91.28 172.2"></polygon> <path class="cls-5" d="M133.5,150a4.09,4.09,0,1,0-.38,0l.24,0,.06-1.85Z"></path> <path class="cls-5" d="M136.05,128.45a31.53,31.53,0,0,0-2.93-12.86,29.78,29.78,0,0,0,0,25.72A31.53,31.53,0,0,0,136.05,128.45Z"></path> <path class="cls-5" d="M114.08,168.24a32,32,0,0,0,10-7.4,31.16,31.16,0,0,0,6.29-11.6,30.91,30.91,0,0,0-10.69,7.7,31.69,31.69,0,0,0-5.59,9.5c-.48,1.29-.7,2.1-.7,2.1S113.64,168.44,114.08,168.24Z"></path> <path class="cls-5" d="M137.69,146.58A31.07,31.07,0,0,0,149.21,153a29.53,29.53,0,0,0,6.85,1.08,29.9,29.9,0,0,0,6.31-.33,31.42,31.42,0,0,0-6.31-4.28,29,29,0,0,0-5.21-2.11A31,31,0,0,0,137.69,146.58Z"></path> <polygon class="cls-5" points="133.5 150.03 133.42 148.19 133.36 150.04 131.22 220 136.68 220 133.5 150.03"></polygon> <polygon class="cls-4" points="4.03 78.12 4.03 119.99 9.8 116.28 15.68 120.04 15.68 78.12 4.03 78.12"></polygon> <path class="cls-6" d="M34.89,132.32,15.68,120,9.8,116.28,4,120l-4,2.59V220H34.89ZM.59,138.57H6.18v15H.59Zm0,28.58H6.18v15H.59Zm19.55,15H14.56v-15h5.58Zm-5.58-28.58v-15h5.58v15Z"></path> <rect class="cls-7" x="0.59" y="138.57" width="5.59" height="15.04"></rect> <rect class="cls-7" x="14.56" y="138.57" width="5.59" height="15.04"></rect> <rect class="cls-7" x="0.59" y="167.15" width="5.59" height="15.04"></rect> <rect class="cls-7" x="14.56" y="167.15" width="5.59" height="15.04"></rect> <polygon class="cls-6" points="98.13 172.2 98.13 190.16 100.04 190.16 100.04 197.98 98.13 197.98 98.13 207.57 91.28 207.57 91.28 197.98 89.89 197.98 89.89 190.16 91.28 190.16 91.28 183.13 89.89 183.13 89.89 175.31 91.28 175.31 91.28 172.2 86.39 172.2 86.39 220 102.99 220 102.99 172.2 98.13 172.2"></polygon> <polygon class="cls-6" points="91.28 175.31 92.79 175.31 92.79 183.13 91.28 183.13 91.28 190.16 92.79 190.16 92.79 197.98 91.28 197.98 91.28 207.57 98.13 207.57 98.13 197.98 97.14 197.98 97.14 190.16 98.13 190.16 98.13 172.2 98.13 153.75 91.28 153.75 91.28 158.39 91.28 172.2 91.28 175.31"></polygon> <polygon class="cls-7" points="92.79 175.31 91.28 175.31 89.89 175.31 89.89 183.13 91.28 183.13 92.79 183.13 92.79 175.31"></polygon> <polygon class="cls-7" points="92.79 190.16 91.28 190.16 89.89 190.16 89.89 197.98 91.28 197.98 92.79 197.98 92.79 190.16"></polygon> <polygon class="cls-7" points="97.14 197.98 98.13 197.98 100.04 197.98 100.04 190.16 98.13 190.16 97.14 190.16 97.14 197.98"></polygon> <path class="cls-5" d="M200.64,156.89c-3.44-1.61-7.5,1.15-5.24,8.73a7.39,7.39,0,0,0-7.55-.12v13.22h7v-11h11.73V149.35l-.51.08C203.27,149.93,200.64,152.17,200.64,156.89Z"></path> <polygon class="cls-6" points="185.3 178.72 187.85 178.72 187.85 165.5 187.85 151.95 180.87 151.95 180.87 156.89 184.09 156.89 184.09 168.12 180.87 168.12 180.87 178.21 184.09 178.21 184.09 189.44 180.87 189.44 180.87 202.73 171.04 202.73 171.04 189.44 169.51 189.44 169.51 178.21 171.04 178.21 171.04 168.12 169.51 168.12 169.51 156.89 171.04 156.89 171.04 151.95 164.03 151.95 164.03 159.82 164.03 220 185.3 220 185.3 178.72"></polygon> <polygon class="cls-6" points="173.67 156.89 173.67 168.12 171.04 168.12 171.04 178.21 173.67 178.21 173.67 189.44 171.04 189.44 171.04 202.73 180.87 202.73 180.87 189.44 179.93 189.44 179.93 178.21 180.87 178.21 180.87 168.12 179.93 168.12 179.93 156.89 180.87 156.89 180.87 151.95 180.87 125.47 176.9 125.47 176.9 190.11 175.02 190.11 175.02 125.47 171.18 125.47 171.04 125.47 171.04 151.95 171.04 156.89 173.67 156.89"></polygon> <polygon class="cls-6" points="175.02 190.11 176.9 190.11 176.9 125.47 176.9 100.76 176.9 91.5 175.02 91.5 175.02 100.76 175.02 125.47 175.02 190.11"></polygon> <path class="cls-6" d="M194.84,178.72H185.3V220h9.54Zm-1,5.54v6.2h-2.31v-6.2Z"></path> <path class="cls-6" d="M206.57,167.71H194.84V220h11.73Zm-7,22.75h-2.31v-6.2h2.31Z"></path> <path class="cls-6" d="M206.57,138.2V220H220V117.08l-13.43-7.16Zm10.07,65.2h-4.16V192.18h4.16Zm0-21.32h-4.16V170.85h4.16Zm0-21.35h-4.16V149.5h4.16Z"></path> <rect class="cls-7" x="212.48" y="149.5" width="4.16" height="11.23"></rect> <rect class="cls-7" x="212.48" y="170.85" width="4.16" height="11.23"></rect> <rect class="cls-7" x="212.48" y="192.18" width="4.16" height="11.23"></rect> <rect class="cls-7" x="191.53" y="184.26" width="2.31" height="6.2"></rect> <rect class="cls-7" x="197.28" y="184.26" width="2.31" height="6.2"></rect> <polygon class="cls-7" points="173.67 168.12 173.67 156.89 171.04 156.89 169.51 156.89 169.51 168.12 171.04 168.12 173.67 168.12"></polygon> <polygon class="cls-7" points="179.93 168.12 180.87 168.12 184.09 168.12 184.09 156.89 180.87 156.89 179.93 156.89 179.93 168.12"></polygon> <polygon class="cls-7" points="173.67 189.44 173.67 178.21 171.04 178.21 169.51 178.21 169.51 189.44 171.04 189.44 173.67 189.44"></polygon> <polygon class="cls-7" points="179.93 189.44 180.87 189.44 184.09 189.44 184.09 178.21 180.87 178.21 179.93 178.21 179.93 189.44"></polygon> <path class="cls-4" d="M162.58,27h27.74a3.07,3.07,0,1,0,0-6.13H162.58a3.07,3.07,0,0,0,0,6.13Z"></path> <path class="cls-4" d="M181.87,19.82h15.41a3.06,3.06,0,1,0,0-6.12H181.87a3.06,3.06,0,1,0,0,6.12Z"></path> <circle class="cls-4" cx="43.37" cy="45.71" r="8.49"></circle> </g> <g class="cls-8"> <polygon class="cls-4" points="223.14 63.35 220 63.35 220 117.08 223.14 118.76 223.14 63.35"></polygon> <path class="cls-6" d="M235.17,154.53V125.17l-12-6.41L220,117.08V220h12.6V154.53Zm-8.11,48.87H222.9V192.18h4.16Zm0-21.32H222.9V170.85h4.16Zm0-21.35H222.9V149.5h4.16Z"></path> </g> </svg> 