<?xml version="1.0" encoding="UTF-8"?> <svg xmlns="http://www.w3.org/2000/svg" xmlns:xlink="http://www.w3.org/1999/xlink" id="Шар_1" data-name="Шар 1" viewBox="0 0 220 220"> <defs> <style>.cls-1{fill:none;}.cls-2{clip-path:url(#clip-path);}.cls-3{fill:#481d77;}.cls-4{fill:#60269e;}.cls-5,.cls-6{fill:#101820;}.cls-6{opacity:0.6;isolation:isolate;}.cls-7{fill:#444a50;}.cls-8{fill:#471a77;}.cls-9{fill:#a27bc5;}.cls-10{clip-path:url(#clip-path-2);}</style> <clipPath id="clip-path"> <path class="cls-1" d="M0,0H220a0,0,0,0,1,0,0V212a8,8,0,0,1-8,8H8a8,8,0,0,1-8-8V0A0,0,0,0,1,0,0Z"></path> </clipPath> <clipPath id="clip-path-2"> <path class="cls-1" d="M220,0H440a0,0,0,0,1,0,0V212a8,8,0,0,1-8,8H228a8,8,0,0,1-8-8V0A0,0,0,0,1,220,0Z"></path> </clipPath> </defs> <title>b3</title> <g class="cls-2"> <path class="cls-3" d="M188,198.92c6.84.27,8.83,7.68,13.53,4.46,1.14-.78,2.23-1.65,3.28-2.48V167.82H190.89v12.27H158.42V164.22h-9.53V220h32.79L180,213.55C180.66,206.33,181.17,198.65,188,198.92Z"></path> <polygon class="cls-4" points="66.76 164.11 66.76 142.47 62.22 142.47 62.22 192.45 49.63 192.45 49.63 142.47 47.24 142.47 47.24 194.65 64.96 194.65 64.96 164.11 66.76 164.11"></polygon> <polygon class="cls-4" points="62.22 192.45 62.22 142.47 62.22 114.48 49.63 114.48 49.63 142.47 49.63 192.45 62.22 192.45"></polygon> <polygon class="cls-4" points="28.63 192.66 28.63 198.52 21.38 198.52 21.38 220 37.46 220 37.46 192.66 28.63 192.66"></polygon> <path class="cls-4" d="M21.38,161.19V98.8l4.43-2v-7L15.93,80.3,6,89.78v46.84a5.32,5.32,0,0,1,1.18,2.2c1.23,3.3,3.09,11.76,3.3,21.32,0,.76,0,1.46,0,2.13h0c0,.13,0,.25,0,.38,0,.35,0,.7,0,1v0c0,.49-.07,1-.12,1.4h8.61v-3.92Z"></path> <path class="cls-5" d="M7.79,172.09l-.18.16Z"></path> <path class="cls-5" d="M7.38,172.43a.91.91,0,0,1-.16.11A.91.91,0,0,0,7.38,172.43Z"></path> <path class="cls-5" d="M8.19,171.66l-.2.23C8.06,171.82,8.12,171.74,8.19,171.66Z"></path> <path class="cls-5" d="M7,172.69l-.13.07Z"></path> <path class="cls-5" d="M9.24,169.83c-.07.19-.16.37-.24.54C9.08,170.2,9.17,170,9.24,169.83Z"></path> <path class="cls-5" d="M8.57,171.14l-.22.31Z"></path> <path class="cls-5" d="M8.92,170.53c-.08.15-.15.28-.23.41C8.77,170.81,8.84,170.68,8.92,170.53Z"></path> <path class="cls-5" d="M6.51,172.88l-.09,0Z"></path> <path class="cls-5" d="M5.55,166.21l.14-4,.1,4.23c1.38,1.32,3.07.25,4.71-4.19,0-.67,0-1.37,0-2.13-.21-9.56-2.07-18-3.3-21.32A5.32,5.32,0,0,0,6,136.62c-.56-.39-1,.38-1.72,2.17-.35.93-.66,1.87-.95,2.82C1.86,153.62,3.22,163.43,5.55,166.21Z"></path> <path class="cls-5" d="M10.48,162.64c0,.35,0,.7,0,1C10.46,163.34,10.47,163,10.48,162.64Z"></path> <path class="cls-5" d="M9.28,169.73a16.89,16.89,0,0,0,1-4.62c0-.44.09-.91.12-1.4A19.47,19.47,0,0,1,9.28,169.73Z"></path> <path class="cls-3" d="M9,170.37s-.05.11-.08.16S9,170.42,9,170.37Z"></path> <path class="cls-6" d="M9,170.37s-.05.11-.08.16S9,170.42,9,170.37Z"></path> <path class="cls-3" d="M8.69,170.94l-.12.2Z"></path> <path class="cls-6" d="M8.69,170.94l-.12.2Z"></path> <path class="cls-3" d="M8,171.89l-.2.2Z"></path> <path class="cls-6" d="M8,171.89l-.2.2Z"></path> <path class="cls-3" d="M6.42,172.91,6,173Z"></path> <path class="cls-6" d="M6.42,172.91,6,173Z"></path> <path class="cls-3" d="M7.61,172.25l-.23.18Z"></path> <path class="cls-6" d="M7.61,172.25l-.23.18Z"></path> <path class="cls-3" d="M7.22,172.54l-.27.15Z"></path> <path class="cls-6" d="M7.22,172.54l-.27.15Z"></path> <path class="cls-3" d="M6.82,172.76a2.85,2.85,0,0,1-.31.12A2.85,2.85,0,0,0,6.82,172.76Z"></path> <path class="cls-6" d="M6.82,172.76a2.85,2.85,0,0,1-.31.12A2.85,2.85,0,0,0,6.82,172.76Z"></path> <path class="cls-3" d="M8.35,171.45l-.16.21Z"></path> <path class="cls-6" d="M8.35,171.45l-.16.21Z"></path> <path class="cls-3" d="M9.28,169.73a.42.42,0,0,1,0,.1A.42.42,0,0,0,9.28,169.73Z"></path> <path class="cls-6" d="M9.28,169.73a.42.42,0,0,1,0,.1A.42.42,0,0,0,9.28,169.73Z"></path> <path class="cls-3" d="M3.35,141.61v-.08A65.85,65.85,0,0,0,.7,164,66.61,66.61,0,0,1,3.35,141.61Z"></path> <path class="cls-6" d="M3.35,141.61v-.08A65.85,65.85,0,0,0,.7,164,66.61,66.61,0,0,1,3.35,141.61Z"></path> <path class="cls-4" d="M10.44,163.67v0Z"></path> <path class="cls-6" d="M10.44,163.67v0Z"></path> <path class="cls-4" d="M10.5,162.26h0c0,.13,0,.24,0,.37C10.49,162.51,10.5,162.39,10.5,162.26Z"></path> <path class="cls-6" d="M10.5,162.26h0c0,.13,0,.24,0,.37C10.49,162.51,10.5,162.39,10.5,162.26Z"></path> <path class="cls-5" d="M3.79,169.43l1.59,1.36.17-4.58c-2.33-2.78-3.69-12.59-2.2-24.6A66.61,66.61,0,0,0,.7,164c.36,5,2.37,8.6,4.6,9l0-1.17Z"></path> <path class="cls-6" d="M3.79,169.43l1.59,1.36.17-4.58c-2.33-2.78-3.69-12.59-2.2-24.6A66.61,66.61,0,0,0,.7,164c.36,5,2.37,8.6,4.6,9l0-1.17Z"></path> <path class="cls-5" d="M10.44,163.71v0c0-.33,0-.68,0-1,0-.13,0-.24,0-.37-1.64,4.44-3.33,5.51-4.71,4.19l0,1.87,1.72-1.48L5.84,169l.09,4H6l.4-.09.09,0a2.85,2.85,0,0,0,.31-.12l.13-.07.27-.15a.91.91,0,0,0,.16-.11l.23-.18.18-.16.2-.2.2-.23.16-.21.22-.31.12-.2c.08-.13.15-.26.23-.41s.05-.11.08-.16.17-.35.24-.54a.42.42,0,0,0,0-.1A19.47,19.47,0,0,0,10.44,163.71Z"></path> <path class="cls-6" d="M10.44,163.71v0c0-.33,0-.68,0-1,0-.13,0-.24,0-.37-1.64,4.44-3.33,5.51-4.71,4.19l0,1.87,1.72-1.48L5.84,169l.09,4H6l.4-.09.09,0a2.85,2.85,0,0,0,.31-.12l.13-.07.27-.15a.91.91,0,0,0,.16-.11l.23-.18.18-.16.2-.2.2-.23.16-.21.22-.31.12-.2c.08-.13.15-.26.23-.41s.05-.11.08-.16.17-.35.24-.54a.42.42,0,0,0,0-.1A19.47,19.47,0,0,0,10.44,163.71Z"></path> <polygon class="cls-7" points="5.61 169.32 5.61 168.52 5.83 168.33 5.79 166.46 5.69 162.23 5.55 166.21 5.38 170.79 5.61 170.99 5.5 172.06 5.34 171.81 5.3 172.98 5.02 180.47 6.1 180.47 5.93 173.01 5.84 169.03 5.61 169.32"></polygon> <polygon class="cls-7" points="5.34 171.81 5.5 172.06 5.61 170.99 5.38 170.79 3.79 169.43 5.34 171.81"></polygon> <polygon class="cls-7" points="5.61 169.32 5.84 169.03 7.55 166.85 5.83 168.33 5.61 168.52 5.61 169.32"></polygon> <path class="cls-8" d="M21.38,146.28v14.91h7.25v5.88H39.24V90.8l-13.43,6-4.43,2Zm11.14-44.77h2.9v7.82h-2.9Zm0,14.85h2.9v7.82h-2.9ZM28.84,129.6h2.9v7.82h-2.9Zm-3.57-28.09h2.9v7.82h-2.9Zm0,14.85h2.9v7.82h-2.9Z"></path> <polygon class="cls-8" points="28.63 167.07 28.63 192.66 37.46 192.66 45.49 192.66 45.49 167.07 39.24 167.07 28.63 167.07"></polygon> <rect class="cls-8" y="163.6" width="0.03" height="29.68"></rect> <polygon class="cls-8" points="28.63 192.66 28.63 167.07 28.63 161.19 21.38 161.19 18.93 161.19 18.93 165.11 18.93 198.52 21.38 198.52 28.63 198.52 28.63 192.66"></polygon> <rect class="cls-9" x="28.84" y="129.6" width="2.9" height="7.81"></rect> <rect class="cls-9" x="25.27" y="101.51" width="2.9" height="7.81"></rect> <rect class="cls-9" x="32.52" y="101.51" width="2.9" height="7.81"></rect> <rect class="cls-9" x="25.27" y="116.36" width="2.9" height="7.81"></rect> <rect class="cls-9" x="32.52" y="116.36" width="2.9" height="7.81"></rect> <path class="cls-5" d="M201.55,203.38c-4.7,3.22-6.69-4.19-13.53-4.46s-7.36,7.41-8,14.63l1.69,6.45h23.15V200.9C203.78,201.73,202.69,202.6,201.55,203.38Z"></path> <polygon class="cls-4" points="112.12 21.03 97.41 21.03 97.41 134.56 112.12 126.7 112.12 21.03"></polygon> <polygon class="cls-4" points="190.89 167.82 204.83 167.82 204.83 132.32 218.63 123.46 218.63 47.08 203.03 31.9 187.4 47.08 187.4 95.12 190.89 95.12 190.89 167.82"></polygon> <polygon class="cls-4" points="158.42 164.22 158.42 180.09 190.89 180.09 190.89 167.82 190.89 95.12 187.4 95.12 174.67 95.12 174.67 164.22 158.42 164.22"></polygon> <polygon class="cls-4" points="161.48 161.05 142.95 161.05 142.95 161.94 148.89 161.94 148.89 164.22 158.42 164.22 174.67 164.22 174.67 95.12 174.67 79.25 161.48 79.25 161.48 161.05"></polygon> <polygon class="cls-4" points="142.79 139.49 142.95 139.49 142.95 161.05 161.48 161.05 161.48 79.25 161.48 20.36 140.64 20.36 140.64 72.81 142.79 72.81 142.79 139.49"></polygon> <polygon class="cls-4" points="134.63 161.94 134.63 139.49 137.98 139.49 137.98 110.7 139.59 110.7 139.59 139.49 142.79 139.49 142.79 72.81 140.64 72.81 125.33 72.81 125.33 170.32 128.69 170.32 128.69 161.94 134.63 161.94"></polygon> <path class="cls-5" d="M122.78,175.31v9.32h5.91V173.46a6.3,6.3,0,0,0-6.42.08c1.91-6.42-1.53-8.75-4.43-7.41,0-4.24-2.5-6.12-5-6.39v15.57Z"></path> <polygon class="cls-8" points="148.89 161.94 142.95 161.94 142.95 166.13 144.27 166.13 144.27 175.63 142.95 175.63 142.95 184.23 144.27 184.23 144.27 193.74 142.95 193.74 142.95 204.99 134.63 204.99 134.63 193.74 131.89 193.74 131.89 184.23 134.63 184.23 134.63 175.63 131.89 175.63 131.89 166.13 134.63 166.13 134.63 161.94 128.69 161.94 128.69 170.32 128.69 173.46 128.69 184.63 130.84 184.63 130.84 220 148.89 220 148.89 164.22 148.89 161.94"></polygon> <polygon class="cls-8" points="142.95 139.49 142.79 139.49 139.59 139.49 139.59 194.3 137.98 194.3 137.98 139.49 134.63 139.49 134.63 161.94 134.63 166.13 135.43 166.13 135.43 175.63 134.63 175.63 134.63 184.23 135.43 184.23 135.43 193.74 134.63 193.74 134.63 204.99 142.95 204.99 142.95 193.74 140.72 193.74 140.72 184.23 142.95 184.23 142.95 175.63 140.72 175.63 140.72 166.13 142.95 166.13 142.95 161.94 142.95 161.05 142.95 139.49"></polygon> <polygon class="cls-8" points="137.98 194.3 139.59 194.3 139.59 139.49 139.59 110.7 137.98 110.7 137.98 139.49 137.98 194.3"></polygon> <polygon class="cls-8" points="130.84 184.63 128.69 184.63 122.78 184.63 122.78 220 130.84 220 130.84 184.63"></polygon> <polygon class="cls-8" points="122.78 184.63 122.78 175.31 112.82 175.31 112.82 220 122.78 220 122.78 184.63"></polygon> <path class="cls-8" d="M112.82,175.31v-49l-.7.37L97.4,134.57l-8.8,4.7v24.84h2.14V220h22.08Zm-5,12.17h-3.54V178h3.54Zm-3.54-27.58h3.54v9.5h-3.54Zm-8.84,0H99v9.5H95.44ZM99,205.55H95.44V196H99Zm0-18.07H95.44V178H99Zm8.83,18.07h-3.54V196h3.54Z"></path> <path class="cls-8" d="M88.6,164.11H65V220H90.74V164.11ZM75.33,198.62H71.78v-9.5h3.55Zm0-18.07H71.78V171h3.55Zm8.84,18.07H80.62v-9.5h3.55Zm0-18.07H80.62V171h3.55Z"></path> <rect class="cls-9" x="104.28" y="159.9" width="3.54" height="9.51"></rect> <rect class="cls-9" x="95.44" y="159.9" width="3.54" height="9.51"></rect> <rect class="cls-9" x="104.28" y="177.97" width="3.54" height="9.51"></rect> <rect class="cls-9" x="95.44" y="177.97" width="3.54" height="9.51"></rect> <rect class="cls-9" x="104.28" y="196.04" width="3.54" height="9.51"></rect> <rect class="cls-9" x="95.44" y="196.04" width="3.54" height="9.51"></rect> <rect class="cls-9" x="80.62" y="171.04" width="3.54" height="9.51"></rect> <rect class="cls-9" x="71.78" y="171.04" width="3.54" height="9.51"></rect> <rect class="cls-9" x="80.62" y="189.12" width="3.54" height="9.51"></rect> <rect class="cls-9" x="71.78" y="189.12" width="3.54" height="9.51"></rect> <polygon class="cls-9" points="140.72 166.13 140.72 175.63 142.95 175.63 144.27 175.63 144.27 166.13 142.95 166.13 140.72 166.13"></polygon> <polygon class="cls-9" points="135.43 166.13 134.63 166.13 131.89 166.13 131.89 175.63 134.63 175.63 135.43 175.63 135.43 166.13"></polygon> <polygon class="cls-9" points="140.72 193.74 142.95 193.74 144.27 193.74 144.27 184.23 142.95 184.23 140.72 184.23 140.72 193.74"></polygon> <polygon class="cls-9" points="135.43 184.23 134.63 184.23 131.89 184.23 131.89 193.74 134.63 193.74 135.43 193.74 135.43 184.23"></polygon> <polygon class="cls-8" points="204.83 132.32 204.83 167.82 204.83 200.9 204.83 220 220 220 220 122.58 218.63 123.46 204.83 132.32"></polygon> <path class="cls-4" d="M50.6,43.67H78.34a3.07,3.07,0,0,0,0-6.13H50.6a3.07,3.07,0,1,0,0,6.13Z"></path> <path class="cls-4" d="M67.51,36.44H82.93a3.06,3.06,0,0,0,0-6.12H67.51a3.1,3.1,0,0,0-3.06,3.06A3.06,3.06,0,0,0,67.51,36.44Z"></path> </g> <g class="cls-10"> <path class="cls-8" d="M254.89,132.32,235.68,120l-5.88-3.76L224,120l-4,2.59V220h34.89Zm-34.3,6.25h5.59v15h-5.59Zm0,28.58h5.59v15h-5.59Zm19.55,15h-5.58v-15h5.58Zm-5.58-28.58v-15h5.58v15Z"></path> </g> </svg> 