<?xml version="1.0" encoding="UTF-8"?> <svg xmlns="http://www.w3.org/2000/svg" xmlns:xlink="http://www.w3.org/1999/xlink" id="Шар_1" data-name="Шар 1" viewBox="0 0 220 220"> <defs> <style>.cls-1{fill:none;}.cls-2{clip-path:url(#clip-path);}.cls-3{fill:#481d77;}.cls-4{fill:#60269e;}.cls-5{fill:#471a77;}.cls-6{fill:#101820;}.cls-7{fill:#a27bc5;}.cls-8,.cls-9{fill:#444a50;}.cls-8{opacity:0.26;isolation:isolate;}.cls-10{clip-path:url(#clip-path-2);}</style> <clipPath id="clip-path"> <path class="cls-1" d="M0,0H220a0,0,0,0,1,0,0V212a8,8,0,0,1-8,8H8a8,8,0,0,1-8-8V0A0,0,0,0,1,0,0Z"></path> </clipPath> <clipPath id="clip-path-2"> <path class="cls-1" d="M220,0H440a0,0,0,0,1,0,0V212a8,8,0,0,1-8,8H228a8,8,0,0,1-8-8V0A0,0,0,0,1,220,0Z"></path> </clipPath> </defs> <title>b1</title> <g class="cls-2"> <path class="cls-3" d="M177.7,206.89H156.87a16.86,16.86,0,0,1-3.5,7s17-1.37,15.93,4.81a87.59,87.59,0,0,1-11,1.29h30l.27-7.33C184,212.45,179.75,210.22,177.7,206.89Z"></path> <path class="cls-3" d="M27.47,139.94h1.72V128.5c-.56-.12-1.14-.25-1.72-.41Z"></path> <path class="cls-3" d="M217.89,206.89H200.36a11.26,11.26,0,0,1-.62,1.08l-.08.12c-.11.15-.22.28-.33.42s-.25.32-.38.47-.15.15-.22.22a7.94,7.94,0,0,1-.59.57l-.11.09a8.87,8.87,0,0,1-.78.59h0a14.23,14.23,0,0,1-7.16,2.21h-.66l.17,7.32H220V208.48A17.64,17.64,0,0,1,217.89,206.89Z"></path> <rect class="cls-4" x="123.56" y="113.84" width="0.13" height="22.8"></rect> <polygon class="cls-4" points="98.21 97.7 98.21 45.14 78.66 63.81 78.66 115.18 80.41 115.18 80.41 161.08 86.42 161.08 86.42 97.7 98.21 97.7"></polygon> <polygon class="cls-4" points="107.23 136.64 107.23 97.7 98.21 97.7 86.42 97.7 86.42 161.08 105.17 161.08 105.17 136.64 107.23 136.64"></polygon> <polygon class="cls-4" points="123.56 136.64 107.23 136.64 105.17 136.64 105.17 161.08 123.7 161.08 123.7 136.64 123.56 136.64"></polygon> <polygon class="cls-4" points="78.66 115.18 68.37 115.18 68.37 116.34 79.25 123.29 79.25 161.08 80.41 161.08 80.41 115.18 78.66 115.18"></polygon> <path class="cls-4" d="M15.36,120.77a4.29,4.29,0,0,1-2.07,3.67v15.5H27.47V128.09l-.37-.1a31.36,31.36,0,0,1-11.55-6.39,31.16,31.16,0,0,1,11.92.43V72.86h-17V92c.34-.85.59-1.34.59-1.34a31.36,31.36,0,0,1,3,12.86,31.06,31.06,0,0,1-1.91,10.37h1.24v3.25A4.4,4.4,0,0,1,15.36,120.77Z"></path> <path class="cls-4" d="M6.26,139.94H10.8l.45-14.87-.21,0a4.32,4.32,0,1,1,0-8.64,4.13,4.13,0,0,1,2.25.64v-3.25H12.05a23.52,23.52,0,0,1-1,2.5,25.16,25.16,0,0,1-1-2.5H0v15.68a31.26,31.26,0,0,1,8.24-5.26A31,31,0,0,1,2,135.86c-.64.72-1.29,1.38-2,2v38.88H6.26Z"></path> <path class="cls-4" d="M11.39,125.06l.68,14.88h1.22v-15.5A4.27,4.27,0,0,1,11.39,125.06Z"></path> <path class="cls-5" d="M1.07,198a32.62,32.62,0,0,1,5.19-2.71v-9.8A63.5,63.5,0,0,1,1.07,198Z"></path> <path class="cls-5" d="M6.26,179.49v-2.75H0v1.88C2.77,176.84,5.16,177.19,6.26,179.49Z"></path> <path class="cls-6" d="M11.39,125.06a4.33,4.33,0,0,0,4-4.29,4.4,4.4,0,0,0-2.07-3.68,4.13,4.13,0,0,0-2.25-.64,4.32,4.32,0,1,0,0,8.64l.21,0,.06-1.86Z"></path> <path class="cls-6" d="M11,90.61s-.25.49-.59,1.34a31.59,31.59,0,0,0-2.34,11.52A31,31,0,0,0,10,113.84a25.16,25.16,0,0,0,1,2.5,23.52,23.52,0,0,0,1-2.5A31.06,31.06,0,0,0,14,103.47,31.36,31.36,0,0,0,11,90.61Z"></path> <path class="cls-6" d="M2,135.86a31,31,0,0,0,6.28-11.6A31.26,31.26,0,0,0,0,129.52v8.34C.67,137.24,1.32,136.58,2,135.86Z"></path> <path class="cls-6" d="M15.55,121.6A31.36,31.36,0,0,0,27.1,128l.37.1c.58.16,1.16.29,1.72.41v-5.21l.82-.52c-.43-.15-.86-.29-1.3-.42s-.83-.22-1.24-.32A31.16,31.16,0,0,0,15.55,121.6Z"></path> <polygon class="cls-6" points="11.39 125.06 11.31 123.21 11.25 125.07 10.79 139.94 12.07 139.94 11.39 125.06"></polygon> <path class="cls-5" d="M68.37,116.34l-14.2-9.08L30,122.77l-.82.52v16.65h.62v55.27c3,.3,6.19,1.66,6.28,3.9.16,3.81,5.13,2,6.93,2,.77,0,1.48.89,2,1.91H74.34V161.08h4.91V123.29Zm-17.83,56.8H45v-15h5.58Zm0-28.55H45v-15h5.58Zm14,28.55H58.92v-15h5.59Zm0-28.55H58.92v-15h5.59Z"></path> <rect class="cls-7" x="44.96" y="129.55" width="5.59" height="15.04"></rect> <rect class="cls-7" x="58.92" y="129.55" width="5.59" height="15.04"></rect> <rect class="cls-7" x="44.96" y="158.1" width="5.59" height="15.04"></rect> <rect class="cls-7" x="58.92" y="158.1" width="5.59" height="15.04"></rect> <path class="cls-5" d="M29.81,139.94H6.26v39.55c.09.2.19.4.27.63a10.42,10.42,0,0,1-.27,5.32v9.8c3.56-1.45,8-2.33,10,1,3.63,6.09,7.12,2.31,8.76,0,.68-1,2.67-1.29,4.78-1.08Zm-14,49.53H10.18v-15h5.58Zm0-28.55H10.18v-15h5.58Zm14,28.55H24.14v-15h5.59Zm0-28.55H24.14v-15h5.59Z"></path> <rect class="cls-7" x="10.18" y="145.88" width="5.59" height="15.04"></rect> <rect class="cls-7" x="24.14" y="145.88" width="5.59" height="15.04"></rect> <rect class="cls-7" x="10.18" y="174.43" width="5.59" height="15.04"></rect> <rect class="cls-7" x="24.14" y="174.43" width="5.59" height="15.04"></rect> <path class="cls-6" d="M45.07,203c-.57-1-1.28-1.91-2-1.91-1.8,0-6.77,1.83-6.93-2-.09-2.24-3.3-3.6-6.28-3.9-2.11-.21-4.1.12-4.78,1.08-1.64,2.31-5.13,6.09-8.76,0-2-3.38-6.45-2.5-10-1A32.62,32.62,0,0,0,1.07,198a63.5,63.5,0,0,0,5.19-12.51,10.42,10.42,0,0,0,.27-5.32c-.08-.23-.18-.43-.27-.63-1.1-2.3-3.49-2.65-6.26-.87V203Z"></path> <polygon class="cls-4" points="74.34 203 45.07 203 0 203 0 220 74.34 220 74.34 203"></polygon> <rect class="cls-4" x="219.3" y="51.91" width="0.7" height="66.79"></rect> <polygon class="cls-4" points="185.46 166.1 210.09 166.1 210.09 118.7 211.59 118.7 211.59 76.43 196.9 62.14 182.16 76.43 182.16 121.71 185.46 121.71 185.46 166.1"></polygon> <polygon class="cls-4" points="182.38 135.67 182.38 166.1 185.46 166.1 185.46 121.71 182.16 121.71 170.16 121.71 170.16 126.11 182.38 135.67"></polygon> <polygon class="cls-4" points="157.75 129.2 165.91 122.78 170.16 126.11 170.16 121.71 170.16 106.75 157.75 106.75 157.75 129.2"></polygon> <polygon class="cls-4" points="140.16 150.31 149.5 150.31 149.5 135.67 157.75 129.2 157.75 106.75 157.75 51.27 138.12 51.27 138.12 100.68 140.16 100.68 140.16 150.31"></polygon> <path class="cls-4" d="M140.16,150.31V100.68H123.7v60.4h2.68V173.2a18.31,18.31,0,0,1,8,2.45V150.31Z"></path> <path class="cls-5" d="M147.19,178.08h2.31V167.2h-2.31V155.09h2.31v-4.78H134.33v25.34A9.06,9.06,0,0,1,138,180l0,0v-1.88h3.68v.71c2.45-.28,5,.7,4,6.67,0,0,.62.1,1.53.33Zm-5.5-10.88H138V155.09h3.68Z"></path> <path class="cls-5" d="M179.15,189.12v-23h3.23V135.67l-12.22-9.56-4.25-3.33-8.16,6.42-8.25,6.47v19.42h1.37V167.2H149.5v10.88h1.37v9c3.42,1.58,6.43,4.51,1.48,9.57,0,0,5.89,3.46,4.52,10.28H177.7a8.44,8.44,0,0,1-1.13-2.82C175.92,200.76,176.21,195.15,179.15,189.12ZM170,142h3.68v12.11H170Zm0,23h3.68v12.11H170Zm-9.16-23h3.68v12.11h-3.68Zm0,23h3.68v12.11h-3.68Z"></path> <path class="cls-5" d="M210.09,166.1H179.15v23c.35-.71.73-1.43,1.16-2.15l.19-.31c.26-.43.53-.86.82-1.29l.35-.52.79-1.08.51-.66c.12-.14.22-.29.35-.44l0,0c.74-.89,1.52-1.79,2.41-2.67,2.79-2.79,4.35-3,7.38,0,3.14,3.14,7.87,11.22,8.41,20.33a12.73,12.73,0,0,1-1.14,6.52h9.73Z"></path> <path class="cls-5" d="M211.59,118.7h-1.5v88.19h7.8a14.57,14.57,0,0,1-4.95-8.08,25.56,25.56,0,0,1-.44-5.1v0c0-.56,0-1.14.05-1.74,0-.26,0-.52,0-.79s.05-.66.09-1,.08-.74.13-1.12c0-.19,0-.38.07-.58.08-.51.17-1,.27-1.57,0-.18.07-.36.11-.55.11-.55.23-1.11.37-1.67l.13-.52c.16-.59.32-1.18.5-1.77l.15-.46c.2-.63.41-1.27.64-1.91l.12-.31c.23-.61.48-1.22.74-1.84.05-.11.09-.23.15-.35.28-.66.59-1.32.92-2,.07-.14.14-.29.22-.44.33-.66.69-1.32,1.07-2l.24-.43c.4-.68.82-1.37,1.26-2.06l.2-.3,0,0V118.7h-8.41Zm7.68,43.83H215.6V150.42h3.67Zm0-23H215.6V127.43h3.67Z"></path> <rect class="cls-7" x="138.01" y="155.09" width="3.68" height="12.11"></rect> <polygon class="cls-7" points="147.19 167.2 149.5 167.2 150.87 167.2 150.87 155.09 149.5 155.09 147.19 155.09 147.19 167.2"></polygon> <path class="cls-7" d="M138,178.08V180a11.87,11.87,0,0,1,3.68-1.17v-.71Z"></path> <path class="cls-7" d="M150.87,178.08h-3.68v7.71a20.53,20.53,0,0,1,3.68,1.25Z"></path> <rect class="cls-7" x="160.86" y="141.96" width="3.68" height="12.11"></rect> <rect class="cls-7" x="170.02" y="141.96" width="3.68" height="12.11"></rect> <rect class="cls-7" x="160.86" y="164.95" width="3.68" height="12.11"></rect> <rect class="cls-7" x="170.02" y="164.95" width="3.68" height="12.11"></rect> <rect class="cls-7" x="215.6" y="127.43" width="3.68" height="12.11"></rect> <rect class="cls-7" x="215.6" y="150.42" width="3.68" height="12.11"></rect> <path class="cls-6" d="M153.37,213.9a16.86,16.86,0,0,0,3.5-7c1.37-6.82-4.52-10.28-4.52-10.28,5-5.06,1.94-8-1.48-9.57a20.53,20.53,0,0,0-3.68-1.25c-.91-.23-1.53-.33-1.53-.33,1.06-6-1.52-7-4-6.67A11.87,11.87,0,0,0,138,180l0,0a9.06,9.06,0,0,0-3.63-4.34,18.31,18.31,0,0,0-8-2.45V220h31.91a87.59,87.59,0,0,0,11-1.29C170.34,212.53,153.37,213.9,153.37,213.9Z"></path> <polygon class="cls-5" points="126.38 173.2 126.38 161.08 123.7 161.08 105.17 161.08 86.42 161.08 80.41 161.08 79.25 161.08 74.34 161.08 74.34 203 74.34 220 126.38 220 126.38 173.2"></polygon> <path class="cls-6" d="M216.07,177.51c.28-.66.59-1.32.92-2C216.66,176.19,216.35,176.85,216.07,177.51Z"></path> <path class="cls-6" d="M215.18,179.7c.23-.61.48-1.22.74-1.84C215.66,178.48,215.41,179.09,215.18,179.7Z"></path> <path class="cls-6" d="M218.52,172.66c.4-.68.82-1.37,1.26-2.06C219.34,171.29,218.92,172,218.52,172.66Z"></path> <path class="cls-6" d="M217.21,175.08c.33-.66.69-1.32,1.07-2C217.9,173.76,217.54,174.42,217.21,175.08Z"></path> <path class="cls-6" d="M213.64,184.67c-.14.56-.26,1.12-.37,1.67C213.38,185.79,213.5,185.23,213.64,184.67Z"></path> <path class="cls-6" d="M220,170.26h0l0,0Z"></path> <path class="cls-6" d="M214.42,181.92c.2-.63.41-1.27.64-1.91C214.83,180.65,214.62,181.29,214.42,181.92Z"></path> <path class="cls-6" d="M213.77,184.15c.16-.59.32-1.18.5-1.77C214.09,183,213.93,183.56,213.77,184.15Z"></path> <path class="cls-6" d="M212.69,190.16c0-.37.08-.74.13-1.12C212.77,189.42,212.72,189.79,212.69,190.16Z"></path> <path class="cls-6" d="M212.5,193.71v0Z"></path> <path class="cls-6" d="M212.55,192c0-.26,0-.52,0-.79C212.58,191.43,212.56,191.69,212.55,192Z"></path> <path class="cls-6" d="M212.89,188.46c.08-.51.17-1,.27-1.57C213.06,187.42,213,188,212.89,188.46Z"></path> <path class="cls-3" d="M217.89,206.89a17.64,17.64,0,0,0,2.11,1.59v0a18.1,18.1,0,0,1-2.09-1.57Z"></path> <path class="cls-8" d="M217.89,206.89a17.64,17.64,0,0,0,2.11,1.59v0a18.1,18.1,0,0,1-2.09-1.57Z"></path> <path class="cls-5" d="M218.28,173.09l.24-.43Z"></path> <path class="cls-8" d="M218.28,173.09l.24-.43Z"></path> <path class="cls-5" d="M217,175.52c.07-.14.14-.29.22-.44C217.13,175.23,217.06,175.38,217,175.52Z"></path> <path class="cls-8" d="M217,175.52c.07-.14.14-.29.22-.44C217.13,175.23,217.06,175.38,217,175.52Z"></path> <path class="cls-5" d="M215.92,177.86c.05-.11.09-.23.15-.35C216,177.63,216,177.75,215.92,177.86Z"></path> <path class="cls-8" d="M215.92,177.86c.05-.11.09-.23.15-.35C216,177.63,216,177.75,215.92,177.86Z"></path> <path class="cls-5" d="M213,198.81a26.2,26.2,0,0,1-.46-5.1,25.56,25.56,0,0,0,.44,5.1,14.57,14.57,0,0,0,4.95,8.08h0A14.63,14.63,0,0,1,213,198.81Z"></path> <path class="cls-8" d="M213,198.81a26.2,26.2,0,0,1-.46-5.1,25.56,25.56,0,0,0,.44,5.1,14.57,14.57,0,0,0,4.95,8.08h0A14.63,14.63,0,0,1,213,198.81Z"></path> <path class="cls-5" d="M219.78,170.6l.2-.3Z"></path> <path class="cls-8" d="M219.78,170.6l.2-.3Z"></path> <path class="cls-5" d="M215.06,180l.12-.31Z"></path> <path class="cls-8" d="M215.06,180l.12-.31Z"></path> <path class="cls-5" d="M214.27,182.38l.15-.46Z"></path> <path class="cls-8" d="M214.27,182.38l.15-.46Z"></path> <path class="cls-5" d="M213.64,184.67l.13-.52Z"></path> <path class="cls-8" d="M213.64,184.67l.13-.52Z"></path> <path class="cls-5" d="M213.16,186.89c0-.18.07-.36.11-.55C213.23,186.53,213.2,186.71,213.16,186.89Z"></path> <path class="cls-8" d="M213.16,186.89c0-.18.07-.36.11-.55C213.23,186.53,213.2,186.71,213.16,186.89Z"></path> <path class="cls-5" d="M212.5,193.69c0-.56,0-1.14.05-1.74C212.51,192.55,212.5,193.13,212.5,193.69Z"></path> <path class="cls-8" d="M212.5,193.69c0-.56,0-1.14.05-1.74C212.51,192.55,212.5,193.13,212.5,193.69Z"></path> <path class="cls-5" d="M212.82,189c0-.19,0-.38.07-.58C212.86,188.66,212.84,188.85,212.82,189Z"></path> <path class="cls-8" d="M212.82,189c0-.19,0-.38.07-.58C212.86,188.66,212.84,188.85,212.82,189Z"></path> <path class="cls-5" d="M212.6,191.16c0-.33.05-.66.09-1C212.65,190.5,212.62,190.83,212.6,191.16Z"></path> <path class="cls-8" d="M212.6,191.16c0-.33.05-.66.09-1C212.65,190.5,212.62,190.83,212.6,191.16Z"></path> <path class="cls-6" d="M219.78,170.6c-.44.69-.86,1.38-1.26,2.06l-.24.43c-.38.67-.74,1.33-1.07,2-.08.15-.15.3-.22.44-.33.67-.64,1.33-.92,2-.06.12-.1.24-.15.35-.26.62-.51,1.23-.74,1.84l-.12.31c-.23.64-.44,1.28-.64,1.91l-.15.46c-.18.59-.34,1.18-.5,1.77l-.13.52c-.14.56-.26,1.12-.37,1.67,0,.19-.07.37-.11.55-.1.53-.19,1.06-.27,1.57,0,.2,0,.39-.07.58,0,.38-.1.75-.13,1.12s-.07.67-.09,1,0,.53,0,.79c0,.6-.05,1.18-.05,1.74v0a26.2,26.2,0,0,0,.46,5.1,14.63,14.63,0,0,0,4.95,8.08,18.1,18.1,0,0,0,2.09,1.57v-38.2l0,0Z"></path> <path class="cls-8" d="M219.78,170.6c-.44.69-.86,1.38-1.26,2.06l-.24.43c-.38.67-.74,1.33-1.07,2-.08.15-.15.3-.22.44-.33.67-.64,1.33-.92,2-.06.12-.1.24-.15.35-.26.62-.51,1.23-.74,1.84l-.12.31c-.23.64-.44,1.28-.64,1.91l-.15.46c-.18.59-.34,1.18-.5,1.77l-.13.52c-.14.56-.26,1.12-.37,1.67,0,.19-.07.37-.11.55-.1.53-.19,1.06-.27,1.57,0,.2,0,.39-.07.58,0,.38-.1.75-.13,1.12s-.07.67-.09,1,0,.53,0,.79c0,.6-.05,1.18-.05,1.74v0a26.2,26.2,0,0,0,.46,5.1,14.63,14.63,0,0,0,4.95,8.08,18.1,18.1,0,0,0,2.09,1.57v-38.2l0,0Z"></path> <path class="cls-6" d="M199,209c-.07.08-.15.14-.22.22S198.88,209.06,199,209Z"></path> <path class="cls-6" d="M198.14,209.77l-.11.09Z"></path> <path class="cls-6" d="M197.25,210.45h0Z"></path> <path class="cls-6" d="M199.66,208.09c-.11.15-.22.28-.33.42C199.44,208.37,199.55,208.24,199.66,208.09Z"></path> <path class="cls-6" d="M201.5,200.37c-.54-9.11-5.27-17.19-8.41-20.33-3-3-4.59-2.79-7.38,0-.89.88-1.67,1.78-2.41,2.67-3.77,11.39-.38,20.71,5.48,23.42l.31-8.45.19,8.58,4.43-2.45-3.55,2.82c3.39.91,7.41-.23,11.31-4.19a11,11,0,0,1-1.73,5.53,11.26,11.26,0,0,0,.62-1.08A12.73,12.73,0,0,0,201.5,200.37Z"></path> <path class="cls-6" d="M182.46,183.77l.51-.66Z"></path> <path class="cls-6" d="M181.32,185.37l.35-.52Z"></path> <path class="cls-6" d="M180.31,187l.19-.31Z"></path> <path class="cls-3" d="M177.74,206.89h0c2.05,3.33,6.3,5.56,10.85,5.78v0C184,212.42,179.79,210.2,177.74,206.89Z"></path> <path class="cls-8" d="M177.74,206.89h0c2.05,3.33,6.3,5.56,10.85,5.78v0C184,212.42,179.79,210.2,177.74,206.89Z"></path> <path class="cls-3" d="M189.42,212.65v0h.66a14.23,14.23,0,0,0,7.16-2.21,14.19,14.19,0,0,1-7.13,2.18Z"></path> <path class="cls-8" d="M189.42,212.65v0h.66a14.23,14.23,0,0,0,7.16-2.21,14.19,14.19,0,0,1-7.13,2.18Z"></path> <path class="cls-3" d="M198,209.86a8.87,8.87,0,0,1-.78.59A8.87,8.87,0,0,0,198,209.86Z"></path> <path class="cls-8" d="M198,209.86a8.87,8.87,0,0,1-.78.59A8.87,8.87,0,0,0,198,209.86Z"></path> <path class="cls-3" d="M199.33,208.51c-.12.16-.25.32-.38.47C199.08,208.83,199.21,208.67,199.33,208.51Z"></path> <path class="cls-8" d="M199.33,208.51c-.12.16-.25.32-.38.47C199.08,208.83,199.21,208.67,199.33,208.51Z"></path> <path class="cls-3" d="M198.73,209.2c-.19.19-.38.39-.59.57A7.94,7.94,0,0,0,198.73,209.2Z"></path> <path class="cls-8" d="M198.73,209.2c-.19.19-.38.39-.59.57A7.94,7.94,0,0,0,198.73,209.2Z"></path> <path class="cls-3" d="M199.74,208l-.08.12Z"></path> <path class="cls-8" d="M199.74,208l-.08.12Z"></path> <path class="cls-5" d="M176.6,204.05c-.74-3.69-.3-10.25,3.71-17.08-.43.72-.81,1.44-1.16,2.15-2.94,6-3.23,11.64-2.58,14.95a8.44,8.44,0,0,0,1.13,2.82h0A8.56,8.56,0,0,1,176.6,204.05Z"></path> <path class="cls-8" d="M176.6,204.05c-.74-3.69-.3-10.25,3.71-17.08-.43.72-.81,1.44-1.16,2.15-2.94,6-3.23,11.64-2.58,14.95a8.44,8.44,0,0,0,1.13,2.82h0A8.56,8.56,0,0,1,176.6,204.05Z"></path> <path class="cls-5" d="M183.32,182.67c-.13.15-.23.3-.35.44l.33-.4Z"></path> <path class="cls-8" d="M183.32,182.67c-.13.15-.23.3-.35.44l.33-.4Z"></path> <path class="cls-5" d="M180.5,186.66c.26-.43.53-.86.82-1.29C181,185.8,180.76,186.23,180.5,186.66Z"></path> <path class="cls-8" d="M180.5,186.66c.26-.43.53-.86.82-1.29C181,185.8,180.76,186.23,180.5,186.66Z"></path> <path class="cls-5" d="M182.46,183.77l-.79,1.08Z"></path> <path class="cls-8" d="M182.46,183.77l-.79,1.08Z"></path> <path class="cls-6" d="M183.3,182.71l-.33.4-.51.66-.79,1.08-.35.52c-.29.43-.56.86-.82,1.29l-.19.31c-4,6.83-4.45,13.39-3.71,17.08a8.56,8.56,0,0,0,1.14,2.84c2,3.31,6.28,5.53,10.81,5.75l.06-1.59-4.41-6.25,4.46,4.69.12-3.36C182.92,203.42,179.53,194.1,183.3,182.71Z"></path> <path class="cls-8" d="M183.3,182.71l-.33.4-.51.66-.79,1.08-.35.52c-.29.43-.56.86-.82,1.29l-.19.31c-4,6.83-4.45,13.39-3.71,17.08a8.56,8.56,0,0,0,1.14,2.84c2,3.31,6.28,5.53,10.81,5.75l.06-1.59-4.41-6.25,4.46,4.69.12-3.36C182.92,203.42,179.53,194.1,183.3,182.71Z"></path> <path class="cls-6" d="M201.47,202.44c-3.9,4-7.92,5.1-11.31,4.19l-.86.67.12,5.35h.69a14.19,14.19,0,0,0,7.13-2.18h0a8.87,8.87,0,0,0,.78-.59l.11-.09c.21-.18.4-.38.59-.57s.15-.14.22-.22.26-.31.38-.47.22-.27.33-.42l.08-.12A11,11,0,0,0,201.47,202.44Z"></path> <path class="cls-8" d="M201.47,202.44c-3.9,4-7.92,5.1-11.31,4.19l-.86.67.12,5.35h.69a14.19,14.19,0,0,0,7.13-2.18h0a8.87,8.87,0,0,0,.78-.59l.11-.09c.21-.18.4-.38.59-.57s.15-.14.22-.22.26-.31.38-.47.22-.27.33-.42l.08-.12A11,11,0,0,0,201.47,202.44Z"></path> <polygon class="cls-9" points="189.42 212.65 189.3 207.31 189.01 207.54 189.01 206.41 189.28 206.26 189.09 197.68 188.78 206.13 188.66 209.49 189.01 209.85 188.82 211.35 188.61 211.05 188.55 212.64 188.55 212.67 188.28 220 189.59 220 189.42 212.68 189.42 212.65"></polygon> <polygon class="cls-9" points="184.2 204.8 188.61 211.05 188.82 211.35 189.01 209.85 188.66 209.49 184.2 204.8"></polygon> <polygon class="cls-9" points="190.16 206.63 193.71 203.81 189.28 206.26 189.01 206.41 189.01 207.54 189.3 207.31 190.16 206.63"></polygon> <path class="cls-4" d="M33.89,12.73H61.63a3.06,3.06,0,0,0,0-6.12H33.86a3.06,3.06,0,0,0,0,6.12Z"></path> </g> <g class="cls-10"> <path class="cls-3" d="M220,208.48V220h11.2l.29-7.9A23.11,23.11,0,0,1,220,208.48Z"></path> <polygon class="cls-4" points="232 149.48 233.16 149.48 233.16 51.91 220 51.91 220 118.7 232 118.7 232 149.48"></polygon> <path class="cls-5" d="M221.52,168.06a53.83,53.83,0,0,1,4.66-5.53h-1.43V150.42h3.68v9.92a13.87,13.87,0,0,1,1.35-1v-3.87H232V118.7H220v51.56c.48-.73,1-1.46,1.51-2.19Zm3.23-40.63h3.68v12.11h-3.68Z"></path> <path class="cls-6" d="M220,170.26h0c.48-.73,1-1.46,1.51-2.19C221,168.8,220.48,169.53,220,170.26Z"></path> <path class="cls-3" d="M231.49,212.1A23.09,23.09,0,0,1,220,208.46v0a23.11,23.11,0,0,0,11.49,3.62Z"></path> <path class="cls-8" d="M231.49,212.1A23.09,23.09,0,0,1,220,208.46v0a23.11,23.11,0,0,0,11.49,3.62Z"></path> <path class="cls-6" d="M231.58,209.57l-6.83-9.63,6.91,7.26.19-5.21c-9.1-4.19-14.35-18.66-8.47-36.32-.65.8-1.27,1.59-1.86,2.39h0c-.53.73-1,1.46-1.51,2.19v38.2a23.09,23.09,0,0,0,11.49,3.64Z"></path> <path class="cls-8" d="M231.58,209.57l-6.83-9.63,6.91,7.26.19-5.21c-9.1-4.19-14.35-18.66-8.47-36.32-.65.8-1.27,1.59-1.86,2.39h0c-.53.73-1,1.46-1.51,2.19v38.2a23.09,23.09,0,0,0,11.49,3.64Z"></path> </g> </svg> 