<?xml version="1.0" encoding="UTF-8"?> <svg xmlns="http://www.w3.org/2000/svg" viewBox="0 0 436.64 477.57"> <defs> <style>.cls-1,.cls-3{fill:#101820;}.cls-1{opacity:0.15;}.cls-2,.cls-8{fill:#fff;}.cls-4{fill:#ffd7cf;}.cls-5{fill:#f6564f;}.cls-6{fill:#efefef;}.cls-7{fill:#ea0029;}.cls-8{stroke:#101820;}.cls-8,.cls-9{stroke-linecap:round;stroke-linejoin:round;stroke-width:4px;}.cls-9{fill:none;stroke:#d8d8d8;}.cls-10{fill:#ffb71b;}</style> </defs> <title>Монтажная область 6 копия 3</title> <g id="Block_3" data-name="Block 3"> <ellipse class="cls-1" cx="210.72" cy="442.99" rx="150.01" ry="14.87"></ellipse> <g id="Block_3-2" data-name="Block 3"> <path class="cls-2" d="M325.05,388.94c5.89-18.75,18.21-43.69,24.61-51.65,6.24-7.75,12.7-13.42,21.07-13.28,8.91.15,16.91,7.33,20.22,14.72,7.46,16.72-8,37.08-13.58,44.47-19.6,25.87-49.4,33.79-63.58,36.45"></path> <path class="cls-3" d="M314.22,422c19.54-3.67,46.68-13.13,65-37.35,6-7.9,21.87-28.87,13.84-46.85-3.42-7.64-11.86-15.95-22.33-16.12-10.06-.23-17.24,7.07-22.95,14.16-6.36,7.9-18.94,33-25,52.42l4.5,1.42c5.94-18.91,18.1-43.3,24.2-50.88,7.08-8.8,13-12.55,19.19-12.4,8,.13,15.19,6.81,18.1,13.33,6.89,15.42-7.77,34.78-13.29,42.06-17.45,23-43.43,32.05-62.14,35.57Z"></path> <path class="cls-2" d="M129.3,317.45a4.77,4.77,0,0,1,3.47,7.63c-14.38,18.56-26.17,48.52-26.17,71.53C106.6,422.85,123,443,149.22,443H281.83a47.52,47.52,0,0,0,47.51-47.52c0-23.07-4.28-46.57-22-70.31-11.08-14.83-13.88-41.2-10.19-41.53"></path> <path class="cls-4" d="M295.71,293.52s6.63,23.05,17.65,38.56,17.5,50.28,14.25,69.84S309.51,442.26,284.7,443s-140.59-.61-140.59-.61-32.77-5.12-37-36.41,30.18-92.21,30.18-92.21Z"></path> <path class="cls-3" d="M149.22,445.35H281.83a49.93,49.93,0,0,0,49.87-49.88c0-28.79-6.93-50.91-22.5-71.72-10.21-13.66-12.34-35.67-10.83-38.32a1.4,1.4,0,0,1-1,.55l-.41-4.7a3.46,3.46,0,0,0-2.88,2.26c-2.56,5.73,1.09,29.26,11.38,43,14.91,19.94,21.56,41.2,21.56,68.9a45.2,45.2,0,0,1-45.15,45.16H149.22c-24.9,0-40.26-19.12-40.26-44,0-23.32,11.91-52.31,25.68-70.09a6.94,6.94,0,0,0,.89-7.1,7.26,7.26,0,0,0-6-4.32l-.42,4.7a2.53,2.53,0,0,1,2.11,1.5,2.26,2.26,0,0,1-.3,2.33c-14.35,18.54-26.66,48.69-26.66,73C104.24,424.11,121.72,445.35,149.22,445.35Z"></path> <path class="cls-5" d="M197.39,340.71c2.26,7.7,3.26,15.89,4.39,24s1.83,16.24,2.59,24.38,1.29,16.31,1.26,24.38a26,26,0,0,0,0,3.18,16.21,16.21,0,0,0,.63,3.49,22.22,22.22,0,0,0,2.89,6,35.71,35.71,0,0,0,8.9,9.11.9.9,0,0,0,1.22-1.31l0,0a58.86,58.86,0,0,1-6.85-9.7,23.46,23.46,0,0,1-2.16-5.17,18.19,18.19,0,0,1-.43-5.54c0-8.34-.73-16.55-1.5-24.76s-2-16.36-3.27-24.5q-1-6.1-2.35-12.15a82.2,82.2,0,0,0-3.45-12,1,1,0,0,0-1.85.64Z"></path> <path class="cls-5" d="M206,415.47a40.41,40.41,0,0,1-1.89,6.58,38.16,38.16,0,0,1-3,6.21,27.14,27.14,0,0,1-4.29,5.3,19.32,19.32,0,0,1-5.74,3.54l-.05,0a.88.88,0,0,0-.49,1.14.87.87,0,0,0,1.09.51,21,21,0,0,0,6.61-3.56,29.38,29.38,0,0,0,5-5.53,40.64,40.64,0,0,0,3.6-6.48,41.76,41.76,0,0,0,2.47-7.06,1.71,1.71,0,1,0-3.32-.83.29.29,0,0,0,0,.09Z"></path> <circle class="cls-5" cx="214.99" cy="376" r="2.85"></circle> <circle class="cls-5" cx="218.65" cy="404.49" r="2.85"></circle> <path class="cls-5" d="M281.43,389.56q-9.89.09-19.77,0c-6.56-.14-13.23-.2-19.58-.92H242a1.67,1.67,0,0,0-1.84,1.47v.18h0a65.47,65.47,0,0,0,2.48,20.06,31,31,0,0,0,4.35,9.41,17.5,17.5,0,0,0,8.32,6.75,19.34,19.34,0,0,0,2.62.82l2.71.29a10.58,10.58,0,0,0,2.64,0c.87-.09,1.74-.1,2.6-.26a20.81,20.81,0,0,0,9.65-4.22c5.59-4.66,7.8-11.83,7.75-18.57a.82.82,0,0,0-.84-.83.84.84,0,0,0-.83.76v.08c-.5,6.22-3.06,12.65-7.9,16.23a17.75,17.75,0,0,1-8.31,3.29c-3.06.22-6.17.4-8.8-.82a13.92,13.92,0,0,1-6.6-5.57,29.44,29.44,0,0,1-3.82-8.4,68.15,68.15,0,0,1-2.58-18.87h0l-1.9,1.64c6.8.43,13.35.15,20,0s13.21-.54,19.8-.93a.74.74,0,0,0-.05-1.48Z"></path> <path class="cls-5" d="M149.11,392.81q8.91.54,17.83.89c6,.18,11.86.45,18,.07l-1.9-1.64h0a61.89,61.89,0,0,1-2.32,16.94,26.88,26.88,0,0,1-3.42,7.51,12.39,12.39,0,0,1-5.86,5c-2.33,1.09-5.1.93-7.84.74a15.77,15.77,0,0,1-7.41-2.92c-4.33-3.17-6.66-8.92-7.13-14.5v-.07a.84.84,0,0,0-1.67.06c-.07,6.09,1.9,12.6,7,16.85a19,19,0,0,0,8.76,3.84c3,.37,6.47.62,9.61-.74a15.87,15.87,0,0,0,7.58-6.14,28.17,28.17,0,0,0,3.95-8.52A59.16,59.16,0,0,0,186.48,392h0v0a1.7,1.7,0,0,0-1.78-1.62h-.12c-5.69.66-11.71.73-17.61.87s-11.88.12-17.81.09a.74.74,0,0,0,0,1.48Z"></path> <path class="cls-2" d="M58.8,140.61l-4.16-79.2c-.76-14.47,18-22.73,29.71-13.08l52,42.76"></path> <path class="cls-6" d="M126.12,81.27s-29.79-2.14-70,27.37l1.41,31.29,36.19-5,44.8-44.55Z"></path> <path class="cls-3" d="M56.85,140.71l3.91-.2-4.17-79.2c-.29-5.6,2.77-10.57,8.19-13.31a16.86,16.86,0,0,1,18.33,1.84l52,42.76,2.49-3-52-42.76A20.78,20.78,0,0,0,63,44.51c-6.74,3.4-10.7,9.92-10.32,17Z"></path> <path class="cls-2" d="M41.71,199.11c-4-75.93,71.07-102.78,71.07-102.78,50.54-22.11,111.76-21.62,163.72-3.61l47.2-48c10.65-10.82,30.16-4.57,30.92,9.9l8.59,163.54a89.78,89.78,0,0,1-76.81,93.56L130,320A89.76,89.76,0,0,1,43.6,235l-1.89-35.86"></path> <path class="cls-3" d="M112,94.54c48.29-21.13,109.49-22.64,164-4.07l46.34-47.1a20.77,20.77,0,0,1,22.21-4.66c7.06,2.68,11.68,8.74,12.05,15.82l8.6,163.54A91.08,91.08,0,0,1,316.43,304a20.37,20.37,0,0,0-1.23-3.73,87.24,87.24,0,0,0,46.06-82l-8.6-163.54c-.29-5.59-3.85-10.22-9.52-12.37a17.66,17.66,0,0,0-4.45-1,16.65,16.65,0,0,0-13.59,4.8L277,95l-1.17-.4C222,75.9,161.33,77.23,113.44,98.17c-.73.26-73.64,27.21-69.77,100.84l1.88,35.86c2.37,45,39.46,81.51,84.32,83.15l152.78-8.14a20.93,20.93,0,0,0-2,4l-150.75,8q-3-.1-5.94-.41C79.66,317,44,280.12,41.64,235.08l-1.88-35.87C35.74,122.71,111.36,94.76,112,94.54Z"></path> <path class="cls-3" d="M303.62,103.81a7.84,7.84,0,0,1-4-13.88l19-15.19c8.56-6.83,22-.68,21.29,9.75l-1.66,24.64a7.81,7.81,0,0,1-13.32,5A37.29,37.29,0,0,0,303.62,103.81Z"></path> <ellipse class="cls-2" cx="86.34" cy="188.7" rx="17.43" ry="30.5" transform="translate(-13.71 6.9) rotate(-4.24)"></ellipse> <path class="cls-3" d="M87.83,221.06c-5,0-9.9-3.12-13.78-8.87s-6.38-13.61-7-22.06.68-16.57,3.68-22.86c3.16-6.63,7.86-10.51,13.22-10.9,10.84-.82,20.34,12.77,21.69,30.9S99.56,220.22,88.74,221h0C88.44,221.05,88.13,221.06,87.83,221.06Zm.62-3.86.15,1.91-.15-1.91c8.39-.62,14.51-14.2,13.36-29.65s-9.21-27.92-17.58-27.36c-3.93.29-7.49,3.4-10,8.74-2.72,5.69-3.89,13.12-3.32,20.91s2.84,15,6.36,20.2C80.54,215,84.54,217.5,88.45,217.2Z"></path> <path class="cls-3" d="M92.62,194.82A5.28,5.28,0,0,1,88.78,197,5.34,5.34,0,0,1,83.07,192a5.25,5.25,0,0,1,.52-2.65C79.91,191,77.5,197.1,78,204.12c.6,8,4.81,14.29,9.4,13.95s7.84-7.14,7.24-15.18A22.78,22.78,0,0,0,92.62,194.82Z"></path> <ellipse class="cls-2" cx="207.39" cy="180.69" rx="17.43" ry="30.5" transform="translate(-12.79 15.82) rotate(-4.24)"></ellipse> <path class="cls-3" d="M208.88,213.06c-5,0-9.89-3.12-13.77-8.87s-6.38-13.61-7-22.07.68-16.56,3.68-22.85c3.17-6.63,7.86-10.51,13.22-10.91,10.84-.8,20.34,12.77,21.69,30.9.63,8.46-.68,16.57-3.68,22.86-3.17,6.63-7.86,10.51-13.22,10.91h0C209.49,213.05,209.19,213.06,208.88,213.06Zm-3-60.89c-.2,0-.4,0-.6,0-3.93.29-7.49,3.39-10,8.73-2.72,5.7-3.89,13.12-3.32,20.92s2.84,15,6.37,20.2c3.3,4.91,7.32,7.42,11.22,7.16s7.49-3.39,10-8.73c2.72-5.69,3.89-13.13,3.31-20.92C221.75,164.46,214.05,152.17,205.88,152.17Z"></path> <path class="cls-3" d="M213.67,186.82a5.29,5.29,0,0,1-9-5.44c-3.68,1.65-6.08,7.72-5.56,14.74.59,8,4.8,14.28,9.39,13.94s7.84-7.13,7.25-15.17A22.94,22.94,0,0,0,213.67,186.82Z"></path> <path class="cls-3" d="M155.07,209.11l-11.7.33a4.2,4.2,0,0,0-3.47,6.4l6.14,10a4.21,4.21,0,0,0,7.28-.21l5.57-10.3A4.2,4.2,0,0,0,155.07,209.11Z"></path> <line class="cls-2" x1="149.34" y1="221.74" x2="154.34" y2="251.42"></line> <path class="cls-3" d="M151.45,221.38c.56.07.42.25.48.4l.08.46.16.93.32,1.85.65,3.71,1.28,7.41q1.34,7.41,2.44,14.85l-5,.85q-1.38-7.4-2.56-14.83L148,229.59l-.61-3.71-.3-1.86-.15-.93-.08-.46c0-.16-.19-.29.32-.53Z"></path> <path class="cls-3" d="M188.44,260.36c-2.22,18.7-13.79,33.43-29.21,35.14S129.28,285.39,123,267.62c-2.2-6.21.73-13.07,5.86-13.65l50.84-5.64C184.85,247.76,189.21,253.81,188.44,260.36Z"></path> <path class="cls-3" d="M159.35,297.68c-16.22,1.8-31.69-10-38.51-29.32a14.35,14.35,0,0,1,1.1-12.17,8.9,8.9,0,0,1,6.58-4.37l50.83-5.65a9,9,0,0,1,7.39,2.82,14.41,14.41,0,0,1,3.74,11.64h0C188.07,281,175.55,295.88,159.35,297.68ZM129,256.16a4.68,4.68,0,0,0-3.37,2.35,9.93,9.93,0,0,0-.68,8.4c6,17.11,20,28,33.91,26.44s25.15-15.21,27.29-33.23h0a9.91,9.91,0,0,0-2.51-8.05,4.67,4.67,0,0,0-3.81-1.56Z"></path> <path class="cls-7" d="M136,284.58s7.1-15,21.79-11.84c0,0,7.93-8.63,26.65-4.38,0,0-5.06,22.62-25.6,25C145.36,294.85,136,284.58,136,284.58Z"></path> <path class="cls-2" d="M140.21,334.2c-25.5-21.3-49.39-28.92-54.47-23.78-11.06,11.19,13.57,33.46,40.42,55.87"></path> <path class="cls-4" d="M126.87,366.54,97.59,340.48s11.06-9.48,11.55-28.59c9.43,5.95,30.22,18.66,30,22.24s-2.43,8.73-2.43,8.73l-7.92,25.5Z"></path> <path class="cls-3" d="M85.17,308.41c7-5.12,31,3.23,56.08,24.18a2.19,2.19,0,0,1,.38,2.79,1.62,1.62,0,0,1-2.45.44c-25.79-21.54-48.45-27.8-52.28-23.9a6.92,6.92,0,0,0-2.11,5.39c.47,11.45,22.14,30.45,42.41,47.36a2.2,2.2,0,0,1,.38,2.8,1.62,1.62,0,0,1-2.45.44c-27.39-22.86-43.34-38.44-43.84-50.41a11.11,11.11,0,0,1,3.29-8.58A5.84,5.84,0,0,1,85.17,308.41Z"></path> <path class="cls-3" d="M96.49,338.23l2.19,4.5c.43-.28,10.76-7,12.65-28.19l-4.48-.52C105.21,332.37,96.85,338,96.49,338.23Z"></path> <path class="cls-5" d="M111.1,348.75A25.23,25.23,0,0,0,115,343a58.83,58.83,0,0,0,2.72-6.2,100.22,100.22,0,0,0,3.83-12.95.7.7,0,0,0-.42-.82.59.59,0,0,0-.71.43,93.24,93.24,0,0,1-4.59,12.31,52.28,52.28,0,0,1-3,5.66,23.41,23.41,0,0,1-3.56,4.66l-.14.12a1.88,1.88,0,0,0-.24,2.41,1.38,1.38,0,0,0,2.11.28Z"></path> <path class="cls-8" d="M89.57,312.17s9.77-.64,9.77,8.79-19.64,6.28-19.64,6.28"></path> <path class="cls-8" d="M95.94,305.84H43.63s.44,26.67,26.16,26.67S95.94,305.84,95.94,305.84Z"></path> <path class="cls-9" d="M60.52,267.5l3.55,3.55a9.76,9.76,0,0,1,0,13.79h0a9.73,9.73,0,0,0,0,13.77h0L67,301.56"></path> <path class="cls-9" d="M71.23,263.22l3.54,3.54a9.74,9.74,0,0,1,0,13.78h0"></path> <path class="cls-2" d="M288.71,354.4c25.81-24.8,37.94-50.13,33.92-56.68-8.75-14.26-35.34,9.38-62.49,35.48"></path> <path class="cls-4" d="M259.48,333.74,293.13,304a27.69,27.69,0,0,0,21.31,18.66C306.69,334.26,286.89,357,286.89,357Z"></path> <path class="cls-3" d="M324.74,297.05c3.63,8.63-9.25,34-34.63,58.4a2,2,0,1,1-2.74-2.86c26.09-25.06,36.66-49.27,33.6-54.21a6.41,6.41,0,0,0-4.85-3.28c-11.27-1.44-34.08,19.46-54.57,39.16a2,2,0,0,1-2.81-.06,2,2,0,0,1,.06-2.8c27.69-26.63,46-41.75,57.83-40.24a10.3,10.3,0,0,1,7.73,5.15A5.72,5.72,0,0,1,324.74,297.05Z"></path> <path class="cls-3" d="M314.86,320.51a27.21,27.21,0,0,1-20.28-17.18l-4.11,1.33A31.54,31.54,0,0,0,314,324.75Z"></path> <path class="cls-3" d="M190.71,220.43A29.56,29.56,0,0,1,171,212.79,32.68,32.68,0,0,1,160.18,191L157.51,160a11.54,11.54,0,0,1,2.44-8.19,10.52,10.52,0,0,1,7.36-4l63.19-5.42a11.07,11.07,0,0,1,11.73,10.33l2.67,31.07A32.67,32.67,0,0,1,238,207a29.5,29.5,0,0,1-20.67,11.22l-24.07,2.07C192.39,220.4,191.55,220.43,190.71,220.43Zm-23.09-69a6.94,6.94,0,0,0-4.8,2.62,7.87,7.87,0,0,0-1.65,5.59l2.67,31.07a29.06,29.06,0,0,0,9.56,19.33,25.78,25.78,0,0,0,19.52,6.61L217,214.6a25.88,25.88,0,0,0,18.11-9.85,29.05,29.05,0,0,0,6.13-20.67L238.57,153a7.44,7.44,0,0,0-7.76-7Z"></path> <path class="cls-3" d="M75.89,230.57a26.1,26.1,0,0,1-18.33-7.85A34.49,34.49,0,0,1,47.64,201L45,169.89c-.54-6.21,3.48-11.64,8.94-12.11l57.19-4.91a9.39,9.39,0,0,1,7.4,2.79,12.08,12.08,0,0,1,3.48,7.61l2.67,31.07c1.51,17.59-9.65,33-24.87,34.27L78,230.48C77.29,230.54,76.59,230.57,75.89,230.57ZM54.24,161.44c-3.45.3-6,3.94-5.6,8.13l2.66,31.07a30.84,30.84,0,0,0,8.84,19.46,22.19,22.19,0,0,0,17.54,6.72L99.47,225c13.21-1.13,22.87-14.72,21.53-30.29l-2.67-31.07a8.4,8.4,0,0,0-2.4-5.31,5.73,5.73,0,0,0-4.5-1.75Z"></path> <rect class="cls-3" x="121.83" y="180.21" width="39.35" height="3.67" transform="translate(-15.12 12.84) rotate(-4.93)"></rect> <path class="cls-3" d="M352.49,185.21a1.85,1.85,0,0,1-2.6-.11l-11.83-12.85a30.82,30.82,0,0,0-28-9.54l-67.64,11.6-.62-3.63,67.64-11.59a34.5,34.5,0,0,1,31.34,10.67l11.83,12.85a1.85,1.85,0,0,1-.1,2.6Z"></path> <polygon class="cls-10" points="157.3 303.74 162.7 339.86 198.61 316.03 157.3 303.74"></polygon> <path class="cls-3" d="M163.77,342.2a2.57,2.57,0,0,1-3.61-2l-5.4-36.13a2.56,2.56,0,0,1,.86-2.32,2.59,2.59,0,0,1,2.42-.52l41.3,12.29a2.57,2.57,0,0,1,.69,4.61L164.12,342A2.43,2.43,0,0,1,163.77,342.2Zm-3.33-34.85,4.21,28.13,28-18.56Z"></path> <polygon class="cls-10" points="234.51 292.19 239.91 328.32 198.61 316.03 234.51 292.19"></polygon> <path class="cls-3" d="M241,330.65a2.53,2.53,0,0,1-1.8.13l-41.3-12.29a2.57,2.57,0,0,1-.69-4.61l35.9-23.83a2.58,2.58,0,0,1,4,1.76l5.4,36.13a2.61,2.61,0,0,1-.86,2.32A2.69,2.69,0,0,1,241,330.65Zm-36.37-15.52,32.16,9.57-4.2-28.13Z"></path> <line class="cls-10" x1="181.73" y1="318.55" x2="165.96" y2="316.67"></line> <path class="cls-3" d="M182.79,320.89a2.52,2.52,0,0,1-1.37.21l-15.77-1.87a2.57,2.57,0,1,1,.61-5.11L182,316a2.57,2.57,0,0,1,.76,4.89Z"></path> <line class="cls-10" x1="226.58" y1="309.61" x2="227.87" y2="309.27"></line> <path class="cls-3" d="M228.94,311.6a2.74,2.74,0,0,1-.4.15l-1.29.35a2.57,2.57,0,0,1-1.34-5l1.29-.34a2.57,2.57,0,0,1,1.74,4.81Z"></path> <line class="cls-10" x1="210.31" y1="314.01" x2="220.61" y2="311.23"></line> <path class="cls-3" d="M221.68,313.56a2.37,2.37,0,0,1-.4.15L211,316.49a2.57,2.57,0,1,1-1.34-5l10.3-2.79a2.57,2.57,0,0,1,1.74,4.82Z"></path> <circle class="cls-10" cx="198.61" cy="316.03" r="9.55"></circle> <path class="cls-3" d="M203.64,327.05a11.93,11.93,0,0,1-3.24,1,12.11,12.11,0,1,1,10.19-13.77h0A12.12,12.12,0,0,1,203.64,327.05Zm-7.94-17.37a7,7,0,1,0,9.81,5.32h0a7,7,0,0,0-7.94-5.87A7.34,7.34,0,0,0,195.7,309.68Zm12.35,4.94,0,0Z"></path> </g> </g> </svg> 