<?xml version="1.0" encoding="UTF-8"?> <svg xmlns="http://www.w3.org/2000/svg" viewBox="0 0 436.64 477.57"> <defs> <style>.cls-1,.cls-3{fill:#101820;}.cls-1{opacity:0.15;}.cls-2,.cls-9{fill:#fff;}.cls-4{fill:#ffb71b;}.cls-5{fill:#bf8914;}.cls-6{fill:#ea0029;}.cls-7{fill:#009845;}.cls-8{opacity:0.5;}.cls-9{stroke:#101820;stroke-miterlimit:10;stroke-width:2px;}</style> </defs> <title>Монтажная область 9 копия</title> <g id="Block_3" data-name="Block 3"> <ellipse class="cls-1" cx="218.36" cy="443.61" rx="150.01" ry="14.87"></ellipse> <path class="cls-2" d="M311.89,396.22c11.83-9.87,30.52-21.1,38.11-23.63,7.4-2.46,14.07-3.46,19.53.18,5.81,3.87,8,12,7.08,18.28-2.16,14.18-21,21.06-27.79,23.56-23.89,8.74-46.9,1.33-57.37-2.92"></path> <path class="cls-3" d="M325.2,420.45a92.46,92.46,0,0,1-34.41-7.16l1.31-3.21c13.85,5.63,34.83,10.7,56.12,2.9,6.75-2.47,24.66-9,26.68-22.19.85-5.58-1-13.06-6.33-16.57-4.19-2.8-9.58-2.79-18,0-7.25,2.42-25.62,13.36-37.55,23.31l-2.22-2.67C323,384.7,341.92,373.46,349.46,371c6.74-2.25,14.52-4,21,.38s8.86,13.32,7.84,20c-2.32,15.21-21.64,22.27-28.91,24.93A70.07,70.07,0,0,1,325.2,420.45Z"></path> <path class="cls-4" d="M151.45,345.4a3.74,3.74,0,0,1,2.72,6c-11.27,14.55-18.43,36.95-18.43,55A37.24,37.24,0,0,0,173,443.61H276.92a37.24,37.24,0,0,0,37.25-37.24c0-18.09-3.36-36.5-17.27-55.11-8.69-11.63-10.88-32.3-8-32.55"></path> <path class="cls-5" d="M188.54,346.42s6.5,21.79,30.53,18,32.68-31.71,32.68-31.71Z"></path> <path class="cls-3" d="M276.92,445.35H173a39,39,0,0,1-39-39c0-19,7.56-41.55,18.8-56.06a1.86,1.86,0,0,0,.24-1.94,2.07,2.07,0,0,0-1.75-1.24l.31-3.46a5.59,5.59,0,0,1,4.63,3.32,5.32,5.32,0,0,1-.69,5.45c-10.8,13.95-18.06,35.62-18.06,53.93A35.54,35.54,0,0,0,173,441.88H276.92a35.55,35.55,0,0,0,35.51-35.51c0-21.74-5.22-38.42-16.92-54.07-8.05-10.76-10.91-29.15-8.91-33.62a2.61,2.61,0,0,1,2.16-1.7l.3,3.46a1,1,0,0,0,.73-.38c-1.18,2,.56,19.54,8.5,30.16,12.18,16.29,17.61,33.61,17.61,56.15A39,39,0,0,1,276.92,445.35Z"></path> <path class="cls-2" d="M353.74,161.86c-.62-6.84-3-16.14-6-25.69a191.87,191.87,0,0,1-33.48,9.77c-20.62,4.09-42.75,9.14-63.66,5.09a18,18,0,0,1-7.16-3c-50.2,14.15-106.89,8.86-158.87,7.87-.13.57-.28,1.13-.4,1.71-2.79,13.63-16.09,15.9-25.74,10.82l-.88,5.95a223.74,223.74,0,0,0-1.27,55l4.88,48.49a84.9,84.9,0,0,0,85.25,76.42L250.52,344l43.33-4.49a84.92,84.92,0,0,0,68.51-91.88S355.72,183.72,353.74,161.86Z"></path> <path class="cls-3" d="M145.65,356a86.17,86.17,0,0,1-86.2-78l-4.87-48.5a225.26,225.26,0,0,1,1.27-55.4l1.24-8.36,2.17,1.14c5.1,2.69,11.08,3,15.6.88,4-1.88,6.6-5.52,7.63-10.52.07-.38.17-.76.26-1.13l.46-2,1.41,0c9.24.18,18.62.49,28.08.8,43.88,1.45,89.26,3,130.29-8.6l.81-.23.68.49a16.34,16.34,0,0,0,6.47,2.66c19.14,3.72,39.25-.32,58.7-4.22l4.3-.86a190.89,190.89,0,0,0,33.17-9.68l1.74-.7.56,1.79c3.45,11.07,5.49,19.83,6.05,26,2,21.6,8.55,85.1,8.62,85.74,4.44,44.28-26.27,85.46-69.92,93.76l-43.47,4.52L146.6,356ZM59.83,171l-.54,3.65A222.22,222.22,0,0,0,58,229.21l4.87,48.5a82.59,82.59,0,0,0,83.51,74.85l103.94-10.3,43.32-4.49c41.75-7.95,71.23-47.48,67-90-.06-.63-6.66-64.15-8.62-85.77h0c-.51-5.65-2.31-13.56-5.36-23.55a195.17,195.17,0,0,1-32,9.17l-4.28.86c-19.79,4-40.24,8.08-60,4.23a20.1,20.1,0,0,1-7.14-2.77c-41.34,11.47-86.69,10-130.56,8.51-9-.29-17.87-.59-26.64-.77l-.06.3c-1.58,7.72-6.06,11.31-9.55,13C71.51,173.25,65.36,173.24,59.83,171Z"></path> <path d="M122.38,192.18a1.74,1.74,0,0,1-.44-3.42c7.41-1.94,17.48-9.94,17.58-10a1.74,1.74,0,1,1,2.17,2.71c-.44.35-10.74,8.54-18.87,10.67A1.67,1.67,0,0,1,122.38,192.18Z"></path> <path d="M263.2,183.47a1.77,1.77,0,0,1-.5-.07c-.53-.16-13.13-4-19.52-9.41a1.74,1.74,0,0,1,2.26-2.64c5.82,5,18.13,8.69,18.25,8.72a1.74,1.74,0,0,1-.49,3.4Z"></path> <path class="cls-4" d="M340.36,130.05s-12.31-32.58-27.87-40.9S284.9,96.75,278.06,96s-41.12-56.83-75.38-54.29-84.32,59.51-96.52,65.15-30.76-.72-39.45,38.73C104.35,172.67,293.67,148.51,340.36,130.05Z"></path> <path class="cls-3" d="M139.92,159.29C106,159.29,78,155.85,65.7,147l-.93-.66.24-1.12c7-31.92,20.9-35,32-37.47a41.86,41.86,0,0,0,8.39-2.46c3.45-1.6,10.9-8.26,19.52-16C146.11,70.4,178.06,41.81,202.55,40c25.2-1.77,49.77,26.18,64.5,42.93C271.6,88.1,276.77,94,278.27,94.3c1.76.19,4.63-1.48,7.69-3.24,6.86-4,16.25-9.39,27.35-3.44,16,8.53,28.16,40.46,28.68,41.82l.6,1.6-1.59.62C310.18,143.85,211.82,159.29,139.92,159.29ZM68.66,144.85c39.26,25.69,222.14,1.78,269.44-15.79-2.69-6.59-13.55-31.5-26.43-38.39-9.39-5-17.48-.35-24,3.4-3.71,2.14-6.9,4-9.81,3.68-2.56-.27-6-4-13.44-12.54C250.14,69,226.17,41.63,202.81,43.46s-54.74,29.85-75.53,48.45c-9.56,8.56-16.47,14.74-20.39,16.55a44.51,44.51,0,0,1-9.08,2.7C87.23,113.51,75.27,116.16,68.66,144.85Z"></path> <ellipse class="cls-2" cx="133.63" cy="238.57" rx="16.82" ry="29.43" transform="translate(-21.2 13.18) rotate(-5.23)"></ellipse> <path class="cls-3" d="M135.4,269.65c-4.75,0-9.38-2.9-13.14-8.28s-6.36-13-7.11-21.11.38-16,3.16-22c2.92-6.42,7.36-10.21,12.48-10.68S141,210,145,215.77c3.84,5.49,6.37,13,7.11,21.1,1.59,17.41-5.27,31.78-15.63,32.73C136.11,269.63,135.76,269.65,135.4,269.65ZM131.84,211c-.25,0-.49,0-.74,0-3.83.35-7.25,3.43-9.63,8.66-2.54,5.55-3.55,12.76-2.86,20.29s3,14.44,6.5,19.44c3.29,4.71,7.19,7.13,11,6.76,8.14-.74,13.86-14,12.49-28.95-.68-7.53-3-14.43-6.49-19.43C139.06,213.34,135.43,211,131.84,211Z"></path> <ellipse class="cls-2" cx="284.35" cy="224.76" rx="16.82" ry="29.43" transform="translate(-19.31 26.87) rotate(-5.23)"></ellipse> <path class="cls-3" d="M286.12,255.85c-4.75,0-9.38-2.91-13.14-8.28s-6.37-13-7.11-21.11c-1.59-17.4,5.28-31.78,15.63-32.73,5.08-.43,10.17,2.45,14.21,8.23,3.84,5.49,6.37,13,7.11,21.11s-.37,16-3.16,22.05c-2.92,6.42-7.35,10.21-12.47,10.68C286.83,255.83,286.48,255.85,286.12,255.85Zm-3.56-58.7a6.12,6.12,0,0,0-.74,0c-8.14.74-13.86,14-12.49,28.95.69,7.53,3,14.43,6.49,19.44,3.3,4.71,7.2,7.14,11.05,6.76s7.25-3.42,9.64-8.66c2.53-5.55,3.54-12.76,2.85-20.29s-3-14.44-6.49-19.44C289.78,199.54,286.15,197.15,282.56,197.15Z"></path> <path class="cls-3" d="M139.54,230.09a5.11,5.11,0,0,1-8.81-5.1c-3.52,1.65-5.74,7.55-5.12,14.31.71,7.75,4.88,13.7,9.3,13.29s7.44-7,6.73-14.76A21.78,21.78,0,0,0,139.54,230.09Z"></path> <path class="cls-3" d="M290.26,216.28a5.12,5.12,0,0,1-9.26-2.53,5.15,5.15,0,0,1,.45-2.57c-3.52,1.66-5.74,7.55-5.12,14.32.71,7.74,4.87,13.7,9.3,13.29s7.44-7,6.73-14.76A22.11,22.11,0,0,0,290.26,216.28Z"></path> <path class="cls-3" d="M226.7,272.62c5.68-.43,21.8,9.6,20.57,15.16-3.51,15.86-17.06,26.32-34.1,27.6s-32.3-7-38.15-22.16c-2.05-5.31,19.38-23.14,25-23.57"></path> <path class="cls-6" d="M182.68,305s11.62-18.67,33.15-9.05c0,0,15.53-10.37,29.54-2.16-12.75,18-15.46,18.09-29.54,21.33S182.68,305,182.68,305Z"></path> <path class="cls-3" d="M209.71,317.25c-16.69,0-30.72-8.92-36.31-23.4-1-2.56-.93-4.75.18-6.5,1.36-2.16,4.24-3.42,8.54-3.74l.26,3.46c-3.06.23-5.14,1-5.86,2.13-.49.78-.45,1.92.12,3.4,5.43,14,19.7,22.31,36.39,21,16.52-1.25,29.29-11.55,32.55-26.25.47-2.15-.2-2.93-.42-3.18-1-1.14-3.34-1.63-6.64-1.37l-.26-3.47c4.54-.33,7.75.53,9.52,2.56,1.36,1.57,1.75,3.66,1.19,6.22-3.6,16.22-17.6,27.59-35.67,28.95C212.09,317.2,210.89,317.25,209.71,317.25Z"></path> <path class="cls-3" d="M212.06,247.37l-9.72.73a3.5,3.5,0,0,0-2.62,5.46l5.49,8.05a3.5,3.5,0,0,0,6-.46l4.23-8.78A3.5,3.5,0,0,0,212.06,247.37Z"></path> <line class="cls-2" x1="207.75" y1="255.43" x2="209.04" y2="272.49"></line> <rect x="206.66" y="255.41" width="3.47" height="17.11" transform="translate(-19.24 16.4) rotate(-4.31)"></rect> <path class="cls-3" d="M206.72,259.32c6.85,2.78,4.93,29.79-20.46,35.95-25,6.08-31-32-31-32s10.52,17.88,21.69,15.7C190.84,276.29,191.49,253.15,206.72,259.32Z"></path> <path class="cls-3" d="M208.57,259.14c-6.19,4.05.9,30.18,27,31.33,25.75,1.14,24.29-37.35,24.29-37.35S253,272.7,241.61,272.71C227.42,272.73,222.33,250.15,208.57,259.14Z"></path> <path class="cls-2" d="M144,377.48C117.25,363,101.6,345,103.41,338.73c4-13.65,31.06-.29,59.18,14.95"></path> <path class="cls-4" d="M129.57,336.72c0,.36-6,16.08-13.92,24.13,9.52,17.48,33.8,19.44,33.8,19.44l14.83-25.23Z"></path> <path class="cls-3" d="M144.73,378.56a1.3,1.3,0,0,1-1.37.07c-26.93-14.57-43.34-32.92-41.21-40.26a8.43,8.43,0,0,1,4.95-5.72c10.13-4.24,33.28,7.49,56.12,19.87a1.31,1.31,0,0,1-1.25,2.31c-21.31-11.54-44.8-23.55-53.85-19.76a5.83,5.83,0,0,0-3.45,4c-1.55,5.37,13.59,23,39.94,37.22a1.32,1.32,0,0,1,.12,2.24Z"></path> <path class="cls-2" d="M247.21,375.28c15.67,26.05,34.37,40.87,40.55,38.78,13.46-4.57-1.11-31-17.61-58.45"></path> <path class="cls-4" d="M263.39,403.08c8.48-7.63,27.4-15.05,27.4-15.05l-20.67-35-28.05,23Z"></path> <path class="cls-3" d="M246.1,374.59a1.32,1.32,0,0,0,0,1.37c15.78,26.24,34.85,41.8,42.09,39.34a8.4,8.4,0,0,0,5.49-5.21c3.77-10.31-9-32.9-22.4-55.15a1.3,1.3,0,0,0-1.8-.45,1.32,1.32,0,0,0-.45,1.8c12.5,20.76,25.56,43.68,22.18,52.9a5.79,5.79,0,0,1-3.86,3.62c-5.3,1.8-23.55-12.53-39-38.21a1.31,1.31,0,0,0-2.24,0Z"></path> <path class="cls-3" d="M215.66,366.53c-21.84,0-27.07-15.89-27.12-16l3.31-1c.18.55,4.61,13.61,23.81,13.61,19.51,0,29.32-19.26,29.42-19.45l3.11,1.55C247.75,346,237.3,366.53,215.66,366.53Z"></path> <path class="cls-3" d="M115.53,358.16c9.41-11.4,11.71-21.52,11.73-21.61l3.4.74c-.1.44-2.51,11-12.45,23.08Z"></path> <path class="cls-3" d="M268.78,402.33l-3.08-1.6c.17-.32,4.3-8,22.09-12.7l.89,3.36C272.62,395.65,268.82,402.26,268.78,402.33Z"></path> <path class="cls-2" d="M275.45,122.67c5.54,8.45,16.68,12.24,26.1,13.89,10,1.75,23,2.47,32.33-2.09.5-.25.94-.56,1.41-.84L330.6,75.1c-1-11.85-17.1-16.53-25.59-7.41l-35.11,37.7C270.84,111.49,272.12,117.61,275.45,122.67Z"></path> <path class="cls-2" d="M104.54,140.49c8.65-2.32,18.29-5.78,24.35-12.72A22,22,0,0,0,134,115.49l-39.33-36C85.51,71.1,69.79,77.05,69.79,89v53.53C80.92,145.13,92.22,143.79,104.54,140.49Z"></path> <path class="cls-3" d="M270.24,107.39l35.95-38.61A13.85,13.85,0,0,1,320.9,65.3c4.7,1.64,7.73,5.35,8.1,9.93l4.75,59.29.13-.05a22.1,22.1,0,0,0,2.95-1.76L332.2,75A14.76,14.76,0,0,0,322,62.27a17,17,0,0,0-18.11,4.33L269.6,103.36C269.8,104.7,270,106,270.24,107.39Z"></path> <path class="cls-3" d="M71.4,142.82V89c0-4.6,2.72-8.54,7.28-10.55a14.3,14.3,0,0,1,5.76-1.22,13.56,13.56,0,0,1,9.18,3.51l40.09,36.68a37.54,37.54,0,0,0,.54-3.85L95.78,78.32a17.06,17.06,0,0,0-18.4-2.86A14.76,14.76,0,0,0,68.19,89v53.11C69.26,142.35,70.33,142.6,71.4,142.82Z"></path> <path class="cls-3" d="M110,123.51a6.43,6.43,0,0,0,4-11.14L99.31,98.88c-6.64-6.06-18-1.77-18,6.81V126A6.41,6.41,0,0,0,92,130.78,30.63,30.63,0,0,1,110,123.51Z"></path> <path class="cls-3" d="M311.89,118.57a6.41,6.41,0,0,0,10.21-5.66l-1.62-20.19c-.69-8.56-12.33-11.93-18.46-5.35L288.4,102a6.44,6.44,0,0,0,4.89,10.79A30.6,30.6,0,0,1,311.89,118.57Z"></path> <path class="cls-3" d="M84.49,144.75a138.56,138.56,0,0,1-14.85-.85,1.43,1.43,0,0,1-1.27-1.57A1.41,1.41,0,0,1,70,141.06c23.62,2.56,41.12-.77,52-9.93,8.91-7.48,9.92-16.16,10-16.66a1.43,1.43,0,0,1,2.61-.77c.75,1.1-.82,6.74-3.51,11.22C125.36,134.38,112.68,144.75,84.49,144.75Z"></path> <path class="cls-3" d="M309.31,138.65c-11.84,0-21.32-2.81-28.35-8.42-12.47-9.95-12.31-24.93-12.3-25.56a1.51,1.51,0,0,1,1.45-1.4,1.42,1.42,0,0,1,1.4,1.45c0,.14-.11,14.25,11.26,23.3,10.91,8.69,28.47,10.11,52.18,4.22a1.43,1.43,0,1,1,.69,2.77A110.33,110.33,0,0,1,309.31,138.65Z"></path> <path class="cls-4" d="M354.54,170.39S218.25,195.44,55.18,193.51c-6.69-3.19-2-43.95,6.93-49.9s69.05-2,148.31-8.13S342.9,117,348.33,123.9,360.4,165.12,354.54,170.39Z"></path> <path class="cls-5" d="M76.13,140.82s-8.34,22-2.54,52.8c10.13,0,22.44-.17,22.44-.17S93.64,156,97,139.9C86.38,139.9,76.13,140.82,76.13,140.82Z"></path> <path class="cls-5" d="M125.24,139.31s-2.4,34.14,0,53.46L146.7,192s-1.7-45.76,1.69-53.23C137.53,139.22,125.24,139.31,125.24,139.31Z"></path> <path class="cls-5" d="M176.4,137.62s-1.22,39.12,2.4,52.82l25.61-2s-4.91-44.22-3.43-52.27C190.31,136.17,176.4,137.62,176.4,137.62Z"></path> <path class="cls-5" d="M225.21,134.24s5.84,43.26,4.21,52.11c6.59-.61,22-2.12,22-2.12s.17-31-2.31-52.36C241.54,131.87,225.21,134.24,225.21,134.24Z"></path> <path class="cls-5" d="M276.57,128.66s3.95,39.14,3.89,52.36c7.66,0,22.1-2.77,22.1-2.77s2.27-39.24,1-53C291.74,126.91,276.57,128.66,276.57,128.66Z"></path> <path class="cls-5" d="M328.16,122.44s6.57,38.53,3.66,51.66c6.94-1.07,22.77-3.21,22.77-3.21s6-.66,2.23-23.65S348.2,120.9,342.35,121A125.2,125.2,0,0,0,328.16,122.44Z"></path> <path class="cls-3" d="M73,195.47q-8.86,0-17.83-.11l-.77-.18c-2.33-1.11-3.67-4.49-4.09-10.33-1-13.36,3.24-37.76,10.79-42.78,5.17-3.45,23.29-3.81,53.31-4.39,26.09-.51,58.56-1.15,95.88-4.05,33.29-2.58,61.67-6.21,84.48-9.13,36.43-4.67,51.37-6.37,55-1.75,5.35,6.77,13.16,42.57,6,49l-.39.36-.51.09C353.56,172.45,226.5,195.47,73,195.47Zm-17.23-3.8c155.36,1.74,287.86-21.21,297.85-23,4.16-5.41-1.43-36.92-6.74-43.64-2.49-3.16-25.27-.25-51.64,3.13-22.85,2.92-51.28,6.56-84.67,9.15-37.42,2.91-69.95,3.55-96.09,4.06-27.32.53-47.06.92-51.33,3.77C57.47,148.92,53,171.28,54,184.59,54.32,189.11,55.19,191.08,55.76,191.67Z"></path> <path class="cls-7" d="M96.14,316.26c27.72,36.79,5.76,22.82-12.34,52.29-10.44,17.45-12.59,42.92-1.14,59.6,11.79,17.07,29.87,14.87,46.34,14,9.95-.5,17.09-7,23.52-16.69,5.89-8.84,6.9-23.55,4.88-33.25-3-15.13-9.54-29-20.32-38.27-11.79-10.09-26.3-14.52-3.55-37.63-2.36-.72-4.78-2.6-7.15-2.21a26.76,26.76,0,0,1-7.68,1.93c-1.1.09-5.17-3.69-6.18-3.89-1.71.39-3.61,1.29-5.48,1.59a44.5,44.5,0,0,1-10.47.64c-.27,0-.65.61-.56.86Z"></path> <path class="cls-3" d="M95.07,316.89c3.88,5.17,7.87,10.43,10.82,16.2,1.33,2.58,2.69,5.8,1.94,8.49-.61,2.15-2.61,3.86-4.54,5.36-2.9,2.28-5.93,4.38-8.7,6.81A61,61,0,0,0,76.1,383.64c-3.46,12.64-3.45,26.74,2,38.84a36.72,36.72,0,0,0,12.15,15.14,36,36,0,0,0,16.3,5.89,97.57,97.57,0,0,0,17.68.19,55.28,55.28,0,0,0,8.91-.81,24.49,24.49,0,0,0,8.22-3.56,44.33,44.33,0,0,0,13-14.35c3.26-5.52,4.65-12.08,5.13-18.42a59.24,59.24,0,0,0-1.83-19.07,77.61,77.61,0,0,0-7.78-19.77,55.74,55.74,0,0,0-12.5-15.17c-3.05-2.54-6.35-4.77-9.32-7.4-2.37-2.09-4.73-4.64-5.15-7.91-.56-4.24,2-8.39,4.34-11.68a72.36,72.36,0,0,1,7.21-8.34,1.26,1.26,0,0,0-.55-2.09c-2-.66-3.87-1.95-6-2.24s-4.13.94-6.15,1.43a8.84,8.84,0,0,1-3,.49c.29.05-.17-.09-.19-.1a5.4,5.4,0,0,1-.77-.46c-1.19-.79-2.27-1.71-3.45-2.52A4.4,4.4,0,0,0,113,311a5.37,5.37,0,0,0-2.81.59,31.51,31.51,0,0,1-7.07,1.46c-1.24.12-2.47.2-3.71.21-1,0-2.36-.33-3.29,0-1.36.49-1.33,1.85-1.18,3,.21,1.57,2.72,1.59,2.5,0a3.09,3.09,0,0,0-.08-.61l0-.33c0-.22-.1-.09-.24.37.13.28,2.9.05,3.26,0a56.42,56.42,0,0,0,6.23-.63,20.49,20.49,0,0,0,3-.68c.57-.18,1.13-.39,1.69-.57.16-.05,1.5-.4,1.06-.45.53.06,1.85,1.29,2.44,1.73a15,15,0,0,0,2.85,1.89c1.33.6,3.06.11,4.42-.2a26.14,26.14,0,0,0,2.62-.75,6.84,6.84,0,0,1,2.94-.71c2,.26,3.77,1.57,5.64,2.18l-.55-2.09c-4.34,4.44-8.83,9.34-11.19,15.18a12.71,12.71,0,0,0,0,10.44c1.49,3.12,4.24,5.5,6.89,7.61,3.5,2.79,7.18,5.34,10.36,8.51,9.77,9.69,15.38,23.22,17.72,36.62a51.82,51.82,0,0,1-.34,18.95,37.38,37.38,0,0,1-2.89,9,42.88,42.88,0,0,1-5.57,8.3c-3.83,4.65-8.57,8.75-14.54,10.26a46.55,46.55,0,0,1-8.9.88c-2.91.16-5.82.29-8.73.31-5.76,0-11.59-.46-17-2.43a30.44,30.44,0,0,1-14.56-11.39c-7.53-10.8-8.94-24.93-6.66-37.62a59.74,59.74,0,0,1,16.67-32.25,89.67,89.67,0,0,1,9.16-7.56c2.23-1.67,4.65-3.37,6.19-5.75a9.42,9.42,0,0,0,.88-7.64c-1.19-4.45-3.9-8.53-6.44-12.3-2-3-4.23-6-6.44-8.94C96.27,314.36,94.1,315.6,95.07,316.89Z"></path> <g class="cls-8"> <path class="cls-3" d="M108,398.83c1.85,1.72,4.69,3.36,7.26,3.36,1.69,0,3.77-1,3.77-2.92,0-2.25-3.13-2.65-6.3-3.81s-6.29-3-6.29-7.87c0-4.73,3.29-9.1,8.18-9.42v-4.86h3.73v4.86a16.33,16.33,0,0,1,7.3,2.32l-3,5.82a8.35,8.35,0,0,0-5.13-2c-1.77,0-3.41.65-3.41,2.25,0,1.85,2.53,2.65,3.93,3.13,4.57,1.52,8.7,3.21,8.7,8.78s-3.2,8.51-8.42,9.79v5h-3.73v-4.78a14.54,14.54,0,0,1-5.18-1,14.07,14.07,0,0,1-4.73-2.65Z"></path> </g> <path class="cls-3" d="M121.76,339l-12.24.71a.77.77,0,0,1-.81-.74l0-.73a.77.77,0,0,1,.72-.78l12.24-.71a.77.77,0,0,1,.81.74l0,.73A.77.77,0,0,1,121.76,339Z"></path> <rect class="cls-3" x="108.81" y="339.22" width="14.27" height="1.83" rx="0.77"></rect> <path class="cls-3" d="M106.79,356.74a58.61,58.61,0,0,1,6.62-16.45c.2-.51-.25-.64-.76-.85l-.38-.15a1,1,0,0,0-1.29.55,50.6,50.6,0,0,0-6.32,15.73,1.42,1.42,0,0,0,.46,1.57l.74.46C106.36,357.8,106.58,357.25,106.79,356.74Z"></path> <path class="cls-3" d="M114.31,362.92c-.66-7.94-1.77-16.47-3.12-24.28-.1-.74.45-.76,1.08-.84l.48-.06a1.27,1.27,0,0,1,1.32,1.2,171.69,171.69,0,0,1,3,22.63c.07,1.49-.8,2.09-2,2.68C114.47,364.33,114.4,363.66,114.31,362.92Z"></path> <ellipse class="cls-9" cx="108.45" cy="340.09" rx="7.1" ry="6.08" transform="translate(-243.71 281.71) rotate(-62.9)"></ellipse> </g> </svg> 