<?xml version="1.0" encoding="UTF-8"?> <svg xmlns="http://www.w3.org/2000/svg" viewBox="0 0 365.14 434.14"> <defs> <style>.cls-1{fill:#fff;}.cls-2{fill:#101820;}.cls-3{fill:#ffb71b;}.cls-4{fill:#ea0029;}.cls-5{fill:#efefef;}</style> </defs> <title>besocial_cat_5</title> <g id="Шар_2" data-name="Шар 2"> <g id="_11" data-name="11"> <path class="cls-1" d="M281.07,373.08c10-16.2,27.52-36.67,35.43-42.61,7.71-5.79,15.12-9.57,23-7.44,8.32,2.27,14.12,10.92,15.45,18.65,3,17.47-16.34,32.91-23.35,38.5-24.58,19.61-54.45,19.92-68.4,19"></path> <path class="cls-2" d="M271.34,401.68c-2.91,0-5.69-.1-8.31-.26l.27-4.4c18.42,1.17,45-1.1,66.89-18.56,6.93-5.54,25.34-20.23,22.55-36.41-1.18-6.84-6.32-14.84-13.86-16.89-6-1.62-12.29.48-21.05,7.07-7.56,5.67-24.8,25.68-34.88,42l-3.76-2.32c10.33-16.72,28.13-37.32,36-43.22,7-5.29,15.5-10.34,24.85-7.8s15.64,12.19,17.06,20.41c3.23,18.74-16.66,34.61-24.14,40.59C313.09,397.73,289.72,401.68,271.34,401.68Z"></path> <path class="cls-1" d="M94.2,305.92c3.52.31,6.19,4.34,4,7.14-13.43,17.34-22,44-22,65.53A44.38,44.38,0,0,0,120.64,423H244.51a44.38,44.38,0,0,0,44.38-44.39c0-21.55-7.37-48.34-20.58-65.67-2.09-2.76-1-6.68,2.45-7a101.18,101.18,0,0,0,92.18-100.78V20.58c0-16.34-21.59-24.52-34.21-13l-56,51.21a241,241,0,0,0-180.37,0l-56-51.21C23.79-3.94,2.21,4.24,2.21,20.58V205.15a101.19,101.19,0,0,0,92,100.77"></path> <path class="cls-3" d="M169.82,308.83s4,11.39,15,11.39S200,308.83,200,308.83l69.2-2.4-.55,6.9s10.75,13.28,16.52,36.21,4.82,49.31-7.31,59.92-19.21,14.3-75.78,13.52-94-2.21-94-2.21-27.56-9.85-31.74-34.7S87.68,327.62,96,314.46s51.34-5.76,51.34-5.76Z"></path> <path class="cls-2" d="M184.78,322.63c-9.83,0-14.79-7.88-16.51-11.37-9.83.09-48.67-1.6-72.71-2.72A2.4,2.4,0,0,1,93.28,306a2.49,2.49,0,0,1,2.51-2.29c65.31,3.06,72.9,2.77,73.68,2.71a2.39,2.39,0,0,1,2.61,1.56c.14.39,3.74,9.81,12.7,9.81s12.79-9.46,12.95-9.86a2.37,2.37,0,0,1,2.31-1.53c33.42,1,76-3.54,76.38-3.58a2.4,2.4,0,1,1,.52,4.77c-.42.05-42,4.5-75.46,3.65C199.71,314.74,194.6,322.63,184.78,322.63Z"></path> <path class="cls-2" d="M244.5,425.18H120.64a46.64,46.64,0,0,1-46.59-46.59c0-22.69,9-49.56,22.42-66.88a1.57,1.57,0,0,0,.15-1.7,3.31,3.31,0,0,0-2.62-1.9h0a102.8,102.8,0,0,1-94-103V20.58c0-8,4.84-15.09,12.63-18.52A23.41,23.41,0,0,1,37.91,6l55,50.26a243.7,243.7,0,0,1,179.43,0L327.24,6a23.43,23.43,0,0,1,25.27-3.94c7.79,3.44,12.63,10.53,12.63,18.53V205.15c0,53.1-41.37,98.33-94.19,103a1.47,1.47,0,0,0-1.33.88,2.61,2.61,0,0,0,.45,2.57c12.58,16.51,21,43.44,21,67A46.64,46.64,0,0,1,244.5,425.18ZM94.39,303.72a7.65,7.65,0,0,1,6.26,4.52,5.94,5.94,0,0,1-.69,6.17c-12.86,16.6-21.5,42.4-21.5,64.18a42.23,42.23,0,0,0,42.18,42.18H244.5a42.23,42.23,0,0,0,42.19-42.18c0-22.68-8.09-48.53-20.13-64.34a7,7,0,0,1-1-7,5.89,5.89,0,0,1,5-3.49c50.57-4.46,90.18-47.76,90.18-98.59V20.58c0-6.32-3.74-11.73-10-14.49a19,19,0,0,0-20.52,3.15l-57,52.14-1.29-.52a239.19,239.19,0,0,0-178.71,0l-1.29.52-57-52.14A19,19,0,0,0,14.4,6.09c-6.25,2.76-10,8.17-10,14.49V205.15a98.41,98.41,0,0,0,90,98.57Z"></path> <ellipse class="cls-1" cx="92.39" cy="145.2" rx="20.04" ry="35.07"></ellipse> <path class="cls-2" d="M92.39,182.48c-12.47,0-22.25-16.37-22.25-37.28s9.78-37.27,22.25-37.27,22.25,16.37,22.25,37.27S104.87,182.48,92.39,182.48Zm0-70.15c-9.67,0-17.84,15.06-17.84,32.87s8.17,32.87,17.84,32.87,17.84-15,17.84-32.87S102.06,112.33,92.39,112.33Z"></path> <ellipse class="cls-1" cx="272.76" cy="145.2" rx="20.04" ry="35.07"></ellipse> <path class="cls-2" d="M272.76,182.48c-12.48,0-22.25-16.37-22.25-37.28s9.77-37.27,22.25-37.27S295,124.3,295,145.2,285.23,182.48,272.76,182.48Zm0-70.15c-9.67,0-17.84,15.06-17.84,32.87s8.17,32.87,17.84,32.87,17.83-15,17.83-32.87S282.43,112.33,272.76,112.33Z"></path> <path class="cls-2" d="M100.33,135.78a6.09,6.09,0,0,1-9.9-7c-4.36,1.59-7.63,8.34-7.63,16.43,0,9.27,4.29,16.79,9.59,16.79S102,154.47,102,145.2A26.39,26.39,0,0,0,100.33,135.78Z"></path> <path class="cls-2" d="M280.69,135.78a6.1,6.1,0,0,1-10.71-4,6,6,0,0,1,.82-3c-4.36,1.59-7.64,8.34-7.64,16.43,0,9.27,4.3,16.79,9.6,16.79s9.59-7.52,9.59-16.79A26.16,26.16,0,0,0,280.69,135.78Z"></path> <path class="cls-4" d="M198,217.79h-6.71c-8.88,0-16.72-.64-25.39-.3-.32,10.93.39,21.8,2.6,30.45a16,16,0,1,0,31-7.9C198,234.15,197.71,226,198,217.79Z"></path> <path class="cls-2" d="M184,262.38a18.89,18.89,0,0,1-3.51-.34,18.49,18.49,0,0,1-14.3-13.51c-2.1-8.23-3-19-2.67-31.11a2.4,2.4,0,0,1,2.31-2.33c5.19-.2,10-.06,15,.09,3.39.11,6.82.2,10.45.2H198a2.41,2.41,0,0,1,1.73.74,2.38,2.38,0,0,1,.67,1.75c-.33,9.39.14,16.65,1.39,21.58A18.41,18.41,0,0,1,184,262.38Zm-15.73-42.56c-.17,10.75.72,20.23,2.58,27.53a13.67,13.67,0,0,0,10.56,10,13.59,13.59,0,0,0,15.75-16.69c-1.27-5-1.8-11.7-1.61-20.45H191.3c-3.57,0-7.16-.1-10.6-.21C176.47,219.85,172.44,219.73,168.25,219.82Z"></path> <path class="cls-5" d="M180.49,219.94c0,3,1.26,24.54,6,32.14,0,0-4.38-12.08-4.11-32Z"></path> <path class="cls-2" d="M188.38,177.63H176.77a4.16,4.16,0,0,0-3.61,6.25l5.8,10.06a4.17,4.17,0,0,0,7.22,0L192,183.88A4.17,4.17,0,0,0,188.38,177.63Z"></path> <line class="cls-1" x1="182.57" y1="186.82" x2="182.57" y2="216.41"></line> <path class="cls-2" d="M182.57,218.61a2.19,2.19,0,0,1-2.2-2.2V186.82a2.21,2.21,0,0,1,4.41,0v29.59A2.2,2.2,0,0,1,182.57,218.61Z"></path> <line class="cls-1" x1="149.03" y1="217.03" x2="216.12" y2="217.03"></line> <path class="cls-2" d="M216.12,219.24H149a2.21,2.21,0,1,1,0-4.41h67.09a2.21,2.21,0,0,1,0,4.41Z"></path> <path class="cls-1" d="M98.21,313.31c22.9-46.24,51.07-74.84,60.74-72.87,21.07,4.29-.11,51-24.22,99.59"></path> <path class="cls-3" d="M100.37,311.54s9-20.88,16.91-31.52l36.33,21.71-23,45.3L96,324.48Z"></path> <path class="cls-2" d="M134.73,342.24a2.3,2.3,0,0,1-1-.23,2.22,2.22,0,0,1-1-3c18.63-37.57,37.95-78.79,31.33-92.33a7.4,7.4,0,0,0-5.57-4.12c-7-1.36-34,22.58-58.32,71.68a2.2,2.2,0,1,1-4-1.95c23-46.54,51.83-76.4,63.15-74a11.72,11.72,0,0,1,8.65,6.5c6.8,13.91-6.34,45.81-31.33,96.23A2.21,2.21,0,0,1,134.73,342.24Z"></path> <path class="cls-1" d="M196.65,368.19c-.41,36.06,12.31,62.2,22.19,63.57,21.51,3,23.71-32.86,24.11-70.81"></path> <path class="cls-3" d="M197.3,361.8s-2.27,27.13,3.79,42.74c16.09-2.86,28.62-4.79,40.83-2.86,1-11.07,4.7-36.27,0-46.92S197.3,361.8,197.3,361.8Z"></path> <path class="cls-2" d="M221.28,434.14a18.61,18.61,0,0,1-2.75-.19c-11.73-1.64-24.5-29.06-24.09-65.79a2.13,2.13,0,0,1,2.23-2.18,2.2,2.2,0,0,1,2.18,2.23c-.4,35.14,12,60.21,20.29,61.37a11.53,11.53,0,0,0,9.66-2.6c10.47-9,11.66-38.82,11.95-66.05a2.2,2.2,0,0,1,2.2-2.18h0a2.21,2.21,0,0,1,2.19,2.23c-.31,29.48-1.62,59.12-13.49,69.34A15.48,15.48,0,0,1,221.28,434.14Z"></path> <path class="cls-2" d="M57.45,72c7.81-.6,11.29-10,5.51-15.31L42.71,38.21C33.6,29.88,18,35.78,18,47.56V75.39A8.81,8.81,0,0,0,32.63,82,42.11,42.11,0,0,1,57.45,72Z"></path> <path class="cls-2" d="M332.52,82a8.81,8.81,0,0,0,14.6-6.63V47.56c0-11.78-15.58-17.68-24.68-9.35L302.19,56.74c-5.78,5.28-2.3,14.7,5.5,15.3A42.14,42.14,0,0,1,332.52,82Z"></path> <path class="cls-2" d="M202.07,408.57a2.4,2.4,0,0,1-1.28-4.43c.64-.4,15.89-9.68,40.11-3.22a2.4,2.4,0,0,1-1.23,4.64c-22.09-5.89-36.21,2.57-36.34,2.65A2.35,2.35,0,0,1,202.07,408.57Z"></path> <path class="cls-2" d="M153.09,303.29a2.5,2.5,0,0,1-.66-.09c-20-5.74-35.16-20.34-35.79-21A2.4,2.4,0,1,1,120,278.8c.15.14,15,14.39,33.77,19.79a2.4,2.4,0,0,1-.66,4.7Z"></path> </g> </g> </svg> 