<?xml version="1.0" encoding="UTF-8"?> <svg xmlns="http://www.w3.org/2000/svg" xmlns:xlink="http://www.w3.org/1999/xlink" viewBox="0 0 1000 1000"> <defs> <style>.cls-1{mask:url(#mask);filter:url(#luminosity-noclip-5);}.cls-18,.cls-2,.cls-20,.cls-30,.cls-37,.cls-39,.cls-4,.cls-40,.cls-45,.cls-56,.cls-6,.cls-8{mix-blend-mode:multiply;}.cls-2{fill:url(#Безымянный_градиент_11);}.cls-3{mask:url(#mask-2);filter:url(#luminosity-noclip-6);}.cls-4{fill:url(#Безымянный_градиент_2);}.cls-5{mask:url(#mask-3);filter:url(#luminosity-noclip-7);}.cls-6{fill:url(#Безымянный_градиент_2-2);}.cls-7{mask:url(#mask-4);filter:url(#luminosity-noclip-8);}.cls-8{fill:url(#Безымянный_градиент_2-3);}.cls-9{isolation:isolate;}.cls-10{fill:#ffb71b;}.cls-11,.cls-23,.cls-31,.cls-65{fill:#101820;}.cls-11{opacity:0.15;}.cls-12{fill:#19373d;}.cls-13{fill:url(#Безымянный_градиент_41);}.cls-14{fill:#ea0029;}.cls-15{fill:url(#Безымянный_градиент_41-2);}.cls-16{fill:url(#Безымянный_градиент_41-3);}.cls-17{fill:url(#Безымянный_градиент_56);}.cls-18,.cls-20,.cls-30,.cls-37,.cls-39,.cls-40,.cls-45,.cls-56{fill:#f05abb;}.cls-18{opacity:0.6;}.cls-19{mix-blend-mode:overlay;fill:url(#Безымянный_градиент_16);}.cls-20{opacity:0.48;}.cls-21{fill:url(#Безымянный_градиент_41-4);}.cls-22{fill:#fff;}.cls-24{fill:#009845;}.cls-25{fill:#017234;}.cls-26{fill:#ededed;}.cls-27{fill:#97d4b3;}.cls-28{fill:url(#Безымянный_градиент_41-5);}.cls-29{fill:url(#Безымянный_градиент_41-6);}.cls-30{opacity:0.4;}.cls-31{opacity:0.82;}.cls-32{fill:url(#Безымянный_градиент_41-7);}.cls-33{fill:url(#Безымянный_градиент_41-8);}.cls-34{fill:url(#Безымянный_градиент_41-9);}.cls-35{fill:url(#Безымянный_градиент_56-2);}.cls-36,.cls-65{opacity:0.86;}.cls-37,.cls-60{opacity:0.45;}.cls-38{fill:url(#Безымянный_градиент_41-10);}.cls-39{opacity:0.87;}.cls-40,.cls-52{opacity:0.29;}.cls-41{fill:url(#Безымянный_градиент_28);}.cls-42{fill:#ffc556;}.cls-43{fill:url(#Безымянный_градиент_41-11);}.cls-44{fill:url(#Безымянный_градиент_28-2);}.cls-46{fill:url(#Безымянный_градиент_28-3);}.cls-47{fill:url(#Безымянный_градиент_28-4);}.cls-48{fill:url(#Безымянный_градиент_28-5);}.cls-49{fill:url(#Безымянный_градиент_28-6);}.cls-50{mask:url(#mask-5);}.cls-51{opacity:0.43;fill:url(#Безымянный_градиент_123);}.cls-51,.cls-52,.cls-54,.cls-58,.cls-60{mix-blend-mode:color-dodge;}.cls-52{fill:#4bff5f;}.cls-53{mask:url(#mask-6);}.cls-54{fill:url(#Безымянный_градиент_3);}.cls-55{fill:url(#Безымянный_градиент_41-12);}.cls-56{opacity:0.63;}.cls-57{mask:url(#mask-7);}.cls-58{opacity:0.8;fill:url(#Безымянный_градиент_3-2);}.cls-59{mask:url(#mask-8);}.cls-60{fill:url(#Безымянный_градиент_3-3);}.cls-61{fill:url(#Безымянный_градиент_28-7);}.cls-62{fill:#60269e;}.cls-63{fill:#8251b1;}.cls-64{fill:#ffd7cf;}.cls-66{filter:url(#luminosity-noclip-4);}.cls-67{filter:url(#luminosity-noclip-3);}.cls-68{filter:url(#luminosity-noclip-2);}.cls-69{filter:url(#luminosity-noclip);}</style> <filter id="luminosity-noclip" x="601.68" y="-5395.04" width="240.92" height="32766" filterUnits="userSpaceOnUse" color-interpolation-filters="sRGB"> <feFlood flood-color="#fff" result="bg"></feFlood> <feBlend in="SourceGraphic" in2="bg"></feBlend> </filter> <mask id="mask" x="601.68" y="-5395.04" width="240.92" height="32766" maskUnits="userSpaceOnUse"> <g class="cls-69"></g> </mask> <linearGradient id="Безымянный_градиент_11" x1="601.68" y1="526.02" x2="842.59" y2="526.02" gradientUnits="userSpaceOnUse"> <stop offset="0"></stop> <stop offset="1" stop-color="#999"></stop> </linearGradient> <filter id="luminosity-noclip-2" x="504.96" y="-5395.04" width="276.49" height="32766" filterUnits="userSpaceOnUse" color-interpolation-filters="sRGB"> <feFlood flood-color="#fff" result="bg"></feFlood> <feBlend in="SourceGraphic" in2="bg"></feBlend> </filter> <mask id="mask-2" x="504.96" y="-5395.04" width="276.49" height="32766" maskUnits="userSpaceOnUse"> <g class="cls-68"></g> </mask> <linearGradient id="Безымянный_градиент_2" x1="663.69" y1="703.15" x2="494.5" y2="432.09" gradientUnits="userSpaceOnUse"> <stop offset="0.12"></stop> <stop offset="1" stop-color="#999"></stop> </linearGradient> <filter id="luminosity-noclip-3" x="497.41" y="-5395.04" width="349.47" height="32766" filterUnits="userSpaceOnUse" color-interpolation-filters="sRGB"> <feFlood flood-color="#fff" result="bg"></feFlood> <feBlend in="SourceGraphic" in2="bg"></feBlend> </filter> <mask id="mask-3" x="497.41" y="-5395.04" width="349.47" height="32766" maskUnits="userSpaceOnUse"> <g class="cls-67"></g> </mask> <linearGradient id="Безымянный_градиент_2-2" x1="451.12" y1="537.08" x2="1010.54" y2="474.14" xlink:href="#Безымянный_градиент_2"></linearGradient> <filter id="luminosity-noclip-4" x="645.12" y="-5395.04" width="198.84" height="32766" filterUnits="userSpaceOnUse" color-interpolation-filters="sRGB"> <feFlood flood-color="#fff" result="bg"></feFlood> <feBlend in="SourceGraphic" in2="bg"></feBlend> </filter> <mask id="mask-4" x="645.12" y="-5395.04" width="198.84" height="32766" maskUnits="userSpaceOnUse"> <g class="cls-66"></g> </mask> <linearGradient id="Безымянный_градиент_2-3" x1="645.12" y1="528.71" x2="843.96" y2="528.71" xlink:href="#Безымянный_градиент_2"></linearGradient> <linearGradient id="Безымянный_градиент_41" x1="537.96" y1="662.44" x2="924.92" y2="372.41" gradientUnits="userSpaceOnUse"> <stop offset="0" stop-color="#af001d"></stop> <stop offset="1" stop-color="#ff8578"></stop> </linearGradient> <linearGradient id="Безымянный_градиент_41-2" x1="517.31" y1="634.88" x2="904.26" y2="344.85" xlink:href="#Безымянный_градиент_41"></linearGradient> <linearGradient id="Безымянный_градиент_41-3" x1="508.99" y1="623.77" x2="895.94" y2="333.75" xlink:href="#Безымянный_градиент_41"></linearGradient> <linearGradient id="Безымянный_градиент_56" x1="818.94" y1="559.59" x2="631.06" y2="504.65" gradientUnits="userSpaceOnUse"> <stop offset="0" stop-color="#ea0029"></stop> <stop offset="1" stop-color="#ffafa3"></stop> </linearGradient> <linearGradient id="Безымянный_градиент_16" x1="710.41" y1="457.06" x2="807.83" y2="448.98" gradientTransform="matrix(1, 0.02, -0.02, 1, -63.95, 62.58)" gradientUnits="userSpaceOnUse"> <stop offset="0" stop-color="#8d5c80"></stop> <stop offset="1" stop-color="#020202"></stop> </linearGradient> <linearGradient id="Безымянный_градиент_41-4" x1="489.09" y1="597.23" x2="876.04" y2="307.2" xlink:href="#Безымянный_градиент_41"></linearGradient> <linearGradient id="Безымянный_градиент_41-5" x1="583.82" y1="723.62" x2="970.78" y2="433.6" xlink:href="#Безымянный_градиент_41"></linearGradient> <linearGradient id="Безымянный_градиент_41-6" x1="560.13" y1="692.02" x2="947.09" y2="401.99" xlink:href="#Безымянный_градиент_41"></linearGradient> <linearGradient id="Безымянный_градиент_41-7" x1="136.6" y1="704.32" x2="380.28" y2="543.92" xlink:href="#Безымянный_градиент_41"></linearGradient> <linearGradient id="Безымянный_градиент_41-8" x1="52.38" y1="576.38" x2="296.06" y2="415.98" xlink:href="#Безымянный_градиент_41"></linearGradient> <linearGradient id="Безымянный_градиент_41-9" x1="141.21" y1="711.33" x2="384.89" y2="550.93" xlink:href="#Безымянный_градиент_41"></linearGradient> <linearGradient id="Безымянный_градиент_56-2" x1="358.66" y1="635.01" x2="150.87" y2="574.26" xlink:href="#Безымянный_градиент_56"></linearGradient> <linearGradient id="Безымянный_градиент_41-10" x1="95.04" y1="641.19" x2="338.72" y2="480.8" xlink:href="#Безымянный_градиент_41"></linearGradient> <linearGradient id="Безымянный_градиент_28" x1="159.2" y1="594.27" x2="289.96" y2="594.27" gradientUnits="userSpaceOnUse"> <stop offset="0" stop-color="#74001c"></stop> <stop offset="1" stop-color="#e15020"></stop> </linearGradient> <linearGradient id="Безымянный_градиент_41-11" x1="94.53" y1="640.42" x2="338.22" y2="480.02" xlink:href="#Безымянный_градиент_41"></linearGradient> <linearGradient id="Безымянный_градиент_28-2" x1="515.74" y1="475.05" x2="711.17" y2="638.92" gradientTransform="translate(-97.94 83.18) rotate(2.14)" xlink:href="#Безымянный_градиент_28"></linearGradient> <linearGradient id="Безымянный_градиент_28-3" x1="570.27" y1="411.33" x2="682.99" y2="723.01" gradientTransform="translate(-97.94 83.18) rotate(2.14)" xlink:href="#Безымянный_градиент_28"></linearGradient> <linearGradient id="Безымянный_градиент_28-4" x1="429.24" y1="584.29" x2="813.58" y2="672.54" gradientTransform="matrix(1, -0.01, 0.01, 1, 15.52, 14.96)" xlink:href="#Безымянный_градиент_28"></linearGradient> <linearGradient id="Безымянный_градиент_28-5" x1="699.8" y1="419.04" x2="811.97" y2="729.22" xlink:href="#Безымянный_градиент_28"></linearGradient> <linearGradient id="Безымянный_градиент_28-6" x1="600.27" y1="452.52" x2="713.76" y2="766.34" xlink:href="#Безымянный_градиент_28"></linearGradient> <filter id="luminosity-noclip-5" x="601.68" y="521.74" width="240.92" height="8.57" filterUnits="userSpaceOnUse" color-interpolation-filters="sRGB"> <feFlood flood-color="#fff" result="bg"></feFlood> <feBlend in="SourceGraphic" in2="bg"></feBlend> </filter> <mask id="mask-5" x="601.68" y="521.74" width="240.92" height="8.57" maskUnits="userSpaceOnUse"> <g class="cls-1"> <polygon class="cls-2" points="601.68 523.16 606.91 530.3 839.74 528.88 842.59 521.74 601.68 523.16"></polygon> </g> </mask> <linearGradient id="Безымянный_градиент_123" x1="601.68" y1="526.02" x2="842.59" y2="526.02" gradientUnits="userSpaceOnUse"> <stop offset="0" stop-color="#74001c"></stop> <stop offset="1" stop-color="#4bff5f"></stop> </linearGradient> <filter id="luminosity-noclip-6" x="504.96" y="570.51" width="276.49" height="207.16" filterUnits="userSpaceOnUse" color-interpolation-filters="sRGB"> <feFlood flood-color="#fff" result="bg"></feFlood> <feBlend in="SourceGraphic" in2="bg"></feBlend> </filter> <mask id="mask-6" x="504.96" y="570.51" width="276.49" height="207.16" maskUnits="userSpaceOnUse"> <g class="cls-3"> <polygon class="cls-4" points="507.86 573.17 509.93 777.67 505.13 573.18 504.96 570.51 781.45 570.96 507.86 573.17"></polygon> </g> </mask> <linearGradient id="Безымянный_градиент_3" x1="663.69" y1="703.15" x2="494.5" y2="432.09" gradientUnits="userSpaceOnUse"> <stop offset="0.12" stop-color="#74001c"></stop> <stop offset="1" stop-color="#4bff5f"></stop> </linearGradient> <linearGradient id="Безымянный_градиент_41-12" x1="350.51" y1="508.29" x2="924.15" y2="535.29" xlink:href="#Безымянный_градиент_41"></linearGradient> <filter id="luminosity-noclip-7" x="497.41" y="502.21" width="349.47" height="16.43" filterUnits="userSpaceOnUse" color-interpolation-filters="sRGB"> <feFlood flood-color="#fff" result="bg"></feFlood> <feBlend in="SourceGraphic" in2="bg"></feBlend> </filter> <mask id="mask-7" x="497.41" y="502.21" width="349.47" height="16.43" maskUnits="userSpaceOnUse"> <g class="cls-5"> <polygon class="cls-6" points="497.41 505.79 506.93 514.36 846.88 518.64 825.13 502.21 497.41 505.79"></polygon> </g> </mask> <linearGradient id="Безымянный_градиент_3-2" x1="451.12" y1="537.08" x2="1010.54" y2="474.14" xlink:href="#Безымянный_градиент_3"></linearGradient> <filter id="luminosity-noclip-8" x="645.12" y="520.9" width="198.84" height="15.62" filterUnits="userSpaceOnUse" color-interpolation-filters="sRGB"> <feFlood flood-color="#fff" result="bg"></feFlood> <feBlend in="SourceGraphic" in2="bg"></feBlend> </filter> <mask id="mask-8" x="645.12" y="520.9" width="198.84" height="15.62" maskUnits="userSpaceOnUse"> <g class="cls-7"> <polygon class="cls-8" points="843.96 520.9 841.02 534.63 645.12 536.52 646.27 522.79 843.96 520.9"></polygon> </g> </mask> <linearGradient id="Безымянный_градиент_3-3" x1="645.12" y1="528.71" x2="843.96" y2="528.71" xlink:href="#Безымянный_градиент_3"></linearGradient> <linearGradient id="Безымянный_градиент_28-7" x1="469.98" y1="477.5" x2="509.01" y2="585.42" xlink:href="#Безымянный_градиент_28"></linearGradient> </defs> <title>Ресурс 9</title> <g class="cls-9"> <g id="Слой_2" data-name="Слой 2"> <g id="Слой_10" data-name="Слой 10"> <rect class="cls-10" width="1000" height="1000"></rect> <ellipse class="cls-11" cx="647.62" cy="759.08" rx="280.54" ry="39.85"></ellipse> <ellipse class="cls-11" cx="247.46" cy="701.58" rx="175.62" ry="39.85"></ellipse> <ellipse class="cls-11" cx="723.14" cy="614.56" rx="167.82" ry="29.02"></ellipse> <polygon class="cls-12" points="257.93 573.15 240.94 582.48 262 595.38 276.93 583.5 257.93 573.15"></polygon> <polygon class="cls-12" points="459.8 573.15 447.62 582.48 474.22 594.7 482.87 582.82 459.8 573.15"></polygon> <polygon class="cls-13" points="665.9 459.93 666.99 462.57 666.99 462.57 731.9 619.46 737.39 619.58 680.43 454.44 665.9 459.93"></polygon> <polygon class="cls-14" points="666.99 462.57 666.99 462.57 731.9 619.46 732.65 619.47 672.67 461.44 666.99 462.57"></polygon> <polygon class="cls-15" points="726.95 408.51 726.53 450.7 851.55 453.61 864.58 411.71 726.95 408.51"></polygon> <polygon class="cls-16" points="729.32 412.18 726.53 450.7 649.28 466.1 609.05 626.9 603.17 626.77 629.92 455 726.84 408.5 729.32 412.18"></polygon> <path class="cls-17" d="M820.92,546.32s-4.72.32-12.15.79c-25.84,1.67-84.52,5.39-92,5.21-9.64-.22-80.35-10.46-80.35-10.46s-15.92-21-7.14-26a3.84,3.84,0,0,1,.35-.17l.43-.17.24-.08.26-.08c.26-.07.54-.15.85-.22,5.42-1.17,18-1.1,36-1.32h.14q5.18-.06,10.94-.17c11.91-.24,24.29-.36,35.6-.4,5.19,0,10.16,0,14.76,0h3.55c5.71,0,10.72,0,14.71.07s7,.07,8.58.11c8.81.21,33.8,3.53,51.48,7.47,4.2.94,8,1.91,11.05,2.88,4.12,1.31,6.93,2.62,7.63,3.84C829.28,533.57,820.92,546.32,820.92,546.32Z"></path> <path class="cls-18" d="M727.94,513.2l-4.8,0Z"></path> <path class="cls-18" d="M728.83,513.21h0Z"></path> <path class="cls-19" d="M721.59,535c-1.11,2.07-1.85,14.5,1.27,15.08,2.44.46,60.49-1.92,85.91-3-25.84,1.67-84.52,5.39-92,5.21-9.64-.22-80.35-10.46-80.35-10.46s-15.92-21-7.14-26a3.84,3.84,0,0,1,.35-.17l.43-.17.24-.08.26-.08c.26-.07.54-.15.85-.22,5.42-1.17,18-1.1,36-1.32-17.41.56-31.33,1.59-30.71,3.48,1.62,4.91,73.71,12.47,82.6,13.49,8.54,1,85-2,91.08-2.27C804.14,528.89,722.66,533.05,721.59,535Z"></path> <polygon class="cls-20" points="729.01 413.88 728.15 450.74 755.92 451.38 771.47 417.28 832.99 416.3 729.01 413.88"></polygon> <polygon class="cls-21" points="729.01 413.88 635.96 455.7 687.5 434.94 688.16 456.92 648.94 466.09 726.53 450.7 729.01 413.88"></polygon> <polygon class="cls-14" points="604.13 620.69 635.75 455.92 629.92 456.58 604.13 620.69"></polygon> <polygon class="cls-14" points="836.32 411.06 726.95 408.51 629.92 455 635.96 455.7 729.01 413.88 833.88 416.01 841.38 416.16 864.53 411.71 836.32 411.06"></polygon> <path class="cls-22" d="M768.63,504.39c4.75-7.69,13.06-17.41,16.82-20.22s7.17-4.54,10.89-3.53c3.95,1.07,6.7,5.18,7.34,8.85,1.43,8.29-7.76,15.61-11.09,18.27-11.66,9.3-25.84,9.45-32.46,9"></path> <path class="cls-23" d="M764,518c-1.38,0-2.71,0-3.95-.12l.13-2.09c8.74.56,21.35-.52,31.74-8.81,3.29-2.62,12-9.59,10.7-17.27-.56-3.25-3-7.05-6.57-8-2.85-.78-5.84.23-10,3.35-3.58,2.7-11.76,12.19-16.55,19.94l-1.78-1.1c4.9-7.94,13.35-17.71,17.08-20.51,3.34-2.51,7.34-4.91,11.8-3.7s7.41,5.78,8.09,9.68c1.53,8.9-7.91,16.43-11.47,19.27C783.83,516.09,772.73,518,764,518Z"></path> <path class="cls-24" d="M675.8,463.39a2.19,2.19,0,0,1,1.6,3.51c-6.61,8.53-10.81,21.67-10.81,32.25A21.84,21.84,0,0,0,688.43,521h61a21.84,21.84,0,0,0,21.84-21.84c0-10.61-3.63-23.79-10.13-32.32a2.16,2.16,0,0,1,1.59-3.43"></path> <path class="cls-25" d="M670.3,474.83s-1.16,2.37-2,10.13,38.47-2,46.87-7.94c0,0,26.35,16.12,54.9,7.94l-1.2-9.51-56.77-15.9Z"></path> <path class="cls-23" d="M749.39,522h-61a22.92,22.92,0,0,1-22.89-22.89c0-11.16,4.43-24.38,11-32.89a1.07,1.07,0,0,0,.14-1.11,1.19,1.19,0,0,0-1-.72l.18-2.08a3.31,3.31,0,0,1,2.74,2,3.17,3.17,0,0,1-.4,3.23c-6.34,8.17-10.6,20.88-10.6,31.61a20.81,20.81,0,0,0,20.8,20.79h61a20.81,20.81,0,0,0,20.8-20.79c0-11.17-4-23.91-9.92-31.69a3.12,3.12,0,0,1-.37-3.18,3.25,3.25,0,0,1,2.7-1.92l.18,2.08a1.17,1.17,0,0,0-1,.69,1,1,0,0,0,.13,1.06c6.18,8.12,10.34,21.37,10.34,33A22.92,22.92,0,0,1,749.39,522Z"></path> <path class="cls-22" d="M698.81,342s31.23-17.13,53.33-23.39c10.25-3,18.81-2,16.51,8.57s-3.63,22.4-3.63,22.4Z"></path> <path class="cls-26" d="M713.88,336.35c-2,2.19,34.67-2.73,51.45,3.07l1.5-.68,2.46-14.06s1.5-10.44-13.51-7.3S716.68,333.21,713.88,336.35Z"></path> <path class="cls-23" d="M766,350.75l-70.53-8.07,2.89-1.59c.31-.17,31.59-17.25,53.55-23.47,5.31-1.54,12.42-2.67,16,.72,2.07,1.94,2.66,5,1.77,9.07-2.27,10.37-3.59,22.18-3.61,22.29Zm-63.69-9.4,61.85,7.08c.37-3.14,1.62-12.79,3.52-21.47.72-3.31.33-5.69-1.16-7.09-2.26-2.12-7.25-2.21-14-.24C734.62,324.67,710.55,337,702.26,341.35Z"></path> <path d="M802.45,371.18a4.61,4.61,0,0,0,8.39,0l6-13.29c2.53-5.63-3.64-11.79-9.77-9.77l-13.65,4.5a4.63,4.63,0,0,0-.66,8.49A22,22,0,0,1,802.45,371.18Z"></path> <path class="cls-22" d="M687,463.38a49.28,49.28,0,0,1-44.8-49.07s-7.3-54.43,43.92-71.27A117.37,117.37,0,0,1,774,343s38.72-5.8,49.27-5,14.65,7.41,10,15.81-17.36,40.19-17.36,40.19-1.32,11.38-2.31,21.25c-2.56,25.61-15.45,45.87-40.61,48.08"></path> <path class="cls-23" d="M773.09,464.43l-.18-2.08c22.4-2,36.86-19.16,39.66-47.15,1-9.76,2.29-21.15,2.31-21.26l.07-.27c.52-1.3,12.83-31.94,17.41-40.3,2-3.57,2.28-6.78.93-9.29-1.52-2.82-5.12-4.59-10.14-5-10.3-.81-48.64,4.92-49,5l-.29,0-.26-.11a116.51,116.51,0,0,0-87.06,0c-49.84,16.39-43.35,69.62-43.27,70.16a48,48,0,0,0,43.85,48.17l-.18,2.08a50,50,0,0,1-45.76-50.11c-.06-.41-6.81-55.35,44.64-72.26a118.6,118.6,0,0,1,88.3-.09c3.81-.56,39-5.74,49.22-4.94,5.74.44,9.94,2.6,11.81,6.06,1.71,3.17,1.39,7.07-.93,11.29-4.38,8-16.36,37.72-17.26,39.95-.15,1.33-1.37,11.93-2.29,21.09C811.74,444.5,796.59,462.36,773.09,464.43Z"></path> <path class="cls-22" d="M759.1,456.37c-29.76-3.35-60.29-7-58.77,2.38,1,6,22.7,21.64,51,24.81,0,0,34.88,6.5,31.43-22.11"></path> <path class="cls-24" d="M752.54,455.76c1-1.07,30.38.2,30.45,6.59s-.63,19.87-16.28,21.45c-8.43.29-15.39-.24-15.39-.24S745.11,465.27,752.54,455.76Z"></path> <path class="cls-27" d="M783,467.5c-21.22,0-32.91-5.53-33.39-5.77l1-2.05c.11.06,11.75,5.54,32.4,5.54Z"></path> <path class="cls-27" d="M782.2,472.47c-21.23,0-33.15-6-33.65-6.25l1-2c.12.06,12,6,32.61,6Z"></path> <path class="cls-27" d="M780,477.17c-21.27,0-31.18-5.85-31.59-6.1l1.18-1.95c.1.06,9.85,5.77,30.41,5.77Z"></path> <path class="cls-23" d="M759.33,485.26a48.55,48.55,0,0,1-8.21-.67c-28-3.14-50.7-18.75-51.82-25.68a4.32,4.32,0,0,1,1.15-3.81c5.49-5.78,30.57-3,57.11,0l1.66.19a1,1,0,0,1-.23,2.08l-1.66-.19c-23.72-2.67-50.59-5.7-55.37-.68a2.25,2.25,0,0,0-.6,2c.88,5.38,21.78,20.77,50.07,23.94.25,0,17.31,3.1,25.77-4.83,3.85-3.61,5.36-9,4.51-16.11a1,1,0,1,1,2.08-.25c.94,7.78-.8,13.8-5.16,17.89C773.35,484.17,765.35,485.26,759.33,485.26Z"></path> <path class="cls-22" d="M663.33,455.49c29.76-3.35,65.48-4,65.45-1.63-.1,6.11-29.38,25.65-57.67,28.82,0,0-36.15,10.87-17.36-35.2a52.58,52.58,0,0,0,8.51,7.81Z"></path> <path class="cls-24" d="M663.37,455.44c-.14-.06-.28-.09-.42-.16-2.33-1.14-4.23-3.16-6.23-4.79-1.16-.95-1.92-2.47-2.91-3.58a60.36,60.36,0,0,0-5.06,19.35c-1.48,13.77,9,16.44,13.18,17.48C653.73,475.4,662.16,457.84,663.37,455.44Z"></path> <path class="cls-27" d="M659.67,464a92,92,0,0,1-9.39-9.59l1.75-1.46a89.27,89.27,0,0,0,9.15,9.35Z"></path> <path class="cls-27" d="M658.29,469.37a93.07,93.07,0,0,1-9-8.74l1.7-1.52a89.66,89.66,0,0,0,8.77,8.52Z"></path> <path class="cls-27" d="M657.57,475a91.24,91.24,0,0,1-9.9-8.81l1.64-1.58a87.85,87.85,0,0,0,9.66,8.59Z"></path> <path class="cls-23" d="M663.9,484.67c-4.18,0-9.26-.95-12.66-4.77-5.4-6.09-4.76-17.47,1.91-33.83.23-.56.57-.28,1.13-.05s1.11.31.88.87c-6.33,15.53-7.1,26.15-2.29,31.56,5.74,6.47,17.83,3.22,18,3.18,28.35-3.19,55.14-21.83,56.78-27.32-4.38-1.46-35.46-1-64.16,2.26a1.09,1.09,0,0,1-.25-2.16c26.39-3,63.23-4.27,66.19-1.58a1.36,1.36,0,0,1,.47,1.05c-.11,7.15-30.22,26.7-58.63,29.88A29.56,29.56,0,0,1,663.9,484.67Z"></path> <path class="cls-22" d="M667.28,381.58c-1.58-1.16-3.12-2.39-4.64-3.63a1.31,1.31,0,0,1-.31-.16c-.49-.31-1.14-.88-1.44-1.07a10.88,10.88,0,0,1-1-.82c-2.72,2.28-4.81,6.88-5.23,12.32-.62,8,2.59,14.76,7.16,15.12s8.77-5.85,9.39-13.84a23.9,23.9,0,0,0-.21-5.66A29.12,29.12,0,0,1,667.28,381.58Z"></path> <path class="cls-23" d="M669.71,383.16a22.36,22.36,0,0,1,.37,6.25,19.9,19.9,0,0,1-3,9.53c-1.55,2.28-3.39,3.46-5.2,3.32-3.9-.31-6.72-6.7-6.15-14,.4-5.21,2.45-9.7,5-11.71a11.92,11.92,0,0,1-1.72-1.4c-2.89,2.5-5,7.24-5.47,12.94-.67,8.73,2.91,15.88,8.16,16.29l.46,0c2.45,0,4.81-1.51,6.7-4.28a22.34,22.34,0,0,0,3.4-10.58,26.83,26.83,0,0,0-.12-5.18A25.08,25.08,0,0,1,669.71,383.16Z"></path> <path class="cls-22" d="M704.85,383.47q-2.61,1-5.2,1.89c-.09.95-.15,1.92-.15,2.92,0,9.88,4.58,17.88,10.22,17.88s10.22-8,10.22-17.88a27.69,27.69,0,0,0-2-10.53A84.43,84.43,0,0,1,704.85,383.47Z"></path> <path class="cls-23" d="M718.7,377.34c-.62.39-1.28.71-1.92,1.06a26.61,26.61,0,0,1,1.82,9.88c0,9-4.06,16.55-8.88,16.55s-8.88-7.58-8.88-16.55a31,31,0,0,1,.19-3.38c-.92.33-1.84.63-2.76.92-.06.81-.1,1.62-.1,2.46,0,10.78,5.07,19.22,11.55,19.22s11.56-8.44,11.56-19.22A28.84,28.84,0,0,0,719.13,377C719,377.12,718.85,377.24,718.7,377.34Z"></path> <path class="cls-23" d="M666.47,391.16a2.51,2.51,0,0,1-2,.73,2.54,2.54,0,0,1-2.34-2.73,2.63,2.63,0,0,1,.43-1.21c-1.85.52-3.41,3.2-3.67,6.54-.3,3.83,1.23,7.07,3.42,7.24s4.2-2.79,4.5-6.62A11.08,11.08,0,0,0,666.47,391.16Z"></path> <path class="cls-23" d="M713.77,390.79a3.11,3.11,0,0,1-5.46-2,3,3,0,0,1,.41-1.53c-2.22.81-3.89,4.25-3.89,8.38,0,4.73,2.19,8.56,4.89,8.56s4.89-3.83,4.89-8.56A13.49,13.49,0,0,0,713.77,390.79Z"></path> <path class="cls-22" d="M722,375.19A108.91,108.91,0,0,1,693.18,388"></path> <path class="cls-23" d="M693.18,389.09a1,1,0,0,1-.26-2.06,108.89,108.89,0,0,0,28.54-12.72,1,1,0,0,1,1.14,1.76,110.66,110.66,0,0,1-29.16,13A.78.78,0,0,1,693.18,389.09Z"></path> <path class="cls-22" d="M656.63,373.86s10.09,8.28,16.14,11.14"></path> <path class="cls-23" d="M672.76,386.05a1,1,0,0,1-.44-.1c-6.1-2.89-15.94-10.94-16.35-11.29a1,1,0,0,1-.15-1.47,1.06,1.06,0,0,1,1.48-.14c.1.08,10.05,8.23,15.91,11a1,1,0,0,1-.45,2Z"></path> <path class="cls-23" d="M798.67,374.42a4.61,4.61,0,0,0,8.13,2.08l9.12-11.36c3.87-4.81-.56-12.32-7-11.91l-14.34.92a4.63,4.63,0,0,0-2.77,8.06A22.07,22.07,0,0,1,798.67,374.42Z"></path> <path class="cls-23" d="M680.48,401.91l-5.72.16a2,2,0,0,0-1.69,3.12l3,4.87a2,2,0,0,0,3.55-.1l2.72-5A2.06,2.06,0,0,0,680.48,401.91Z"></path> <line class="cls-22" x1="677.68" y1="408.07" x2="681.8" y2="422.56"></line> <path class="cls-23" d="M678.68,407.79c.28,0,.22.1.26.17l.06.23.13.45.27.9.52,1.81L681,415c.71,2.4,1.38,4.82,2,7.25l-2.4.68q-1.1-3.6-2.09-7.24l-1-3.62-.51-1.81-.26-.91-.12-.45-.07-.23c0-.08-.1-.13.13-.28Z"></path> <path class="cls-23" d="M750.23,483.9c-6.36-20.61,1.17-28.61,1.49-28.94l1.63,1.59-.81-.79.82.79c-.07.07-6.87,7.5-1,26.67Z"></path> <path class="cls-23" d="M660.17,484a30.26,30.26,0,0,1,2.43-29.55l1.83,1.36c-.09.12-8.92,12.34-2.18,27.25Z"></path> <path class="cls-25" d="M706,486a15.86,15.86,0,0,1-.86,5.87,8.23,8.23,0,0,1-4.54,4.49,19.24,19.24,0,0,1-5.83,1.31c-1.93.21-3.83.23-5.73.25-3.75,0-7.48-.07-11.3-.44a15.25,15.25,0,0,1-5.79-1.52,5.33,5.33,0,0,1-2.23-2.48,7.73,7.73,0,0,1-.46-3.1.76.76,0,0,1,.76-.76.77.77,0,0,1,.76.69v.07a6.5,6.5,0,0,0,.54,2.38,3.42,3.42,0,0,0,1.56,1.49,15.12,15.12,0,0,0,5,1c3.64.21,7.38.07,11.1.08a54.29,54.29,0,0,0,5.45-.3,19.68,19.68,0,0,0,5.07-1.15,6.43,6.43,0,0,0,3.4-3,22,22,0,0,0,1.54-5h0a.77.77,0,0,1,.91-.58A.76.76,0,0,1,706,486Z"></path> <path class="cls-25" d="M709.79,485.85a18.72,18.72,0,0,0,1.29,5.14,6.37,6.37,0,0,0,3.54,3.16,18.42,18.42,0,0,0,5.16,1.06c1.8.18,3.64.18,5.47.18,3.72,0,7.47,0,11.08-.31a13.53,13.53,0,0,0,4.9-1.13,3.86,3.86,0,0,0,1.45-1.32,9.59,9.59,0,0,0,.82-2.25l0-.08a.77.77,0,0,1,1.49.08,6,6,0,0,1-.16,3.23,5.19,5.19,0,0,1-2.36,2.65,15.86,15.86,0,0,1-5.94,1.39c-3.84.28-7.57.21-11.31.2a55.24,55.24,0,0,1-5.72-.36,20.76,20.76,0,0,1-5.73-1.39,8.28,8.28,0,0,1-4.41-4.34,18.35,18.35,0,0,1-1.11-5.76.76.76,0,0,1,1.51-.15Z"></path> <path class="cls-25" d="M708.34,496.88l-.48,18.18a.86.86,0,1,1-1.71,0v-.08l1.15-18.13a.52.52,0,0,1,1,0Z"></path> <path class="cls-25" d="M702.53,499.94c2.42,0,4.85-.19,7.37,0a8.18,8.18,0,0,1,1.94.4c.37.15.58.27.83.36a5.07,5.07,0,0,0,.81.23,16.29,16.29,0,0,0,3.5.33h0a.48.48,0,0,1,.49.49.49.49,0,0,1-.47.49,17.71,17.71,0,0,1-3.77-.21,8.81,8.81,0,0,1-1-.24c-.33-.11-.67-.27-.86-.33a7,7,0,0,0-1.64-.27c-2.34-.11-4.79.14-7.23.25h0a.76.76,0,0,1-.06-1.52Z"></path> <path class="cls-25" d="M711.85,506.67a23.12,23.12,0,0,0-2.84.58,19.16,19.16,0,0,1-3,.5,5.73,5.73,0,0,1-1.6-.11,11,11,0,0,0-1.42-.2,25.38,25.38,0,0,0-2.89-.1h0a.59.59,0,0,1-.61-.58.6.6,0,0,1,.59-.62h0a27.89,27.89,0,0,1,3,.24,13.39,13.39,0,0,1,1.51.29,5.14,5.14,0,0,0,1.35.16,17.84,17.84,0,0,0,2.87-.35,22.87,22.87,0,0,1,3-.46.32.32,0,0,1,0,.64Z"></path> <path class="cls-25" d="M710.25,514.64c-1.13-.08-2.29-.09-3.44-.09l-1.71,0-.84,0-.38,0-.13,0h0s.34-.19.36-.36a.76.76,0,0,1-1.4-.59,1,1,0,0,1,.54-.48l.19,0a2,2,0,0,1,.3,0c.18,0,.32,0,.49,0l.9,0,1.76.14c1.17.12,2.32.25,3.49.45a.41.41,0,0,1,.33.48A.4.4,0,0,1,710.25,514.64Z"></path> <ellipse class="cls-25" cx="689.31" cy="492.98" rx="1.23" ry="1"></ellipse> <ellipse class="cls-25" cx="721.66" cy="492.77" rx="1.36" ry="1.13"></ellipse> <path class="cls-23" d="M668,422.3a27.83,27.83,0,0,0,6.59.27,57.3,57.3,0,0,0,6.64-.81c2.2-.4,4.38-.89,6.51-1.5,1.06-.3,2.12-.63,3.11-1a13.66,13.66,0,0,0,1.43-.61c.42-.17.84-.56.7-.38a1.73,1.73,0,1,1,2.83,2,5.37,5.37,0,0,1-2.15,1.44,17.59,17.59,0,0,1-1.76.61c-1.16.35-2.3.62-3.44.86-2.29.48-4.58.83-6.88,1.08a59.57,59.57,0,0,1-6.95.34,29,29,0,0,1-7-.79.76.76,0,0,1,.33-1.49Z"></path> <polygon class="cls-28" points="790.92 462.85 791.97 465.49 813.97 520.95 854.17 622.3 859.66 622.43 805.45 457.36 790.92 462.85"></polygon> <polygon class="cls-29" points="864.58 411.71 851.55 453.61 774.3 469.01 749.08 638.49 743.2 638.35 754.94 457.92 851.86 411.42 864.58 411.71"></polygon> <polygon class="cls-14" points="857.79 622.59 853.66 622.84 791.97 465.49 797.1 464.46 797.7 464.35 807.13 462.47 798.61 466.74 857.79 622.59"></polygon> <polygon class="cls-30" points="762.6 459.74 864.53 411.71 851.31 453.89 840.88 455.74 846.24 424.25 762.6 459.74"></polygon> <polygon class="cls-14" points="743.94 619.03 754.9 458.53 762.24 459.74 743.94 619.03"></polygon> <polygon class="cls-14" points="864.53 411.71 841.38 416.16 754.94 457.92 762.58 459.66 864.58 411.71 864.53 411.71"></polygon> <polygon class="cls-31" points="762.48 459.66 756.55 459.74 749.64 535.51 754.94 457.92 829.03 422.13 757.88 457.84 762.48 459.66"></polygon> <polygon class="cls-31" points="807.13 462.47 791.97 465.49 827.34 555.7 796.13 467.5 807.13 462.47"></polygon> <polygon class="cls-31" points="651.75 444.54 629.92 455 620.76 514.85 633.63 455.7 652.77 445.15 651.75 444.54"></polygon> <polygon class="cls-32" points="325.75 526.04 324.47 528.95 324.47 528.95 248.29 701.58 242.19 701.58 309.75 519.57 325.75 526.04"></polygon> <polygon class="cls-23" points="242.19 701.58 279.46 612.49 274.62 612.49 242.19 701.58"></polygon> <polygon class="cls-14" points="324.47 528.95 324.47 528.95 248.29 701.58 247.46 701.58 318.19 527.54 324.47 528.95"></polygon> <polygon class="cls-33" points="259.25 467.32 258.63 514.21 119.64 514.21 106.26 467.32 259.25 467.32"></polygon> <polygon class="cls-34" points="256.52 471.35 258.63 514.21 344.06 533.33 384.6 713.03 391.14 713.03 365.86 521.5 259.38 467.32 256.52 471.35"></polygon> <path class="cls-35" d="M361.81,618l-13.47,1.19c-28.67,2.52-93.78,8.17-102.1,8.17-10.71,0-89.55-9.55-89.55-9.55s-18.23-23-8.61-28.69c4.35-2.6,24.31-2.44,54.62-3.74,13.22-.57,27-1,39.53-1.37,7.29-.2,14.18-.37,20.34-.5h0c12.68-.28,22.28-.41,25.88-.41,9.79,0,37.65,3.06,57.4,7,4.69.93,8.92,1.91,12.34,2.91,4.62,1.34,7.77,2.73,8.59,4.07C370.77,603.64,361.81,618,361.81,618Z"></path> <g class="cls-36"> <path class="cls-23" d="M366.79,597.08c-.82-1.34-4-2.73-8.59-4.07-3.42-1-7.65-2-12.34-2.91-19.75-3.92-47.61-7-57.4-7h-1.69c10.09.07,37.51,3.09,57,7,4.69.93,8.92,1.91,12.35,2.91,4.61,1.34,7.76,2.73,8.58,4.07,4,6.56-5,20.94-5,20.94l-13.47,1.19c-27.68,2.44-89.35,7.78-101,8.15l1,0c8.32,0,73.43-5.65,102.1-8.17L361.81,618S370.77,603.64,366.79,597.08Z"></path> </g> <path class="cls-37" d="M348.34,619.21c-28.67,2.52-93.78,8.17-102.1,8.17-10.71,0-89.55-9.55-89.55-9.55s-18.23-23-8.61-28.69c7.35-4.39,73.36-4.73,114.49-5.61-1.24.05-107.23,4.52-105.31,9.9s81.32,9.06,91.22,10S348,598.67,350,598.48c-2,.21-97.67,7.26-98.84,9.57s-1.69,16.15,1.8,16.71C255.68,625.21,320.12,621.06,348.34,619.21Z"></path> <polygon class="cls-38" points="186.77 526.04 185.54 528.96 159.66 590 112.36 701.58 106.26 701.58 170.77 519.57 186.77 526.04"></polygon> <polygon class="cls-20" points="256.82 473.24 256.82 514.21 225.95 514.21 209.56 475.92 141.24 473.24 256.82 473.24"></polygon> <polygon class="cls-39" points="256.82 473.24 359.13 522.12 302.4 497.71 301.1 522.12 344.44 533.33 258.63 514.21 256.82 473.24"></polygon> <path class="cls-40" d="M358.2,593,202.69,585.4h0c13.22-.57,27-1,39.53-1.37l103.63,6.07C350.55,591,354.78,592,358.2,593Z"></path> <polygon class="cls-14" points="185.54 528.96 159.66 590 155.08 589.62 179.21 527.54 185.54 528.96"></polygon> <polygon class="cls-14" points="365.86 521.5 259.25 467.32 141.92 467.32 142.22 472.9 256.82 473.24 359.13 522.12 391.14 713.04 365.86 521.5"></polygon> <polygon class="cls-23" points="365.86 521.5 383.54 655.51 362.53 521.97 307.25 491.72 365.86 521.5"></polygon> <polygon class="cls-14" points="106.26 467.32 131.91 472.87 142.22 472.9 141.92 467.32 106.26 467.32"></polygon> <path class="cls-41" d="M177.75,598s62.36,10.17,112.21-1c-6.83-7-101.06-10.71-101.06-10.71s-27.41.2-29.7,8.42Z"></path> <path class="cls-22" d="M222.43,578.51c-8.32-2.78-20.56-4.86-25.12-4.63S189.14,575,187,578c-2.28,3.26-1.78,8,0,11.17,4.08,7.07,15.49,6.83,19.62,6.74,14.49-.31,25.16-9,29.83-13.43"></path> <path class="cls-23" d="M204.63,597c.77,0,1.46,0,2,0,13.57-.29,24.09-7.62,30.54-13.71l-1.45-1.53c-6.17,5.84-16.24,12.86-29.13,13.14-4.09.09-14.92.31-18.69-6.22-1.59-2.76-2.13-7.09-.07-10,1.63-2.34,4.47-3.44,9.51-3.69,4.33-.19,16.34,1.78,24.72,4.58l.67-2c-8.59-2.88-21-4.93-25.5-4.7-4.06.21-8.56.91-11.13,4.59-2.68,3.83-1.89,9.06,0,12.29C189.94,596.34,199.35,597,204.63,597Z"></path> <path class="cls-22" d="M366.15,440.52l2.24-42.66c.41-7.8-9.68-12.24-16-7.05l-28,23"></path> <path class="cls-26" d="M329.89,408.56s16.05-1.15,37.7,14.74l-.76,16.85-19.49-2.7-24.13-24Z"></path> <path class="cls-23" d="M367.2,440.57l-2.1-.11,2.24-42.66a7.51,7.51,0,0,0-4.41-7.16,9.08,9.08,0,0,0-9.87,1l-28,23L323.73,413l28-23a11.18,11.18,0,0,1,12.16-1.24,9.67,9.67,0,0,1,5.56,9.15Z"></path> <path class="cls-22" d="M375.36,472c2.14-40.89-38.28-55.35-38.28-55.35-27.22-11.91-60.19-11.65-88.18-1.95l-25.42-25.84c-5.74-5.82-16.25-2.46-16.66,5.33l-4.62,88.08a48.35,48.35,0,0,0,41.37,50.4l84.25,4.43a48.35,48.35,0,0,0,46.52-45.78l1-19.32"></path> <path class="cls-14" d="M227.73,527.32c-6.42,8.28-16,37.14-16,47.42A21.22,21.22,0,0,0,232.93,596h59.2a21.22,21.22,0,0,0,21.21-21.21c0-10.3-8-28.18-11.26-38.49"></path> <path class="cls-23" d="M232.93,597h59.2a22.29,22.29,0,0,0,22.26-22.26c0-7.75-4.22-19.2-7.94-29.31-1.28-3.49-2.5-6.78-3.37-9.5l-2,.64c.88,2.76,2.1,6.08,3.39,9.59,3.48,9.45,7.81,21.2,7.81,28.58a20.17,20.17,0,0,1-20.15,20.15h-59.2a20.17,20.17,0,0,1-20.15-20.15c0-10.37,9.59-38.78,15.79-46.78l-1.67-1.29c-6.37,8.22-16.23,37.42-16.23,48.07A22.29,22.29,0,0,0,232.93,597Z"></path> <path class="cls-23" d="M337.5,415.7c-26-11.38-59-12.19-88.31-2.19l-25-25.36a11.19,11.19,0,0,0-12-2.51,9.68,9.68,0,0,0-6.49,8.52l-4.63,88.08a49.06,49.06,0,0,0,26.25,46.27,11.53,11.53,0,0,1,.66-2,47,47,0,0,1-24.8-44.15l4.63-88.08a7.49,7.49,0,0,1,5.13-6.66,9.24,9.24,0,0,1,2.39-.57,9,9,0,0,1,7.32,2.58l25.9,26.32.63-.22c29-10.05,61.68-9.34,87.47,1.94.4.14,39.66,14.65,37.58,54.31l-1,19.32a47.59,47.59,0,0,1-45.41,44.78l-27.53-1.43a11.18,11.18,0,0,1,1.08,2.16l26.43,1.38c1.07,0,2.14-.12,3.2-.22a49.75,49.75,0,0,0,44.33-46.56l1-19.32C378.57,430.88,337.84,415.82,337.5,415.7Z"></path> <path class="cls-23" d="M234.29,420.7a4.23,4.23,0,0,0,2.14-7.48L226.18,405c-4.61-3.68-11.85-.37-11.47,5.25l.9,13.27a4.21,4.21,0,0,0,7.17,2.69A20.06,20.06,0,0,1,234.29,420.7Z"></path> <path class="cls-22" d="M292.71,532.88c20.65-1.19,36.15,3.63,37.35,7.91,2.6,9.31-17.87,11.28-39.6,12.53"></path> <path d="M291.54,552.36c16.14-1,33.31-2.46,37.1-7.77a3.93,3.93,0,0,0,.56-3.56c-1-3.67-16.08-8.43-36.44-7.25a.9.9,0,0,1-.95-.84,1,1,0,0,1,.08-.42.9.9,0,0,1,.77-.53c20.8-1.2,36.86,3.55,38.26,8.56a5.72,5.72,0,0,1-.82,5.08c-4.3,6-21.58,7.54-39.05,8.55A8.31,8.31,0,0,0,291.54,552.36Z"></path> <path class="cls-22" d="M253.74,534.82c19.5,6.93,32.46,16.17,31.89,20.58-1.22,9.59-20.85,3.45-41.35-3.85"></path> <path class="cls-14" d="M272.65,542.56c.58,3.15.63,9.22-6.63,16.85-3.63,3.81-26.24-8.44-25.91-8.42s13.55-17.24,13.88-17.28S272.65,542.56,272.65,542.56Z"></path> <path class="cls-23" d="M245.28,551.62a.89.89,0,0,1,1-.31c15.06,5.32,31.08,10.41,36.56,7a3.94,3.94,0,0,0,1.9-3.06c.48-3.78-11.85-12.59-31.06-19.43a.89.89,0,0,1-.55-1.14.79.79,0,0,1,.24-.35.88.88,0,0,1,.91-.19c19.63,7,32.89,16.17,32.23,21.33a5.77,5.77,0,0,1-2.73,4.37c-6.15,3.77-22-1.2-38.1-6.88a.89.89,0,0,1-.42-1.36Z"></path> <ellipse class="cls-22" cx="351.35" cy="468.74" rx="16.76" ry="9.58" transform="translate(-142.08 784.48) rotate(-85.76)"></ellipse> <path class="cls-23" d="M350,486.5h0c-5.95-.44-10-8.58-9.29-18.55s6-17.43,11.92-17c2.95.22,5.53,2.35,7.27,6a27.48,27.48,0,0,1-1.83,24.68c-2.13,3.16-4.8,4.87-7.57,4.87A4.18,4.18,0,0,1,350,486.5Zm6.32-6A25.34,25.34,0,0,0,358,457.88c-1.4-2.94-3.36-4.64-5.51-4.8-4.6-.31-9,6.54-9.66,15s2.73,15.95,7.33,16.29l-.07,1.05.07-1.05C352.34,484.57,354.53,483.16,356.35,480.47Z"></path> <path class="cls-23" d="M347.9,472.69a2.91,2.91,0,0,0,5.24-1.53,2.88,2.88,0,0,0-.28-1.46c2,.91,3.34,4.24,3.06,8.1-.33,4.42-2.64,7.85-5.17,7.66s-4.3-3.92-4-8.34A12.59,12.59,0,0,1,347.9,472.69Z"></path> <ellipse class="cls-22" cx="284.83" cy="464.34" rx="16.76" ry="9.58" transform="translate(-199.29 714.07) rotate(-85.76)"></ellipse> <path class="cls-23" d="M283.51,482.11h0c-2.94-.22-5.52-2.35-7.26-6a25.35,25.35,0,0,1-2-12.55c.74-10,6-17.43,11.92-17,2.94.21,5.52,2.34,7.26,6a27.48,27.48,0,0,1-1.83,24.68c-2.13,3.16-4.8,4.88-7.57,4.88Zm-7.18-18.4a23.25,23.25,0,0,0,1.82,11.5c1.4,2.93,3.36,4.64,5.52,4.79s4.35-1.23,6.17-3.93a25.42,25.42,0,0,0,1.67-22.59c-1.4-2.94-3.36-4.64-5.52-4.8h-.33C281.18,448.67,277,455.42,276.33,463.71Z"></path> <path class="cls-23" d="M281.38,468.29a2.92,2.92,0,0,0,5.25-1.53,3,3,0,0,0-.28-1.46c2,.91,3.34,4.25,3,8.1-.32,4.42-2.64,7.85-5.16,7.67s-4.31-3.93-4-8.34A12.59,12.59,0,0,1,281.38,468.29Z"></path> <path class="cls-23" d="M315.46,482l5.76.16a2.07,2.07,0,0,1,1.7,3.15l-3,4.9a2.06,2.06,0,0,1-3.57-.1L313.59,485A2.06,2.06,0,0,1,315.46,482Z"></path> <line class="cls-22" x1="318.28" y1="488.16" x2="315.82" y2="502.74"></line> <path class="cls-23" d="M317.24,488c-.27,0-.2.12-.23.2l0,.23-.08.45-.16.91-.32,1.82-.63,3.65c-.43,2.42-.83,4.86-1.2,7.29l2.48.42c.45-2.42.88-4.85,1.26-7.29l.6-3.64.3-1.83.15-.91.07-.46,0-.23c0-.07.09-.14-.16-.26Z"></path> <path class="cls-23" d="M289.42,485.44l-13.8-1.18a16.89,16.89,0,0,1-11.85-6.44,18.69,18.69,0,0,1-4-13.34l1.53-17.82a6.35,6.35,0,0,1,6.73-5.92l36.23,3.11a6,6,0,0,1,4.22,2.28,6.64,6.64,0,0,1,1.4,4.7l-1.53,17.82a18.76,18.76,0,0,1-6.18,12.47,16.94,16.94,0,0,1-11.33,4.38C290.39,485.5,289.91,485.48,289.42,485.44Zm-21.54-42.6a4.27,4.27,0,0,0-4.45,4l-1.53,17.82a16.63,16.63,0,0,0,3.52,11.85,14.83,14.83,0,0,0,10.38,5.65l13.8,1.18a14.8,14.8,0,0,0,11.2-3.79,16.68,16.68,0,0,0,5.48-11.08l1.53-17.82a4.5,4.5,0,0,0-.95-3.2,3.9,3.9,0,0,0-2.75-1.5Z"></path> <path class="cls-23" d="M355.5,491.26,343,490.19c-8.73-.75-15.12-9.56-14.26-19.65l1.53-17.81a7,7,0,0,1,2-4.37,5.4,5.4,0,0,1,4.24-1.6l32.79,2.82c3.13.27,5.44,3.38,5.13,6.94l-1.53,17.82a19.84,19.84,0,0,1-5.69,12.48,15,15,0,0,1-10.51,4.5Q356.1,491.32,355.5,491.26Zm-19.17-42.4a3.33,3.33,0,0,0-2.59,1,4.82,4.82,0,0,0-1.37,3l-1.53,17.82c-.77,8.92,4.77,16.71,12.35,17.36l12.49,1.08a12.75,12.75,0,0,0,10.06-3.86,17.66,17.66,0,0,0,5.06-11.15l1.53-17.82c.21-2.4-1.23-4.49-3.21-4.66Z"></path> <rect class="cls-23" x="318.03" y="452.21" width="2.11" height="22.56" transform="translate(-170.12 741.56) rotate(-85.07)"></rect> <path class="cls-23" d="M198.12,465.3a1,1,0,0,0,1.48-.06l6.79-7.36a17.66,17.66,0,0,1,16.06-5.47l38.79,6.65.35-2.08-38.78-6.65a19.79,19.79,0,0,0-18,6.12l-6.79,7.37a1,1,0,0,0,.07,1.48Z"></path> <polygon class="cls-10" points="283.13 566.93 370.23 566.93 382.54 498.47 295.44 498.47 283.13 566.93"></polygon> <path class="cls-23" d="M294.3,498.87a1.77,1.77,0,0,1,1.74-1.45h86.19a1.31,1.31,0,0,1,1.29,1.55l-12.23,68a1.2,1.2,0,0,1-1.18,1H281.87Zm75.23,66L381,501.07a1.31,1.31,0,0,0-1.29-1.54H297.8a1.78,1.78,0,0,0-1.74,1.45l-11.67,64.89h84A1.2,1.2,0,0,0,369.53,564.89Z"></path> <path class="cls-10" d="M283.13,566.93H259.52v-3.11a2.19,2.19,0,0,1,2.2-2.2h22.37Z"></path> <path class="cls-23" d="M258.46,567v-3.2a3.25,3.25,0,0,1,3.26-3.25h23.63L284,568H259.42A1,1,0,0,1,258.46,567Zm24.37-4.35H261.72a1.15,1.15,0,0,0-1.15,1.15v1.1a1,1,0,0,0,1,1h20.72Z"></path> <path class="cls-23" d="M289.42,534.65l0-2.11c-46.23-.89-61.58-6.16-61.73-6.22l-.71,2C227.64,528.53,242.72,533.75,289.42,534.65Z"></path> <path class="cls-23" d="M268.2,559.63c5.92-6,6.4-15.21,6.41-15.6l-2.1-.1c0,.09-.47,8.82-5.81,14.22Z"></path> <path class="cls-42" d="M321.75,530.36c-.91,4.71.77,8.19,4.59,8.19,3,0,4.33-.73,5-2.5a3.74,3.74,0,0,0,3.78,2.92c3.07,0,6.31-2.69,7.14-7s-1.57-6.74-4.49-6.74a5.77,5.77,0,0,0-4.4,2.28,2.33,2.33,0,0,0-2.41-1.85h-.71l-1.54,8c-.28,1.43-.66,1.91-1.65,1.93-1.49-.08-2.08-1.82-1.42-5.24.95-4.94,5.4-8.22,11-8.22,5.29,0,9.65,3.2,8.49,9.26-1.28,6.62-5.5,9.59-11.34,9.59h-1.71l-.26,1.34a1.3,1.3,0,0,0,1.34,1.6c9,0,14.38-4.79,15.87-12.53s-3.8-12.26-11.82-12.26C329.5,519.14,323,523.68,321.75,530.36Zm12.52,3.36h4.11a.5.5,0,0,1,.45.77,3.51,3.51,0,0,1-3,1.91,2.18,2.18,0,0,1-2.28-1.91A.75.75,0,0,1,334.27,533.72Z"></path> <polygon class="cls-43" points="106.26 467.32 119.64 514.21 205.08 533.33 228.93 713.03 235.46 713.03 226.87 521.5 120.39 467.32 106.26 467.32"></polygon> <polygon class="cls-14" points="218.34 523.24 235.46 713.03 226.87 521.5 131.91 472.87 106.26 467.32 218.34 523.24"></polygon> <polygon class="cls-44" points="490.26 769.14 482.52 769.18 479.37 767.51 452.58 542.27 451.97 537.2 478.35 538.16 487.91 538.52 490.26 769.14"></polygon> <polygon class="cls-45" points="482.52 769.18 479.37 767.51 452.58 542.27 462.66 541.23 482.52 769.18"></polygon> <polygon class="cls-46" points="509.93 777.67 502.18 777.63 499.02 775.97 474.38 568.73 472.24 550.72 471.63 545.66 498.01 546.62 507.57 546.97 507.81 571.45 507.84 574.1 509.93 777.67"></polygon> <polygon class="cls-45" points="502.18 777.63 499.02 775.97 472.24 550.73 482.32 549.68 502.18 777.63"></polygon> <polygon class="cls-47" points="751.11 766.69 753.19 768.62 758.43 768.48 777.78 562.12 759.77 562.56 753.24 562.72 751.11 766.69"></polygon> <polygon class="cls-31" points="764.44 557.47 777.78 562.12 762.71 722.85 764.44 557.47"></polygon> <polygon class="cls-45" points="751.11 766.69 753.19 768.62 759.77 562.56 753.24 562.72 751.11 766.69"></polygon> <polygon class="cls-48" points="809.83 547.7 775.79 777.14 767.91 777.25 765.09 775.17 773.87 547.98 783.44 547.9 809.83 547.7"></polygon> <polygon class="cls-45" points="783.44 547.9 767.91 777.25 765.09 775.17 773.87 547.98 783.44 547.9"></polygon> <polygon class="cls-49" points="812.35 528.67 811.25 536.64 806.54 570.78 764.37 571.11 508.42 573.15 505.13 573.18 484.35 573.03 474.79 569.04 454.83 560.67 448.63 531.75 447.11 524.65 466.25 531.24 710.9 529.41 812.35 528.67"></polygon> <polygon class="cls-45" points="812.51 528.51 811.25 536.64 809.81 546 482.21 547.8 484.35 573.03 454.83 560.67 452.88 551.57 450.3 539.55 449.47 535.68 448.63 531.75 462.19 531.63 710.9 529.41 812.51 528.51"></polygon> <g class="cls-50"> <polygon class="cls-51" points="601.68 523.16 606.91 530.3 839.74 528.88 842.59 521.74 601.68 523.16"></polygon> </g> <path class="cls-52" d="M847,518.59l-147.87.83s141.09-1,141.33-2.92-22.66-14.43-22.66-14.43l8.55,4.84,0,0Z"></path> <g class="cls-53"> <polygon class="cls-54" points="507.86 573.17 509.93 777.67 505.13 573.18 504.96 570.51 781.45 570.96 507.86 573.17"></polygon> </g> <polygon class="cls-55" points="847 518.58 846.89 519.05 846.86 519.13 843.85 532.34 843.02 535.98 433.14 540.59 432.81 540.34 403.1 519.38 402.96 519.29 402.88 519.21 402.85 519.21 402.19 515.62 399.56 501.29 399.56 501.2 825.07 502.22 847 518.58"></polygon> <polygon class="cls-14" points="846.86 518.63 843.85 532.34 843.02 535.98 433.14 540.59 432.81 540.34 403.1 519.38 402.96 519.29 402.88 519.21 402.19 515.62 399.45 501.2 399.56 501.29 430.4 518.66 767.21 519.24 846.86 518.63"></polygon> <polygon class="cls-45" points="433.14 540.59 403.1 519.38 402.96 519.29 402.88 519.21 402.19 515.62 399.45 501.2 399.56 501.29 430.4 518.66 433.14 540.59"></polygon> <polygon class="cls-56" points="619.63 519.37 435.48 521.73 438.45 537.34 807.22 536.28 433.14 540.59 430.4 518.66 619.63 519.37"></polygon> <g class="cls-57"> <polygon class="cls-58" points="497.41 505.79 506.93 514.36 846.88 518.64 825.13 502.21 497.41 505.79"></polygon> </g> <g class="cls-59"> <polygon class="cls-60" points="843.96 520.9 841.02 534.63 645.12 536.52 646.27 522.79 843.96 520.9"></polygon> </g> <path class="cls-61" d="M424.09,515.11l20.71.88q14.11.6,28.25.13l80.89-2.67-98.66-11.79s-50.06-1.11-45.52,5.38Z"></path> <path class="cls-22" d="M565.69,491.72c3.49-11.13,10.81-26,14.61-30.67s7.54-8,12.52-7.89c5.29.09,10,4.35,12,8.75,4.43,9.92-4.74,22-8.06,26.4C585.12,503.68,567.42,508.38,559,510"></path> <path class="cls-23" d="M559.24,511.24c11.58-2.18,27.68-7.79,38.56-22.14,3.54-4.68,13-17.1,8.21-27.72-2.08-4.66-7.27-9.42-13.17-9.52s-10.17,4.18-13.55,8.37c-3.78,4.7-11.24,19.62-14.84,31.1l2.48.78c3.52-11.23,10.75-25.73,14.38-30.25,4.23-5.25,7.6-7.49,11.49-7.4,4.81.08,9.09,4.07,10.84,8,4.11,9.23-4.62,20.76-7.91,25.1-10.38,13.69-25.83,19.06-37,21.16Z"></path> <path class="cls-22" d="M599.68,332.68l15.39-44.53c3.39-9.82-7.88-19.21-17.87-14.9L552.93,292.4"></path> <path class="cls-26" d="M606.73,311.25s-16.9-23.11-33-27.43l-14.47,6S585,298,602.79,323.7Z"></path> <path class="cls-23" d="M600.91,333.1l15.39-44.53a12.8,12.8,0,0,0-3.72-13.64,14.78,14.78,0,0,0-15.89-2.87l-44.27,19.15,1,2.38,44.27-19.14a12.2,12.2,0,0,1,13.1,2.38,10.11,10.11,0,0,1,3,10.9l-15.39,44.53Z"></path> <path class="cls-22" d="M404.38,332.68l-11.81-43.32c-2.73-10,9.14-18.65,18.82-13.68l42.9,22.05"></path> <path class="cls-26" d="M443.91,294.65s-29.73,17.28-38.49,35.14l-2.11-1.05L398,309.11s13.32-17.55,36.18-21.74l11.92,6.13Z"></path> <path class="cls-23" d="M403.13,333l2.5-.68L393.82,289a10.09,10.09,0,0,1,3.75-10.67,12.2,12.2,0,0,1,13.23-1.51l42.89,22.05,1.19-2.31L412,274.53a14.79,14.79,0,0,0-16.05,1.8,12.79,12.79,0,0,0-4.61,13.37Z"></path> <path class="cls-23" d="M565.35,308.92a5.62,5.62,0,0,1,.56-10.33l16.45-5.83c7.39-2.62,15,4.69,12.13,11.59l-6.89,16.3a5.6,5.6,0,0,1-10.19.26A26.76,26.76,0,0,0,565.35,308.92Z"></path> <path class="cls-23" d="M425.15,323.76a5.6,5.6,0,0,1-10.16-.82l-6-16.66c-2.53-7,5.52-13.93,12.76-10.9l16.1,6.73a5.62,5.62,0,0,1,0,10.34A26.72,26.72,0,0,0,425.15,323.76Z"></path> <path class="cls-22" d="M392.17,384.48a64.33,64.33,0,0,0,58.61,64.08H563a64.33,64.33,0,0,0,58.49-64.07c0-69.14-57.34-93-57.34-93a153.27,153.27,0,0,0-114.68,0S392.17,312.6,392.17,384.48Z"></path> <path class="cls-23" d="M390.87,384.48c0-72,57.61-94,58.15-94.24a154.86,154.86,0,0,1,115.67,0c.58.25,58.14,25,58.14,94.24a65.28,65.28,0,0,1-59.78,65.37H450.67C417.14,446.9,390.87,418.19,390.87,384.48ZM450,292.66c-.56.21-56.49,21.72-56.49,91.82,0,32.38,25.22,59.95,57.31,62.78H562.93a62.68,62.68,0,0,0,57.31-62.78c0-67.43-56-91.6-56.54-91.84a152.25,152.25,0,0,0-113.74,0Z"></path> <path class="cls-23" d="M563.51,314.56a15,15,0,0,0-4.69-3.62,13.66,13.66,0,0,0-5.88-1.46,12.51,12.51,0,0,0-5.94,1.41,16.76,16.76,0,0,0-2.51,1.61,26.55,26.55,0,0,0-2.09,2,1.3,1.3,0,0,0,1.65,2l.13-.09a20.81,20.81,0,0,1,4.24-2.46,10.32,10.32,0,0,1,4.48-.92,12,12,0,0,1,4.55.93,19.1,19.1,0,0,1,4.19,2.41l.12.08a1.29,1.29,0,0,0,1.75-1.88Z"></path> <path class="cls-23" d="M469.34,315.64a15.46,15.46,0,0,0-4.27-4.72,13.73,13.73,0,0,0-6-2.56,13.35,13.35,0,0,0-6.53.53,16.7,16.7,0,0,0-2.93,1.29c-.89.55-1.72,1.18-2.54,1.8a1.3,1.3,0,0,0,1.32,2.21l.14-.06a23.8,23.8,0,0,1,5-1.85,11.58,11.58,0,0,1,4.93-.15,14.24,14.24,0,0,1,4.65,1.78,23.46,23.46,0,0,1,4.14,3.2l.11.11a1.3,1.3,0,0,0,2-1.58Z"></path> <path class="cls-22" d="M562.87,442.5c8.54,11,14,28,14,41.67a28.21,28.21,0,0,1-28.22,28.22H469.85a28.22,28.22,0,0,1-28.22-28.22c0-13.7,4.69-30.74,13.09-41.76"></path> <path class="cls-62" d="M565.12,446.64s-47.79,20.9-113.27,0c-5.29,0-6.22,14.5-6.22,14.5s-9.59,27.79,1.6,39.47,14.75,12.9,42.16,12.29,64.55-.86,64.55-.86,21.45-6.27,22.89-24.22S573,456.35,565.12,446.64Z"></path> <path class="cls-23" d="M446.21,501.58c-11.29-11.78-2.88-38.05-2-40.72.21-3,1.46-15.64,7.62-15.64l.43.07c64.16,20.48,111.8.26,112.28,0l1-.43.67.84c9.31,11.48,13.35,25.67,12,42.18-1.5,18.71-23,25.2-23.91,25.47l-.39.05c-.37,0-37.42.26-64.51.86-3.55.08-6.71.13-9.54.13C460.73,514.44,456.35,512.17,446.21,501.58Zm129.21-13.87c1.24-15.37-2.38-28.61-10.75-39.37-7.31,2.83-53.1,18.76-113-.28-2.6.35-4.29,8-4.63,13.17l-.07.37c-.1.27-9.19,27.1,1.28,38,10.63,11.1,13.61,12.48,41.11,11.86,26-.59,61.3-.84,64.35-.86C555.73,510,574.14,503.62,575.42,487.71Z"></path> <path class="cls-23" d="M469.85,513.69h78.76a29.55,29.55,0,0,0,29.52-29.52c0-14.41-5.72-31.47-14.24-42.46l-2,1.59c8.19,10.57,13.69,27,13.69,40.87a26.94,26.94,0,0,1-26.92,26.92H469.85a27,27,0,0,1-26.92-26.92c0-14.44,5.15-30.91,12.82-41l-2.06-1.58c-8,10.49-13.35,27.58-13.35,42.55A29.55,29.55,0,0,0,469.85,513.69Z"></path> <path class="cls-63" d="M515.84,480.31h-5.4l3.31-12.81a2.13,2.13,0,0,0-2.06-2.67H504a2.14,2.14,0,0,0-2.12,1.92l-1.4,14.08a3.39,3.39,0,0,0,3.37,3.72h4.27l-2,13.7c0,1.74,1.54,2.57,2.38,1.28l2.81-4.28h0l1.44-2.21h0l4.63-7C518.75,483.89,517.78,480.31,515.84,480.31Z"></path> <path class="cls-22" d="M507.09,342.77c6.77-3.29,16.64.55,7.32,11,0,0,10.37,5.67,3.81,13.35s-13.14-2.38-13.14-2.38"></path> <path class="cls-23" d="M512.93,371.27c2.27,0,4.38-1.12,6.28-3.34,2-2.37,2.82-4.84,2.36-7.34-.63-3.41-3.49-5.91-5.22-7.14,4.45-5.55,3.27-8.91,2.1-10.46-2.19-2.9-7.54-3.52-11.93-1.39a1.3,1.3,0,0,0,1.14,2.34c3.21-1.57,7.28-1.28,8.71.62,1.31,1.73.25,4.76-2.93,8.31a1.32,1.32,0,0,0-.31,1.09,1.29,1.29,0,0,0,.65.92c.05,0,4.57,2.55,5.23,6.19.32,1.71-.27,3.4-1.78,5.17s-3,2.51-4.58,2.43c-3.51-.22-6.45-4.63-6.48-4.67a1.3,1.3,0,0,0-2.18,1.42c.15.23,3.68,5.54,8.49,5.84Z"></path> <path class="cls-23" d="M502,321l7.31-1.08a2.64,2.64,0,0,1,2.85,3.59l-2.71,6.87a2.65,2.65,0,0,1-4.54.68l-4.59-5.79A2.65,2.65,0,0,1,502,321Z"></path> <path class="cls-22" d="M506.06,323l.23,1.74c.87,4.27,2,9.23,1.39,13.44l-.65,4.61"></path> <path class="cls-23" d="M507,344.07a1.31,1.31,0,0,0,1.29-1.12l.65-4.61c.58-4.16-.38-8.88-1.24-13l-.39-2.49a1.3,1.3,0,0,0-2.57.35l.42,2.66c.81,4,1.73,8.44,1.21,12.16l-.65,4.6a1.29,1.29,0,0,0,1.1,1.47Z"></path> <circle class="cls-64" cx="576.35" cy="401.56" r="21.16"></circle> <circle class="cls-64" cx="442.46" cy="405.98" r="21.16"></circle> <path class="cls-23" d="M598.73,394.76a20.61,20.61,0,0,0-6.11-9.25,27.29,27.29,0,0,0-9.56-5.57,27,27,0,0,0-11-1.41A24.06,24.06,0,0,0,561.62,382a1.3,1.3,0,0,0,1.14,2.32h0a28.72,28.72,0,0,1,9.51-1.88,27.8,27.8,0,0,1,17.94,5.89,21.48,21.48,0,0,1,6,7.35l0,0a1.3,1.3,0,0,0,2.42-.94Z"></path> <path class="cls-22" d="M562.94,467.51c13.8-26.69,16.57-50.11,11.6-54.22-10.82-9-25.54,17-40,45.12"></path> <path class="cls-62" d="M570,449.86c-8.58-.33-25.34-10.36-25.34-10.36L530.7,464.74l30.06,7.65Z"></path> <path class="cls-23" d="M562.94,468.81a1.31,1.31,0,0,0,1.16-.71c13.89-26.89,17.09-51,11.27-55.81a8.33,8.33,0,0,0-7.23-1.92c-10.63,2.17-23,24.63-34.79,47.44a1.3,1.3,0,0,0,2.31,1.2c11-21.29,23.5-44.15,33-46.09a5.72,5.72,0,0,1,5.05,1.37c4.26,3.52,1.68,26.31-11.92,52.62a1.3,1.3,0,0,0,.56,1.75A1.26,1.26,0,0,0,562.94,468.81Z"></path> <path class="cls-22" d="M450.76,467.51C437,440.82,434.2,417.4,439.17,413.29c10.81-9,25.53,17,40,45.12"></path> <path class="cls-62" d="M467.51,436.48C461.7,443.29,443,450.77,443,450.77l10.75,27.07L479.2,458Z"></path> <path class="cls-23" d="M450.76,468.81a1.31,1.31,0,0,0,1.16-1.9c-13.6-26.31-16.19-49.1-11.93-52.62a5.72,5.72,0,0,1,5.05-1.37c9.51,1.94,22,24.8,33,46.09a1.3,1.3,0,0,0,2.3-1.2c-11.77-22.81-24.16-45.27-34.79-47.44a8.32,8.32,0,0,0-7.22,1.92c-5.82,4.82-2.63,28.92,11.27,55.81A1.29,1.29,0,0,0,450.76,468.81Z"></path> <path class="cls-23" d="M424.45,397a20.53,20.53,0,0,1,11.91-10.13,21.24,21.24,0,0,1,15.84.74,1.3,1.3,0,0,0,1.73-.62,1.32,1.32,0,0,0-.56-1.7,23,23,0,0,0-18-1.4,23.82,23.82,0,0,0-8.07,4.51,17,17,0,0,0-5.28,7.71,1.3,1.3,0,0,0,2.41.94Z"></path> <path class="cls-23" d="M570.5,451.92a1.41,1.41,0,0,0,.14-2.82c-8.6-.88-24.09-10.69-24.24-10.79a1.41,1.41,0,1,0-1.52,2.38c.66.42,16.21,10.28,25.47,11.22Z"></path> <path class="cls-23" d="M443.36,451.68a1.44,1.44,0,0,0,.46-.08c21.78-7.48,24.47-13.62,24.7-14.3a1.41,1.41,0,0,0-2.65-1c-.09.19-2.89,5.71-23,12.6a1.41,1.41,0,0,0,.45,2.75Z"></path> <polygon class="cls-65" points="148.34 481.26 226.88 521.49 232.9 658.89 224.64 522.36 148.34 481.26"></polygon> <polygon class="cls-31" points="399.56 501.25 430.4 518.62 569.33 519.14 433.14 521.8 433.14 540.55 429.18 520.3 399.56 501.25"></polygon> <polygon class="cls-31" points="479.77 540.07 486.73 539.99 497.09 719.23 479.77 540.07"></polygon> <polygon class="cls-31" points="687.61 551.05 781.45 550.38 773.16 679.18 789.34 547.8 687.61 551.05"></polygon> </g> </g> </g> </svg> 