<?xml version="1.0" encoding="UTF-8"?> <svg xmlns="http://www.w3.org/2000/svg" xmlns:xlink="http://www.w3.org/1999/xlink" viewBox="0 0 557.13 287.07"> <defs> <style>.cls-1{fill:none;}.cls-2{clip-path:url(#clip-path);}.cls-3{fill:#ea0029;}.cls-4{fill:#b0001f;}.cls-5{fill:#101820;}.cls-6{fill:#fff;}.cls-7{fill:#efefef;}.cls-8{fill:#0075c9;}</style> <clipPath id="clip-path"> <rect class="cls-1" width="557.13" height="287.07"></rect> </clipPath> </defs> <title>Монтажная область 12</title> <g id="Слой_10" data-name="Слой 10"> <g class="cls-2"> <rect class="cls-3" width="557.13" height="287.07"></rect> <path class="cls-4" d="M405.45,186.68l-14.07,17.57A10.21,10.21,0,0,0,393,218.6l8.72,7A10.21,10.21,0,0,0,416,224l.36-.45,3.55,2.84c1.51,1.21,3.88-.19,3.75-2.22l-.32-4.75a11.16,11.16,0,0,1,2.18-7.3l4.55-5.69a10.2,10.2,0,0,0-1.59-14.35l-8.72-7A10.21,10.21,0,0,0,405.45,186.68Z"></path> <path class="cls-4" d="M29.63,107.62c-2.38,2.06-6.34,1.38-8.84-1.52s-2.6-6.91-.22-9,6.35-1.38,8.85,1.52S32,105.57,29.63,107.62Zm2-24c-2.06-3.23-5.88-4.48-8.54-2.79S19.92,86.48,22,89.71s5.88,4.48,8.53,2.79S33.65,86.81,31.6,83.59Zm25,6.83c2.87-1.29,3.93-5.17,2.36-8.66s-5.17-5.27-8.05-4S47,82.94,48.59,86.44,53.76,91.71,56.63,90.42ZM42.54,84.83c2.66-1.69,3.14-5.68,1.09-8.91s-5.88-4.47-8.54-2.78S32,78.82,34,82.05,39.89,86.52,42.54,84.83Zm5.22,6.53a9.41,9.41,0,0,0-13.09,8.91l.22,7.75a5.95,5.95,0,0,0,11,3l0-.07a11.69,11.69,0,0,1,7.72-5.21,5.86,5.86,0,0,0,2.26-.93,6,6,0,0,0,1-.87,6,6,0,0,0,1.55-3.4,6,6,0,0,0-3.58-6.13Z"></path> <path class="cls-4" d="M370.39,19.87l-4,4.36-7.9-12.08a2.33,2.33,0,0,0-3.67-.29l-5.65,6.22a2.33,2.33,0,0,0,0,3.12l10.33,11.46a3.7,3.7,0,0,0,5.48,0l3.13-3.44,9.59,11.64c1.41,1.28,3.2.65,2.78-1l-1.39-5.41h0l-.71-2.79h0l-2.29-8.91C375.41,20.15,371.81,18.31,370.39,19.87Z"></path> <path class="cls-4" d="M173.11,223.34,166,226.9a1.81,1.81,0,0,0-.92,2.11l2.55,8.74a1.79,1.79,0,0,0,1.73,1.28h3.5a2.9,2.9,0,0,1,2.86,2.44,27.78,27.78,0,0,1-1.33,13.89,2.9,2.9,0,0,1-3.27,1.85l-3.44-.68a1.78,1.78,0,0,0-1.94.93l-4.17,8.09a1.81,1.81,0,0,0,.5,2.26l6.33,4.85a1.79,1.79,0,0,0,2.23,0,34.67,34.67,0,0,0,4.69-48.8A1.79,1.79,0,0,0,173.11,223.34Z"></path> <path class="cls-4" d="M255.53,144.09c-7,1-11.78,7.52-11.26,14.64l.14,1.89.06.9-.9,0-1.89.08c-7.12.28-13.1,5.74-13.26,12.85a14.18,14.18,0,0,0,14.67,14.4l12.31-.51,3-.12a16.41,16.41,0,0,0,14.23-15.76l-.25-3.41L271.5,157A14.17,14.17,0,0,0,255.53,144.09Zm8.28,26.06a6.71,6.71,0,0,1-8.56,9.6,1.5,1.5,0,0,1-.47-2.35l6.64-7.45A1.49,1.49,0,0,1,263.81,170.15Z"></path> <path class="cls-4" d="M502.5,31.68l10,14.64a1.77,1.77,0,0,1-.47,2.46L507.1,52.1a1.76,1.76,0,0,1-2.45-.47L494.7,37a1.77,1.77,0,0,1,.47-2.46l4.88-3.32A1.76,1.76,0,0,1,502.5,31.68Zm23.7-12.95h0a5.32,5.32,0,0,0-.86-3.8,4.41,4.41,0,0,0-6-1.08l-7.45,5.06c.42-1.84-.68-4.58-2.77-6.12l-2.83-2.1a6.45,6.45,0,0,0-3.2-1.29c-2.45-.22-4.27,1.43-3.39,4.09l4,12.12a6.68,6.68,0,0,1,.24,3.38l0,.11a.87.87,0,0,0,.14.68l8.86,13a.88.88,0,0,0,1.21.24,11.51,11.51,0,0,1,3.89-1.2,21.06,21.06,0,0,0,8.6-3l.18-.12c2.61-1.77,5.68-3.89,5.7-6.53a3.87,3.87,0,0,0-1.47-3,5.83,5.83,0,0,0-2.1-5.24A6.17,6.17,0,0,0,526.2,18.73Z"></path> <path class="cls-4" d="M189.46,47.07,160.94,62.51a9.06,9.06,0,0,0-3.66,12.28l10,18.53A9.05,9.05,0,0,0,179.6,97l28.52-15.44a9.06,9.06,0,0,0,3.65-12.29l-10-18.52A9.05,9.05,0,0,0,189.46,47.07ZM207.25,71.7a3.92,3.92,0,0,1-1.58,5.3l-3.12,1.69L189.5,75.43c-2.77-.69-5.3,2-4.44,4.46l-10.43-2.61a6,6,0,0,0-7.35,5.16l-5.47-10.1a3.91,3.91,0,0,1,1.58-5.3l28.52-15.45a3.91,3.91,0,0,1,5.3,1.58ZM195.79,57.32a3.66,3.66,0,1,1-5-1.48A3.66,3.66,0,0,1,195.79,57.32Z"></path> <path class="cls-4" d="M37.36,4.28,44.06.14c6.32-3.91,8.55-11.76,5-17.54L33.11-43.19c-1.28-2.07-4.66-1.42-5.36,1L24.66-31.27A35.94,35.94,0,0,0,1.78-17.14L-9.34-19.25c-2.51-.47-4.6,2.26-3.32,4.33L3.26,10.87c3.58,5.78,11.59,7.31,17.91,3.4Zm-26.67-7c-1.4.86-3.77-.43-5.29-2.88s-1.61-5.16-.21-6,3.78.42,5.29,2.88S12.09-3.57,10.69-2.7ZM32.56-5.17a6.74,6.74,0,0,1-3,7.48,6.71,6.71,0,0,1-8-.7A1.5,1.5,0,0,1,21.8-.78L30.32-6A1.5,1.5,0,0,1,32.56-5.17Zm1-11.67c-1.41.87-3.78-.42-5.29-2.88s-1.61-5.15-.21-6,3.77.42,5.29,2.88S35-17.71,33.58-16.84Z"></path> <path class="cls-4" d="M43.73,255.9c-2.19-4.08-10.72-13.64-14.15-11.8-2.9,1.56,2.19,11.4-.76,13-4.16,2.24-14.52-17.25-19-14.83-4.29,2.3-1,21.58,3.49,30A17.28,17.28,0,1,0,43.73,255.9Z"></path> <path class="cls-3" d="M561.65,227.88s-.83,2.62-15.46,2.9-42.19-3.09-52,3.86-44.22,5.74-54,0,12.5-8.33,12.5-8.33,55.3-8.75,65.58-8.06S561.65,227.88,561.65,227.88Z"></path> <path class="cls-5" d="M468.51,240.82c-11.7,0-23.67-1.79-29.08-5-2.43-1.42-3.49-3-3.14-4.61.87-4.14,11.61-5.82,16.19-6.35,2.21-.36,55.45-8.77,65.83-8.07s42.36,9.32,43.71,9.68a1.42,1.42,0,0,1,1,1.8c-.43,1.34-3.18,3.63-16.8,3.89-3.66.07-8.13-.09-12.86-.25-14-.49-31.35-1.1-38.35,3.85C490.11,239.26,479.43,240.82,468.51,240.82Zm48.3-21.19c-12.74,0-63.41,8-63.94,8.08-7,.81-13.52,2.77-13.8,4.12,0,0,.07.58,1.79,1.58,9.66,5.65,43.2,6.65,52.5.07,7.78-5.5,24.93-4.9,40.09-4.37,4.7.17,9.14.31,12.71.25a57.15,57.15,0,0,0,11.43-1.08c-8.92-2.34-31.46-8.07-39.47-8.61C517.75,219.64,517.3,219.63,516.81,219.63Z"></path> <path class="cls-6" d="M349.37,59.42l-35.7-26.2c-8.05-5.92-20.07.19-19,9.67L306.21,150"></path> <path class="cls-7" d="M300.08,93.34S316,64,344.26,55.67L333,47.38s-23.38,6.23-35.55,21.24Z"></path> <path class="cls-5" d="M304.8,150.17,293.22,43a12,12,0,0,1,6.23-11.67,13.8,13.8,0,0,1,15.06.7l35.7,26.21-1.68,2.29-35.7-26.21a10.94,10.94,0,0,0-12-.53A9.06,9.06,0,0,0,296,42.74l11.58,107.13Z"></path> <path class="cls-6" d="M471.17,268.33c3.54-11.28,10.95-26.29,14.8-31.07s7.64-8.08,12.68-8c5.36.09,10.18,4.41,12.16,8.86,4.49,10.05-4.8,22.31-8.16,26.75-11.8,15.56-29.73,20.33-38.26,21.93"></path> <path class="cls-5" d="M464.65,288.2l-.52-2.79c11.26-2.11,26.89-7.54,37.39-21.39,3.32-4.38,12.15-16,8-25.31-1.75-3.93-6.06-7.94-10.89-8-4-.08-7.29,2.17-11.55,7.46-3.67,4.56-11,19.23-14.56,30.61l-2.71-.85c3.66-11.66,11.23-26.79,15.06-31.54,3.43-4.27,7.73-8.72,13.81-8.52,6.3.1,11.38,5.1,13.43,9.7,4.83,10.82-4.73,23.44-8.33,28.19C492.74,280.31,476.41,286,464.65,288.2Z"></path> <path class="cls-6" d="M345.1,55.43c38.92-10.28,79.2-8.09,116.18,7l21.5-33c8.13-7.43,22-2.17,22,8.36l7.07,126.36c0,34-18.62,54.5-51.9,57.43a2.82,2.82,0,0,0-2.08,4.49c8.51,11.17,13.26,28.42,13.26,42.3a28.59,28.59,0,0,1-28.59,28.59H362.8a28.59,28.59,0,0,1-28.59-28.59c0-13.84,5.49-31,14.15-42.21a2.87,2.87,0,0,0-2.09-4.59A65.17,65.17,0,0,1,287,156.63S282.57,72.66,345.1,55.43Z"></path> <path class="cls-8" d="M345.15,229.71a100.58,100.58,0,0,0,30.18-1c16.92-3,46-.83,46-.83L461,229.65s11.58,19.93,10.14,38.68-10.59,24.7-20.25,27.36-72.39.79-72.39.79-26.28,2.67-33.38-5.66-11.6-14.44-11.2-28S345.15,229.71,345.15,229.71Z"></path> <path class="cls-5" d="M442.58,298.34H362.8a30,30,0,0,1-30-30c0-14.61,5.8-31.92,14.44-43.08a1.34,1.34,0,0,0,.18-1.4,1.51,1.51,0,0,0-1.27-.9,66.22,66.22,0,0,1-60.55-66.32c0-.78-3.77-85.24,59.14-102.57h0c39.2-10.36,79.29-8.09,116,6.56l21.09-32.27a15.1,15.1,0,0,1,16.29-2.54,13.08,13.08,0,0,1,8.13,11.93L513.3,164c0,35-18.88,55.91-53.19,58.93a1.43,1.43,0,0,0-1.22.87,1.3,1.3,0,0,0,.15,1.34c8.11,10.63,13.55,28,13.55,43.16A30,30,0,0,1,442.58,298.34ZM345.48,56.8c-60.69,16.73-57.09,98.93-57.05,99.76a63.41,63.41,0,0,0,58,63.56,4.35,4.35,0,0,1,3.62,2.6,4.15,4.15,0,0,1-.53,4.27c-8.29,10.7-13.85,27.31-13.85,41.34A27.2,27.2,0,0,0,362.8,295.5h79.78a27.2,27.2,0,0,0,27.17-27.17c0-14.61-5.21-31.26-13-41.44a4.11,4.11,0,0,1-.5-4.21,4.32,4.32,0,0,1,3.57-2.55c32.64-2.87,50.61-22.77,50.61-56L503.4,37.82A10.17,10.17,0,0,0,497,28.41a12.27,12.27,0,0,0-13.09,1.91l-22,33.81-1.09-.44C424.32,48.88,384.46,46.5,345.48,56.8Z"></path> <path class="cls-5" d="M389.54,135.72h-7.48a2.68,2.68,0,0,0-2.33,4l3.75,6.48a2.68,2.68,0,0,0,4.65,0l3.74-6.48A2.68,2.68,0,0,0,389.54,135.72Z"></path> <path class="cls-5" d="M489.2,76.79c3.4,2.84,6.9,0,6.4-5.35l-1-19.39c-.78-8.37-8.14-11.73-11.85-5.41l-8.67,14.08c-2.35,4,0,9.64,3.6,10.63C481.82,72.52,485.05,73.32,489.2,76.79Z"></path> <rect class="cls-5" x="384.36" y="141.64" width="2.84" height="36.06"></rect> <ellipse class="cls-6" cx="329.89" cy="127.65" rx="12.91" ry="22.59"></ellipse> <path class="cls-5" d="M329.88,151.66c-8,0-14.32-10.54-14.32-24s6.29-24,14.32-24,14.33,10.55,14.33,24S337.92,151.66,329.88,151.66Zm0-45.18c-6.22,0-11.48,9.7-11.48,21.17s5.26,21.17,11.48,21.17,11.49-9.69,11.49-21.17S336.11,106.48,329.88,106.48Z"></path> <ellipse class="cls-6" cx="441.89" cy="127.65" rx="12.91" ry="22.59"></ellipse> <path class="cls-5" d="M441.89,151.66c-8,0-14.33-10.54-14.33-24s6.3-24,14.33-24,14.33,10.55,14.33,24S449.93,151.66,441.89,151.66Zm0-45.18c-6.22,0-11.48,9.7-11.48,21.17s5.26,21.17,11.48,21.17,11.49-9.69,11.49-21.17S448.12,106.48,441.89,106.48Z"></path> <path class="cls-5" d="M335,128.25a3.9,3.9,0,0,1-3,1.36,3.92,3.92,0,0,1-3.42-5.87c-2.8,1-4.91,5.37-4.91,10.58,0,6,2.76,10.81,6.18,10.81s6.17-4.84,6.17-10.81A17,17,0,0,0,335,128.25Z"></path> <path class="cls-5" d="M447,128.25a3.89,3.89,0,0,1-2.95,1.36,3.92,3.92,0,0,1-3.42-5.87c-2.81,1-4.92,5.37-4.92,10.58,0,6,2.77,10.81,6.18,10.81s6.18-4.84,6.18-10.81A16.77,16.77,0,0,0,447,128.25Z"></path> <path class="cls-5" d="M345.81,123.6H311.36a1.42,1.42,0,0,1,0-2.84h34.45a1.42,1.42,0,1,1,0,2.84Z"></path> <path class="cls-5" d="M459,123.6h-33.9a1.42,1.42,0,0,1,0-2.84H459a1.42,1.42,0,1,1,0,2.84Z"></path> <path class="cls-3" d="M346.27,221.53s25.53,2.28,50.67-1.33c3.19,1.94,1.87,5.81-.25,5.54s-31.66,6.69-51.2,3.62C345.49,229.36,341.06,223.73,346.27,221.53Z"></path> <path class="cls-5" d="M356.86,231.56a76.57,76.57,0,0,1-11.59-.79l-.55-.09-.35-.44c-.28-.35-2.69-3.54-1.9-6.58a5.14,5.14,0,0,1,3.24-3.44l.33-.13.35,0c.25,0,25.67,2.21,50.35-1.33l.5-.07.44.26a4.86,4.86,0,0,1,2.34,5.78,3.34,3.34,0,0,1-3.5,2.39c-.51,0-2.79.38-5.28.8C383.62,229.23,369.73,231.56,356.86,231.56Zm-10.57-3.51c14.62,2.12,34.74-1.27,44.48-2.9,4.09-.69,5.41-.9,6.1-.82.14,0,.38-.24.47-.51a2,2,0,0,0-.75-2.14c-23.18,3.25-46.81,1.56-50.07,1.3-1.08.54-1.25,1.17-1.3,1.39C344.91,225.56,345.73,227.18,346.29,228.05Z"></path> <path class="cls-3" d="M396.94,220.2s39.58,3.58,65.89,1.05,53.72-14.95,66.5-12.72,27.23,18.89,36.12,18.61a23.3,23.3,0,0,1-24.17.46c-13.06-7.4-62.7.11-81.32,1.35s-51.74-2.66-62.69-5.34"></path> <path class="cls-5" d="M553,232.23a24.75,24.75,0,0,1-12.37-3.39c-9.83-5.58-42.85-2.19-64.69,0-6.32.65-11.78,1.21-15.83,1.48-19,1.27-52.3-2.73-63.12-5.38a1.42,1.42,0,0,1,.67-2.76c10.68,2.61,43.52,6.57,62.26,5.31,4-.27,9.44-.83,15.72-1.47,23.54-2.42,55.77-5.73,66.39.3a21.56,21.56,0,0,0,19.18,1.4c-3.86-1.37-8.18-4.39-13-7.73-6.37-4.45-13-9-19.1-10.12-6.43-1.12-17.15,1.76-29.54,5.08-11.27,3-24,6.45-36.59,7.66-26.13,2.52-65.75-1-66.15-1a1.42,1.42,0,0,1,.26-2.83c.39,0,39.75,3.54,65.62,1.05,12.31-1.18,25-4.58,36.12-7.57,12.72-3.41,23.7-6.36,30.77-5.13,6.75,1.17,13.61,6,20.24,10.58,6,4.18,11.72,8.19,15.59,8a1.42,1.42,0,0,1,.86,2.58A24.62,24.62,0,0,1,553,232.23Z"></path> <path class="cls-3" d="M395.62,219.83s-2.05-5.19-12.73-1.38-7.42,13.73-5.79,18.21c.56,1.53,5.41-.29,7-2.68,3.77-5.45,8.2-7.86,11-7.14S395.62,219.83,395.62,219.83Z"></path> <path class="cls-5" d="M378.22,238.64a3.46,3.46,0,0,1-.46,0,2.31,2.31,0,0,1-2-1.47c-.95-2.62-3.18-8.76-.78-13.88,1.32-2.8,3.82-4.87,7.43-6.16,11.83-4.22,14.41,1.93,14.52,2.2l0,.1c.72,2.37,1.69,6.59.15,8.21a2.34,2.34,0,0,1-2.33.59c-2.07-.53-6,1.55-9.48,6.58A10.24,10.24,0,0,1,378.22,238.64Zm11.53-20.15a19.3,19.3,0,0,0-6.38,1.3c-2.87,1-4.82,2.6-5.81,4.69-1.81,3.85-.14,8.88.74,11.33a7.65,7.65,0,0,0,4.68-2.63c3.76-5.44,8.47-8.45,12.12-7.81a16.33,16.33,0,0,0-.81-5C393.87,219.49,392.49,218.49,389.75,218.49Z"></path> <path class="cls-3" d="M398.7,218.37s2.64-3.68,11.24-2.11,8.83,8.78,8.77,12.69-1.95,7.59-5.52,4.58c-4-3.4-7.58-2.79-9.9-5.52-3.09-3.65-6.6-2.27-6.6-2.27Z"></path> <path class="cls-5" d="M415.6,236.06a5.22,5.22,0,0,1-3.33-1.44,15.41,15.41,0,0,0-5.19-2.78,10.41,10.41,0,0,1-4.87-2.91c-2.42-2.84-5-1.88-5-1.87l-2.63,1,3-10.56c.13-.18,3.27-4.39,12.64-2.68,10.13,1.85,10,10.76,9.94,14.12s-1.21,5.91-3.09,6.77A3.41,3.41,0,0,1,415.6,236.06Zm-17-12a7.78,7.78,0,0,1,5.75,3,8,8,0,0,0,3.68,2.08,18.37,18.37,0,0,1,6.05,3.28c.36.29,1.22,1,1.76.71s1.39-1.88,1.43-4.23c.07-4.87-.77-10-7.61-11.27-6.44-1.18-9.08.83-9.69,1.41Z"></path> <path class="cls-5" d="M384.43,226.11a1.42,1.42,0,0,1-.85-2.56c3.51-2.63,9-2.58,11.95-2.32a1.42,1.42,0,1,1-.25,2.83c-2.06-.19-7.14-.38-10,1.76A1.41,1.41,0,0,1,384.43,226.11Z"></path> <path class="cls-5" d="M414.3,229a1.41,1.41,0,0,1-1.14-.57c-5-6.66-13.37-5-13.46-5a1.42,1.42,0,0,1-.57-2.78c.42-.1,10.28-2,16.31,6.1A1.42,1.42,0,0,1,414.3,229Z"></path> <path class="cls-3" d="M396.9,217.59c3.46-.7,6.19,1.47,5.24,6.37s-6.38,6.75-9.06,3S391,218.79,396.9,217.59Z"></path> <path class="cls-5" d="M396.74,230.38a5.87,5.87,0,0,1-4.81-2.57c-1.74-2.42-2.25-5.07-1.39-7.27.61-1.54,2.15-3.55,6.07-4.35h0a6,6,0,0,1,5.46,1.37c1.49,1.47,2,3.84,1.47,6.67a7.42,7.42,0,0,1-5.49,6A5.92,5.92,0,0,1,396.74,230.38Zm.44-11.4c-1.47.3-3.36,1-4,2.6-.51,1.28-.12,2.95,1.05,4.58a3,3,0,0,0,3.2,1.3,4.59,4.59,0,0,0,3.31-3.77c.36-1.86.12-3.33-.68-4.11a3.09,3.09,0,0,0-2.89-.6Z"></path> <path class="cls-6" d="M346.78,231.59S332.2,241.73,330,250.48s15,22.51,21.26,22.23.6-18.2.46-20.56,6.59-7.55,6.59-7.55"></path> <path class="cls-8" d="M347.82,231.23c-.05,0-11.58,6.82-16.16,14.42s-1.07,12.91,4.85,19.3c0,0,4.7-4.44,17.41-4.17-.6-3-1.48-9.62-1.48-9.62l7.8-7.46Z"></path> <path class="cls-5" d="M351.06,274.13c-4.54,0-12.95-5.49-18.19-11.93-2.55-3.13-5.37-7.77-4.27-12.07,2.32-9.16,16.76-19.28,17.37-19.71a1.43,1.43,0,0,1,2,.36,1.41,1.41,0,0,1-.36,2c-.14.1-14.17,9.95-16.24,18.08-.63,2.46.7,5.86,3.72,9.58,5.05,6.2,12.88,11,16.1,10.88a1,1,0,0,0,.85-.43c1.84-2.41-.22-11.49-1.1-15.36a25.4,25.4,0,0,1-.64-3.27c-.17-2.81,4.93-7.06,7.13-8.75a1.42,1.42,0,0,1,1.74,2.24c-3.12,2.41-6,5.44-6,6.36,0,.34.3,1.59.58,2.79,1.63,7.21,3,14.52.59,17.71a3.87,3.87,0,0,1-3,1.55Z"></path> <path class="cls-6" d="M439.16,232.65s9.26,8.43,11.49,17.18-9.68,24.22-15.93,23.94S430.82,256.32,431,254s-6.59-7.55-6.59-7.55"></path> <path class="cls-8" d="M440.32,230.28l15,22.93-7.49,11.62a21.5,21.5,0,0,0-18.53-1.9c0-4.3-10.89-20.44-10.89-20.44Z"></path> <path class="cls-5" d="M434.87,275.2h-.22a4.49,4.49,0,0,1-3.24-1.6c-3-3.43-2.62-11.73-2-18.58.05-.51.09-.9.1-1.14-.05-.91-2.92-3.94-6-6.34a1.42,1.42,0,0,1,1.74-2.25c2.2,1.7,7.3,5.95,7.13,8.76,0,.26-.05.68-.1,1.23-.85,9-.42,14.5,1.29,16.46a1.61,1.61,0,0,0,1.22.62c2,.07,5.46-2.37,8.51-6.13,3.82-4.68,7.14-11.46,6-16-2.09-8.24-11-16.4-11.07-16.48a1.42,1.42,0,0,1,1.92-2.1c.39.36,9.6,8.82,11.9,17.88,1.51,5.92-2.57,13.69-6.52,18.54C441.82,272.53,437.87,275.2,434.87,275.2Z"></path> <path class="cls-5" d="M366.75,176.55a46.74,46.74,0,0,0,9.69.8,81.67,81.67,0,0,0,9.76-.7,63.67,63.67,0,0,0,9.5-1.91,38,38,0,0,0,4.43-1.59,10.36,10.36,0,0,0,3.29-2.23l.05-.07a2.07,2.07,0,1,1,3.25,2.55l-.12.14a13.61,13.61,0,0,1-5,3.13,40.26,40.26,0,0,1-5,1.47,67.07,67.07,0,0,1-10.09,1.4,85.27,85.27,0,0,1-10.11.11,49,49,0,0,1-10-1.46.84.84,0,0,1,.38-1.64Z"></path> <path class="cls-5" d="M337.39,266.49a1.54,1.54,0,0,1-1.11-2.62c.26-.28,6.67-6.73,17.46-4.4a1.54,1.54,0,1,1-.65,3A16.19,16.19,0,0,0,338.5,266,1.53,1.53,0,0,1,337.39,266.49Z"></path> <path class="cls-5" d="M446.12,266.37a1.52,1.52,0,0,1-1.26-.65h0s-1.48-1.76-6.32-2.61-7.15,1.12-7.24,1.21a1.55,1.55,0,0,1-2.08-2.3c.14-.12,3.46-3.08,9.86-2,6.15,1.09,8.09,3.58,8.29,3.87a1.53,1.53,0,0,1-.36,2.15A1.48,1.48,0,0,1,446.12,266.37Z"></path> <polygon class="cls-3" points="413.57 243.69 396.69 243.8 379.81 243.69 370.53 251.2 396.69 272.35 422.86 251.2 413.57 243.69"></polygon> <polygon class="cls-5" points="417 254.92 394.02 251.51 412.99 258.02 417 254.92"></polygon> <polygon class="cls-5" points="379.75 257.52 397.37 260.24 383.6 261.09 379.75 257.52"></polygon> <path class="cls-5" d="M396.69,273.78a1.43,1.43,0,0,1-.89-.32l-26.17-21.15a1.43,1.43,0,0,1,0-2.22l9.29-7.51a1.3,1.3,0,0,1,.9-.31l16.88.1,16.87-.1a1.33,1.33,0,0,1,.9.31l9.28,7.51a1.43,1.43,0,0,1,0,2.22l-26.16,21.15A1.44,1.44,0,0,1,396.69,273.78ZM372.8,251.2l23.89,19.32,23.9-19.32-7.52-6.08-16.37.1-16.39-.1Z"></path> <path class="cls-5" d="M461.28,62.38c2.82.92-4.32-42.92-65.76-37.89-34.67,2.84-52.73,15.06-56,10.33-8.09-11.79-31.78-21.24-31.7,4.84,0,10.53,7.7,32.43,7.7,32.43s28-18.33,48.43-18.87,21,10,28.24,11S429.12,51.83,461.28,62.38Z"></path> <path class="cls-5" d="M374.24,44.69C379.09,45.75,380,46,379.82,46l0,.24-.07.47c-.05.32,0,.64-.07,1a12.81,12.81,0,0,0,.07,2,20,20,0,0,0,.81,4.22c.4,1.5,1,3,1.67,4.76l1.07,2.68.56,1.51.29.8a14.5,14.5,0,0,1,.45,1.54,14.06,14.06,0,0,1,.12,4.57,23.38,23.38,0,0,1-.67,3.5,41.56,41.56,0,0,1-2.19,6.08,42.46,42.46,0,0,1-3,5.55c-.58.89-1.19,1.77-1.87,2.64-.36.44-.73.86-1.17,1.32-.21.22-.46.47-.76.73s-.3.24-.63.45a3.36,3.36,0,0,1-.5.26,2.5,2.5,0,0,1-1,.2,1.86,1.86,0,0,1,0-3.71,1.14,1.14,0,0,0-.68.1.83.83,0,0,0-.2,0c-.14.08-.08,0-.12,0a4.08,4.08,0,0,1,.08-.46c.08-.36.16-.8.23-1.24.16-.86.31-1.78.43-2.7.23-1.84.47-3.69.63-5.51s.28-3.62.29-5.29a22.53,22.53,0,0,0-.11-2.29,2.44,2.44,0,0,0-.34-1.22s0,.22,0,.16l-.3-.53-.67-1.13-1.44-2.57a43.89,43.89,0,0,1-2.76-6,31.35,31.35,0,0,1-1.66-7.13,26.11,26.11,0,0,1-.08-3.86c.05-.65.07-1.3.16-1.94l.15-1,.08-.48c-.12-.19.8-.21,5.68.61.58.1,1.15.21,1.72.33Z"></path> </g> </g> </svg> 