<?xml version="1.0" encoding="UTF-8"?> <svg xmlns="http://www.w3.org/2000/svg" viewBox="0 0 189.39 29.93"> <defs> <style>.cls-1{fill:#ffffff;}.cls-2{fill:#ffb71b;}</style> </defs> <title>besocial_logotype_white</title> <g id="Шар_2" data-name="Шар 2"> <g id="Block_7" data-name="Block 7"> <path class="cls-1" d="M49,.15V9.9c1-1.82,3.93-2.82,5.79-2.82,5.14,0,9,3.14,9,9.21,0,5.79-3.89,9.21-9.07,9.21A6.41,6.41,0,0,1,49,22.68h0a2.75,2.75,0,0,1-2.73,2.43H44.67V4.51A4.36,4.36,0,0,1,49,.15Zm.29,16.14a5.05,5.05,0,1,0,10.1,0,4.85,4.85,0,0,0-5-5.14A5,5,0,0,0,49.32,16.29Z"></path> <path class="cls-1" d="M76.26,21.61a8.54,8.54,0,0,0,3.56-.83,2.07,2.07,0,0,1,2.38.4l1.56,1.54a10.81,10.81,0,0,1-7.57,2.86c-6.07,0-9.68-3.75-9.68-9.39,0-5.36,3.64-9.22,9.36-9.22,5.89,0,9.57,3.64,8.89,10.89H71C71.3,20,73.19,21.61,76.26,21.61Zm4.32-7.35C80.29,12,78.51,10.83,76,10.83a4.74,4.74,0,0,0-4.93,3.43Z"></path> <path class="cls-1" d="M112.19,12.4a5.94,5.94,0,0,0-4.36-1.57c-2.07,0-3.21.64-3.21,1.74s1,1.79,3.29,1.93c3.32.22,7.53,1,7.53,5.65,0,3.1-2.53,5.78-7.57,5.78a10.32,10.32,0,0,1-8.14-3.14l.9-1.31a2.1,2.1,0,0,1,2.75-.65,10.47,10.47,0,0,0,4.56,1.31c1.64,0,3.18-.82,3.18-2.1s-1-1.72-3.5-1.86c-3.32-.25-7.29-1.46-7.29-5.46s4.22-5.5,7.43-5.5a9.45,9.45,0,0,1,6.86,2.32Z"></path> <path class="cls-1" d="M135.13,16.71A8.8,8.8,0,0,1,126,25.89c-5.72,0-9.14-4.11-9.14-9.18a8.81,8.81,0,0,1,9.1-9.17A8.9,8.9,0,0,1,135.13,16.71Zm-14,0c0,2.68,1.61,5.18,4.79,5.18s4.78-2.5,4.78-5.18A5,5,0,0,0,126,11.5C122.81,11.5,121.16,14.07,121.16,16.71Z"></path> <path class="cls-1" d="M152.63,22.86a9,9,0,0,1-6.78,2.79c-5.11,0-9.36-3.07-9.36-9.32S140.74,7,145.85,7a8.34,8.34,0,0,1,6.35,2.6l-2.75,2.9a5.31,5.31,0,0,0-3.53-1.4,5,5,0,0,0-5.07,5.22,4.8,4.8,0,0,0,5,5.14,5.83,5.83,0,0,0,2.69-.61,2.12,2.12,0,0,1,2.44.39Z"></path> <path class="cls-1" d="M160.51,2.54c0,3.4-5.15,3.4-5.15,0S160.51-.85,160.51,2.54Zm-.4,4.9V22.36a2.75,2.75,0,0,1-2.74,2.75h-1.61V11.79a4.35,4.35,0,0,1,4.35-4.35Z"></path> <path class="cls-1" d="M180.59,7.51h1.75V22.36a2.75,2.75,0,0,1-2.75,2.75h-1.36L178,22.54c-1,2.07-3.74,3.07-5.71,3.11-5.21,0-9.07-3.18-9.07-9.36s4-9.25,9.18-9.21A6.48,6.48,0,0,1,178,9.93h0A2.57,2.57,0,0,1,180.59,7.51Zm-13,8.78a5.08,5.08,0,0,0,5.74,5.34c6.34-.53,6.33-10.14,0-10.64A5.05,5.05,0,0,0,167.59,16.29Z"></path> <path class="cls-1" d="M189.39.54V22.75a2.75,2.75,0,0,1-2.75,2.75h-1.57V4.86A4.31,4.31,0,0,1,189.39.54Z"></path> <path class="cls-2" d="M27,.59,22.34,4.82a19.87,19.87,0,0,0-14.89,0L2.82.59A1.68,1.68,0,0,0,0,1.66V18.44c0,3.76,3.33,6.81,7.45,6.81v3.16a1.68,1.68,0,0,0,2.82,1.07l2.44-2.23a7.81,7.81,0,0,1,5.27-2h4.36c4.11,0,7.44-3.05,7.44-6.81V1.66A1.68,1.68,0,0,0,27,.59ZM7.45,14.21c-.92,0-1.66-1.3-1.66-2.9s.74-2.89,1.66-2.89S9.1,9.71,9.1,11.31,8.36,14.21,7.45,14.21Zm11,5.2a3.73,3.73,0,0,1-7.14,0,.83.83,0,0,1,.8-1.06h5.54A.83.83,0,0,1,18.46,19.41Zm3.88-5.2c-.92,0-1.66-1.3-1.66-2.9s.74-2.89,1.66-2.89S24,9.71,24,11.31,23.25,14.21,22.34,14.21Z"></path> </g> </g> </svg> 