<?xml version="1.0" encoding="UTF-8"?> <!-- Generator: Adobe Illustrator 24.0.1, SVG Export Plug-In . SVG Version: 6.00 Build 0) --> <svg xmlns="http://www.w3.org/2000/svg" xmlns:xlink="http://www.w3.org/1999/xlink" id="Шар_1" x="0px" y="0px" viewBox="0 0 762 364.4" style="enable-background:new 0 0 762 364.4;" xml:space="preserve"> <style type="text/css"> .st0{fill:#101820;} .st1{fill:#FFB71B;} .st2{fill:#FFFFFF;} </style> <g> <title>besocial_logo_full</title> <g id="Шар_2_1_"> <g id="Block_3"> <path class="st0" d="M483.6,94.9h4.7l11.8,20.1l11.8-20.1h4.7v35.2h-4.4v-28.4l-10.6,18.5h-3.1L488,102.1v28h-4.4L483.6,94.9z"></path> <path class="st0" d="M533.8,103.6c3.3,0,6.4,1.9,8,4.8l0.4-4.3h3.6v26h-3.6l-0.5-4.4c-1.8,2.9-4.5,4.9-8,4.9 c-6.7,0-11.4-5.7-11.4-13.7S527.1,103.6,533.8,103.6z M534.3,126.9c4.5,0,7.2-4,7.3-9.6v-0.5c0-5.8-2.7-9.7-7.3-9.7 s-7.5,3.9-7.5,9.7S529.7,127,534.3,126.9L534.3,126.9z"></path> <path class="st0" d="M563.7,103.6c3.2-0.1,6.2,1.2,8.2,3.7c1.2,1.6,1.8,3.6,1.8,5.6h-4.4c0-1.3-0.4-2.6-1.2-3.7 c-1.2-1.3-2.9-2-4.7-1.9c-4.1,0-7.5,3.4-7.5,9.7s3.4,10,7.5,10c1.8,0.1,3.6-0.6,4.7-2c0.8-1.1,1.3-2.4,1.2-3.7h4.4 c0.1,2-0.6,4.1-1.8,5.7c-1.7,2.2-4.6,3.6-8.4,3.6c-7.1,0-12.2-5.1-12.2-13.7S556.7,103.6,563.7,103.6z"></path> <path class="st0" d="M576,104.1h22.9v3.9h-9.3v22.1h-4.2V108H576V104.1z"></path> <path class="st0" d="M613.2,103.6c7.7,0,11.6,5.2,11.6,12.2v1.6h-19.4c0.2,6.1,3.1,9.6,8,9.6c3.2,0,4.6-0.9,5.5-2.2 c0.6-0.8,0.9-1.8,1-2.8h4.4c-0.1,1.6-0.6,3.2-1.6,4.6c-1.6,2.3-4.3,4-9.3,4c-7.7,0-12.5-5.7-12.5-13.7S605.5,103.6,613.2,103.6z M620.2,114c-0.1-3.5-2-6.8-7.1-6.8c-4.8,0-7.5,3.3-7.6,6.8H620.2z"></path> <path class="st0" d="M630.5,104.1h3.6l0.4,4.2c1.6-2.9,4.7-4.7,8-4.7c6.7,0,11.4,5.4,11.4,13.4s-5,13.7-11.4,13.7 c-3.2,0.1-6.3-1.6-7.9-4.4v13.1h-4.2L630.5,104.1z M642,127c4.4,0,7.5-4.2,7.5-10s-2.9-9.7-7.5-9.7c-5.1,0-7.3,5-7.3,9.7 C634.6,122.3,636.9,127,642,127z"></path> <path class="st0" d="M670.3,103.6c3.2-0.1,6.2,1.2,8.2,3.7c1.2,1.6,1.8,3.6,1.8,5.6h-4.4c0-1.3-0.4-2.6-1.2-3.7 c-1.2-1.3-2.9-2-4.7-1.9c-4.1,0-7.5,3.4-7.5,9.7s3.4,10,7.5,10c1.8,0.1,3.6-0.6,4.7-2c0.8-1.1,1.3-2.4,1.2-3.7h4.4 c0.1,2-0.6,4.1-1.8,5.7c-1.7,2.2-4.6,3.6-8.4,3.6c-7.1,0-12.2-5.1-12.2-13.7S663.3,103.6,670.3,103.6z"></path> <path class="st0" d="M686.2,104.1h4.2v10.4h2.8l9-10.4h4.9l-10.9,12.5l11.3,13.5H702l-9.8-11.7h-1.9v11.7h-4.2L686.2,104.1z"></path> <path class="st0" d="M719.9,103.6c3.3,0,6.4,1.9,8,4.8l0.4-4.3h3.7v26h-3.6l-0.5-4.4c-1.8,2.9-4.5,4.9-8,4.9 c-6.7,0-11.4-5.7-11.4-13.7S713.2,103.6,719.9,103.6z M720.5,126.9c4.5,0,7.2-4,7.3-9.6v-0.5c0-5.8-2.7-9.7-7.3-9.7 s-7.5,3.9-7.5,9.7S715.8,127,720.5,126.9L720.5,126.9z"></path> <path class="st0" d="M744.3,119.8c-4-1-6.7-3.9-6.7-8c0-4.8,3.7-7.8,9.3-7.8h11.4v26h-4.2v-9.9H749l-6.4,9.9h-4.9L744.3,119.8z M747.7,116.3h6.6V108h-6.8c-3.6,0-5.4,1.5-5.4,3.9C742.1,114,743.5,116.3,747.7,116.3z"></path> <path class="st0" d="M494.5,159c7.5,0,12.5,5.4,12.5,13.4s-4.9,13.6-12.5,13.6s-12.5-5.7-12.5-13.7S487,159,494.5,159z M494.5,182.4c4.9,0,8-4.2,8-10s-3.1-9.7-8-9.7s-8.1,3.9-8.1,9.7S489.6,182.4,494.5,182.4L494.5,182.4z"></path> <path class="st0" d="M512.2,167.7c0-11.6,6.3-15.2,15.3-16.8l6.1-1.1l0.5,4.1l-5.7,1.1c-8,1.6-11.6,3.7-12.1,10.9 c1.8-3.1,5.1-4.9,8.7-4.7c6.4,0,11.2,5.1,11.2,12.2c0,6.9-4.5,12.7-12.3,12.7c-7.5,0-11.8-5.9-11.8-12.7V167.7z M523.9,182.4 c4.7,0,7.8-3.9,7.8-9.1c0-4.9-2.9-8.6-7.8-8.6s-7.6,3.7-7.6,8.6C516.3,178.5,519.3,182.4,523.9,182.4z"></path> <path class="st0" d="M541.9,159.5h4.2v22.1h10.4v-22.1h4.2v22.1H571v-22.1h4.2v22.1h4.2v13.1h-4.2v-9.2h-33.2V159.5z"></path> <path class="st0" d="M594.7,159c7.7,0,11.6,5.2,11.6,12.2v1.6h-19.4c0.2,6.1,3.1,9.6,8,9.6c3.2,0,4.6-0.9,5.5-2.2 c0.6-0.8,0.9-1.8,1-2.8h4.4c-0.1,1.6-0.6,3.2-1.6,4.6c-1.6,2.3-4.3,4-9.3,4c-7.7,0-12.5-5.7-12.5-13.7S587,159,594.7,159z M601.8,169.4c-0.1-3.5-2-6.8-7.1-6.8c-4.8,0-7.5,3.3-7.6,6.8H601.8z"></path> <path class="st0" d="M612,159.5h4.2v10.4h14v-10.4h4.2v26h-4.2v-11.7h-14v11.7H612V159.5z"></path> <path class="st0" d="M641.6,159.5h4.2v20.3l13.8-20.3h4.4v26h-4.2v-20.1l-13.7,20.1h-4.5L641.6,159.5z"></path> <path class="st0" d="M676.3,175.3c-4-1-6.7-3.9-6.7-7.9c0-4.8,3.7-7.8,9.3-7.8h11.4v26h-4.2v-9.9H681l-6.4,9.9h-4.9L676.3,175.3z M679.7,171.7h6.6v-8.3h-6.8c-3.6,0-5.4,1.5-5.4,3.9C674.2,169.4,675.6,171.7,679.7,171.7z"></path> <path class="st0" d="M22.9,228.7V280c5.4-9.6,20.7-14.9,30.5-14.9c27.1,0,47.2,16.5,47.2,48.5c0,30.5-20.5,48.5-47.8,48.5 c-11.3,0-22.8-3.8-29.9-14.9l0,0c-0.9,7.3-7,12.8-14.4,12.8H0V251.6C0,239,10.3,228.7,22.9,228.7L22.9,228.7z M24.4,313.7 c0,16.7,12.4,27.3,26.9,27.3c14.7,0,26.3-11.1,26.3-27.3c0-16.7-11.7-27.1-26.3-27.1C36.8,286.6,24.4,297.5,24.4,313.7 L24.4,313.7z"></path> <path class="st0" d="M166.3,341.7c6.5-0.1,12.9-1.6,18.7-4.4c4.2-2,9.2-1.2,12.6,2.1l8.2,8.1c-9.8,10.1-25.8,15-39.9,15 c-32,0-50.9-19.7-50.9-49.4c0-28.2,19.2-48.5,49.3-48.5c31,0,50.4,19.2,46.8,57.4h-72.3C140.2,333.4,150.1,341.7,166.3,341.7z M189.1,303c-1.5-12-10.9-18-24.1-18c-12.4,0-22.6,6-25.9,18H189.1z"></path> <path class="st0" d="M355.5,293.2c-6.6-6.2-14.1-8.3-22.9-8.3c-10.9,0-16.9,3.4-16.9,9.2c0,6,5.5,9.4,17.3,10.2 c17.5,1.1,39.7,5.1,39.7,29.7c0,16.4-13.3,30.5-39.9,30.5c-14.7,0-29.3-2.4-42.9-16.5l4.8-6.9c3.2-4.7,9.5-6.2,14.5-3.4 c7.3,4.1,16.8,6.8,24,6.9c8.6,0.2,16.7-4.3,16.7-11.1c0-6.4-5.2-9-18.4-9.8c-17.5-1.3-38.4-7.7-38.4-28.8c0-21.4,22.2-29,39.1-29 c14.5,0,25.4,2.8,36.1,12.2L355.5,293.2z"></path> <path class="st0" d="M476.3,315.9c0,26.7-18.2,48.3-48.3,48.3s-48.1-21.6-48.1-48.3c0-26.5,18.4-48.3,48-48.3 S476.3,289.4,476.3,315.9z M402.8,315.9c0,14.1,8.5,27.3,25.2,27.3s25.2-13.2,25.2-27.3c0-13.9-9.8-27.5-25.2-27.5 C411.4,288.4,402.8,302,402.8,315.9L402.8,315.9z"></path> <path class="st0" d="M568.5,348.3c-10.7,10.5-22,14.7-35.7,14.7c-26.9,0-49.2-16.2-49.2-49.1s22.4-49.1,49.2-49.1 c13.2,0,23.3,3.8,33.5,13.7l-14.5,15.2c-5.1-4.6-11.7-7.3-18.6-7.3c-15.4,0-26.7,11.3-26.7,27.5c0,17.7,12,27.1,26.3,27.1 c4.9,0.1,9.8-1,14.2-3.2c4.3-2.2,9.5-1.3,12.9,2.1L568.5,348.3z"></path> <path class="st0" d="M609.9,241.3c0,17.9-27.1,17.9-27.1,0S609.9,223.4,609.9,241.3z M607.8,267v78.6c0,8-6.5,14.5-14.5,14.5 h-8.5V290C584.9,277.3,595.2,267.1,607.8,267L607.8,267L607.8,267z"></path> <path class="st0" d="M715.7,267.4h9.2v78.2c0,8-6.5,14.5-14.5,14.5h-7.2l-1.1-13.5c-5.2,10.9-19.7,16.2-30.1,16.4 c-27.5,0.2-47.8-16.7-47.8-49.3c0-32,21.2-48.7,48.3-48.5c12.4,0,24.3,5.8,29.5,15l0,0C702.6,273,708.5,267.4,715.7,267.4z M647.2,313.7c0,18.8,13.8,29.5,30.2,28.1c33.4-2.8,33.3-53.3-0.1-56C660.9,284.5,647.2,295,647.2,313.7L647.2,313.7z"></path> <path class="st0" d="M762,230.7v117c0,8-6.5,14.5-14.5,14.5h-8.3V253.5C739.2,240.9,749.4,230.7,762,230.7L762,230.7z"></path> <path class="st1" d="M413.4,4.1l-42.7,39.1c-44.2-17.8-93.5-17.8-137.7,0L190.2,4.1C180.5-4.7,164,1.6,164,14v155.2 c0,34.8,30.8,63,68.9,63v29.2c0,12.5,16.5,18.7,26.1,9.9l22.6-20.6c13.4-12,30.7-18.6,48.7-18.4h40.3c38,0,68.9-28.2,68.9-63V14 C439.5,1.6,423-4.7,413.4,4.1z M232.9,130.1c-8.4,0-15.3-12-15.3-26.8s6.9-26.8,15.3-26.8s15.3,12,15.3,26.8 S241.4,130.1,232.9,130.1z M334.8,178.2c-5.4,18.2-24.6,28.6-42.9,23.1c-11.1-3.3-19.8-12-23.1-23.1c-1.2-4.1,1.2-8.4,5.3-9.5 c0.7-0.2,1.4-0.3,2.1-0.3h51.2c4.2,0,7.7,3.4,7.7,7.7C335.1,176.7,335,177.5,334.8,178.2L334.8,178.2z M370.6,130.1 c-8.5,0-15.3-12-15.3-26.8s6.9-26.8,15.3-26.8s15.3,12,15.3,26.8S379.1,130.1,370.6,130.1z"></path> </g> </g> <path class="st2" d="M334.8,178.2c-5.4,18.2-24.6,28.6-42.9,23.1c-11.1-3.3-19.8-12-23.1-23.1c-1.2-4.1,1.2-8.4,5.3-9.5 c0.7-0.2,1.4-0.3,2.1-0.3h51.2c4.2,0,7.7,3.4,7.7,7.7C335.1,176.7,335,177.5,334.8,178.2L334.8,178.2z"></path> <path class="st2" d="M232.9,130.1c-8.4,0-15.3-12-15.3-26.8s6.9-26.8,15.3-26.8s15.3,12,15.3,26.8S241.4,130.1,232.9,130.1z"></path> <path class="st2" d="M370.6,130.1c-8.5,0-15.3-12-15.3-26.8s6.9-26.8,15.3-26.8s15.3,12,15.3,26.8S379.1,130.1,370.6,130.1z"></path> </g> </svg> 