<?xml version="1.0" encoding="UTF-8"?> <!-- Generator: Adobe Illustrator 27.0.0, SVG Export Plug-In . SVG Version: 6.00 Build 0) --> <svg xmlns="http://www.w3.org/2000/svg" xmlns:xlink="http://www.w3.org/1999/xlink" id="Шар_1" x="0px" y="0px" viewBox="0 0 762 364.4" style="enable-background:new 0 0 762 364.4;" xml:space="preserve"> <style type="text/css"> .st0{fill:#101820;} .st1{fill:#FFB71B;} .st2{fill:#FFFFFF;} </style> <g> <g id="Шар_2_1_"> <g id="Block_3"> <path class="st0" d="M22.9,228.7V280c5.4-9.6,20.7-14.9,30.5-14.9c27.1,0,47.2,16.5,47.2,48.5c0,30.5-20.5,48.5-47.8,48.5 c-11.3,0-22.8-3.8-29.9-14.9l0,0c-0.9,7.3-7,12.8-14.4,12.8H0V251.6C0,239,10.3,228.7,22.9,228.7L22.9,228.7z M24.4,313.7 c0,16.7,12.4,27.3,26.9,27.3c14.7,0,26.3-11.1,26.3-27.3c0-16.7-11.7-27.1-26.3-27.1C36.8,286.6,24.4,297.5,24.4,313.7 L24.4,313.7z"></path> <path class="st0" d="M166.3,341.7c6.5-0.1,12.9-1.6,18.7-4.4c4.2-2,9.2-1.2,12.6,2.1l8.2,8.1c-9.8,10.1-25.8,15-39.9,15 c-32,0-50.9-19.7-50.9-49.4c0-28.2,19.2-48.5,49.3-48.5c31,0,50.4,19.2,46.8,57.4h-72.3C140.2,333.4,150.1,341.7,166.3,341.7z M189.1,303c-1.5-12-10.9-18-24.1-18c-12.4,0-22.6,6-25.9,18H189.1z"></path> <path class="st0" d="M355.5,293.2c-6.6-6.2-14.1-8.3-22.9-8.3c-10.9,0-16.9,3.4-16.9,9.2c0,6,5.5,9.4,17.3,10.2 c17.5,1.1,39.7,5.1,39.7,29.7c0,16.4-13.3,30.5-39.9,30.5c-14.7,0-29.3-2.4-42.9-16.5l4.8-6.9c3.2-4.7,9.5-6.2,14.5-3.4 c7.3,4.1,16.8,6.8,24,6.9c8.6,0.2,16.7-4.3,16.7-11.1c0-6.4-5.2-9-18.4-9.8c-17.5-1.3-38.4-7.7-38.4-28.8c0-21.4,22.2-29,39.1-29 c14.5,0,25.4,2.8,36.1,12.2L355.5,293.2z"></path> <path class="st0" d="M476.3,315.9c0,26.7-18.2,48.3-48.3,48.3s-48.1-21.6-48.1-48.3c0-26.5,18.4-48.3,48-48.3 S476.3,289.4,476.3,315.9z M402.8,315.9c0,14.1,8.5,27.3,25.2,27.3s25.2-13.2,25.2-27.3c0-13.9-9.8-27.5-25.2-27.5 C411.4,288.4,402.8,302,402.8,315.9L402.8,315.9z"></path> <path class="st0" d="M568.5,348.3c-10.7,10.5-22,14.7-35.7,14.7c-26.9,0-49.2-16.2-49.2-49.1s22.4-49.1,49.2-49.1 c13.2,0,23.3,3.8,33.5,13.7l-14.5,15.2c-5.1-4.6-11.7-7.3-18.6-7.3c-15.4,0-26.7,11.3-26.7,27.5c0,17.7,12,27.1,26.3,27.1 c4.9,0.1,9.8-1,14.2-3.2c4.3-2.2,9.5-1.3,12.9,2.1L568.5,348.3z"></path> <path class="st0" d="M609.9,241.3c0,17.9-27.1,17.9-27.1,0S609.9,223.4,609.9,241.3z M607.8,267v78.6c0,8-6.5,14.5-14.5,14.5 h-8.5V290C584.9,277.3,595.2,267.1,607.8,267L607.8,267L607.8,267z"></path> <path class="st0" d="M715.7,267.4h9.2v78.2c0,8-6.5,14.5-14.5,14.5h-7.2l-1.1-13.5c-5.2,10.9-19.7,16.2-30.1,16.4 c-27.5,0.2-47.8-16.7-47.8-49.3c0-32,21.2-48.7,48.3-48.5c12.4,0,24.3,5.8,29.5,15l0,0C702.6,273,708.5,267.4,715.7,267.4z M647.2,313.7c0,18.8,13.8,29.5,30.2,28.1c33.4-2.8,33.3-53.3-0.1-56C660.9,284.5,647.2,295,647.2,313.7L647.2,313.7z"></path> <path class="st0" d="M762,230.7v117c0,8-6.5,14.5-14.5,14.5h-8.3V253.5C739.2,240.9,749.4,230.7,762,230.7L762,230.7z"></path> <path class="st1" d="M413.4,4.1l-42.7,39.1c-44.2-17.8-93.5-17.8-137.7,0L190.2,4.1C180.5-4.7,164,1.6,164,14v155.2 c0,34.8,30.8,63,68.9,63v29.2c0,12.5,16.5,18.7,26.1,9.9l22.6-20.6c13.4-12,30.7-18.6,48.7-18.4h40.3c38,0,68.9-28.2,68.9-63V14 C439.5,1.6,423-4.7,413.4,4.1z M232.9,130.1c-8.4,0-15.3-12-15.3-26.8s6.9-26.8,15.3-26.8s15.3,12,15.3,26.8 S241.4,130.1,232.9,130.1z M334.8,178.2c-5.4,18.2-24.6,28.6-42.9,23.1c-11.1-3.3-19.8-12-23.1-23.1c-1.2-4.1,1.2-8.4,5.3-9.5 c0.7-0.2,1.4-0.3,2.1-0.3h51.2c4.2,0,7.7,3.4,7.7,7.7C335.1,176.7,335,177.5,334.8,178.2L334.8,178.2z M370.6,130.1 c-8.5,0-15.3-12-15.3-26.8s6.9-26.8,15.3-26.8s15.3,12,15.3,26.8S379.1,130.1,370.6,130.1z"></path> </g> </g> <path class="st2" d="M334.8,178.2c-5.4,18.2-24.6,28.6-42.9,23.1c-11.1-3.3-19.8-12-23.1-23.1c-1.2-4.1,1.2-8.4,5.3-9.5 c0.7-0.2,1.4-0.3,2.1-0.3h51.2c4.2,0,7.7,3.4,7.7,7.7C335.1,176.7,335,177.5,334.8,178.2L334.8,178.2z"></path> <path class="st2" d="M232.9,130.1c-8.4,0-15.3-12-15.3-26.8s6.9-26.8,15.3-26.8s15.3,12,15.3,26.8S241.4,130.1,232.9,130.1z"></path> <path class="st2" d="M370.6,130.1c-8.5,0-15.3-12-15.3-26.8s6.9-26.8,15.3-26.8s15.3,12,15.3,26.8S379.1,130.1,370.6,130.1z"></path> </g> </svg> 