<?xml version="1.0" encoding="UTF-8"?> <svg xmlns="http://www.w3.org/2000/svg" xmlns:xlink="http://www.w3.org/1999/xlink" viewBox="0 0 557.13 287.07"> <defs> <style>.cls-1{fill:none;}.cls-2{clip-path:url(#clip-path);}.cls-3{fill:#009845;}.cls-4{fill:#007234;}.cls-5{fill:#fff;}.cls-6{fill:#101820;}.cls-7{fill:#efefef;}.cls-8{fill:#ea0029;}.cls-9{fill:#ffb71b;}.cls-10{fill:#ffc556;}</style> <clipPath id="clip-path"> <rect class="cls-1" width="557.13" height="287.07"></rect> </clipPath> </defs> <title>Монтажная область 10</title> <g id="Слой_10" data-name="Слой 10"> <g class="cls-2"> <rect class="cls-3" width="557.13" height="287.07"></rect> <path class="cls-4" d="M240.53,130.38l-16.45,13.91a9.78,9.78,0,0,0-1.15,13.77l6.91,8.17a9.77,9.77,0,0,0,13.77,1.15L244,167l2.81,3.32c1.2,1.42,3.68.54,3.93-1.39l.58-4.52a10.71,10.71,0,0,1,3.39-6.46l5.32-4.5a9.78,9.78,0,0,0,1.15-13.78l-6.91-8.16A9.77,9.77,0,0,0,240.53,130.38Z"></path> <path class="cls-4" d="M78.05,236.59c-1.35,2.7-5.09,3.56-8.38,1.93s-4.85-5.14-3.51-7.84,5.09-3.56,8.38-1.93S79.39,233.89,78.05,236.59Zm-7.16-22c-3-2.09-6.85-1.77-8.57.7s-.67,6.18,2.34,8.27,6.85,1.78,8.57-.7S73.9,216.73,70.89,214.64Zm24.62-3.22c2.06-2.21,1.56-6-1.12-8.52s-6.52-2.75-8.58-.54-1.55,6,1.13,8.51S93.45,213.62,95.51,211.42Zm-14.5.27c1.72-2.48.67-6.18-2.34-8.27s-6.85-1.77-8.56.71-.67,6.17,2.34,8.26S79.29,214.17,81,211.69Zm7,3.84a9,9,0,0,0-8.26,12.7L82.83,235a5.69,5.69,0,0,0,10.81-1.43v-.08A11.23,11.23,0,0,1,98.54,226a5.76,5.76,0,0,0,1.65-1.65,5.87,5.87,0,0,0,.57-1.15,5.6,5.6,0,0,0,.12-3.57,5.71,5.71,0,0,0-5.43-4.09Z"></path> <path class="cls-4" d="M194.88,271.7l-2.06,3-3.13,4.54a29.07,29.07,0,0,0-21.2,4.89l-4.8-2.72-3.16-1.79c-1.8-1-4.11.53-3.67,2.45l2.36,10.28,3.07,13.32.07.29a9.08,9.08,0,0,0,1.08,2.67h0a10.18,10.18,0,0,0,1,1.35h0c.18.2.36.39.55.57a10.25,10.25,0,0,0,9.6,2.8l.61-.15,15-3.45,6.21-1.43.61-.14a10.27,10.27,0,0,0,7.42-6.71,9.4,9.4,0,0,0,.34-5.29l-.07-.29-3.07-13.32-2.37-10.27C198.81,270.38,196.05,270,194.88,271.7Zm-26.16,18.21,0,0a.18.18,0,0,1,.05-.07l0,0,.06-.07,0,0,.06,0,0,0,.06-.05,0,0,.09-.06h0l.09-.06h0l.07,0h0l.07,0h0l.11,0h0a1.94,1.94,0,0,1,1.75.63l.17.17.14.15a6.26,6.26,0,0,1,1.25,2.63c.52,2.27-.11,4.36-1.41,4.66h0l-.14,0h-.33l-.14,0h0l-.14,0h0l-.1,0h0l-.1-.05,0,0-.14-.07h0a.42.42,0,0,1-.14-.09l0,0-.1-.08-.05,0-.1-.08,0,0-.14-.12h0l-.13-.14,0,0-.1-.12,0,0-.1-.12,0,0a1.63,1.63,0,0,1-.11-.17,6.42,6.42,0,0,1-.94-2.22,6.33,6.33,0,0,1-.18-1.33,5,5,0,0,1,0-.78h0a3.43,3.43,0,0,1,.08-.56h0a.5.5,0,0,0,0-.12v0c0-.16.09-.32.14-.46v0a.36.36,0,0,0,0-.09l0,0,0-.08,0,0,.07-.14,0,0,0-.06,0-.06,0,0ZM189,301.27a5.44,5.44,0,0,1-10.16,2.34,1.21,1.21,0,0,1,.78-1.77l7.89-1.82A1.22,1.22,0,0,1,189,301.27Zm3.81-8.67c-1.3.3-2.78-1.3-3.31-3.58s.11-4.37,1.41-4.66,2.78,1.3,3.3,3.57S194.07,292.3,192.77,292.6Zm-34.23,12.72a.84.84,0,0,1,.54-1.22l.68-.16-2.57-11.13-.78-3.4a19.89,19.89,0,0,0-4.95,2.51l-3.3-1.86L146,288.83a1.68,1.68,0,0,0-2.52,1.68l1.62,7.06,2.11,9.15.05.2a6.26,6.26,0,0,0,1.8,3.16,7,7,0,0,0,6.59,1.92l.42-.09,6.12-1.41a11.33,11.33,0,0,1-1.71-3.53A3.79,3.79,0,0,1,158.54,305.32Zm-5-4.21c-.9.2-1.91-.9-2.27-2.46s.07-3,1-3.21,1.91.9,2.27,2.46S154.47,300.9,153.58,301.11Zm55.34-24.22,1.42,6.15,1.84,8,0,.17a5.59,5.59,0,0,1-.2,3.17,6.15,6.15,0,0,1-4.45,4l-.36.08-.14,0a11.45,11.45,0,0,0-.28-2.79l-.07-.28L205.24,289c.64-.33.92-1.48.64-2.72s-1-2.15-1.77-2.17l-.46-2-.3-1.29,1.72-2.49,1.23-1.79A1.47,1.47,0,0,1,208.92,276.89Z"></path> <path class="cls-4" d="M135.73,73.79l-2.46,1.1-2-4.49a1.47,1.47,0,0,0-2.75,0l-.79,2.24-1.21,3.42a15.56,15.56,0,0,0-12.14,5.4L111,80.09l-2.21-.91a1.46,1.46,0,0,0-1.85,2l2,4.49-2.46,1.09a3.68,3.68,0,0,0-1.87,4.86l1.75,3.95a3.67,3.67,0,0,0,3.14,2.17l5.06.32a7.34,7.34,0,0,0,1.72,1.83,6.14,6.14,0,0,0,6.27,1l.36-.16,4.19-1.87,2.07,4.65-4.64,2.07a4.11,4.11,0,0,0-2.09,5.44l.71,1.61,20.58-9.15-.72-1.61a4.12,4.12,0,0,0-5.44-2.1L133,101.85,130.9,97.2l.64-.28,3.55-1.59.35-.15a6.13,6.13,0,0,0,3.48-5.32,7.11,7.11,0,0,0-.21-2.5l3.16-4a3.69,3.69,0,0,0,.48-3.79l-1.76-3.94A3.68,3.68,0,0,0,135.73,73.79ZM108.57,90.37l2.08-.92,1.95,4.4-2.55-.16ZM138.49,81l-1.59,2-2-4.4,2.07-.92Z"></path> <path class="cls-4" d="M372.86-5.81a12.35,12.35,0,0,0,1.46,16.91A12.24,12.24,0,0,0,383,14.16a13.54,13.54,0,0,1,7.19,1.64,1.55,1.55,0,0,0,1.88-.28c.95-1,2-2.15,3-3.45s2-2.54,2.73-3.69a1.55,1.55,0,0,0-.13-1.9A12.72,12.72,0,0,1,394.6,0a12.29,12.29,0,0,0-21.74-5.8Zm2.72,4.19a7.7,7.7,0,0,0,1.7,9.29A7.62,7.62,0,0,0,380.7,9.4a1.12,1.12,0,0,1,.86,1.34,1.09,1.09,0,0,1-.22.46,1.13,1.13,0,0,1-1.11.4,9.93,9.93,0,0,1-4.44-2.25,10,10,0,0,1-2.2-12,1.11,1.11,0,0,1,1.51-.47A1.13,1.13,0,0,1,375.58-1.62Zm26.29,11.68a6.08,6.08,0,0,1-7.31,9.06A1.37,1.37,0,0,1,394,17l5.67-7A1.36,1.36,0,0,1,401.87,10.06Z"></path> <path class="cls-4" d="M2.48,51.6-3,52.72l.75-13.8A2.22,2.22,0,0,0-5,36.62l-7.88,1.59a2.23,2.23,0,0,0-1.78,2.4l1.47,14.7a3.54,3.54,0,0,0,4.22,3.11l4.36-.88L-3.77,72c.36,1.77,2.1,2.31,2.69.82l2-5h0l1-2.56h0l3.29-8.18C6.2,54.66,4.47,51.2,2.48,51.6Z"></path> <path class="cls-4" d="M515.18,66.87c-10.37,5.1-15.42,15-10.3,25.38s14,13.9,25.64,8.17a2.37,2.37,0,0,0,1.08-3.18l-.88-1.8-2.21,1.09c-7.56,3.72-14.23,2.07-18.58-6.76-4-8.09.37-15.52,7.22-18.89,7.22-3.56,14.32-1.61,17.56,5,2.24,4.57,2.19,7.48.3,8.55-1.3.59-2,.13-2.92-1.78l-5.27-10.7-.91.45a4.26,4.26,0,0,0-2.36,4.23,6.65,6.65,0,0,0-6.62-.51C513.14,78,511,83,513.86,88.77S522,96.39,526,94.44a6.85,6.85,0,0,0,3.7-6.65c1.61,2.13,3.58,2.37,7.51.44,4.94-2.43,5.69-8.57,2.6-14.86C535.38,64.47,525.17,62,515.18,66.87Zm11,20a4,4,0,0,1-6.86,3.38.89.89,0,0,1,.27-1.4l5.32-2.62A.89.89,0,0,1,526.21,86.88Z"></path> <path class="cls-4" d="M15,105.54l-7.32,2.15a1.74,1.74,0,0,0-1.23,1.83l.94,8.67a1.71,1.71,0,0,0,1.41,1.5l3.3.58A2.75,2.75,0,0,1,14.41,123a26.55,26.55,0,0,1-3.6,12.87,2.76,2.76,0,0,1-3.39,1.19L4.3,135.88a1.71,1.71,0,0,0-2,.55L-3,143.35a1.72,1.72,0,0,0,.09,2.21l5.15,5.64a1.7,1.7,0,0,0,2.11.34A33.17,33.17,0,0,0,17,106.35,1.72,1.72,0,0,0,15,105.54Z"></path> <path class="cls-4" d="M102-20.48c-6.68-1.31-13,3.16-14.74,9.77L86.8-9l-.22.84-.83-.24L84-8.89c-6.54-1.95-13.65,1.14-16,7.53a13.57,13.57,0,0,0,8.82,17.58l11.31,3.36,2.75.82a15.57,15.57,0,0,0,10.78-1.71,15.59,15.59,0,0,0,7-8.14l.84-3.17,2.94-11.19A13.56,13.56,0,0,0,102-20.48Zm-.58,26.16a6.43,6.43,0,0,1-10.73,6A1.43,1.43,0,0,1,91,9.45l8.33-4.69A1.43,1.43,0,0,1,101.42,5.68Z"></path> <path class="cls-4" d="M366.88,221.92l3.66,16.55a1.71,1.71,0,0,1-1.29,2l-5.52,1.21a1.69,1.69,0,0,1-2-1.29l-3.65-16.54a1.69,1.69,0,0,1,1.29-2l5.51-1.22A1.7,1.7,0,0,1,366.88,221.92Zm25.66-3.11h0a5.08,5.08,0,0,0,.59-3.68,4.22,4.22,0,0,0-5-3.1l-8.42,1.86c1-1.49,1-4.31-.29-6.43l-1.77-2.87a6.16,6.16,0,0,0-2.39-2.29c-2.09-1.06-4.3-.23-4.46,2.44l-.72,12.2a6.43,6.43,0,0,1-1,3.1l-.06.09a.87.87,0,0,0-.12.65l3.26,14.73a.83.83,0,0,0,1,.65,11.38,11.38,0,0,1,3.89.31,20,20,0,0,0,8.72.37l.2,0c2.95-.65,6.43-1.45,7.39-3.78a3.78,3.78,0,0,0-.26-3.17,5.59,5.59,0,0,0,0-5.41A5.89,5.89,0,0,0,392.54,218.81Z"></path> <path class="cls-4" d="M520.93,207.13l-19,24.55a8.68,8.68,0,0,0,1.55,12.17l15.95,12.34a8.68,8.68,0,0,0,12.17-1.55l19-24.56A8.67,8.67,0,0,0,549,217.92l-15.95-12.35A8.67,8.67,0,0,0,520.93,207.13Zm-4.67,22a2.38,2.38,0,0,1-.42-3.33l8.9-11.49a2.36,2.36,0,0,1,3.32-.43h0a2.37,2.37,0,0,1,.43,3.33l-8.9,11.5a2.38,2.38,0,0,1-3.33.42Zm-9.53,3.36a5.48,5.48,0,1,1,1,7.7A5.49,5.49,0,0,1,506.73,232.52Zm29.3,7.77-8.9,11.5a2.37,2.37,0,0,1-3.75-2.91l8.89-11.49a2.37,2.37,0,1,1,3.76,2.9Zm5.29-18.46-19.81,25.61a2.37,2.37,0,0,1-3.75-2.91l19.81-25.6a2.37,2.37,0,0,1,3.75,2.9Z"></path> <path class="cls-4" d="M274.35,21.32a14.64,14.64,0,0,0,6.5,28.44l1.53,5.47a2,2,0,1,0,3.94-1.1l-1.54-5.49a14.64,14.64,0,0,0-10.43-27.32ZM286,38.06a6.44,6.44,0,0,1-11.89,3.31,1.44,1.44,0,0,1,.84-2.14l9.22-2.58A1.45,1.45,0,0,1,286,38.06Z"></path> <path class="cls-5" d="M471.28,274.94c11.14-3.73,27.55-6.52,33.65-6.21,5.94.3,11,1.44,13.83,5.54,3,4.37,2.39,10.77,0,15-5.48,9.48-20.76,9.15-26.3,9-19.41-.42-33.71-12.07-40-18"></path> <path class="cls-6" d="M495.13,299.72c-1,0-2,0-2.72,0-18.18-.39-32.29-10.21-40.93-18.38l1.94-2.05c8.28,7.83,21.77,17.24,39,17.61,5.47.12,20,.42,25-8.34,2.14-3.7,2.86-9.5.1-13.44-2.18-3.12-6-4.6-12.74-4.94-5.8-.26-21.9,2.38-33.13,6.14l-.9-2.67C482.34,269.75,499,267,505,267.32c5.44.27,11.47,1.22,14.92,6.14,3.59,5.14,2.53,12.14,0,16.47C514.82,298.82,502.2,299.72,495.13,299.72Z"></path> <path class="cls-5" d="M278.68,90l-3-57.17c-.55-10.44,13-16.4,21.44-9.44l37.51,30.86"></path> <path class="cls-7" d="M327.27,47.2S305.77,45.65,276.76,67l1,22.58,26.12-3.62,32.34-32.16Z"></path> <path class="cls-6" d="M277.27,90.1l2.82-.15-3-57.16a10.08,10.08,0,0,1,5.91-9.6,12.16,12.16,0,0,1,13.22,1.32l37.52,30.87,1.79-2.19L298,22.33a15,15,0,0,0-16.3-1.66,13,13,0,0,0-7.45,12.27Z"></path> <path class="cls-5" d="M266.35,132.25c-2.88-54.81,51.29-74.18,51.29-74.18,36.48-16,80.66-15.61,118.16-2.61l34.07-34.62c7.69-7.81,21.77-3.31,22.31,7.14l6.21,118A64.8,64.8,0,0,1,443,213.53l-112.9,5.95a64.8,64.8,0,0,1-62.34-61.35l-1.36-25.88"></path> <path class="cls-8" d="M464.17,206.34c8.6,11.1,21.45,49.78,21.45,63.54A28.42,28.42,0,0,1,457.2,298.3H377.88a28.41,28.41,0,0,1-28.42-28.42c0-13.8,10.66-37.76,15.08-51.57"></path> <path class="cls-6" d="M457.2,299.71H377.88A29.87,29.87,0,0,1,348,269.88c0-10.38,5.66-25.73,10.64-39.27,1.72-4.67,3.35-9.09,4.52-12.73l2.69.86c-1.19,3.7-2.82,8.14-4.56,12.85-4.66,12.66-10.46,28.41-10.46,38.29a27,27,0,0,0,27,27H457.2a27,27,0,0,0,27-27c0-13.88-12.86-52-21.16-62.68l2.23-1.73c8.54,11,21.75,50.15,21.75,64.41A29.86,29.86,0,0,1,457.2,299.71Z"></path> <path class="cls-6" d="M317.08,56.77c34.85-15.25,79-16.33,118.34-2.93l33.45-34a15,15,0,0,1,16-3.36,13,13,0,0,1,8.69,11.42l6.21,118a65.75,65.75,0,0,1-35.18,62,14.23,14.23,0,0,0-.89-2.7A63,63,0,0,0,497,146.08l-6.21-118a10.07,10.07,0,0,0-6.87-8.93,12.6,12.6,0,0,0-3.21-.76,12,12,0,0,0-9.81,3.47l-34.7,35.26-.84-.3c-38.87-13.47-82.66-12.51-117.22,2.6-.53.19-53.15,19.64-50.36,72.78l1.36,25.89c1.71,32.5,28.48,58.83,60.85,60l36.89-1.92a14.26,14.26,0,0,0-1.44,2.9L330,220.89q-2.16-.07-4.29-.3A66.66,66.66,0,0,1,266.3,158.2l-1.36-25.88C262,77.11,316.62,56.93,317.08,56.77Z"></path> <path class="cls-6" d="M455.37,63.46a5.65,5.65,0,0,1-2.86-10l13.74-11c6.18-4.93,15.87-.49,15.36,7l-1.2,17.78a5.64,5.64,0,0,1-9.61,3.61A26.91,26.91,0,0,0,455.37,63.46Z"></path> <path class="cls-5" d="M377.1,213.8c-27.68-1.6-48.45,4.86-50.05,10.59-3.49,12.48,23.94,15.12,53.06,16.79"></path> <path d="M378.67,239.9c-21.64-1.27-44.64-3.3-49.73-10.42a5.28,5.28,0,0,1-.74-4.77c1.37-4.91,21.55-11.29,48.83-9.71a1.2,1.2,0,0,0,1.26-1.13,1.06,1.06,0,0,0-.1-.56,1.2,1.2,0,0,0-1-.71c-27.88-1.61-49.4,4.75-51.28,11.47a7.68,7.68,0,0,0,1.1,6.81c5.76,8.05,28.92,10.1,52.33,11.46A11,11,0,0,1,378.67,239.9Z"></path> <path class="cls-5" d="M429.31,216.39c-26.12,9.29-43.48,21.68-42.73,27.58,1.64,12.85,27.94,4.62,55.42-5.16"></path> <path class="cls-8" d="M404,226.77c-.77,4.21-.84,12.35,8.89,22.57,4.86,5.1,35.16-11.31,34.72-11.29S429.42,215,429,214.9,404,226.77,404,226.77Z"></path> <path class="cls-6" d="M440.65,238.91a1.2,1.2,0,0,0-1.35-.42c-20.18,7.13-41.65,13.95-49,9.44a5.28,5.28,0,0,1-2.54-4.11c-.65-5.06,15.87-16.87,41.62-26a1.19,1.19,0,0,0,.72-1.53,1,1,0,0,0-.31-.47,1.2,1.2,0,0,0-1.22-.26c-26.31,9.36-44.07,21.67-43.19,28.59a7.67,7.67,0,0,0,3.66,5.85c8.24,5.05,29.5-1.6,51.05-9.22a1.19,1.19,0,0,0,.56-1.82Z"></path> <ellipse class="cls-5" cx="298.52" cy="127.84" rx="12.83" ry="22.46" transform="translate(-8.63 22.42) rotate(-4.24)"></ellipse> <path class="cls-6" d="M299.62,151.67c-3.71,0-7.29-2.29-10.14-6.53a33.91,33.91,0,0,1-5.16-16.24A34,34,0,0,1,287,112.07c2.33-4.89,5.78-7.74,9.73-8,8-.61,15,9.4,16,22.75s-4.48,24.27-12.44,24.86h0Zm.46-2.84.1,1.41-.1-1.41c6.17-.46,10.68-10.45,9.83-21.83s-6.78-20.56-12.94-20.14c-2.89.21-5.52,2.49-7.4,6.43a31.18,31.18,0,0,0-2.44,15.4,31.12,31.12,0,0,0,4.69,14.87C294.25,147.17,297.19,149.05,300.08,148.83Z"></path> <path class="cls-6" d="M303.15,133.14a3.91,3.91,0,0,1-7-2.06,3.77,3.77,0,0,1,.37-2c-2.7,1.22-4.48,5.69-4.09,10.86.44,5.92,3.53,10.51,6.92,10.26s5.77-5.25,5.33-11.17A17,17,0,0,0,303.15,133.14Z"></path> <ellipse class="cls-5" cx="387.65" cy="121.95" rx="12.83" ry="22.46" transform="translate(-7.95 28.99) rotate(-4.24)"></ellipse> <path class="cls-6" d="M388.75,145.78c-3.71,0-7.29-2.3-10.14-6.53A33.92,33.92,0,0,1,373.45,123a33.93,33.93,0,0,1,2.71-16.82c2.33-4.89,5.78-7.74,9.73-8,8-.59,15,9.41,16,22.76a33.93,33.93,0,0,1-2.71,16.82c-2.33,4.89-5.79,7.74-9.73,8h0ZM386.54,101h-.44c-2.89.21-5.52,2.5-7.4,6.43a31.18,31.18,0,0,0-2.44,15.4A31.16,31.16,0,0,0,381,137.67c2.43,3.61,5.39,5.46,8.26,5.27s5.52-2.5,7.39-6.43a31.07,31.07,0,0,0,2.44-15.4C398.22,110,392.55,101,386.54,101Z"></path> <path class="cls-6" d="M392.28,127.25a3.91,3.91,0,0,1-7-2.06,3.77,3.77,0,0,1,.37-2c-2.7,1.22-4.48,5.68-4.09,10.85.44,5.92,3.53,10.52,6.92,10.27s5.77-5.25,5.33-11.17A16.93,16.93,0,0,0,392.28,127.25Z"></path> <path class="cls-6" d="M346.61,145.55l-7.71.21a2.77,2.77,0,0,0-2.28,4.22l4,6.57a2.77,2.77,0,0,0,4.79-.13l3.67-6.79A2.77,2.77,0,0,0,346.61,145.55Z"></path> <line class="cls-5" x1="342.83" y1="153.86" x2="346.13" y2="173.41"></line> <path class="cls-6" d="M344.22,153.63c.37,0,.28.16.32.26l0,.31.11.61.21,1.22.42,2.44.85,4.88q.87,4.88,1.61,9.78l-3.32.56c-.61-3.25-1.18-6.5-1.69-9.77L342,159l-.4-2.44-.2-1.22-.1-.61,0-.31c0-.11-.13-.19.21-.35Z"></path> <path class="cls-6" d="M379.56,150.31a22.73,22.73,0,0,1-15.18-5.88,25.06,25.06,0,0,1-8.28-16.71l-2.05-23.87a8.91,8.91,0,0,1,1.87-6.3,8.11,8.11,0,0,1,5.66-3.06l48.55-4.17a8.5,8.5,0,0,1,9,7.94l2.05,23.87A25.07,25.07,0,0,1,415.88,140,22.6,22.6,0,0,1,400,148.63l-18.5,1.59C380.85,150.28,380.2,150.31,379.56,150.31Zm-17.74-53a5.29,5.29,0,0,0-3.69,2,6,6,0,0,0-1.26,4.29l2.05,23.88a22.24,22.24,0,0,0,7.34,14.85,19.83,19.83,0,0,0,15,5.08l18.5-1.59a19.84,19.84,0,0,0,13.91-7.57,22.28,22.28,0,0,0,4.71-15.88L416.33,98.5a5.73,5.73,0,0,0-6-5.37Z"></path> <path class="cls-6" d="M291.34,158.1a20,20,0,0,1-14.08-6,26.47,26.47,0,0,1-7.62-16.72l-2.05-23.87c-.41-4.77,2.67-8.94,6.87-9.3L318.4,98.4a7.21,7.21,0,0,1,5.69,2.14,9.24,9.24,0,0,1,2.67,5.85l2.05,23.87c1.16,13.51-7.41,25.32-19.11,26.33L293,158C292.42,158.07,291.88,158.1,291.34,158.1ZM274.71,105c-2.65.23-4.58,3-4.31,6.25l2.05,23.87a23.67,23.67,0,0,0,6.79,15,17.05,17.05,0,0,0,13.48,5.16l16.74-1.43c10.15-.87,17.57-11.32,16.54-23.28L324,106.63a6.47,6.47,0,0,0-1.84-4.08,4.44,4.44,0,0,0-3.47-1.34Z"></path> <rect class="cls-6" x="326.64" y="119.4" width="30.23" height="2.82" transform="translate(-9.12 29.82) rotate(-4.93)"></rect> <path class="cls-6" d="M503.85,123.24a1.41,1.41,0,0,1-2-.08l-9.09-9.87A23.67,23.67,0,0,0,471.24,106l-52,8.91-.48-2.79,52-8.91a26.54,26.54,0,0,1,24.09,8.2l9.09,9.88a1.41,1.41,0,0,1-.09,2Z"></path> <polygon class="cls-9" points="389.93 259.42 273.22 259.42 256.72 167.69 373.43 167.69 389.93 259.42"></polygon> <path class="cls-6" d="M391.62,260.83H273.38a1.61,1.61,0,0,1-1.58-1.32l-16.4-91.16a1.77,1.77,0,0,1,1.74-2.08H372.63a2.36,2.36,0,0,1,2.33,1.95ZM275.74,258h112.5L372.6,171a2.36,2.36,0,0,0-2.33-1.94H260.52a1.76,1.76,0,0,0-1.74,2.07l15.38,85.51A1.6,1.6,0,0,0,275.74,258Z"></path> <path class="cls-9" d="M389.93,259.42h31.64v-4.17a3,3,0,0,0-2.94-2.95h-30Z"></path> <path class="cls-6" d="M421.71,260.83h-33L387,250.89h31.67a4.36,4.36,0,0,1,4.35,4.36v4.3A1.28,1.28,0,0,1,421.71,260.83ZM391.11,258h27.77a1.28,1.28,0,0,0,1.28-1.28v-1.47a1.53,1.53,0,0,0-1.53-1.53H390.34Z"></path> <path class="cls-6" d="M381.5,216.16l-.05-2.82c61.95-1.19,82.52-8.26,82.72-8.33l.95,2.65C464.29,208,444.08,215,381.5,216.16Z"></path> <path class="cls-6" d="M409.94,249.64c-7.93-8-8.57-20.39-8.6-20.91l2.82-.13c0,.12.64,11.81,7.79,19.06Z"></path> <path class="cls-10" d="M317.45,195.38c-10.74,0-17.85,6-15.84,16.42s9.21,16.8,21.27,16.8a1.73,1.73,0,0,0,1.79-2.14l-.34-1.8H322c-7.83,0-13.49-4-15.2-12.86-1.56-8.12,4.28-12.4,11.38-12.4,7.48,0,13.45,4.4,14.72,11,.89,4.59.09,6.92-1.9,7-1.33,0-1.84-.67-2.21-2.59l-2.07-10.75h-.94a3.12,3.12,0,0,0-3.23,2.48,7.78,7.78,0,0,0-5.9-3.05c-3.92,0-7.13,3.24-6,9s5.46,9.39,9.57,9.39A5,5,0,0,0,325.3,218c.92,2.37,2.66,3.35,6.73,3.35,5.12,0,7.36-4.66,6.15-11C336.45,201.47,327.8,195.38,317.45,195.38Zm4.95,20.56a2.91,2.91,0,0,1-3.06,2.57,4.7,4.7,0,0,1-4-2.57.67.67,0,0,1,.6-1h5.51A1,1,0,0,1,322.4,215.94Z"></path> </g> </g> </svg> 