<?xml version="1.0" encoding="UTF-8"?> <svg xmlns="http://www.w3.org/2000/svg" xmlns:xlink="http://www.w3.org/1999/xlink" viewBox="0 0 557.13 287.07"> <defs> <style>.cls-1{fill:none;}.cls-2{clip-path:url(#clip-path);}.cls-10,.cls-3{fill:#0075c9;}.cls-4{fill:#005897;}.cls-5{fill:#fff;}.cls-6{fill:#101820;}.cls-7{fill:#ffb71b;}.cls-8{fill:#bf8914;}.cls-9{fill:#ea0029;}.cls-10{opacity:0.15;}</style> <clipPath id="clip-path"> <rect class="cls-1" width="557.13" height="287.07"></rect> </clipPath> </defs> <title>Монтажная область 11</title> <g id="Слой_10" data-name="Слой 10"> <g class="cls-2"> <rect class="cls-3" width="557.13" height="287.07"></rect> <path class="cls-4" d="M1.93,23.45l-13,18.36A10.21,10.21,0,0,0-8.67,56L.45,62.51a10.21,10.21,0,0,0,14.23-2.42l.33-.47,3.7,2.63c1.59,1.12,3.87-.41,3.62-2.43l-.59-4.73a11.16,11.16,0,0,1,1.75-7.41l4.21-6A10.2,10.2,0,0,0,25.28,27.5L16.17,21A10.22,10.22,0,0,0,1.93,23.45Z"></path> <path class="cls-4" d="M253.34,225.87c-2.54,1.85-6.43.85-8.69-2.24s-2-7.11.52-9,6.44-.86,8.69,2.24S255.89,224,253.34,225.87Zm3.93-23.8c-1.78-3.38-5.49-4.94-8.28-3.47s-3.59,5.4-1.81,8.79,5.5,4.94,8.28,3.47S259.06,205.46,257.27,202.07Zm24.39,8.87c3-1.05,4.34-4.83,3.06-8.44s-4.72-5.68-7.69-4.63-4.34,4.83-3.06,8.44S278.69,212,281.66,210.94Zm-13.58-6.73c2.78-1.47,3.59-5.4,1.81-8.79s-5.49-4.94-8.28-3.47-3.59,5.4-1.81,8.79S265.29,205.68,268.08,204.21Zm4.66,6.94A9.4,9.4,0,0,0,259,219l-.42,7.75a6,6,0,0,0,10.71,3.88l.05-.07a11.64,11.64,0,0,1,8.12-4.56,6.07,6.07,0,0,0,2.32-.74,5.93,5.93,0,0,0,1.09-.79,6,6,0,0,0,1.35-7,6,6,0,0,0-2.59-2.7Z"></path> <path class="cls-4" d="M305-2.45l.62,3.74L306.58,7A30.36,30.36,0,0,0,294.19,26l-5.57,1.44-3.68,1c-2.09.54-2.7,3.38-1,4.5l9.24,6,12,7.79.26.17a9.61,9.61,0,0,0,2.75,1.22h0a10,10,0,0,0,1.72.3h0c.28,0,.55,0,.83,0A10.71,10.71,0,0,0,320,43.58l.36-.55,8.76-13.47L332.73,24l.36-.56A10.68,10.68,0,0,0,333.78,13a9.71,9.71,0,0,0-3.57-4.22L330,8.61,318,.83l-9.23-6C307-6.3,304.66-4.58,305-2.45Zm-6.45,32.67v-.06a.28.28,0,0,1,0-.09s0,0,0-.06v-.27a.19.19,0,0,1,0-.08v0a.52.52,0,0,0,0-.11v0l0-.11v0l0-.08,0,0,0-.07,0,0,.06-.11h0a2,2,0,0,1,1.77-.79h.25l.21,0a6.41,6.41,0,0,1,2.85,1.07c2.05,1.33,3.09,3.35,2.33,4.52h0l-.09.12,0,0-.07.07,0,0a.46.46,0,0,0-.07.07l0,0-.12.08h0l-.13.08-.05,0-.1,0-.05,0-.11,0h0l-.16.05h0l-.17,0h-.05l-.13,0h-.68l-.16,0h-.06l-.15,0h-.06l-.21,0A7.43,7.43,0,0,1,300,32.67a5.89,5.89,0,0,1-.54-.59h0c-.12-.16-.24-.32-.34-.48h0l-.07-.11v0a3.94,3.94,0,0,1-.23-.46l0,0,0-.09,0,0,0-.09v0c0-.05,0-.1-.05-.15s0,0,0-.06,0,0,0-.07,0,0,0-.06a.64.64,0,0,0,0-.07A.17.17,0,0,0,298.57,30.22ZM322,24.07a5.68,5.68,0,0,1-5.93,9.14,1.27,1.27,0,0,1-.7-1.91L320,24.21A1.26,1.26,0,0,1,322,24.07Zm-3.42-9.28c-.76,1.17-3,1-5.09-.29s-3.08-3.36-2.32-4.53,3-1,5.08.29S319.36,13.62,318.6,14.79Zm-16.5,34.4a.88.88,0,0,1-.48-1.31l.4-.61-10-6.51-3.06-2a20.76,20.76,0,0,0-1.89,5.49l-3.83,1-2.53.65A1.76,1.76,0,0,0,280,49l6.34,4.12,8.23,5.35.18.12a6.66,6.66,0,0,0,3.64,1.07,7.38,7.38,0,0,0,6.36-3.35l.24-.38,3.58-5.5a11.72,11.72,0,0,1-3.85-1.4A4,4,0,0,1,302.1,49.19Zm-6.79.43c-.52.81-2.08.72-3.49-.2s-2.12-2.3-1.6-3.11,2.09-.71,3.49.2S295.84,48.82,295.31,49.62Zm24-58.36,5.54,3.6L332-.48l.16.1a5.82,5.82,0,0,1,2.14,2.53,6.42,6.42,0,0,1-.42,6.25l-.21.33-.08.12A11.28,11.28,0,0,0,331.39,7l-.26-.17L325.34,3c.24-.71-.38-1.79-1.49-2.51s-2.35-.86-2.91-.35L319.16-1,318-1.76l-.51-3.11-.38-2.24A1.53,1.53,0,0,1,319.33-8.74Z"></path> <path class="cls-4" d="M213.6,281l-2.79.36-.67-5.09a1.53,1.53,0,0,0-2.76-.8l-1.46,2-2.22,3.06a16.25,16.25,0,0,0-13.77,1.81L187,280l-1.93-1.57a1.53,1.53,0,0,0-2.46,1.49l.67,5.09-2.79.36a3.86,3.86,0,0,0-3.32,4.32l.59,4.47a3.85,3.85,0,0,0,2.49,3.11l5,1.82a7.47,7.47,0,0,0,1.18,2.34,6.4,6.4,0,0,0,6,2.84l.4-.05,4.76-.62.69,5.27-5.26.69a4.32,4.32,0,0,0-3.72,4.83l.24,1.83,23.33-3.06-.24-1.83a4.3,4.3,0,0,0-4.83-3.71l-5.27.69L201.8,303l.73-.1,4-.53.4-.05a6.39,6.39,0,0,0,5.06-4.29,7.54,7.54,0,0,0,.53-2.56l4.35-3.05a3.85,3.85,0,0,0,1.6-3.65l-.59-4.47A3.84,3.84,0,0,0,213.6,281Zm-32.13,8.54,2.35-.31.66,5-2.51-.92Zm32.74-.47L212,290.62l-.65-5,2.35-.31Z"></path> <path class="cls-4" d="M58,164.66a12.85,12.85,0,0,0,11.29,20.49,14.2,14.2,0,0,1,7.58,1.46,1.6,1.6,0,0,0,1.94-.36c1-1.08,2-2.32,3-3.71s2-2.72,2.72-3.95a1.63,1.63,0,0,0-.2-2,13.31,13.31,0,0,1-3.47-6.67A12.84,12.84,0,0,0,58,164.66Zm3,4.28a8,8,0,0,0,5.74,11.33,1.16,1.16,0,0,1,.94,1.36,1.08,1.08,0,0,1-.21.49,1.17,1.17,0,0,1-1.15.45,10.3,10.3,0,0,1-4.71-2.18,10.42,10.42,0,0,1-2.72-12.47,1.17,1.17,0,0,1,1.56-.55A1.19,1.19,0,0,1,61,168.94ZM88.88,180.2a6.34,6.34,0,0,1-7.3,9.72,1.41,1.41,0,0,1-.63-2.18l5.66-7.54A1.42,1.42,0,0,1,88.88,180.2Z"></path> <path class="cls-4" d="M144.41,13.52c-10.8,5.4-16,15.75-10.57,26.59s14.73,14.41,26.85,8.34a2.48,2.48,0,0,0,1.1-3.33l-.93-1.87-2.3,1.15c-7.87,3.94-14.85,2.27-19.46-6.93-4.21-8.41.26-16.21,7.39-19.79,7.53-3.76,14.95-1.78,18.39,5.08,2.38,4.75,2.34,7.79.37,8.93-1.34.62-2.06.15-3.06-1.83l-5.58-11.15-1,.48a4.45,4.45,0,0,0-2.44,4.44,6.93,6.93,0,0,0-6.92-.49c-3.93,2-6.11,7.26-3.11,13.26s8.55,7.91,12.68,5.84a7.14,7.14,0,0,0,3.81-7c1.7,2.22,3.77,2.45,7.86.4,5.14-2.58,5.88-9,2.6-15.54C165.49,10.85,154.81,8.3,144.41,13.52Zm11.67,20.82a4.16,4.16,0,0,1-7.14,3.57.93.93,0,0,1,.27-1.46l5.54-2.77A.93.93,0,0,1,156.08,34.34Z"></path> <path class="cls-4" d="M378.28,176.66,386,192.57a1.76,1.76,0,0,1-.81,2.36l-5.31,2.59a1.77,1.77,0,0,1-2.37-.82l-7.75-15.91a1.76,1.76,0,0,1,.82-2.36l5.3-2.59A1.77,1.77,0,0,1,378.28,176.66Zm25.3-9.43h0a5.33,5.33,0,0,0-.31-3.89,4.4,4.4,0,0,0-5.82-1.93l-8.1,3.94c.68-1.76,0-4.62-1.86-6.45L385,156.41a6.36,6.36,0,0,0-3-1.74c-2.39-.57-4.43.81-3.93,3.56l2.25,12.57a6.8,6.8,0,0,1-.24,3.38l0,.11a.91.91,0,0,0,0,.69L387,189.15a.88.88,0,0,0,1.16.42,11.57,11.57,0,0,1,4-.63,21.2,21.2,0,0,0,9-1.76l.18-.09c2.84-1.39,6.18-3.05,6.59-5.65a3.93,3.93,0,0,0-1-3.16,5.82,5.82,0,0,0-1.33-5.48A6.14,6.14,0,0,0,403.58,167.23Z"></path> <path class="cls-4" d="M41.56,264.7c-3.11-3.43-13.69-10.65-16.58-8-2.44,2.21,4.87,10.54,2.4,12.78-3.5,3.17-18.26-13.23-22-9.8-3.6,3.27,4.21,21.2,10.62,28.27A17.28,17.28,0,1,0,41.56,264.7Z"></path> <path class="cls-4" d="M503.76,137.83a15.29,15.29,0,0,0,27.17,13.79l5.42,2.43a2.13,2.13,0,0,0,1.75-3.89l-5.44-2.44a15.29,15.29,0,0,0-28.9-9.89Zm21.25,1.8a6.73,6.73,0,0,1-5.29,11.77,1.51,1.51,0,0,1-1.16-2.11l4.1-9.13A1.51,1.51,0,0,1,525,139.63Z"></path> <path class="cls-5" d="M458.3,266.7c8.32-6.94,21.47-14.83,26.81-16.62s9.89-2.43,13.73.13c4.09,2.72,5.66,8.44,5,12.85-1.53,10-14.76,14.82-19.55,16.58-16.81,6.15-33,.94-40.36-2.06"></path> <path class="cls-6" d="M467.66,283.74a65,65,0,0,1-24.2-5l.92-2.26c9.74,4,24.5,7.53,39.48,2,4.74-1.73,17.34-6.34,18.76-15.61.6-3.92-.74-9.18-4.45-11.65-2.95-2-6.74-2-12.67,0-5.11,1.71-18,9.4-26.42,16.4l-1.56-1.88c8.58-7.16,21.9-15.07,27.2-16.83,4.75-1.58,10.22-2.79,14.8.26s6.23,9.38,5.51,14.06c-1.63,10.7-15.22,15.66-20.33,17.53A49.21,49.21,0,0,1,467.66,283.74Z"></path> <path class="cls-7" d="M345.45,231a2.62,2.62,0,0,1,1.91,4.2c-7.93,10.24-13,26-13,38.68A26.2,26.2,0,0,0,360.59,300H433.7a26.2,26.2,0,0,0,26.2-26.2c0-12.72-2.36-25.67-12.14-38.76-6.12-8.18-7.66-22.72-5.62-22.9"></path> <path class="cls-8" d="M371.54,231.67S376.11,247,393,244.35,416,222,416,222Z"></path> <path class="cls-6" d="M433.7,301.26H360.59a27.45,27.45,0,0,1-27.41-27.42c0-13.38,5.31-29.22,13.22-39.43a1.33,1.33,0,0,0,.17-1.36,1.47,1.47,0,0,0-1.23-.88l.22-2.43a3.92,3.92,0,0,1,3.25,2.33,3.76,3.76,0,0,1-.48,3.84c-7.61,9.81-12.71,25.06-12.71,37.93a25,25,0,0,0,25,25H433.7a25,25,0,0,0,25-25c0-15.29-3.67-27-11.9-38-5.66-7.57-7.67-20.5-6.27-23.65A1.82,1.82,0,0,1,442,211l.21,2.43a.73.73,0,0,0,.52-.27c-.84,1.4.39,13.74,6,21.21,8.57,11.47,12.39,23.65,12.39,39.5A27.45,27.45,0,0,1,433.7,301.26Z"></path> <path class="cls-5" d="M487.74,101.85c-.44-4.81-2.11-11.35-4.21-18.06A135.53,135.53,0,0,1,460,90.66c-14.5,2.88-30.07,6.43-44.78,3.58a12.81,12.81,0,0,1-5-2.08c-35.31,10-75.19,6.23-111.75,5.53-.09.4-.2.79-.29,1.21-2,9.58-11.31,11.18-18.1,7.61l-.62,4.18a157.8,157.8,0,0,0-.89,38.66L282,183.47a59.72,59.72,0,0,0,60,53.74L415.13,230l30.48-3.16a59.73,59.73,0,0,0,48.19-64.63S489.13,117.23,487.74,101.85Z"></path> <path class="cls-6" d="M341.37,238.43a60.62,60.62,0,0,1-60.64-54.84l-3.42-34.11a158.34,158.34,0,0,1,.9-39l.86-5.89,1.53.81a12.58,12.58,0,0,0,11,.62,9.93,9.93,0,0,0,5.37-7.4c.05-.27.12-.53.18-.8l.33-1.4,1,0c6.5.12,13.09.34,19.75.56,30.87,1,62.78,2.08,91.65-6l.56-.16.48.34A11.59,11.59,0,0,0,415.44,93c13.45,2.61,27.6-.23,41.29-3l3-.6a134.63,134.63,0,0,0,23.33-6.81l1.22-.49.4,1.26c2.43,7.79,3.86,14,4.25,18.33,1.38,15.19,6,59.85,6.07,60.3,3.12,31.15-18.48,60.12-49.18,65.95l-30.58,3.18L342,238.43ZM281,108.3l-.38,2.57a155.85,155.85,0,0,0-.88,38.36l3.42,34.11A58.09,58.09,0,0,0,341.9,236L415,228.75l30.47-3.16c29.37-5.59,50.11-33.4,47.1-63.29,0-.45-4.68-45.13-6.06-60.33h0a88.28,88.28,0,0,0-3.77-16.57,137,137,0,0,1-22.53,6.45l-3,.61c-13.92,2.79-28.31,5.68-42.24,3a14,14,0,0,1-5-2c-29.08,8.08-61,7-91.84,6-6.31-.2-12.57-.41-18.73-.54a1.6,1.6,0,0,0-.05.21c-1.11,5.43-4.26,8-6.71,9.12A14.77,14.77,0,0,1,281,108.3Z"></path> <path d="M325,123.18a1.22,1.22,0,0,1-.31-2.4c5.22-1.37,12.29-7,12.36-7a1.22,1.22,0,0,1,1.53,1.91c-.31.24-7.55,6-13.27,7.5A1.1,1.1,0,0,1,325,123.18Z"></path> <path d="M424.05,117.06a1.48,1.48,0,0,1-.35,0c-.37-.11-9.24-2.78-13.73-6.62a1.22,1.22,0,0,1,1.59-1.86c4.09,3.51,12.75,6.11,12.84,6.14a1.22,1.22,0,0,1-.35,2.39Z"></path> <path class="cls-7" d="M478.33,79.48s-8.66-22.92-19.61-28.77-19.4,5.35-24.21,4.84-28.93-40-53-38.2-59.31,41.87-67.89,45.83-21.64-.5-27.75,27.25C312.32,109.46,445.48,92.47,478.33,79.48Z"></path> <path class="cls-6" d="M337.33,100.05c-23.85,0-43.56-2.42-52.2-8.63l-.65-.47.17-.78c4.94-22.46,14.7-24.62,22.53-26.36a29.14,29.14,0,0,0,5.9-1.73c2.43-1.13,7.67-5.81,13.74-11.25,14.87-13.3,37.34-33.42,54.57-34.69,17.72-1.25,35,18.41,45.37,30.19,3.2,3.65,6.83,7.78,7.89,8,1.24.13,3.26-1.05,5.41-2.28,4.83-2.79,11.43-6.61,19.24-2.43,11.22,6,19.81,28.46,20.17,29.42l.42,1.12-1.11.45C457.1,89.19,387.91,100.05,337.33,100.05ZM287.21,89.89C314.83,108,443.47,91.14,476.74,78.78c-1.9-4.63-9.54-22.15-18.59-27-6.61-3.53-12.3-.25-16.87,2.39-2.61,1.51-4.86,2.82-6.9,2.59-1.8-.19-4.2-2.84-9.46-8.82C414.86,36.5,398,17.29,381.57,18.57s-38.5,21-53.13,34.08c-6.72,6-11.58,10.37-14.33,11.64a31.07,31.07,0,0,1-6.4,1.9C300.28,67.84,291.86,69.71,287.21,89.89Z"></path> <ellipse class="cls-5" cx="332.91" cy="155.81" rx="11.83" ry="20.7" transform="translate(-12.82 31.01) rotate(-5.23)"></ellipse> <path class="cls-6" d="M334.16,177.68c-3.34,0-6.6-2.05-9.24-5.83a33.86,33.86,0,0,1-2.78-30.36c2.05-4.51,5.17-7.18,8.77-7.51s7.15,1.73,10,5.79a31.34,31.34,0,0,1,5,14.85c1.12,12.24-3.71,22.35-11,23C334.66,177.66,334.41,177.68,334.16,177.68Zm-2.51-41.29-.52,0c-2.69.25-5.09,2.41-6.77,6.09a31.45,31.45,0,0,0,2.56,27.95c2.32,3.32,5.06,5,7.77,4.76,5.72-.53,9.75-9.85,8.78-20.37a28.66,28.66,0,0,0-4.57-13.67C336.73,138.07,334.18,136.39,331.65,136.39Z"></path> <ellipse class="cls-5" cx="438.93" cy="146.1" rx="11.83" ry="20.7" transform="translate(-11.5 40.64) rotate(-5.23)"></ellipse> <path class="cls-6" d="M440.17,168c-3.34,0-6.59-2.05-9.24-5.83a31.19,31.19,0,0,1-5-14.85c-1.12-12.24,3.71-22.35,11-23,3.57-.3,7.15,1.73,10,5.79a33.86,33.86,0,0,1,2.78,30.36c-2.06,4.51-5.17,7.18-8.78,7.51C440.68,168,440.42,168,440.17,168Zm-2.5-41.29-.52,0c-5.73.53-9.75,9.86-8.79,20.37a28.84,28.84,0,0,0,4.57,13.67c2.32,3.32,5.06,5,7.77,4.76s5.1-2.41,6.78-6.09a31.45,31.45,0,0,0-2.56-27.95C442.75,128.36,440.19,126.68,437.67,126.68Z"></path> <path class="cls-6" d="M337.07,149.84a3.57,3.57,0,0,1-2.58,1.49,3.6,3.6,0,0,1-3.62-5.07c-2.47,1.16-4,5.31-3.6,10.07.5,5.45,3.43,9.63,6.54,9.35s5.24-4.94,4.74-10.39A15.58,15.58,0,0,0,337.07,149.84Z"></path> <path class="cls-6" d="M443.08,140.14a3.6,3.6,0,0,1-6.51-1.79,3.53,3.53,0,0,1,.32-1.8c-2.48,1.17-4,5.31-3.6,10.07.5,5.45,3.43,9.63,6.54,9.35s5.23-4.94,4.73-10.39A15.26,15.26,0,0,0,443.08,140.14Z"></path> <path class="cls-6" d="M398.38,179.76c4-.3,15.33,6.76,14.47,10.67-2.48,11.16-12,18.51-24,19.41s-22.72-4.92-26.83-15.59c-1.44-3.73,13.63-16.27,17.62-16.57"></path> <path class="cls-9" d="M367.41,202.53s8.18-13.14,23.32-6.37c0,0,10.92-7.29,20.78-1.52-9,12.67-10.87,12.72-20.78,15S367.41,202.53,367.41,202.53Z"></path> <path class="cls-6" d="M386.43,211.16c-11.74,0-21.61-6.28-25.54-16.47a4.94,4.94,0,0,1,.12-4.57c1-1.51,3-2.4,6-2.63l.19,2.44c-2.16.16-3.62.69-4.13,1.5a2.68,2.68,0,0,0,.09,2.39c3.81,9.88,13.86,15.69,25.6,14.8s20.59-8.12,22.88-18.46c.34-1.51-.13-2.06-.29-2.24-.69-.8-2.35-1.15-4.67-1l-.18-2.44c3.2-.24,5.45.37,6.7,1.8a4.78,4.78,0,0,1,.83,4.37c-2.53,11.41-12.38,19.41-25.09,20.37C388.1,211.12,387.26,211.16,386.43,211.16Z"></path> <path class="cls-6" d="M388.08,162l-6.83.51a2.46,2.46,0,0,0-1.85,3.84l3.86,5.67a2.46,2.46,0,0,0,4.25-.32l3-6.18A2.46,2.46,0,0,0,388.08,162Z"></path> <line class="cls-5" x1="385.05" y1="167.67" x2="385.96" y2="179.67"></line> <rect x="384.28" y="167.65" width="2.44" height="12.03" transform="translate(-11.96 29.45) rotate(-4.31)"></rect> <path class="cls-6" d="M384.33,170.41c4.81,2,3.46,21-14.4,25.29-17.62,4.27-21.83-22.49-21.83-22.49s7.41,12.58,15.26,11C373.15,182.34,373.61,166.07,384.33,170.41Z"></path> <path class="cls-6" d="M385.63,170.29c-4.36,2.84.63,21.22,19,22,18.12.8,17.09-26.27,17.09-26.27s-4.84,13.77-12.85,13.78C398.89,179.84,395.3,164,385.63,170.29Z"></path> <path class="cls-5" d="M412.81,252c11,18.33,24.17,28.75,28.52,27.28,9.47-3.21-.79-21.83-12.39-41.11"></path> <path class="cls-7" d="M424.19,271.53c6-5.37,19.27-10.59,19.27-10.59l-14.54-24.65-19.73,16.18Z"></path> <path class="cls-6" d="M412,251.49a.92.92,0,0,0,0,1c11.1,18.46,24.51,29.4,29.61,27.67a5.89,5.89,0,0,0,3.85-3.66c2.66-7.25-6.32-23.14-15.75-38.8a.92.92,0,1,0-1.58,1c8.79,14.6,18,30.72,15.6,37.2a4.09,4.09,0,0,1-2.72,2.55c-3.72,1.27-16.57-8.81-27.43-26.87a.93.93,0,0,0-1.27-.32A1,1,0,0,0,412,251.49Z"></path> <path class="cls-6" d="M390.61,245.82c-15.36,0-19-11.17-19.07-11.29l2.33-.73c.12.39,3.24,9.57,16.74,9.57,13.73,0,20.63-13.54,20.69-13.68l2.19,1.09C413.19,231.39,405.84,245.82,390.61,245.82Z"></path> <path class="cls-6" d="M428,271l-2.17-1.12c.12-.23,3-5.61,15.54-8.94l.63,2.36C430.68,266.3,428,271,428,271Z"></path> <path class="cls-5" d="M432.66,74.29c3.91,5.94,11.74,8.61,18.37,9.77,7,1.23,16.2,1.74,22.74-1.47.35-.17.66-.4,1-.59l-3.3-41.17c-.67-8.34-12-11.63-18-5.21L428.77,62.14C429.43,66.43,430.32,70.73,432.66,74.29Z"></path> <path class="cls-5" d="M312.45,86.82c6.08-1.62,12.86-4.06,17.13-8.94a15.44,15.44,0,0,0,3.61-8.64L305.53,43.93C299.06,38,288,42.2,288,50.57V88.22C295.84,90.09,303.78,89.15,312.45,86.82Z"></path> <path class="cls-6" d="M429,63.54l25.29-27.15a9.73,9.73,0,0,1,10.35-2.45,8.06,8.06,0,0,1,5.69,7l3.35,41.7.09,0a14.72,14.72,0,0,0,2.07-1.24l-3.26-40.61a10.38,10.38,0,0,0-7.2-8.94,12,12,0,0,0-12.74,3.05L428.55,60.71C428.69,61.65,428.84,62.6,429,63.54Z"></path> <path class="cls-6" d="M289.14,88.46V50.57a8.05,8.05,0,0,1,5.12-7.42,10,10,0,0,1,4.06-.86,9.57,9.57,0,0,1,6.45,2.47L333,70.56a26.77,26.77,0,0,0,.38-2.71L306.29,43.1a12,12,0,0,0-12.94-2,10.39,10.39,0,0,0-6.47,9.49V87.93C287.63,88.13,288.38,88.31,289.14,88.46Z"></path> <path class="cls-6" d="M316.32,74.88A4.52,4.52,0,0,0,319.14,67l-10.37-9.48c-4.66-4.27-12.64-1.25-12.64,4.79V76.6A4.51,4.51,0,0,0,303.61,80,21.59,21.59,0,0,1,316.32,74.88Z"></path> <path class="cls-6" d="M458.3,71.41a4.51,4.51,0,0,0,7.18-4l-1.14-14.21c-.48-6-8.67-8.39-13-3.76l-9.58,10.28a4.53,4.53,0,0,0,3.44,7.59A21.5,21.5,0,0,1,458.3,71.41Z"></path> <path class="cls-6" d="M298.35,89.82a97.14,97.14,0,0,1-10.45-.6,1,1,0,0,1-.89-1.1,1,1,0,0,1,1.11-.89c16.61,1.8,28.92-.55,36.6-7,6.27-5.26,7-11.37,7-11.72a1,1,0,0,1,1.84-.54c.52.77-.58,4.74-2.47,7.89C327.09,82.53,318.18,89.82,298.35,89.82Z"></path> <path class="cls-6" d="M456.49,85.53c-8.33,0-15-2-19.95-5.92-8.77-7-8.66-17.54-8.65-18a1.08,1.08,0,0,1,1-1,1,1,0,0,1,1,1c0,.1-.08,10,7.92,16.4,7.67,6.1,20,7.1,36.7,3a1,1,0,0,1,1.22.74A1,1,0,0,1,475,83,77.51,77.51,0,0,1,456.49,85.53Z"></path> <path class="cls-7" d="M488.3,107.86s-95.87,17.62-210.57,16.26c-4.71-2.24-1.41-30.91,4.88-35.1s48.56-1.39,104.32-5.72,93.18-13,97-8.15S492.42,104.15,488.3,107.86Z"></path> <path class="cls-8" d="M292.47,87.06s-5.87,15.48-1.79,37.14c7.13,0,15.78-.12,15.78-.12s-1.68-26.33.69-37.67C299.67,86.41,292.47,87.06,292.47,87.06Z"></path> <path class="cls-8" d="M327,86s-1.69,24,0,37.61l15.1-.58s-1.2-32.18,1.18-37.44C335.66,85.93,327,86,327,86Z"></path> <path class="cls-8" d="M363,84.8s-.86,27.53,1.69,37.16l18-1.41s-3.45-31.1-2.42-36.76C372.78,83.79,363,84.8,363,84.8Z"></path> <path class="cls-8" d="M397.33,82.43s4.11,30.43,3,36.65c4.64-.42,15.46-1.49,15.46-1.49s.12-21.81-1.62-36.83C408.82,80.76,397.33,82.43,397.33,82.43Z"></path> <path class="cls-8" d="M433.46,78.51s2.78,27.52,2.73,36.82c5.39,0,15.54-2,15.54-2s1.61-27.6.73-37.28C444.12,77.27,433.46,78.51,433.46,78.51Z"></path> <path class="cls-8" d="M469.75,74.13s4.62,27.1,2.57,36.34c4.88-.76,16-2.26,16-2.26s4.23-.47,1.57-16.64S483.84,73,479.73,73.11A89.62,89.62,0,0,0,469.75,74.13Z"></path> <path class="cls-6" d="M290.26,125.5q-6.24,0-12.54-.08l-.55-.12c-1.64-.79-2.58-3.16-2.87-7.27-.67-9.4,2.28-26.56,7.59-30.1,3.63-2.42,16.38-2.67,37.49-3.08,18.36-.36,41.2-.81,67.45-2.85,23.41-1.82,43.38-4.37,59.42-6.42,25.63-3.29,36.13-4.49,38.7-1.23,3.76,4.76,9.26,29.94,4.22,34.47l-.27.25-.36.07C487.61,109.31,398.24,125.5,290.26,125.5Zm-12.12-2.68c109.28,1.23,202.48-14.92,209.51-16.17,2.92-3.8-1-26-4.74-30.69-1.76-2.23-17.78-.18-36.33,2.2-16.07,2-36.07,4.61-59.55,6.44-26.33,2-49.21,2.49-67.59,2.85-19.22.37-33.1.65-36.11,2.65-4,2.66-7.11,18.38-6.43,27.74C277.12,121,277.74,122.41,278.14,122.82Z"></path> <path class="cls-6" d="M329.88,197.32a41.16,41.16,0,1,1,8.11-.8A41.67,41.67,0,0,1,329.88,197.32Zm0-76.73a35.59,35.59,0,0,0-29.59,15.85,35.55,35.55,0,0,0,29.57,55.24,35.59,35.59,0,0,0,29.59-15.85,35.55,35.55,0,0,0-29.57-55.24Z"></path> <circle class="cls-10" cx="329.89" cy="155.98" r="35.42"></circle> <path class="cls-5" d="M350.35,164.22a35.89,35.89,0,0,1,.66,8.59,27.52,27.52,0,0,0-30.5-38.32,27.08,27.08,0,0,0-4.42,1.28A35.43,35.43,0,0,1,350.35,164.22Z"></path> <path class="cls-6" d="M344.35,193.73a3.23,3.23,0,0,0-3.8-2.53l-7,1.4a3.22,3.22,0,0,0,.89,6.37l5.68,28.31,7.71-1.55-5.67-28.31A3.21,3.21,0,0,0,344.35,193.73Z"></path> <path class="cls-5" d="M349.45,256.74C338,238.68,334.57,222.25,337.84,219,345,212,357,229.5,369,248.51"></path> <path class="cls-7" d="M354.17,226.25c-.15.2-6.66,7.89-14.27,10.13a154.82,154.82,0,0,0,10.84,24.8l19.52-11Z"></path> <path class="cls-6" d="M349.53,257.66a.92.92,0,0,1-.86-.42c-11.53-18.2-15.31-35.09-11.48-38.87a5.89,5.89,0,0,1,5-1.81c7.67.87,17.86,16,27.63,31.46a.92.92,0,1,1-1.56,1c-9.12-14.4-19.42-29.83-26.28-30.62a4.07,4.07,0,0,0-3.49,1.29c-2.8,2.77.45,18.76,11.74,36.57a.93.93,0,0,1-.7,1.41Z"></path> <path class="cls-6" d="M338.61,235.11c9.69-3.77,14.58-9.19,14.62-9.24l1.83,1.62c-.21.24-5.33,5.92-15.57,9.9Z"></path> </g> </g> </svg> 