<?xml version="1.0" encoding="UTF-8"?> <svg xmlns="http://www.w3.org/2000/svg" xmlns:xlink="http://www.w3.org/1999/xlink" viewBox="0 0 360 683.35"> <defs> <style>.cls-1{fill:none;}.cls-12,.cls-2{fill:#0075c9;}.cls-3{clip-path:url(#clip-path);}.cls-4{fill:#005897;}.cls-5{fill:#481d77;}.cls-6{fill:url(#Безымянный_градиент_14);}.cls-7{fill:#fff;}.cls-8{fill:#101820;}.cls-9{fill:#ffb71b;}.cls-10{fill:#bf8914;}.cls-11{fill:#ea0029;}.cls-12{opacity:0.15;}</style> <clipPath id="clip-path"> <rect class="cls-1" width="360" height="683.35" rx="10"></rect> </clipPath> <linearGradient id="Безымянный_градиент_14" x1="180" x2="180" y2="683.35" gradientUnits="userSpaceOnUse"> <stop offset="0" stop-color="#0075c9"></stop> <stop offset="0.1" stop-color="#0075c9" stop-opacity="0.97"></stop> <stop offset="0.25" stop-color="#0075c9" stop-opacity="0.87"></stop> <stop offset="0.43" stop-color="#0075c9" stop-opacity="0.71"></stop> <stop offset="0.64" stop-color="#0075c9" stop-opacity="0.49"></stop> <stop offset="0.86" stop-color="#0075c9" stop-opacity="0.21"></stop> <stop offset="1" stop-color="#0075c9" stop-opacity="0"></stop> </linearGradient> </defs> <title>Монтажная область 12</title> <g id="Block_4" data-name="Block 4"> <rect class="cls-2" width="360" height="683.35" rx="10"></rect> <g class="cls-3"> <path class="cls-4" d="M89.13,159.22l-21.41,6.94A10.21,10.21,0,0,0,61.15,179l3.45,10.63a10.21,10.21,0,0,0,12.86,6.57L78,196l1.4,4.32c.6,1.84,3.34,2,4.35.21l2.35-4.15a11.25,11.25,0,0,1,5.83-4.9l6.93-2.25a10.2,10.2,0,0,0,6.56-12.85L102,165.78A10.21,10.21,0,0,0,89.13,159.22Z"></path> <path class="cls-5" d="M154.15,600.82c-3.15,0-5.67-3.17-5.63-7s2.62-6.91,5.77-6.88,5.67,3.16,5.63,7S157.3,600.85,154.15,600.82Zm17.37-16.74c.59-3.78-1.45-7.24-4.57-7.73s-6.11,2.19-6.7,6,1.45,7.24,4.56,7.73S170.93,587.86,171.52,584.08Zm14.26,21.68c3,.93,6.36-1.28,7.49-4.94s-.39-7.38-3.4-8.31-6.36,1.28-7.49,4.94S182.77,604.83,185.78,605.76Zm-6.87-13.51c3.11.49,6.11-2.18,6.7-6s-1.45-7.24-4.56-7.73-6.11,2.19-6.71,6S175.8,591.77,178.91,592.25Zm-.41,8.35a9.4,9.4,0,0,0-15.71-2l-5,6a5.95,5.95,0,0,0,6.27,9.51l.08,0a11.74,11.74,0,0,1,9.24,1.2,6,6,0,0,0,2.3.79,5.46,5.46,0,0,0,1.34,0,5.95,5.95,0,0,0,4.78-8.48Z"></path> <path class="cls-4" d="M254,310.83l-1.74,3.38-2.64,5.12a30.38,30.38,0,0,0-21.32,7.88L223,325l-3.52-1.43c-2-.81-4.19,1.1-3.47,3L219.81,337l5,13.4.1.29a9.61,9.61,0,0,0,1.48,2.62h0a10.38,10.38,0,0,0,1.21,1.27h0l.64.52a10.73,10.73,0,0,0,10.32,1.62l.62-.23,15.07-5.57,6.24-2.31.62-.23a10.7,10.7,0,0,0,6.79-7.94,9.75,9.75,0,0,0-.35-5.52l-.11-.29-4.95-13.4-3.82-10.33C257.91,308.94,255,308.92,254,310.83Zm-24.69,22.36,0-.06,0-.07,0-.06.06-.08,0,0a.12.12,0,0,1,.05-.05l0,0,0-.06,0,0,.08-.07h0l.09-.07,0,0,.07,0,0,0,.07,0h0l.11-.05h0a2.05,2.05,0,0,1,1.9.42l.2.15.15.14a6.52,6.52,0,0,1,1.65,2.56c.84,2.29.47,4.54-.84,5h0l-.14,0h-.05l-.1,0h-.35l-.15,0h-.05l-.1,0-.06,0-.11,0h0l-.16-.06h0l-.16-.08,0,0-.11-.06,0,0-.12-.08,0,0-.15-.11h0l-.16-.12,0,0-.11-.1-.05,0-.11-.11,0,0-.14-.16a6.91,6.91,0,0,1-1.27-2.17A7.22,7.22,0,0,1,229,336a5.94,5.94,0,0,1-.09-.8h0c0-.2,0-.4,0-.59h0c0-.05,0-.09,0-.13v0a4,4,0,0,1,.08-.5v0a.29.29,0,0,0,0-.09l0-.05a.29.29,0,0,0,0-.09l0,0,.05-.15a.14.14,0,0,0,0-.06l0-.06,0-.06,0-.06Zm22.48,9.08A5.68,5.68,0,0,1,241.59,346a1.27,1.27,0,0,1,.58-1.94l7.93-2.94A1.27,1.27,0,0,1,251.81,342.27Zm2.8-9.5c-1.31.48-3.06-1-3.9-3.27s-.47-4.54.83-5,3.06,1,3.9,3.27S255.92,332.29,254.61,332.77ZM220.83,350.5a.88.88,0,0,1,.4-1.34l.68-.25-4.14-11.19-1.26-3.42a20.54,20.54,0,0,0-4.8,3.26l-3.66-1.49-2.42-1a1.76,1.76,0,0,0-2.39,2.08l2.63,7.1,3.4,9.21.07.2a6.67,6.67,0,0,0,2.29,3,7.37,7.37,0,0,0,7.09,1.12l.42-.16,6.16-2.28a11.6,11.6,0,0,1-2.25-3.42A3.92,3.92,0,0,1,220.83,350.5Zm-5.7-3.7c-.9.33-2.1-.68-2.68-2.25s-.33-3.12.57-3.45,2.1.67,2.68,2.25S216,346.46,215.13,346.8Zm54.13-32.46,2.29,6.19,3,8,.07.17a5.87,5.87,0,0,1,.21,3.31,6.42,6.42,0,0,1-4.07,4.76l-.37.14-.14.05a11.87,11.87,0,0,0-.66-2.86l-.11-.29-2.39-6.48c.62-.43.76-1.66.3-2.91s-1.37-2.08-2.12-2l-.74-2-.48-1.31,1.44-2.8,1-2A1.54,1.54,0,0,1,269.26,314.34Z"></path> <path class="cls-4" d="M105,492.21l-2.46-1.37,2.51-4.48a1.53,1.53,0,0,0-1.74-2.29l-2.38.74-3.6,1.13a16.3,16.3,0,0,0-12.13-6.78l-.93-3.66-.61-2.42a1.53,1.53,0,0,0-2.86-.28l-2.51,4.48-2.45-1.37a3.86,3.86,0,0,0-5.24,1.48l-2.2,3.94a3.85,3.85,0,0,0,.14,4l2.91,4.44a7.27,7.27,0,0,0-.45,2.58,6.42,6.42,0,0,0,3.1,5.86l.36.19,4.18,2.35-2.59,4.63-4.63-2.59a4.31,4.31,0,0,0-5.87,1.66l-.9,1.61L85.2,517.52l.9-1.61a4.31,4.31,0,0,0-1.66-5.86l-4.63-2.59,2.59-4.64.64.36,3.55,2,.35.2a6.41,6.41,0,0,0,6.62-.42,7.69,7.69,0,0,0,2-1.74l5.3.15a3.83,3.83,0,0,0,3.47-2l2.2-3.93A3.86,3.86,0,0,0,105,492.21ZM74.14,479.87,76.21,481l-2.46,4.39-1.46-2.24Zm26.54,19.19L98,499l2.46-4.39,2.07,1.15Z"></path> <path class="cls-4" d="M49.75,306A12.9,12.9,0,0,0,41,321.36a12.77,12.77,0,0,0,5.62,7.79,14.19,14.19,0,0,1,5.2,5.7,1.62,1.62,0,0,0,1.78.87c1.42-.29,3-.67,4.65-1.17s3.19-1,4.54-1.53a1.62,1.62,0,0,0,1-1.71A13.29,13.29,0,0,1,65,323.89,12.84,12.84,0,0,0,49.75,306Zm-.16,5.22a8.05,8.05,0,0,0-4.07,9,8,8,0,0,0,1.91,3.53,1.17,1.17,0,1,1-1.71,1.6,10.28,10.28,0,0,1-2.47-4.56,10.42,10.42,0,0,1,5.26-11.63,1.17,1.17,0,1,1,1.08,2.08Zm15.62,25.68a6.34,6.34,0,0,1-11.66,3.42,1.42,1.42,0,0,1,.79-2.12l9.06-2.66A1.41,1.41,0,0,1,65.21,336.87Z"></path> <path class="cls-4" d="M299.57,162.07c-11.88-2.12-22.24,3.08-24.36,15s3.2,20.35,16.55,22.73a2.48,2.48,0,0,0,2.88-2l.36-2.06-2.53-.45c-8.66-1.54-13.26-7-11.46-17.18,1.64-9.27,9.89-12.85,17.75-11.45,8.28,1.47,13.05,7.5,11.71,15.05-.93,5.23-2.78,7.65-5,7.38-1.45-.3-1.75-1.11-1.36-3.3l2.18-12.27-1.05-.18a4.45,4.45,0,0,0-4.61,2.1,6.93,6.93,0,0,0-5.26-4.52c-4.33-.77-9.23,2.16-10.41,8.77s2.13,11.45,6.68,12.25a7.15,7.15,0,0,0,7.23-3.31c0,2.79,1.55,4.21,6.05,5,5.67,1,10.09-3.69,11.37-10.9C318.08,172.53,311,164.1,299.57,162.07Zm-3.08,23.67a4.16,4.16,0,0,1-7.85-1.4.92.92,0,0,1,1.08-1l6.1,1.08A.93.93,0,0,1,296.49,185.74Z"></path> <path class="cls-5" d="M299.41,506.91l-3.29,17.39a1.77,1.77,0,0,1-2.07,1.41l-5.79-1.09a1.77,1.77,0,0,1-1.41-2.07l3.28-17.4a1.77,1.77,0,0,1,2.07-1.41l5.8,1.1A1.77,1.77,0,0,1,299.41,506.91Zm25.93,7.55h0a5.39,5.39,0,0,0,2.08-3.3,4.42,4.42,0,0,0-3.52-5l-8.85-1.67c1.6-1,2.74-3.73,2.36-6.29l-.53-3.49a6.45,6.45,0,0,0-1.35-3.18c-1.58-1.88-4-2-5.29.51l-5.7,11.43a6.77,6.77,0,0,1-2.21,2.57l-.1.06a.86.86,0,0,0-.38.57l-2.93,15.5a.88.88,0,0,0,.68,1,11.61,11.61,0,0,1,3.61,1.89,21.2,21.2,0,0,0,8.23,3.94l.2,0c3.1.58,6.77,1.24,8.66-.6a3.93,3.93,0,0,0,1.05-3.15,5.81,5.81,0,0,0,2.21-5.2A6.14,6.14,0,0,0,325.34,514.46Z"></path> <path class="cls-4" d="M40.89,656.65c-.45-4.61-4.62-16.73-8.51-16.35-3.28.32-2.38,11.36-5.71,11.68-4.69.46-6.73-21.52-11.82-21-4.85.47-9.29,19.51-8.37,29a17.28,17.28,0,1,0,34.41-3.31Z"></path> <path class="cls-4" d="M340,666.83a15.29,15.29,0,0,0,13.55,27.29l2.9,5.19a2.14,2.14,0,1,0,3.73-2.08l-2.9-5.2A15.3,15.3,0,0,0,340,666.83Zm16,14.14a6.73,6.73,0,0,1-11.26,6.28,1.51,1.51,0,0,1,.33-2.39l8.74-4.87A1.5,1.5,0,0,1,355.93,681Z"></path> <rect class="cls-6" width="360" height="683.35" rx="10"></rect> <path class="cls-7" d="M308,674.19c8.32-6.94,21.47-14.84,26.81-16.62s9.89-2.44,13.74.13c4.08,2.72,5.65,8.44,5,12.85-1.52,10-14.75,14.82-19.55,16.58-16.81,6.15-33,.93-40.36-2.06"></path> <path class="cls-8" d="M317.35,691.23a65.14,65.14,0,0,1-24.21-5l.92-2.26c9.75,4,24.5,7.53,39.48,2,4.75-1.74,17.35-6.35,18.76-15.61.6-3.92-.74-9.18-4.45-11.66-3-2-6.74-2-12.67,0-5.11,1.7-18,9.4-26.41,16.39l-1.57-1.87c8.58-7.16,21.9-15.07,27.21-16.84,4.74-1.58,10.21-2.78,14.8.27s6.22,9.37,5.51,14.06c-1.64,10.69-15.23,15.66-20.34,17.53A49.11,49.11,0,0,1,317.35,691.23Z"></path> <path class="cls-9" d="M195.13,638.44a2.63,2.63,0,0,1,1.91,4.21c-7.92,10.23-13,26-13,38.68a26.2,26.2,0,0,0,26.2,26.2h73.11a26.2,26.2,0,0,0,26.2-26.2c0-12.72-2.36-25.67-12.15-38.77-6.11-8.17-7.65-22.71-5.62-22.89"></path> <path class="cls-10" d="M221.22,639.16s4.57,15.33,21.47,12.68,23-22.31,23-22.31Z"></path> <path class="cls-8" d="M283.39,708.75H210.28a27.45,27.45,0,0,1-27.42-27.42c0-13.38,5.31-29.22,13.22-39.43a1.33,1.33,0,0,0,.17-1.37,1.48,1.48,0,0,0-1.23-.87l.22-2.43a3.92,3.92,0,0,1,3.25,2.33,3.76,3.76,0,0,1-.48,3.84c-7.6,9.81-12.71,25.05-12.71,37.93a25,25,0,0,0,25,25h73.11a25,25,0,0,0,25-25c0-15.29-3.67-27-11.9-38-5.66-7.57-7.67-20.5-6.26-23.65a1.84,1.84,0,0,1,1.51-1.2l.22,2.44a.72.72,0,0,0,.51-.27c-.83,1.39.39,13.74,6,21.21,8.57,11.46,12.39,23.65,12.39,39.5A27.45,27.45,0,0,1,283.39,708.75Z"></path> <path class="cls-7" d="M337.42,509.34c-.43-4.81-2.11-11.35-4.21-18.07a134,134,0,0,1-23.54,6.87c-14.51,2.89-30.07,6.44-44.78,3.58a12.51,12.51,0,0,1-5-2.08c-35.31,9.95-75.19,6.23-111.75,5.54-.09.4-.2.79-.28,1.2-2,9.59-11.32,11.19-18.11,7.62l-.61,4.18a156.81,156.81,0,0,0-.89,38.66L131.63,591a59.73,59.73,0,0,0,60,53.75l73.21-7.25,30.48-3.16a59.71,59.71,0,0,0,48.19-64.62S338.82,524.72,337.42,509.34Z"></path> <path class="cls-8" d="M191.05,645.92a60.6,60.6,0,0,1-60.63-54.84L127,557a158.76,158.76,0,0,1,.9-39l.87-5.89,1.52.81a12.61,12.61,0,0,0,11,.62,9.94,9.94,0,0,0,5.36-7.4c.06-.27.12-.54.19-.8l.32-1.4,1,0c6.5.12,13.1.34,19.76.56,30.86,1,62.78,2.08,91.64-6l.57-.16.47.34a11.49,11.49,0,0,0,4.56,1.87c13.46,2.62,27.61-.22,41.29-3l3-.6a134.63,134.63,0,0,0,23.33-6.81l1.23-.49.39,1.26c2.43,7.78,3.86,13.95,4.26,18.32,1.37,15.19,6,59.86,6.06,60.31,3.13,31.15-18.48,60.11-49.18,66l-30.58,3.18-73.22,7.25ZM130.68,515.79l-.37,2.56a156.42,156.42,0,0,0-.89,38.37l3.43,34.11a58.09,58.09,0,0,0,58.74,52.65l73.1-7.24,30.48-3.16c29.37-5.59,50.1-33.4,47.1-63.29,0-.45-4.69-45.13-6.06-60.34h0a89,89,0,0,0-3.77-16.56,137.42,137.42,0,0,1-22.54,6.45l-3,.61c-13.91,2.79-28.3,5.68-42.23,3a14.08,14.08,0,0,1-5-1.95c-29.09,8.07-61,7-91.85,6-6.31-.21-12.57-.41-18.73-.54,0,.07,0,.14-.05.21-1.11,5.43-4.26,8-6.71,9.11A14.73,14.73,0,0,1,130.68,515.79Z"></path> <path d="M174.68,530.67a1.22,1.22,0,0,1-.3-2.41c5.21-1.36,12.29-7,12.36-7a1.22,1.22,0,1,1,1.52,1.9c-.3.25-7.55,6-13.27,7.51A1.55,1.55,0,0,1,174.68,530.67Z"></path> <path d="M273.73,524.55a1.33,1.33,0,0,1-.34,0c-.38-.12-9.25-2.78-13.74-6.62a1.22,1.22,0,0,1,1.59-1.86c4.1,3.5,12.76,6.11,12.84,6.13a1.23,1.23,0,0,1-.35,2.4Z"></path> <path class="cls-9" d="M328,487s-8.66-22.92-19.6-28.77S289,463.54,284.19,463s-28.93-40-53-38.19-59.31,41.87-67.89,45.83-21.65-.51-27.76,27.25C162,517,295.17,500,328,487Z"></path> <path class="cls-8" d="M187,507.53c-23.86,0-43.57-2.41-52.21-8.62l-.65-.47.17-.79C139.28,475.2,149,473,156.87,471.3a29.69,29.69,0,0,0,5.89-1.74c2.43-1.12,7.67-5.81,13.74-11.24,14.87-13.31,37.35-33.42,54.57-34.7,17.73-1.24,35,18.42,45.37,30.2,3.2,3.64,6.84,7.77,7.89,8,1.24.14,3.27-1,5.41-2.28,4.83-2.78,11.44-6.6,19.24-2.42,11.23,6,19.81,28.46,20.17,29.42l.43,1.12-1.12.44C306.78,496.67,237.6,507.53,187,507.53ZM136.9,497.38c27.61,18.07,156.25,1.25,189.52-11.11-1.89-4.63-9.53-22.15-18.59-27-6.61-3.53-12.29-.25-16.87,2.39-2.61,1.51-4.85,2.81-6.9,2.59-1.8-.19-4.2-2.84-9.45-8.82-10.06-11.44-26.92-30.66-43.35-29.37s-38.51,21-53.13,34.08c-6.72,6-11.58,10.37-14.34,11.64a31,31,0,0,1-6.39,1.9C150,475.33,141.55,477.2,136.9,497.38Z"></path> <ellipse class="cls-7" cx="182.59" cy="563.3" rx="11.83" ry="20.7" transform="matrix(1, -0.09, 0.09, 1, -50.61, 19)"></ellipse> <path class="cls-8" d="M183.84,585.16c-3.34,0-6.59-2-9.24-5.82A33.86,33.86,0,0,1,171.82,549c2.06-4.51,5.17-7.18,8.78-7.51s7.15,1.73,10,5.79a31.23,31.23,0,0,1,5,14.85c1.12,12.24-3.71,22.35-11,23Zm-2.5-41.28-.52,0c-2.69.25-5.1,2.41-6.78,6.09a31.45,31.45,0,0,0,2.56,28c2.32,3.31,5.06,5,7.77,4.76,5.73-.53,9.75-9.85,8.79-20.37a28.84,28.84,0,0,0-4.57-13.67C186.42,545.56,183.86,543.88,181.34,543.88Z"></path> <ellipse class="cls-7" cx="288.61" cy="553.59" rx="11.83" ry="20.7" transform="translate(-49.29 28.63) rotate(-5.23)"></ellipse> <path class="cls-8" d="M289.86,575.45c-3.34,0-6.6-2-9.25-5.82a31.34,31.34,0,0,1-5-14.85c-1.12-12.24,3.71-22.35,11-23,3.57-.3,7.15,1.72,10,5.79a33.78,33.78,0,0,1,2.78,30.36c-2.05,4.51-5.17,7.18-8.77,7.51Q290.24,575.45,289.86,575.45Zm-2.51-41.28-.52,0c-5.72.53-9.75,9.85-8.78,20.37a28.66,28.66,0,0,0,4.57,13.67c2.32,3.31,5.06,5,7.77,4.76s5.09-2.41,6.77-6.09A31.45,31.45,0,0,0,294.6,539C292.43,535.85,289.88,534.17,287.35,534.17Z"></path> <path class="cls-8" d="M186.75,557.33a3.57,3.57,0,0,1-2.58,1.49,3.61,3.61,0,0,1-3.93-3.27,3.53,3.53,0,0,1,.32-1.8c-2.48,1.16-4,5.31-3.6,10.07.5,5.44,3.42,9.63,6.54,9.35s5.23-4.94,4.73-10.39A15.37,15.37,0,0,0,186.75,557.33Z"></path> <path class="cls-8" d="M292.77,547.62a3.6,3.6,0,0,1-6.51-1.78,3.63,3.63,0,0,1,.31-1.8c-2.47,1.16-4,5.31-3.6,10.07.5,5.44,3.43,9.63,6.54,9.35s5.24-4.94,4.74-10.39A15.58,15.58,0,0,0,292.77,547.62Z"></path> <path class="cls-8" d="M248.06,587.25c4-.3,15.34,6.76,14.47,10.66-2.47,11.16-12,18.52-24,19.42s-22.71-4.93-26.83-15.59c-1.44-3.73,13.63-16.28,17.62-16.58"></path> <path class="cls-11" d="M217.1,610s8.17-13.13,23.31-6.36c0,0,10.93-7.29,20.78-1.52-9,12.67-10.87,12.72-20.78,15S217.1,610,217.1,610Z"></path> <path class="cls-8" d="M236.11,618.64c-11.74,0-21.61-6.27-25.54-16.46a4.94,4.94,0,0,1,.13-4.57c1-1.52,3-2.4,6-2.63l.18,2.44c-2.15.16-3.62.69-4.13,1.5a2.69,2.69,0,0,0,.09,2.38c3.82,9.88,13.86,15.7,25.6,14.81s20.6-8.12,22.89-18.46c.34-1.51-.14-2.06-.29-2.24-.7-.8-2.36-1.15-4.67-1L256.2,592c3.19-.24,5.45.37,6.69,1.8a4.78,4.78,0,0,1,.83,4.37c-2.53,11.41-12.37,19.41-25.09,20.37Q237.36,618.64,236.11,618.64Z"></path> <path class="cls-8" d="M237.77,569.49l-6.84.51a2.46,2.46,0,0,0-1.85,3.84L233,579.5a2.46,2.46,0,0,0,4.25-.32l3-6.17A2.46,2.46,0,0,0,237.77,569.49Z"></path> <line class="cls-7" x1="234.74" y1="575.16" x2="235.64" y2="587.16"></line> <rect x="233.97" y="575.14" width="2.44" height="12.03" transform="translate(-42.99 19.31) rotate(-4.31)"></rect> <path class="cls-8" d="M234,577.9c4.82,2,3.47,21-14.39,25.28-17.63,4.28-21.83-22.49-21.83-22.49s7.4,12.58,15.26,11C222.84,589.83,223.29,573.55,234,577.9Z"></path> <path class="cls-8" d="M235.31,577.77c-4.35,2.85.63,21.23,19,22,18.11.8,17.08-26.27,17.08-26.27s-4.84,13.77-12.84,13.78C248.57,587.33,245,571.44,235.31,577.77Z"></path> <path class="cls-7" d="M262.49,659.46c11,18.33,24.17,28.75,28.52,27.28,9.47-3.21-.78-21.84-12.39-41.11"></path> <path class="cls-9" d="M273.87,679c6-5.37,19.27-10.59,19.27-10.59L278.6,643.78,258.87,660Z"></path> <path class="cls-8" d="M261.71,659a.92.92,0,0,0,0,1c11.1,18.46,24.51,29.4,29.61,27.67a5.93,5.93,0,0,0,3.86-3.66c2.65-7.25-6.33-23.14-15.76-38.8a.91.91,0,0,0-1.26-.31.93.93,0,0,0-.32,1.27c8.79,14.6,18,30.72,15.6,37.2a4.05,4.05,0,0,1-2.71,2.55c-3.73,1.27-16.57-8.81-27.44-26.87a.93.93,0,0,0-1.27-.32A.81.81,0,0,0,261.71,659Z"></path> <path class="cls-8" d="M240.3,653.31c-15.36,0-19-11.18-19.08-11.29l2.33-.74c.13.39,3.24,9.58,16.75,9.58,13.72,0,20.62-13.55,20.69-13.68l2.19,1.09C262.87,638.88,255.52,653.31,240.3,653.31Z"></path> <path class="cls-8" d="M277.66,678.49l-2.17-1.12c.12-.23,3-5.62,15.54-8.94l.63,2.36C280.36,673.79,277.69,678.44,277.66,678.49Z"></path> <path class="cls-7" d="M282.35,481.78c3.9,5.94,11.73,8.6,18.36,9.77,7,1.23,16.2,1.74,22.74-1.47.35-.18.66-.4,1-.6l-3.3-41.16c-.67-8.34-12-11.63-18-5.22l-24.7,26.53C279.11,473.92,280,478.22,282.35,481.78Z"></path> <path class="cls-7" d="M162.13,494.31c6.09-1.63,12.87-4.06,17.13-8.94a15.55,15.55,0,0,0,3.62-8.64l-27.67-25.31c-6.46-5.92-17.52-1.73-17.52,6.64v37.65C145.52,497.57,153.47,496.63,162.13,494.31Z"></path> <path class="cls-8" d="M278.69,471,304,443.87a9.77,9.77,0,0,1,10.35-2.45,8.08,8.08,0,0,1,5.7,7l3.34,41.7.09,0a15.86,15.86,0,0,0,2.08-1.24l-3.26-40.61a10.39,10.39,0,0,0-7.21-8.94,12,12,0,0,0-12.74,3L278.24,468.2C278.38,469.14,278.53,470.08,278.69,471Z"></path> <path class="cls-8" d="M138.82,496V458.06a8.06,8.06,0,0,1,5.12-7.42,10,10,0,0,1,4.06-.86,9.53,9.53,0,0,1,6.45,2.47l28.21,25.8c.16-.89.29-1.79.37-2.71L156,450.58a12,12,0,0,0-12.95-2,10.39,10.39,0,0,0-6.47,9.49v37.35C137.32,495.62,138.07,495.8,138.82,496Z"></path> <path class="cls-8" d="M166,482.37a4.52,4.52,0,0,0,2.82-7.84l-10.37-9.48c-4.66-4.27-12.64-1.25-12.64,4.79v14.25a4.51,4.51,0,0,0,7.48,3.39A21.55,21.55,0,0,1,166,482.37Z"></path> <path class="cls-8" d="M308,478.9a4.51,4.51,0,0,0,7.18-4L314,460.71c-.48-6-8.67-8.39-13-3.77l-9.58,10.29a4.53,4.53,0,0,0,3.44,7.59A21.5,21.5,0,0,1,308,478.9Z"></path> <path class="cls-8" d="M148,497.31a97.28,97.28,0,0,1-10.45-.6,1,1,0,0,1-.88-1.11,1,1,0,0,1,1.1-.89c16.62,1.81,28.93-.54,36.6-7,6.27-5.26,7-11.37,7-11.72a1,1,0,0,1,.44-.81,1,1,0,0,1,1.39.27c.53.77-.57,4.74-2.47,7.89C176.78,490,167.86,497.31,148,497.31Z"></path> <path class="cls-8" d="M306.17,493c-8.33,0-15-2-19.94-5.92-8.77-7-8.66-17.54-8.65-18a1.07,1.07,0,0,1,1-1,1,1,0,0,1,1,1c0,.1-.08,10,7.92,16.39,7.68,6.11,20,7.11,36.7,3a1,1,0,0,1,.49,1.95A77.52,77.52,0,0,1,306.17,493Z"></path> <path class="cls-9" d="M338,515.34S242.12,533,127.42,531.61c-4.71-2.25-1.42-30.92,4.87-35.11s48.57-1.38,104.32-5.71,93.18-13,97-8.15S342.1,511.64,338,515.34Z"></path> <path class="cls-10" d="M142.15,494.54s-5.86,15.49-1.79,37.14c7.13,0,15.79-.11,15.79-.11s-1.68-26.33.68-37.67C149.36,493.9,142.15,494.54,142.15,494.54Z"></path> <path class="cls-10" d="M176.7,493.48s-1.69,24,0,37.61l15.09-.58s-1.2-32.19,1.19-37.44C185.34,493.42,176.7,493.48,176.7,493.48Z"></path> <path class="cls-10" d="M212.68,492.29s-.86,27.52,1.69,37.16l18-1.41s-3.45-31.1-2.41-36.77C222.46,491.27,212.68,492.29,212.68,492.29Z"></path> <path class="cls-10" d="M247,489.91s4.11,30.43,3,36.66c4.64-.43,15.47-1.49,15.47-1.49s.11-21.81-1.63-36.83C258.5,488.25,247,489.91,247,489.91Z"></path> <path class="cls-10" d="M283.14,486s2.78,27.53,2.73,36.83c5.39,0,15.55-2,15.55-2s1.6-27.6.73-37.29C293.81,484.76,283.14,486,283.14,486Z"></path> <path class="cls-10" d="M319.43,481.62s4.62,27.1,2.57,36.34c4.88-.76,16-2.26,16-2.26s4.24-.47,1.57-16.64-6.06-18.53-10.18-18.46A87.38,87.38,0,0,0,319.43,481.62Z"></path> <path class="cls-8" d="M139.94,533q-6.23,0-12.54-.07l-.54-.13c-1.64-.78-2.58-3.15-2.88-7.26-.67-9.4,2.28-26.56,7.59-30.1,3.64-2.42,16.38-2.67,37.5-3.09,18.35-.35,41.19-.8,67.44-2.84,23.42-1.82,43.38-4.37,59.42-6.43,25.63-3.28,36.14-4.48,38.7-1.23,3.77,4.77,9.26,29.95,4.23,34.48l-.28.25-.36.06C337.3,516.79,247.92,533,139.94,533Zm-12.12-2.67c109.28,1.22,202.49-14.92,209.51-16.17,2.92-3.81-1-26-4.74-30.69-1.76-2.23-17.78-.18-36.33,2.19-16.07,2.06-36.07,4.62-59.55,6.44-26.32,2.05-49.21,2.5-67.59,2.86-19.22.37-33.1.64-36.11,2.65-4,2.65-7.1,18.38-6.43,27.74C126.81,528.51,127.42,529.9,127.82,530.31Z"></path> <path class="cls-8" d="M179.56,604.81a41.21,41.21,0,1,1,8.11-.81A41.25,41.25,0,0,1,179.56,604.81Zm0-76.73A35.59,35.59,0,0,0,150,543.93a35.54,35.54,0,0,0,29.57,55.23,35.54,35.54,0,0,0,0-71.08Z"></path> <circle class="cls-12" cx="179.57" cy="563.46" r="35.42"></circle> <path class="cls-7" d="M200,571.71a35.34,35.34,0,0,1,.66,8.59,27.49,27.49,0,0,0-34.91-37A35.42,35.42,0,0,1,200,571.71Z"></path> <path class="cls-8" d="M194,601.22a3.24,3.24,0,0,0-3.81-2.53l-7,1.39a3.23,3.23,0,0,0,.89,6.38l5.68,28.31,7.72-1.55-5.68-28.31A3.23,3.23,0,0,0,194,601.22Z"></path> <path class="cls-7" d="M199.13,664.23c-11.44-18.06-14.87-34.49-11.61-37.72,7.11-7,19.17,10.48,31.21,29.49"></path> <path class="cls-9" d="M203.86,633.74c-.16.2-6.66,7.89-14.27,10.12a153.66,153.66,0,0,0,10.84,24.81l19.51-11Z"></path> <path class="cls-8" d="M199.21,665.15a.91.91,0,0,1-.86-.43c-11.53-18.19-15.3-35.08-11.48-38.86a5.9,5.9,0,0,1,5-1.81c7.67.87,17.85,16,27.63,31.46a.92.92,0,0,1-1.56,1c-9.12-14.41-19.42-29.84-26.28-30.62a4.09,4.09,0,0,0-3.5,1.29c-2.8,2.77.46,18.76,11.74,36.56a.92.92,0,0,1-.7,1.42Z"></path> <path class="cls-8" d="M188.29,642.6c9.7-3.77,14.58-9.19,14.63-9.24l1.82,1.62c-.21.24-5.32,5.92-15.56,9.9Z"></path> </g> </g> </svg> 