<svg class="schedule__svg" xmlns="http://www.w3.org/2000/svg"
                            xmlns:xlink="http://www.w3.org/1999/xlink" width="60px" height="39px" viewBox="0 0 40 26"
                            version="1.1">
                            <g>
                                <path style=" stroke:none;fill-rule:nonzero;fill:rgb(100%,100%,100%);fill-opacity:1;"
                                    d="M 34.789062 14.597656 C 34.789062 6.535156 28.167969 0 20 0 C 11.832031 0 5.210938 6.535156 5.210938 14.597656 Z M 34.789062 14.597656 " />
                                <path style=" stroke:none;fill-rule:nonzero;fill:rgb(100%,100%,100%);fill-opacity:1;"
                                    d="M 0.949219 16.472656 L 39.050781 16.472656 C 39.550781 16.472656 39.953125 16.871094 39.953125 17.367188 C 39.953125 17.859375 39.550781 18.257812 39.050781 18.257812 L 0.949219 18.257812 C 0.449219 18.257812 0.046875 17.859375 0.046875 17.367188 C 0.046875 16.871094 0.449219 16.472656 0.949219 16.472656 Z M 0.949219 16.472656 " />
                                <path style=" stroke:none;fill-rule:nonzero;fill:rgb(100%,100%,100%);fill-opacity:1;"
                                    d="M 6.722656 20.339844 L 33.277344 20.339844 C 33.777344 20.339844 34.183594 20.742188 34.183594 21.234375 C 34.183594 21.726562 33.777344 22.125 33.277344 22.125 L 6.722656 22.125 C 6.222656 22.125 5.816406 21.726562 5.816406 21.234375 C 5.816406 20.742188 6.222656 20.339844 6.722656 20.339844 Z M 6.722656 20.339844 " />
                                <path style=" stroke:none;fill-rule:nonzero;fill:rgb(100%,100%,100%);fill-opacity:1;"
                                    d="M 12.269531 24.210938 L 27.730469 24.210938 C 28.230469 24.210938 28.636719 24.609375 28.636719 25.101562 C 28.636719 25.59375 28.230469 25.996094 27.730469 25.996094 L 12.269531 25.996094 C 11.769531 25.996094 11.363281 25.59375 11.363281 25.101562 C 11.363281 24.609375 11.769531 24.210938 12.269531 24.210938 Z M 12.269531 24.210938 " />
                            </g>
                        </svg>